ISO-10303-21;
HEADER;
FILE_DESCRIPTION(('KiCad electronic assembly'),'2;1');
FILE_NAME('reel_right_bottom.step','2026-07-25T18:45:13',('Pcbnew'),(
    'Kicad'),'Open CASCADE STEP processor 7.9','KiCad to STEP converter'
  ,'Unknown');
FILE_SCHEMA(('AUTOMOTIVE_DESIGN { 1 0 10303 214 1 1 1 1 }'));
ENDSEC;
DATA;
#1 = APPLICATION_PROTOCOL_DEFINITION('international standard',
  'automotive_design',2000,#2);
#2 = APPLICATION_CONTEXT(
  'core data for automotive mechanical design processes');
#3 = SHAPE_DEFINITION_REPRESENTATION(#4,#10);
#4 = PRODUCT_DEFINITION_SHAPE('','',#5);
#5 = PRODUCT_DEFINITION('design','',#6,#9);
#6 = PRODUCT_DEFINITION_FORMATION('','',#7);
#7 = PRODUCT('reel_right_bottom 1','reel_right_bottom 1','',(#8));
#8 = PRODUCT_CONTEXT('',#2,'mechanical');
#9 = PRODUCT_DEFINITION_CONTEXT('part definition',#2,'design');
#10 = SHAPE_REPRESENTATION('',(#11,#15),#19);
#11 = AXIS2_PLACEMENT_3D('',#12,#13,#14);
#12 = CARTESIAN_POINT('',(0.,0.,0.));
#13 = DIRECTION('',(0.,0.,1.));
#14 = DIRECTION('',(1.,0.,-0.));
#15 = AXIS2_PLACEMENT_3D('',#16,#17,#18);
#16 = CARTESIAN_POINT('',(0.,0.,0.));
#17 = DIRECTION('',(0.,0.,1.));
#18 = DIRECTION('',(1.,0.,-0.));
#19 = ( GEOMETRIC_REPRESENTATION_CONTEXT(3) 
GLOBAL_UNCERTAINTY_ASSIGNED_CONTEXT((#23)) GLOBAL_UNIT_ASSIGNED_CONTEXT(
(#20,#21,#22)) REPRESENTATION_CONTEXT('Context #1',
  '3D Context with UNIT and UNCERTAINTY') );
#20 = ( LENGTH_UNIT() NAMED_UNIT(*) SI_UNIT(.MILLI.,.METRE.) );
#21 = ( NAMED_UNIT(*) PLANE_ANGLE_UNIT() SI_UNIT($,.RADIAN.) );
#22 = ( NAMED_UNIT(*) SI_UNIT($,.STERADIAN.) SOLID_ANGLE_UNIT() );
#23 = UNCERTAINTY_MEASURE_WITH_UNIT(LENGTH_MEASURE(1.E-07),#20,
  'distance_accuracy_value','confusion accuracy');
#24 = PRODUCT_RELATED_PRODUCT_CATEGORY('part',$,(#7));
#25 = SHAPE_DEFINITION_REPRESENTATION(#26,#32);
#26 = PRODUCT_DEFINITION_SHAPE('','',#27);
#27 = PRODUCT_DEFINITION('design','',#28,#31);
#28 = PRODUCT_DEFINITION_FORMATION('','',#29);
#29 = PRODUCT('reel_right_bottom_PCB','reel_right_bottom_PCB','',(#30));
#30 = PRODUCT_CONTEXT('',#2,'mechanical');
#31 = PRODUCT_DEFINITION_CONTEXT('part definition',#2,'design');
#32 = ADVANCED_BREP_SHAPE_REPRESENTATION('',(#11,#33),#1909);
#33 = MANIFOLD_SOLID_BREP('',#34);
#34 = CLOSED_SHELL('',(#35,#77,#108,#141,#594,#1047,#1064,#1081,#1098,
    #1115,#1132,#1149,#1166,#1183,#1200,#1217,#1234,#1251,#1268,#1285,
    #1302,#1319,#1336,#1353,#1370,#1387,#1404,#1421,#1438,#1455,#1472,
    #1489,#1506,#1523,#1540,#1557,#1574,#1591,#1608,#1625,#1642,#1659,
    #1676,#1693,#1710,#1727,#1744,#1761,#1778,#1795,#1812,#1829,#1841,
    #1858,#1875,#1892));
#35 = ADVANCED_FACE('',(#36),#72,.T.);
#36 = FACE_BOUND('',#37,.T.);
#37 = EDGE_LOOP('',(#38,#48,#57,#65));
#38 = ORIENTED_EDGE('',*,*,#39,.T.);
#39 = EDGE_CURVE('',#40,#42,#44,.T.);
#40 = VERTEX_POINT('',#41);
#41 = CARTESIAN_POINT('',(126.,-45.5,0.));
#42 = VERTEX_POINT('',#43);
#43 = CARTESIAN_POINT('',(126.,-45.5,2.8));
#44 = LINE('',#45,#46);
#45 = CARTESIAN_POINT('',(126.,-45.5,0.));
#46 = VECTOR('',#47,1.);
#47 = DIRECTION('',(0.,0.,1.));
#48 = ORIENTED_EDGE('',*,*,#49,.T.);
#49 = EDGE_CURVE('',#42,#50,#52,.T.);
#50 = VERTEX_POINT('',#51);
#51 = CARTESIAN_POINT('',(126.5,-46.,2.8));
#52 = CIRCLE('',#53,0.500001333575);
#53 = AXIS2_PLACEMENT_3D('',#54,#55,#56);
#54 = CARTESIAN_POINT('',(125.99999866642,-46.00000133357,2.8));
#55 = DIRECTION('',(0.,0.,-1.));
#56 = DIRECTION('',(2.667139162621E-06,0.999999999996,0.));
#57 = ORIENTED_EDGE('',*,*,#58,.F.);
#58 = EDGE_CURVE('',#59,#50,#61,.T.);
#59 = VERTEX_POINT('',#60);
#60 = CARTESIAN_POINT('',(126.5,-46.,0.));
#61 = LINE('',#62,#63);
#62 = CARTESIAN_POINT('',(126.5,-46.,0.));
#63 = VECTOR('',#64,1.);
#64 = DIRECTION('',(0.,0.,1.));
#65 = ORIENTED_EDGE('',*,*,#66,.F.);
#66 = EDGE_CURVE('',#40,#59,#67,.T.);
#67 = CIRCLE('',#68,0.500001333575);
#68 = AXIS2_PLACEMENT_3D('',#69,#70,#71);
#69 = CARTESIAN_POINT('',(125.99999866642,-46.00000133357,0.));
#70 = DIRECTION('',(0.,0.,-1.));
#71 = DIRECTION('',(2.667139162621E-06,0.999999999996,0.));
#72 = CYLINDRICAL_SURFACE('',#73,0.500001333575);
#73 = AXIS2_PLACEMENT_3D('',#74,#75,#76);
#74 = CARTESIAN_POINT('',(125.99999866642,-46.00000133357,0.));
#75 = DIRECTION('',(0.,0.,-1.));
#76 = DIRECTION('',(2.667139162621E-06,0.999999999996,0.));
#77 = ADVANCED_FACE('',(#78),#103,.T.);
#78 = FACE_BOUND('',#79,.T.);
#79 = EDGE_LOOP('',(#80,#90,#96,#97));
#80 = ORIENTED_EDGE('',*,*,#81,.T.);
#81 = EDGE_CURVE('',#82,#84,#86,.T.);
#82 = VERTEX_POINT('',#83);
#83 = CARTESIAN_POINT('',(106.5,-45.5,0.));
#84 = VERTEX_POINT('',#85);
#85 = CARTESIAN_POINT('',(106.5,-45.5,2.8));
#86 = LINE('',#87,#88);
#87 = CARTESIAN_POINT('',(106.5,-45.5,0.));
#88 = VECTOR('',#89,1.);
#89 = DIRECTION('',(0.,0.,1.));
#90 = ORIENTED_EDGE('',*,*,#91,.T.);
#91 = EDGE_CURVE('',#84,#42,#92,.T.);
#92 = LINE('',#93,#94);
#93 = CARTESIAN_POINT('',(106.5,-45.5,2.8));
#94 = VECTOR('',#95,1.);
#95 = DIRECTION('',(1.,0.,0.));
#96 = ORIENTED_EDGE('',*,*,#39,.F.);
#97 = ORIENTED_EDGE('',*,*,#98,.F.);
#98 = EDGE_CURVE('',#82,#40,#99,.T.);
#99 = LINE('',#100,#101);
#100 = CARTESIAN_POINT('',(106.5,-45.5,0.));
#101 = VECTOR('',#102,1.);
#102 = DIRECTION('',(1.,0.,0.));
#103 = PLANE('',#104);
#104 = AXIS2_PLACEMENT_3D('',#105,#106,#107);
#105 = CARTESIAN_POINT('',(106.5,-45.5,0.));
#106 = DIRECTION('',(0.,1.,0.));
#107 = DIRECTION('',(1.,0.,0.));
#108 = ADVANCED_FACE('',(#109),#136,.F.);
#109 = FACE_BOUND('',#110,.T.);
#110 = EDGE_LOOP('',(#111,#112,#121,#129));
#111 = ORIENTED_EDGE('',*,*,#58,.T.);
#112 = ORIENTED_EDGE('',*,*,#113,.T.);
#113 = EDGE_CURVE('',#50,#114,#116,.T.);
#114 = VERTEX_POINT('',#115);
#115 = CARTESIAN_POINT('',(127.,-46.5,2.8));
#116 = CIRCLE('',#117,0.500001333575);
#117 = AXIS2_PLACEMENT_3D('',#118,#119,#120);
#118 = CARTESIAN_POINT('',(127.00000133357,-45.99999866642,2.8));
#119 = DIRECTION('',(0.,0.,1.));
#120 = DIRECTION('',(-0.999999999996,-2.667139162621E-06,0.));
#121 = ORIENTED_EDGE('',*,*,#122,.F.);
#122 = EDGE_CURVE('',#123,#114,#125,.T.);
#123 = VERTEX_POINT('',#124);
#124 = CARTESIAN_POINT('',(127.,-46.5,0.));
#125 = LINE('',#126,#127);
#126 = CARTESIAN_POINT('',(127.,-46.5,0.));
#127 = VECTOR('',#128,1.);
#128 = DIRECTION('',(0.,0.,1.));
#129 = ORIENTED_EDGE('',*,*,#130,.F.);
#130 = EDGE_CURVE('',#59,#123,#131,.T.);
#131 = CIRCLE('',#132,0.500001333575);
#132 = AXIS2_PLACEMENT_3D('',#133,#134,#135);
#133 = CARTESIAN_POINT('',(127.00000133357,-45.99999866642,0.));
#134 = DIRECTION('',(0.,0.,1.));
#135 = DIRECTION('',(-0.999999999996,-2.667139162621E-06,0.));
#136 = CYLINDRICAL_SURFACE('',#137,0.500001333575);
#137 = AXIS2_PLACEMENT_3D('',#138,#139,#140);
#138 = CARTESIAN_POINT('',(127.00000133357,-45.99999866642,0.));
#139 = DIRECTION('',(-0.,-0.,-1.));
#140 = DIRECTION('',(-0.999999999996,-2.667139162621E-06,0.));
#141 = ADVANCED_FACE('',(#142,#545,#556,#567,#578),#589,.F.);
#142 = FACE_BOUND('',#143,.F.);
#143 = EDGE_LOOP('',(#144,#145,#146,#155,#163,#172,#180,#189,#197,#206,
    #214,#223,#231,#240,#248,#257,#265,#274,#282,#291,#299,#308,#316,
    #325,#334,#342,#351,#359,#368,#376,#385,#393,#402,#410,#419,#427,
    #436,#444,#453,#461,#470,#478,#487,#495,#504,#512,#521,#529,#538,
    #544));
#144 = ORIENTED_EDGE('',*,*,#66,.F.);
#145 = ORIENTED_EDGE('',*,*,#98,.F.);
#146 = ORIENTED_EDGE('',*,*,#147,.F.);
#147 = EDGE_CURVE('',#148,#82,#150,.T.);
#148 = VERTEX_POINT('',#149);
#149 = CARTESIAN_POINT('',(105.5,-46.5,0.));
#150 = CIRCLE('',#151,0.999999252925);
#151 = AXIS2_PLACEMENT_3D('',#152,#153,#154);
#152 = CARTESIAN_POINT('',(106.49999925292,-46.49999925292,0.));
#153 = DIRECTION('',(0.,0.,-1.));
#154 = DIRECTION('',(-1.,-7.470757349539E-07,-0.));
#155 = ORIENTED_EDGE('',*,*,#156,.F.);
#156 = EDGE_CURVE('',#157,#148,#159,.T.);
#157 = VERTEX_POINT('',#158);
#158 = CARTESIAN_POINT('',(105.5,-47.,0.));
#159 = LINE('',#160,#161);
#160 = CARTESIAN_POINT('',(105.5,-47.,0.));
#161 = VECTOR('',#162,1.);
#162 = DIRECTION('',(0.,1.,0.));
#163 = ORIENTED_EDGE('',*,*,#164,.F.);
#164 = EDGE_CURVE('',#165,#157,#167,.T.);
#165 = VERTEX_POINT('',#166);
#166 = CARTESIAN_POINT('',(104.5,-48.,0.));
#167 = CIRCLE('',#168,0.999999252925);
#168 = AXIS2_PLACEMENT_3D('',#169,#170,#171);
#169 = CARTESIAN_POINT('',(104.50000074707,-47.00000074707,0.));
#170 = DIRECTION('',(0.,0.,1.));
#171 = DIRECTION('',(-7.470757349539E-07,-1.,0.));
#172 = ORIENTED_EDGE('',*,*,#173,.F.);
#173 = EDGE_CURVE('',#174,#165,#176,.T.);
#174 = VERTEX_POINT('',#175);
#175 = CARTESIAN_POINT('',(86.25,-48.,0.));
#176 = LINE('',#177,#178);
#177 = CARTESIAN_POINT('',(86.25,-48.,0.));
#178 = VECTOR('',#179,1.);
#179 = DIRECTION('',(1.,0.,0.));
#180 = ORIENTED_EDGE('',*,*,#181,.F.);
#181 = EDGE_CURVE('',#182,#174,#184,.T.);
#182 = VERTEX_POINT('',#183);
#183 = CARTESIAN_POINT('',(85.25,-49.,0.));
#184 = CIRCLE('',#185,0.999999252925);
#185 = AXIS2_PLACEMENT_3D('',#186,#187,#188);
#186 = CARTESIAN_POINT('',(86.249999252925,-48.99999925292,0.));
#187 = DIRECTION('',(0.,0.,-1.));
#188 = DIRECTION('',(-1.,-7.470757349539E-07,-0.));
#189 = ORIENTED_EDGE('',*,*,#190,.F.);
#190 = EDGE_CURVE('',#191,#182,#193,.T.);
#191 = VERTEX_POINT('',#192);
#192 = CARTESIAN_POINT('',(85.25,-49.5,0.));
#193 = LINE('',#194,#195);
#194 = CARTESIAN_POINT('',(85.25,-49.5,0.));
#195 = VECTOR('',#196,1.);
#196 = DIRECTION('',(0.,1.,0.));
#197 = ORIENTED_EDGE('',*,*,#198,.F.);
#198 = EDGE_CURVE('',#199,#191,#201,.T.);
#199 = VERTEX_POINT('',#200);
#200 = CARTESIAN_POINT('',(84.25,-50.5,0.));
#201 = CIRCLE('',#202,0.999999252925);
#202 = AXIS2_PLACEMENT_3D('',#203,#204,#205);
#203 = CARTESIAN_POINT('',(84.250000747075,-49.50000074707,0.));
#204 = DIRECTION('',(0.,0.,1.));
#205 = DIRECTION('',(-7.470757349539E-07,-1.,0.));
#206 = ORIENTED_EDGE('',*,*,#207,.F.);
#207 = EDGE_CURVE('',#208,#199,#210,.T.);
#208 = VERTEX_POINT('',#209);
#209 = CARTESIAN_POINT('',(50.5,-50.5,0.));
#210 = LINE('',#211,#212);
#211 = CARTESIAN_POINT('',(50.5,-50.5,0.));
#212 = VECTOR('',#213,1.);
#213 = DIRECTION('',(1.,0.,0.));
#214 = ORIENTED_EDGE('',*,*,#215,.F.);
#215 = EDGE_CURVE('',#216,#208,#218,.T.);
#216 = VERTEX_POINT('',#217);
#217 = CARTESIAN_POINT('',(49.5,-51.5,0.));
#218 = CIRCLE('',#219,0.999999252925);
#219 = AXIS2_PLACEMENT_3D('',#220,#221,#222);
#220 = CARTESIAN_POINT('',(50.499999252925,-51.49999925292,0.));
#221 = DIRECTION('',(0.,0.,-1.));
#222 = DIRECTION('',(-1.,-7.470757491648E-07,-0.));
#223 = ORIENTED_EDGE('',*,*,#224,.F.);
#224 = EDGE_CURVE('',#225,#216,#227,.T.);
#225 = VERTEX_POINT('',#226);
#226 = CARTESIAN_POINT('',(49.5,-103.70025,0.));
#227 = LINE('',#228,#229);
#228 = CARTESIAN_POINT('',(49.5,-103.70025,0.));
#229 = VECTOR('',#230,1.);
#230 = DIRECTION('',(0.,1.,0.));
#231 = ORIENTED_EDGE('',*,*,#232,.F.);
#232 = EDGE_CURVE('',#233,#225,#235,.T.);
#233 = VERTEX_POINT('',#234);
#234 = CARTESIAN_POINT('',(47.,-108.030377,0.));
#235 = CIRCLE('',#236,5.00016459185);
#236 = AXIS2_PLACEMENT_3D('',#237,#238,#239);
#237 = CARTESIAN_POINT('',(44.499835409053,-103.7001549544,0.));
#238 = DIRECTION('',(0.,0.,1.));
#239 = DIRECTION('',(0.500016458463,-0.866015901278,0.));
#240 = ORIENTED_EDGE('',*,*,#241,.F.);
#241 = EDGE_CURVE('',#242,#233,#244,.T.);
#242 = VERTEX_POINT('',#243);
#243 = CARTESIAN_POINT('',(35.955785,-114.406758,0.));
#244 = LINE('',#245,#246);
#245 = CARTESIAN_POINT('',(35.955785,-114.406758,0.));
#246 = VECTOR('',#247,1.);
#247 = DIRECTION('',(0.866025386917,0.500000029215,0.));
#248 = ORIENTED_EDGE('',*,*,#249,.F.);
#249 = EDGE_CURVE('',#250,#242,#252,.T.);
#250 = VERTEX_POINT('',#251);
#251 = CARTESIAN_POINT('',(35.589762,-115.772786,0.));
#252 = CIRCLE('',#253,0.999999282751);
#253 = AXIS2_PLACEMENT_3D('',#254,#255,#256);
#254 = CARTESIAN_POINT('',(36.455784698856,-115.2727827494,0.));
#255 = DIRECTION('',(0.,0.,-1.));
#256 = DIRECTION('',(-0.86602332001,-0.500003609185,-0.));
#257 = ORIENTED_EDGE('',*,*,#258,.F.);
#258 = EDGE_CURVE('',#259,#250,#261,.T.);
#259 = VERTEX_POINT('',#260);
#260 = CARTESIAN_POINT('',(45.582283,-133.0802,0.));
#261 = LINE('',#262,#263);
#262 = CARTESIAN_POINT('',(45.582283,-133.0802,0.));
#263 = VECTOR('',#264,1.);
#264 = DIRECTION('',(-0.50000303484,0.866023651612,0.));
#265 = ORIENTED_EDGE('',*,*,#266,.F.);
#266 = EDGE_CURVE('',#267,#259,#269,.T.);
#267 = VERTEX_POINT('',#268);
#268 = CARTESIAN_POINT('',(46.713675,-133.544345,0.));
#269 = CIRCLE('',#270,0.999981645884);
#270 = AXIS2_PLACEMENT_3D('',#271,#272,#273);
#271 = CARTESIAN_POINT('',(46.448298311215,-132.5802192275,0.));
#272 = DIRECTION('',(0.,0.,-1.));
#273 = DIRECTION('',(0.265381559629,-0.964143468478,0.));
#274 = ORIENTED_EDGE('',*,*,#275,.F.);
#275 = EDGE_CURVE('',#276,#267,#278,.T.);
#276 = VERTEX_POINT('',#277);
#277 = CARTESIAN_POINT('',(80.29895,-124.300482,0.));
#278 = LINE('',#279,#280);
#279 = CARTESIAN_POINT('',(80.29895,-124.300482,0.));
#280 = VECTOR('',#281,1.);
#281 = DIRECTION('',(-0.964147296828,-0.265367650665,0.));
#282 = ORIENTED_EDGE('',*,*,#283,.F.);
#283 = EDGE_CURVE('',#284,#276,#286,.T.);
#284 = VERTEX_POINT('',#285);
#285 = CARTESIAN_POINT('',(80.999508,-123.077517,0.));
#286 = CIRCLE('',#287,1.000002284271);
#287 = AXIS2_PLACEMENT_3D('',#288,#289,#290);
#288 = CARTESIAN_POINT('',(80.033579057257,-123.33633324,0.));
#289 = DIRECTION('',(0.,0.,-1.));
#290 = DIRECTION('',(0.965926736305,0.258815648854,0.));
#291 = ORIENTED_EDGE('',*,*,#292,.F.);
#292 = EDGE_CURVE('',#293,#284,#295,.T.);
#293 = VERTEX_POINT('',#294);
#294 = CARTESIAN_POINT('',(77.708196,-110.794087,0.));
#295 = LINE('',#296,#297);
#296 = CARTESIAN_POINT('',(77.708196,-110.794087,0.));
#297 = VECTOR('',#298,1.);
#298 = DIRECTION('',(0.258817346702,-0.965926281373,0.));
#299 = ORIENTED_EDGE('',*,*,#300,.F.);
#300 = EDGE_CURVE('',#301,#293,#303,.T.);
#301 = VERTEX_POINT('',#302);
#302 = CARTESIAN_POINT('',(82.537827,-104.5,0.));
#303 = CIRCLE('',#304,5.000000216414);
#304 = AXIS2_PLACEMENT_3D('',#305,#306,#307);
#305 = CARTESIAN_POINT('',(82.537827617493,-109.5000002164,0.));
#306 = DIRECTION('',(0.,0.,1.));
#307 = DIRECTION('',(-1.234985805902E-07,1.,0.));
#308 = ORIENTED_EDGE('',*,*,#309,.F.);
#309 = EDGE_CURVE('',#310,#301,#312,.T.);
#310 = VERTEX_POINT('',#311);
#311 = CARTESIAN_POINT('',(89.5,-104.5,0.));
#312 = LINE('',#313,#314);
#313 = CARTESIAN_POINT('',(89.5,-104.5,0.));
#314 = VECTOR('',#315,1.);
#315 = DIRECTION('',(-1.,0.,0.));
#316 = ORIENTED_EDGE('',*,*,#317,.F.);
#317 = EDGE_CURVE('',#318,#310,#320,.T.);
#318 = VERTEX_POINT('',#319);
#319 = CARTESIAN_POINT('',(90.5,-103.5,0.));
#320 = CIRCLE('',#321,0.999999252925);
#321 = AXIS2_PLACEMENT_3D('',#322,#323,#324);
#322 = CARTESIAN_POINT('',(89.500000747075,-103.500000747,0.));
#323 = DIRECTION('',(0.,0.,-1.));
#324 = DIRECTION('',(1.,7.47075720743E-07,0.));
#325 = ORIENTED_EDGE('',*,*,#326,.F.);
#326 = EDGE_CURVE('',#327,#318,#329,.T.);
#327 = VERTEX_POINT('',#328);
#328 = CARTESIAN_POINT('',(91.5,-102.5,0.));
#329 = CIRCLE('',#330,0.999999252925);
#330 = AXIS2_PLACEMENT_3D('',#331,#332,#333);
#331 = CARTESIAN_POINT('',(91.499999252925,-103.4999992529,0.));
#332 = DIRECTION('',(0.,0.,1.));
#333 = DIRECTION('',(7.47075720743E-07,1.,-0.));
#334 = ORIENTED_EDGE('',*,*,#335,.F.);
#335 = EDGE_CURVE('',#336,#327,#338,.T.);
#336 = VERTEX_POINT('',#337);
#337 = CARTESIAN_POINT('',(135.,-102.5,0.));
#338 = LINE('',#339,#340);
#339 = CARTESIAN_POINT('',(135.,-102.5,0.));
#340 = VECTOR('',#341,1.);
#341 = DIRECTION('',(-1.,0.,0.));
#342 = ORIENTED_EDGE('',*,*,#343,.F.);
#343 = EDGE_CURVE('',#344,#336,#346,.T.);
#344 = VERTEX_POINT('',#345);
#345 = CARTESIAN_POINT('',(136.,-103.5,0.));
#346 = CIRCLE('',#347,0.999999252925);
#347 = AXIS2_PLACEMENT_3D('',#348,#349,#350);
#348 = CARTESIAN_POINT('',(135.00000074707,-103.4999992529,0.));
#349 = DIRECTION('',(0.,0.,1.));
#350 = DIRECTION('',(1.,-7.470757491648E-07,0.));
#351 = ORIENTED_EDGE('',*,*,#352,.F.);
#352 = EDGE_CURVE('',#353,#344,#355,.T.);
#353 = VERTEX_POINT('',#354);
#354 = CARTESIAN_POINT('',(136.,-126.,0.));
#355 = LINE('',#356,#357);
#356 = CARTESIAN_POINT('',(136.,-126.,0.));
#357 = VECTOR('',#358,1.);
#358 = DIRECTION('',(0.,1.,0.));
#359 = ORIENTED_EDGE('',*,*,#360,.F.);
#360 = EDGE_CURVE('',#361,#353,#363,.T.);
#361 = VERTEX_POINT('',#362);
#362 = CARTESIAN_POINT('',(137.,-127.,0.));
#363 = CIRCLE('',#364,0.999999252925);
#364 = AXIS2_PLACEMENT_3D('',#365,#366,#367);
#365 = CARTESIAN_POINT('',(136.99999925292,-126.000000747,0.));
#366 = DIRECTION('',(0.,0.,-1.));
#367 = DIRECTION('',(7.470757349539E-07,-1.,0.));
#368 = ORIENTED_EDGE('',*,*,#369,.F.);
#369 = EDGE_CURVE('',#370,#361,#372,.T.);
#370 = VERTEX_POINT('',#371);
#371 = CARTESIAN_POINT('',(142.,-127.,0.));
#372 = LINE('',#373,#374);
#373 = CARTESIAN_POINT('',(142.,-127.,0.));
#374 = VECTOR('',#375,1.);
#375 = DIRECTION('',(-1.,0.,0.));
#376 = ORIENTED_EDGE('',*,*,#377,.F.);
#377 = EDGE_CURVE('',#378,#370,#380,.T.);
#378 = VERTEX_POINT('',#379);
#379 = CARTESIAN_POINT('',(143.,-126.,0.));
#380 = CIRCLE('',#381,0.999999252925);
#381 = AXIS2_PLACEMENT_3D('',#382,#383,#384);
#382 = CARTESIAN_POINT('',(142.00000074707,-126.000000747,0.));
#383 = DIRECTION('',(0.,0.,-1.));
#384 = DIRECTION('',(1.,7.470757491648E-07,0.));
#385 = ORIENTED_EDGE('',*,*,#386,.F.);
#386 = EDGE_CURVE('',#387,#378,#389,.T.);
#387 = VERTEX_POINT('',#388);
#388 = CARTESIAN_POINT('',(143.,-111.5,0.));
#389 = LINE('',#390,#391);
#390 = CARTESIAN_POINT('',(143.,-111.5,0.));
#391 = VECTOR('',#392,1.);
#392 = DIRECTION('',(0.,-1.,0.));
#393 = ORIENTED_EDGE('',*,*,#394,.F.);
#394 = EDGE_CURVE('',#395,#387,#397,.T.);
#395 = VERTEX_POINT('',#396);
#396 = CARTESIAN_POINT('',(144.,-110.5,0.));
#397 = CIRCLE('',#398,0.999999252925);
#398 = AXIS2_PLACEMENT_3D('',#399,#400,#401);
#399 = CARTESIAN_POINT('',(143.99999925292,-111.4999992529,0.));
#400 = DIRECTION('',(0.,0.,1.));
#401 = DIRECTION('',(7.470757349539E-07,1.,-0.));
#402 = ORIENTED_EDGE('',*,*,#403,.F.);
#403 = EDGE_CURVE('',#404,#395,#406,.T.);
#404 = VERTEX_POINT('',#405);
#405 = CARTESIAN_POINT('',(165.5,-110.5,0.));
#406 = LINE('',#407,#408);
#407 = CARTESIAN_POINT('',(165.5,-110.5,0.));
#408 = VECTOR('',#409,1.);
#409 = DIRECTION('',(-1.,0.,0.));
#410 = ORIENTED_EDGE('',*,*,#411,.F.);
#411 = EDGE_CURVE('',#412,#404,#414,.T.);
#412 = VERTEX_POINT('',#413);
#413 = CARTESIAN_POINT('',(166.5,-109.5,0.));
#414 = CIRCLE('',#415,0.999999252925);
#415 = AXIS2_PLACEMENT_3D('',#416,#417,#418);
#416 = CARTESIAN_POINT('',(165.50000074707,-109.500000747,0.));
#417 = DIRECTION('',(0.,0.,-1.));
#418 = DIRECTION('',(1.,7.470757491648E-07,0.));
#419 = ORIENTED_EDGE('',*,*,#420,.F.);
#420 = EDGE_CURVE('',#421,#412,#423,.T.);
#421 = VERTEX_POINT('',#422);
#422 = CARTESIAN_POINT('',(166.5,-107.5,0.));
#423 = LINE('',#424,#425);
#424 = CARTESIAN_POINT('',(166.5,-107.5,0.));
#425 = VECTOR('',#426,1.);
#426 = DIRECTION('',(0.,-1.,0.));
#427 = ORIENTED_EDGE('',*,*,#428,.F.);
#428 = EDGE_CURVE('',#429,#421,#431,.T.);
#429 = VERTEX_POINT('',#430);
#430 = CARTESIAN_POINT('',(167.5,-106.5,0.));
#431 = CIRCLE('',#432,0.999999252925);
#432 = AXIS2_PLACEMENT_3D('',#433,#434,#435);
#433 = CARTESIAN_POINT('',(167.49999925292,-107.4999992529,0.));
#434 = DIRECTION('',(0.,0.,1.));
#435 = DIRECTION('',(7.470757349539E-07,1.,-0.));
#436 = ORIENTED_EDGE('',*,*,#437,.F.);
#437 = EDGE_CURVE('',#438,#429,#440,.T.);
#438 = VERTEX_POINT('',#439);
#439 = CARTESIAN_POINT('',(179.5,-106.5,0.));
#440 = LINE('',#441,#442);
#441 = CARTESIAN_POINT('',(179.5,-106.5,0.));
#442 = VECTOR('',#443,1.);
#443 = DIRECTION('',(-1.,0.,0.));
#444 = ORIENTED_EDGE('',*,*,#445,.F.);
#445 = EDGE_CURVE('',#446,#438,#448,.T.);
#446 = VERTEX_POINT('',#447);
#447 = CARTESIAN_POINT('',(180.5,-105.5,0.));
#448 = CIRCLE('',#449,0.999999252925);
#449 = AXIS2_PLACEMENT_3D('',#450,#451,#452);
#450 = CARTESIAN_POINT('',(179.50000074707,-105.500000747,0.));
#451 = DIRECTION('',(0.,0.,-1.));
#452 = DIRECTION('',(1.,7.470757491648E-07,0.));
#453 = ORIENTED_EDGE('',*,*,#454,.F.);
#454 = EDGE_CURVE('',#455,#446,#457,.T.);
#455 = VERTEX_POINT('',#456);
#456 = CARTESIAN_POINT('',(180.5,-70.5,0.));
#457 = LINE('',#458,#459);
#458 = CARTESIAN_POINT('',(180.5,-70.5,0.));
#459 = VECTOR('',#460,1.);
#460 = DIRECTION('',(0.,-1.,0.));
#461 = ORIENTED_EDGE('',*,*,#462,.F.);
#462 = EDGE_CURVE('',#463,#455,#465,.T.);
#463 = VERTEX_POINT('',#464);
#464 = CARTESIAN_POINT('',(179.5,-69.5,0.));
#465 = CIRCLE('',#466,0.999999252925);
#466 = AXIS2_PLACEMENT_3D('',#467,#468,#469);
#467 = CARTESIAN_POINT('',(179.50000074707,-70.49999925292,0.));
#468 = DIRECTION('',(0.,0.,-1.));
#469 = DIRECTION('',(-7.470757349539E-07,1.,0.));
#470 = ORIENTED_EDGE('',*,*,#471,.F.);
#471 = EDGE_CURVE('',#472,#463,#474,.T.);
#472 = VERTEX_POINT('',#473);
#473 = CARTESIAN_POINT('',(163.5,-69.5,0.));
#474 = LINE('',#475,#476);
#475 = CARTESIAN_POINT('',(163.5,-69.5,0.));
#476 = VECTOR('',#477,1.);
#477 = DIRECTION('',(1.,0.,0.));
#478 = ORIENTED_EDGE('',*,*,#479,.F.);
#479 = EDGE_CURVE('',#480,#472,#482,.T.);
#480 = VERTEX_POINT('',#481);
#481 = CARTESIAN_POINT('',(162.5,-68.5,0.));
#482 = CIRCLE('',#483,0.999999252925);
#483 = AXIS2_PLACEMENT_3D('',#484,#485,#486);
#484 = CARTESIAN_POINT('',(163.49999925292,-68.50000074707,0.));
#485 = DIRECTION('',(0.,0.,1.));
#486 = DIRECTION('',(-1.,7.470757491648E-07,0.));
#487 = ORIENTED_EDGE('',*,*,#488,.F.);
#488 = EDGE_CURVE('',#489,#480,#491,.T.);
#489 = VERTEX_POINT('',#490);
#490 = CARTESIAN_POINT('',(162.5,-57.5,0.));
#491 = LINE('',#492,#493);
#492 = CARTESIAN_POINT('',(162.5,-57.5,0.));
#493 = VECTOR('',#494,1.);
#494 = DIRECTION('',(0.,-1.,0.));
#495 = ORIENTED_EDGE('',*,*,#496,.F.);
#496 = EDGE_CURVE('',#497,#489,#499,.T.);
#497 = VERTEX_POINT('',#498);
#498 = CARTESIAN_POINT('',(161.5,-56.5,0.));
#499 = CIRCLE('',#500,0.999999252925);
#500 = AXIS2_PLACEMENT_3D('',#501,#502,#503);
#501 = CARTESIAN_POINT('',(161.50000074707,-57.49999925292,0.));
#502 = DIRECTION('',(0.,0.,-1.));
#503 = DIRECTION('',(-7.470757633756E-07,1.,0.));
#504 = ORIENTED_EDGE('',*,*,#505,.F.);
#505 = EDGE_CURVE('',#506,#497,#508,.T.);
#506 = VERTEX_POINT('',#507);
#507 = CARTESIAN_POINT('',(149.5,-56.5,0.));
#508 = LINE('',#509,#510);
#509 = CARTESIAN_POINT('',(149.5,-56.5,0.));
#510 = VECTOR('',#511,1.);
#511 = DIRECTION('',(1.,0.,0.));
#512 = ORIENTED_EDGE('',*,*,#513,.F.);
#513 = EDGE_CURVE('',#514,#506,#516,.T.);
#514 = VERTEX_POINT('',#515);
#515 = CARTESIAN_POINT('',(148.5,-55.5,0.));
#516 = CIRCLE('',#517,0.999999252925);
#517 = AXIS2_PLACEMENT_3D('',#518,#519,#520);
#518 = CARTESIAN_POINT('',(149.49999925292,-55.50000074707,0.));
#519 = DIRECTION('',(0.,0.,1.));
#520 = DIRECTION('',(-1.,7.470757562702E-07,0.));
#521 = ORIENTED_EDGE('',*,*,#522,.F.);
#522 = EDGE_CURVE('',#523,#514,#525,.T.);
#523 = VERTEX_POINT('',#524);
#524 = CARTESIAN_POINT('',(148.5,-47.5,0.));
#525 = LINE('',#526,#527);
#526 = CARTESIAN_POINT('',(148.5,-47.5,0.));
#527 = VECTOR('',#528,1.);
#528 = DIRECTION('',(0.,-1.,0.));
#529 = ORIENTED_EDGE('',*,*,#530,.F.);
#530 = EDGE_CURVE('',#531,#523,#533,.T.);
#531 = VERTEX_POINT('',#532);
#532 = CARTESIAN_POINT('',(147.5,-46.5,0.));
#533 = CIRCLE('',#534,0.999999252925);
#534 = AXIS2_PLACEMENT_3D('',#535,#536,#537);
#535 = CARTESIAN_POINT('',(147.50000074707,-47.49999925292,0.));
#536 = DIRECTION('',(0.,0.,-1.));
#537 = DIRECTION('',(-7.470757633756E-07,1.,0.));
#538 = ORIENTED_EDGE('',*,*,#539,.F.);
#539 = EDGE_CURVE('',#123,#531,#540,.T.);
#540 = LINE('',#541,#542);
#541 = CARTESIAN_POINT('',(127.,-46.5,0.));
#542 = VECTOR('',#543,1.);
#543 = DIRECTION('',(1.,0.,0.));
#544 = ORIENTED_EDGE('',*,*,#130,.F.);
#545 = FACE_BOUND('',#546,.F.);
#546 = EDGE_LOOP('',(#547));
#547 = ORIENTED_EDGE('',*,*,#548,.T.);
#548 = EDGE_CURVE('',#549,#549,#551,.T.);
#549 = VERTEX_POINT('',#550);
#550 = CARTESIAN_POINT('',(58.,-108.6,0.));
#551 = CIRCLE('',#552,1.1);
#552 = AXIS2_PLACEMENT_3D('',#553,#554,#555);
#553 = CARTESIAN_POINT('',(58.,-107.5,0.));
#554 = DIRECTION('',(-0.,0.,-1.));
#555 = DIRECTION('',(-0.,-1.,0.));
#556 = FACE_BOUND('',#557,.F.);
#557 = EDGE_LOOP('',(#558));
#558 = ORIENTED_EDGE('',*,*,#559,.T.);
#559 = EDGE_CURVE('',#560,#560,#562,.T.);
#560 = VERTEX_POINT('',#561);
#561 = CARTESIAN_POINT('',(163.5,-108.6,0.));
#562 = CIRCLE('',#563,1.1);
#563 = AXIS2_PLACEMENT_3D('',#564,#565,#566);
#564 = CARTESIAN_POINT('',(163.5,-107.5,0.));
#565 = DIRECTION('',(-0.,0.,-1.));
#566 = DIRECTION('',(-0.,-1.,0.));
#567 = FACE_BOUND('',#568,.F.);
#568 = EDGE_LOOP('',(#569));
#569 = ORIENTED_EDGE('',*,*,#570,.T.);
#570 = EDGE_CURVE('',#571,#571,#573,.T.);
#571 = VERTEX_POINT('',#572);
#572 = CARTESIAN_POINT('',(88.,-51.85,0.));
#573 = CIRCLE('',#574,1.1);
#574 = AXIS2_PLACEMENT_3D('',#575,#576,#577);
#575 = CARTESIAN_POINT('',(88.,-50.75,0.));
#576 = DIRECTION('',(-0.,0.,-1.));
#577 = DIRECTION('',(-0.,-1.,0.));
#578 = FACE_BOUND('',#579,.F.);
#579 = EDGE_LOOP('',(#580));
#580 = ORIENTED_EDGE('',*,*,#581,.T.);
#581 = EDGE_CURVE('',#582,#582,#584,.T.);
#582 = VERTEX_POINT('',#583);
#583 = CARTESIAN_POINT('',(145.5,-51.6,0.));
#584 = CIRCLE('',#585,1.1);
#585 = AXIS2_PLACEMENT_3D('',#586,#587,#588);
#586 = CARTESIAN_POINT('',(145.5,-50.5,0.));
#587 = DIRECTION('',(-0.,0.,-1.));
#588 = DIRECTION('',(-0.,-1.,0.));
#589 = PLANE('',#590);
#590 = AXIS2_PLACEMENT_3D('',#591,#592,#593);
#591 = CARTESIAN_POINT('',(0.,0.,0.));
#592 = DIRECTION('',(0.,0.,1.));
#593 = DIRECTION('',(1.,0.,-0.));
#594 = ADVANCED_FACE('',(#595,#998,#1009,#1020,#1031),#1042,.T.);
#595 = FACE_BOUND('',#596,.T.);
#596 = EDGE_LOOP('',(#597,#598,#599,#608,#616,#625,#633,#642,#650,#659,
    #667,#676,#684,#693,#701,#710,#718,#727,#735,#744,#752,#761,#769,
    #778,#787,#795,#804,#812,#821,#829,#838,#846,#855,#863,#872,#880,
    #889,#897,#906,#914,#923,#931,#940,#948,#957,#965,#974,#982,#991,
    #997));
#597 = ORIENTED_EDGE('',*,*,#49,.F.);
#598 = ORIENTED_EDGE('',*,*,#91,.F.);
#599 = ORIENTED_EDGE('',*,*,#600,.F.);
#600 = EDGE_CURVE('',#601,#84,#603,.T.);
#601 = VERTEX_POINT('',#602);
#602 = CARTESIAN_POINT('',(105.5,-46.5,2.8));
#603 = CIRCLE('',#604,0.999999252925);
#604 = AXIS2_PLACEMENT_3D('',#605,#606,#607);
#605 = CARTESIAN_POINT('',(106.49999925292,-46.49999925292,2.8));
#606 = DIRECTION('',(0.,0.,-1.));
#607 = DIRECTION('',(-1.,-7.470757349539E-07,-0.));
#608 = ORIENTED_EDGE('',*,*,#609,.F.);
#609 = EDGE_CURVE('',#610,#601,#612,.T.);
#610 = VERTEX_POINT('',#611);
#611 = CARTESIAN_POINT('',(105.5,-47.,2.8));
#612 = LINE('',#613,#614);
#613 = CARTESIAN_POINT('',(105.5,-47.,2.8));
#614 = VECTOR('',#615,1.);
#615 = DIRECTION('',(0.,1.,0.));
#616 = ORIENTED_EDGE('',*,*,#617,.F.);
#617 = EDGE_CURVE('',#618,#610,#620,.T.);
#618 = VERTEX_POINT('',#619);
#619 = CARTESIAN_POINT('',(104.5,-48.,2.8));
#620 = CIRCLE('',#621,0.999999252925);
#621 = AXIS2_PLACEMENT_3D('',#622,#623,#624);
#622 = CARTESIAN_POINT('',(104.50000074707,-47.00000074707,2.8));
#623 = DIRECTION('',(0.,0.,1.));
#624 = DIRECTION('',(-7.470757349539E-07,-1.,0.));
#625 = ORIENTED_EDGE('',*,*,#626,.F.);
#626 = EDGE_CURVE('',#627,#618,#629,.T.);
#627 = VERTEX_POINT('',#628);
#628 = CARTESIAN_POINT('',(86.25,-48.,2.8));
#629 = LINE('',#630,#631);
#630 = CARTESIAN_POINT('',(86.25,-48.,2.8));
#631 = VECTOR('',#632,1.);
#632 = DIRECTION('',(1.,0.,0.));
#633 = ORIENTED_EDGE('',*,*,#634,.F.);
#634 = EDGE_CURVE('',#635,#627,#637,.T.);
#635 = VERTEX_POINT('',#636);
#636 = CARTESIAN_POINT('',(85.25,-49.,2.8));
#637 = CIRCLE('',#638,0.999999252925);
#638 = AXIS2_PLACEMENT_3D('',#639,#640,#641);
#639 = CARTESIAN_POINT('',(86.249999252925,-48.99999925292,2.8));
#640 = DIRECTION('',(0.,0.,-1.));
#641 = DIRECTION('',(-1.,-7.470757349539E-07,-0.));
#642 = ORIENTED_EDGE('',*,*,#643,.F.);
#643 = EDGE_CURVE('',#644,#635,#646,.T.);
#644 = VERTEX_POINT('',#645);
#645 = CARTESIAN_POINT('',(85.25,-49.5,2.8));
#646 = LINE('',#647,#648);
#647 = CARTESIAN_POINT('',(85.25,-49.5,2.8));
#648 = VECTOR('',#649,1.);
#649 = DIRECTION('',(0.,1.,0.));
#650 = ORIENTED_EDGE('',*,*,#651,.F.);
#651 = EDGE_CURVE('',#652,#644,#654,.T.);
#652 = VERTEX_POINT('',#653);
#653 = CARTESIAN_POINT('',(84.25,-50.5,2.8));
#654 = CIRCLE('',#655,0.999999252925);
#655 = AXIS2_PLACEMENT_3D('',#656,#657,#658);
#656 = CARTESIAN_POINT('',(84.250000747075,-49.50000074707,2.8));
#657 = DIRECTION('',(0.,0.,1.));
#658 = DIRECTION('',(-7.470757349539E-07,-1.,0.));
#659 = ORIENTED_EDGE('',*,*,#660,.F.);
#660 = EDGE_CURVE('',#661,#652,#663,.T.);
#661 = VERTEX_POINT('',#662);
#662 = CARTESIAN_POINT('',(50.5,-50.5,2.8));
#663 = LINE('',#664,#665);
#664 = CARTESIAN_POINT('',(50.5,-50.5,2.8));
#665 = VECTOR('',#666,1.);
#666 = DIRECTION('',(1.,0.,0.));
#667 = ORIENTED_EDGE('',*,*,#668,.F.);
#668 = EDGE_CURVE('',#669,#661,#671,.T.);
#669 = VERTEX_POINT('',#670);
#670 = CARTESIAN_POINT('',(49.5,-51.5,2.8));
#671 = CIRCLE('',#672,0.999999252925);
#672 = AXIS2_PLACEMENT_3D('',#673,#674,#675);
#673 = CARTESIAN_POINT('',(50.499999252925,-51.49999925292,2.8));
#674 = DIRECTION('',(0.,0.,-1.));
#675 = DIRECTION('',(-1.,-7.470757491648E-07,-0.));
#676 = ORIENTED_EDGE('',*,*,#677,.F.);
#677 = EDGE_CURVE('',#678,#669,#680,.T.);
#678 = VERTEX_POINT('',#679);
#679 = CARTESIAN_POINT('',(49.5,-103.70025,2.8));
#680 = LINE('',#681,#682);
#681 = CARTESIAN_POINT('',(49.5,-103.70025,2.8));
#682 = VECTOR('',#683,1.);
#683 = DIRECTION('',(0.,1.,0.));
#684 = ORIENTED_EDGE('',*,*,#685,.F.);
#685 = EDGE_CURVE('',#686,#678,#688,.T.);
#686 = VERTEX_POINT('',#687);
#687 = CARTESIAN_POINT('',(47.,-108.030377,2.8));
#688 = CIRCLE('',#689,5.00016459185);
#689 = AXIS2_PLACEMENT_3D('',#690,#691,#692);
#690 = CARTESIAN_POINT('',(44.499835409053,-103.7001549544,2.8));
#691 = DIRECTION('',(0.,0.,1.));
#692 = DIRECTION('',(0.500016458463,-0.866015901278,0.));
#693 = ORIENTED_EDGE('',*,*,#694,.F.);
#694 = EDGE_CURVE('',#695,#686,#697,.T.);
#695 = VERTEX_POINT('',#696);
#696 = CARTESIAN_POINT('',(35.955785,-114.406758,2.8));
#697 = LINE('',#698,#699);
#698 = CARTESIAN_POINT('',(35.955785,-114.406758,2.8));
#699 = VECTOR('',#700,1.);
#700 = DIRECTION('',(0.866025386917,0.500000029215,0.));
#701 = ORIENTED_EDGE('',*,*,#702,.F.);
#702 = EDGE_CURVE('',#703,#695,#705,.T.);
#703 = VERTEX_POINT('',#704);
#704 = CARTESIAN_POINT('',(35.589762,-115.772786,2.8));
#705 = CIRCLE('',#706,0.999999282751);
#706 = AXIS2_PLACEMENT_3D('',#707,#708,#709);
#707 = CARTESIAN_POINT('',(36.455784698856,-115.2727827494,2.8));
#708 = DIRECTION('',(0.,0.,-1.));
#709 = DIRECTION('',(-0.86602332001,-0.500003609185,-0.));
#710 = ORIENTED_EDGE('',*,*,#711,.F.);
#711 = EDGE_CURVE('',#712,#703,#714,.T.);
#712 = VERTEX_POINT('',#713);
#713 = CARTESIAN_POINT('',(45.582283,-133.0802,2.8));
#714 = LINE('',#715,#716);
#715 = CARTESIAN_POINT('',(45.582283,-133.0802,2.8));
#716 = VECTOR('',#717,1.);
#717 = DIRECTION('',(-0.50000303484,0.866023651612,0.));
#718 = ORIENTED_EDGE('',*,*,#719,.F.);
#719 = EDGE_CURVE('',#720,#712,#722,.T.);
#720 = VERTEX_POINT('',#721);
#721 = CARTESIAN_POINT('',(46.713675,-133.544345,2.8));
#722 = CIRCLE('',#723,0.999981645884);
#723 = AXIS2_PLACEMENT_3D('',#724,#725,#726);
#724 = CARTESIAN_POINT('',(46.448298311215,-132.5802192275,2.8));
#725 = DIRECTION('',(0.,0.,-1.));
#726 = DIRECTION('',(0.265381559629,-0.964143468478,0.));
#727 = ORIENTED_EDGE('',*,*,#728,.F.);
#728 = EDGE_CURVE('',#729,#720,#731,.T.);
#729 = VERTEX_POINT('',#730);
#730 = CARTESIAN_POINT('',(80.29895,-124.300482,2.8));
#731 = LINE('',#732,#733);
#732 = CARTESIAN_POINT('',(80.29895,-124.300482,2.8));
#733 = VECTOR('',#734,1.);
#734 = DIRECTION('',(-0.964147296828,-0.265367650665,0.));
#735 = ORIENTED_EDGE('',*,*,#736,.F.);
#736 = EDGE_CURVE('',#737,#729,#739,.T.);
#737 = VERTEX_POINT('',#738);
#738 = CARTESIAN_POINT('',(80.999508,-123.077517,2.8));
#739 = CIRCLE('',#740,1.000002284271);
#740 = AXIS2_PLACEMENT_3D('',#741,#742,#743);
#741 = CARTESIAN_POINT('',(80.033579057257,-123.33633324,2.8));
#742 = DIRECTION('',(0.,0.,-1.));
#743 = DIRECTION('',(0.965926736305,0.258815648854,0.));
#744 = ORIENTED_EDGE('',*,*,#745,.F.);
#745 = EDGE_CURVE('',#746,#737,#748,.T.);
#746 = VERTEX_POINT('',#747);
#747 = CARTESIAN_POINT('',(77.708196,-110.794087,2.8));
#748 = LINE('',#749,#750);
#749 = CARTESIAN_POINT('',(77.708196,-110.794087,2.8));
#750 = VECTOR('',#751,1.);
#751 = DIRECTION('',(0.258817346702,-0.965926281373,0.));
#752 = ORIENTED_EDGE('',*,*,#753,.F.);
#753 = EDGE_CURVE('',#754,#746,#756,.T.);
#754 = VERTEX_POINT('',#755);
#755 = CARTESIAN_POINT('',(82.537827,-104.5,2.8));
#756 = CIRCLE('',#757,5.000000216414);
#757 = AXIS2_PLACEMENT_3D('',#758,#759,#760);
#758 = CARTESIAN_POINT('',(82.537827617493,-109.5000002164,2.8));
#759 = DIRECTION('',(0.,0.,1.));
#760 = DIRECTION('',(-1.234985805902E-07,1.,0.));
#761 = ORIENTED_EDGE('',*,*,#762,.F.);
#762 = EDGE_CURVE('',#763,#754,#765,.T.);
#763 = VERTEX_POINT('',#764);
#764 = CARTESIAN_POINT('',(89.5,-104.5,2.8));
#765 = LINE('',#766,#767);
#766 = CARTESIAN_POINT('',(89.5,-104.5,2.8));
#767 = VECTOR('',#768,1.);
#768 = DIRECTION('',(-1.,0.,0.));
#769 = ORIENTED_EDGE('',*,*,#770,.F.);
#770 = EDGE_CURVE('',#771,#763,#773,.T.);
#771 = VERTEX_POINT('',#772);
#772 = CARTESIAN_POINT('',(90.5,-103.5,2.8));
#773 = CIRCLE('',#774,0.999999252925);
#774 = AXIS2_PLACEMENT_3D('',#775,#776,#777);
#775 = CARTESIAN_POINT('',(89.500000747075,-103.500000747,2.8));
#776 = DIRECTION('',(0.,0.,-1.));
#777 = DIRECTION('',(1.,7.47075720743E-07,0.));
#778 = ORIENTED_EDGE('',*,*,#779,.F.);
#779 = EDGE_CURVE('',#780,#771,#782,.T.);
#780 = VERTEX_POINT('',#781);
#781 = CARTESIAN_POINT('',(91.5,-102.5,2.8));
#782 = CIRCLE('',#783,0.999999252925);
#783 = AXIS2_PLACEMENT_3D('',#784,#785,#786);
#784 = CARTESIAN_POINT('',(91.499999252925,-103.4999992529,2.8));
#785 = DIRECTION('',(0.,0.,1.));
#786 = DIRECTION('',(7.47075720743E-07,1.,-0.));
#787 = ORIENTED_EDGE('',*,*,#788,.F.);
#788 = EDGE_CURVE('',#789,#780,#791,.T.);
#789 = VERTEX_POINT('',#790);
#790 = CARTESIAN_POINT('',(135.,-102.5,2.8));
#791 = LINE('',#792,#793);
#792 = CARTESIAN_POINT('',(135.,-102.5,2.8));
#793 = VECTOR('',#794,1.);
#794 = DIRECTION('',(-1.,0.,0.));
#795 = ORIENTED_EDGE('',*,*,#796,.F.);
#796 = EDGE_CURVE('',#797,#789,#799,.T.);
#797 = VERTEX_POINT('',#798);
#798 = CARTESIAN_POINT('',(136.,-103.5,2.8));
#799 = CIRCLE('',#800,0.999999252925);
#800 = AXIS2_PLACEMENT_3D('',#801,#802,#803);
#801 = CARTESIAN_POINT('',(135.00000074707,-103.4999992529,2.8));
#802 = DIRECTION('',(0.,0.,1.));
#803 = DIRECTION('',(1.,-7.470757491648E-07,0.));
#804 = ORIENTED_EDGE('',*,*,#805,.F.);
#805 = EDGE_CURVE('',#806,#797,#808,.T.);
#806 = VERTEX_POINT('',#807);
#807 = CARTESIAN_POINT('',(136.,-126.,2.8));
#808 = LINE('',#809,#810);
#809 = CARTESIAN_POINT('',(136.,-126.,2.8));
#810 = VECTOR('',#811,1.);
#811 = DIRECTION('',(0.,1.,0.));
#812 = ORIENTED_EDGE('',*,*,#813,.F.);
#813 = EDGE_CURVE('',#814,#806,#816,.T.);
#814 = VERTEX_POINT('',#815);
#815 = CARTESIAN_POINT('',(137.,-127.,2.8));
#816 = CIRCLE('',#817,0.999999252925);
#817 = AXIS2_PLACEMENT_3D('',#818,#819,#820);
#818 = CARTESIAN_POINT('',(136.99999925292,-126.000000747,2.8));
#819 = DIRECTION('',(0.,0.,-1.));
#820 = DIRECTION('',(7.470757349539E-07,-1.,0.));
#821 = ORIENTED_EDGE('',*,*,#822,.F.);
#822 = EDGE_CURVE('',#823,#814,#825,.T.);
#823 = VERTEX_POINT('',#824);
#824 = CARTESIAN_POINT('',(142.,-127.,2.8));
#825 = LINE('',#826,#827);
#826 = CARTESIAN_POINT('',(142.,-127.,2.8));
#827 = VECTOR('',#828,1.);
#828 = DIRECTION('',(-1.,0.,0.));
#829 = ORIENTED_EDGE('',*,*,#830,.F.);
#830 = EDGE_CURVE('',#831,#823,#833,.T.);
#831 = VERTEX_POINT('',#832);
#832 = CARTESIAN_POINT('',(143.,-126.,2.8));
#833 = CIRCLE('',#834,0.999999252925);
#834 = AXIS2_PLACEMENT_3D('',#835,#836,#837);
#835 = CARTESIAN_POINT('',(142.00000074707,-126.000000747,2.8));
#836 = DIRECTION('',(0.,0.,-1.));
#837 = DIRECTION('',(1.,7.470757491648E-07,0.));
#838 = ORIENTED_EDGE('',*,*,#839,.F.);
#839 = EDGE_CURVE('',#840,#831,#842,.T.);
#840 = VERTEX_POINT('',#841);
#841 = CARTESIAN_POINT('',(143.,-111.5,2.8));
#842 = LINE('',#843,#844);
#843 = CARTESIAN_POINT('',(143.,-111.5,2.8));
#844 = VECTOR('',#845,1.);
#845 = DIRECTION('',(0.,-1.,0.));
#846 = ORIENTED_EDGE('',*,*,#847,.F.);
#847 = EDGE_CURVE('',#848,#840,#850,.T.);
#848 = VERTEX_POINT('',#849);
#849 = CARTESIAN_POINT('',(144.,-110.5,2.8));
#850 = CIRCLE('',#851,0.999999252925);
#851 = AXIS2_PLACEMENT_3D('',#852,#853,#854);
#852 = CARTESIAN_POINT('',(143.99999925292,-111.4999992529,2.8));
#853 = DIRECTION('',(0.,0.,1.));
#854 = DIRECTION('',(7.470757349539E-07,1.,-0.));
#855 = ORIENTED_EDGE('',*,*,#856,.F.);
#856 = EDGE_CURVE('',#857,#848,#859,.T.);
#857 = VERTEX_POINT('',#858);
#858 = CARTESIAN_POINT('',(165.5,-110.5,2.8));
#859 = LINE('',#860,#861);
#860 = CARTESIAN_POINT('',(165.5,-110.5,2.8));
#861 = VECTOR('',#862,1.);
#862 = DIRECTION('',(-1.,0.,0.));
#863 = ORIENTED_EDGE('',*,*,#864,.F.);
#864 = EDGE_CURVE('',#865,#857,#867,.T.);
#865 = VERTEX_POINT('',#866);
#866 = CARTESIAN_POINT('',(166.5,-109.5,2.8));
#867 = CIRCLE('',#868,0.999999252925);
#868 = AXIS2_PLACEMENT_3D('',#869,#870,#871);
#869 = CARTESIAN_POINT('',(165.50000074707,-109.500000747,2.8));
#870 = DIRECTION('',(0.,0.,-1.));
#871 = DIRECTION('',(1.,7.470757491648E-07,0.));
#872 = ORIENTED_EDGE('',*,*,#873,.F.);
#873 = EDGE_CURVE('',#874,#865,#876,.T.);
#874 = VERTEX_POINT('',#875);
#875 = CARTESIAN_POINT('',(166.5,-107.5,2.8));
#876 = LINE('',#877,#878);
#877 = CARTESIAN_POINT('',(166.5,-107.5,2.8));
#878 = VECTOR('',#879,1.);
#879 = DIRECTION('',(0.,-1.,0.));
#880 = ORIENTED_EDGE('',*,*,#881,.F.);
#881 = EDGE_CURVE('',#882,#874,#884,.T.);
#882 = VERTEX_POINT('',#883);
#883 = CARTESIAN_POINT('',(167.5,-106.5,2.8));
#884 = CIRCLE('',#885,0.999999252925);
#885 = AXIS2_PLACEMENT_3D('',#886,#887,#888);
#886 = CARTESIAN_POINT('',(167.49999925292,-107.4999992529,2.8));
#887 = DIRECTION('',(0.,0.,1.));
#888 = DIRECTION('',(7.470757349539E-07,1.,-0.));
#889 = ORIENTED_EDGE('',*,*,#890,.F.);
#890 = EDGE_CURVE('',#891,#882,#893,.T.);
#891 = VERTEX_POINT('',#892);
#892 = CARTESIAN_POINT('',(179.5,-106.5,2.8));
#893 = LINE('',#894,#895);
#894 = CARTESIAN_POINT('',(179.5,-106.5,2.8));
#895 = VECTOR('',#896,1.);
#896 = DIRECTION('',(-1.,0.,0.));
#897 = ORIENTED_EDGE('',*,*,#898,.F.);
#898 = EDGE_CURVE('',#899,#891,#901,.T.);
#899 = VERTEX_POINT('',#900);
#900 = CARTESIAN_POINT('',(180.5,-105.5,2.8));
#901 = CIRCLE('',#902,0.999999252925);
#902 = AXIS2_PLACEMENT_3D('',#903,#904,#905);
#903 = CARTESIAN_POINT('',(179.50000074707,-105.500000747,2.8));
#904 = DIRECTION('',(0.,0.,-1.));
#905 = DIRECTION('',(1.,7.470757491648E-07,0.));
#906 = ORIENTED_EDGE('',*,*,#907,.F.);
#907 = EDGE_CURVE('',#908,#899,#910,.T.);
#908 = VERTEX_POINT('',#909);
#909 = CARTESIAN_POINT('',(180.5,-70.5,2.8));
#910 = LINE('',#911,#912);
#911 = CARTESIAN_POINT('',(180.5,-70.5,2.8));
#912 = VECTOR('',#913,1.);
#913 = DIRECTION('',(0.,-1.,0.));
#914 = ORIENTED_EDGE('',*,*,#915,.F.);
#915 = EDGE_CURVE('',#916,#908,#918,.T.);
#916 = VERTEX_POINT('',#917);
#917 = CARTESIAN_POINT('',(179.5,-69.5,2.8));
#918 = CIRCLE('',#919,0.999999252925);
#919 = AXIS2_PLACEMENT_3D('',#920,#921,#922);
#920 = CARTESIAN_POINT('',(179.50000074707,-70.49999925292,2.8));
#921 = DIRECTION('',(0.,0.,-1.));
#922 = DIRECTION('',(-7.470757349539E-07,1.,0.));
#923 = ORIENTED_EDGE('',*,*,#924,.F.);
#924 = EDGE_CURVE('',#925,#916,#927,.T.);
#925 = VERTEX_POINT('',#926);
#926 = CARTESIAN_POINT('',(163.5,-69.5,2.8));
#927 = LINE('',#928,#929);
#928 = CARTESIAN_POINT('',(163.5,-69.5,2.8));
#929 = VECTOR('',#930,1.);
#930 = DIRECTION('',(1.,0.,0.));
#931 = ORIENTED_EDGE('',*,*,#932,.F.);
#932 = EDGE_CURVE('',#933,#925,#935,.T.);
#933 = VERTEX_POINT('',#934);
#934 = CARTESIAN_POINT('',(162.5,-68.5,2.8));
#935 = CIRCLE('',#936,0.999999252925);
#936 = AXIS2_PLACEMENT_3D('',#937,#938,#939);
#937 = CARTESIAN_POINT('',(163.49999925292,-68.50000074707,2.8));
#938 = DIRECTION('',(0.,0.,1.));
#939 = DIRECTION('',(-1.,7.470757491648E-07,0.));
#940 = ORIENTED_EDGE('',*,*,#941,.F.);
#941 = EDGE_CURVE('',#942,#933,#944,.T.);
#942 = VERTEX_POINT('',#943);
#943 = CARTESIAN_POINT('',(162.5,-57.5,2.8));
#944 = LINE('',#945,#946);
#945 = CARTESIAN_POINT('',(162.5,-57.5,2.8));
#946 = VECTOR('',#947,1.);
#947 = DIRECTION('',(0.,-1.,0.));
#948 = ORIENTED_EDGE('',*,*,#949,.F.);
#949 = EDGE_CURVE('',#950,#942,#952,.T.);
#950 = VERTEX_POINT('',#951);
#951 = CARTESIAN_POINT('',(161.5,-56.5,2.8));
#952 = CIRCLE('',#953,0.999999252925);
#953 = AXIS2_PLACEMENT_3D('',#954,#955,#956);
#954 = CARTESIAN_POINT('',(161.50000074707,-57.49999925292,2.8));
#955 = DIRECTION('',(0.,0.,-1.));
#956 = DIRECTION('',(-7.470757633756E-07,1.,0.));
#957 = ORIENTED_EDGE('',*,*,#958,.F.);
#958 = EDGE_CURVE('',#959,#950,#961,.T.);
#959 = VERTEX_POINT('',#960);
#960 = CARTESIAN_POINT('',(149.5,-56.5,2.8));
#961 = LINE('',#962,#963);
#962 = CARTESIAN_POINT('',(149.5,-56.5,2.8));
#963 = VECTOR('',#964,1.);
#964 = DIRECTION('',(1.,0.,0.));
#965 = ORIENTED_EDGE('',*,*,#966,.F.);
#966 = EDGE_CURVE('',#967,#959,#969,.T.);
#967 = VERTEX_POINT('',#968);
#968 = CARTESIAN_POINT('',(148.5,-55.5,2.8));
#969 = CIRCLE('',#970,0.999999252925);
#970 = AXIS2_PLACEMENT_3D('',#971,#972,#973);
#971 = CARTESIAN_POINT('',(149.49999925292,-55.50000074707,2.8));
#972 = DIRECTION('',(0.,0.,1.));
#973 = DIRECTION('',(-1.,7.470757562702E-07,0.));
#974 = ORIENTED_EDGE('',*,*,#975,.F.);
#975 = EDGE_CURVE('',#976,#967,#978,.T.);
#976 = VERTEX_POINT('',#977);
#977 = CARTESIAN_POINT('',(148.5,-47.5,2.8));
#978 = LINE('',#979,#980);
#979 = CARTESIAN_POINT('',(148.5,-47.5,2.8));
#980 = VECTOR('',#981,1.);
#981 = DIRECTION('',(0.,-1.,0.));
#982 = ORIENTED_EDGE('',*,*,#983,.F.);
#983 = EDGE_CURVE('',#984,#976,#986,.T.);
#984 = VERTEX_POINT('',#985);
#985 = CARTESIAN_POINT('',(147.5,-46.5,2.8));
#986 = CIRCLE('',#987,0.999999252925);
#987 = AXIS2_PLACEMENT_3D('',#988,#989,#990);
#988 = CARTESIAN_POINT('',(147.50000074707,-47.49999925292,2.8));
#989 = DIRECTION('',(0.,0.,-1.));
#990 = DIRECTION('',(-7.470757633756E-07,1.,0.));
#991 = ORIENTED_EDGE('',*,*,#992,.F.);
#992 = EDGE_CURVE('',#114,#984,#993,.T.);
#993 = LINE('',#994,#995);
#994 = CARTESIAN_POINT('',(127.,-46.5,2.8));
#995 = VECTOR('',#996,1.);
#996 = DIRECTION('',(1.,0.,0.));
#997 = ORIENTED_EDGE('',*,*,#113,.F.);
#998 = FACE_BOUND('',#999,.T.);
#999 = EDGE_LOOP('',(#1000));
#1000 = ORIENTED_EDGE('',*,*,#1001,.T.);
#1001 = EDGE_CURVE('',#1002,#1002,#1004,.T.);
#1002 = VERTEX_POINT('',#1003);
#1003 = CARTESIAN_POINT('',(58.,-108.6,2.8));
#1004 = CIRCLE('',#1005,1.1);
#1005 = AXIS2_PLACEMENT_3D('',#1006,#1007,#1008);
#1006 = CARTESIAN_POINT('',(58.,-107.5,2.8));
#1007 = DIRECTION('',(-0.,0.,-1.));
#1008 = DIRECTION('',(-0.,-1.,0.));
#1009 = FACE_BOUND('',#1010,.T.);
#1010 = EDGE_LOOP('',(#1011));
#1011 = ORIENTED_EDGE('',*,*,#1012,.T.);
#1012 = EDGE_CURVE('',#1013,#1013,#1015,.T.);
#1013 = VERTEX_POINT('',#1014);
#1014 = CARTESIAN_POINT('',(163.5,-108.6,2.8));
#1015 = CIRCLE('',#1016,1.1);
#1016 = AXIS2_PLACEMENT_3D('',#1017,#1018,#1019);
#1017 = CARTESIAN_POINT('',(163.5,-107.5,2.8));
#1018 = DIRECTION('',(-0.,0.,-1.));
#1019 = DIRECTION('',(-0.,-1.,0.));
#1020 = FACE_BOUND('',#1021,.T.);
#1021 = EDGE_LOOP('',(#1022));
#1022 = ORIENTED_EDGE('',*,*,#1023,.T.);
#1023 = EDGE_CURVE('',#1024,#1024,#1026,.T.);
#1024 = VERTEX_POINT('',#1025);
#1025 = CARTESIAN_POINT('',(88.,-51.85,2.8));
#1026 = CIRCLE('',#1027,1.1);
#1027 = AXIS2_PLACEMENT_3D('',#1028,#1029,#1030);
#1028 = CARTESIAN_POINT('',(88.,-50.75,2.8));
#1029 = DIRECTION('',(-0.,0.,-1.));
#1030 = DIRECTION('',(-0.,-1.,0.));
#1031 = FACE_BOUND('',#1032,.T.);
#1032 = EDGE_LOOP('',(#1033));
#1033 = ORIENTED_EDGE('',*,*,#1034,.T.);
#1034 = EDGE_CURVE('',#1035,#1035,#1037,.T.);
#1035 = VERTEX_POINT('',#1036);
#1036 = CARTESIAN_POINT('',(145.5,-51.6,2.8));
#1037 = CIRCLE('',#1038,1.1);
#1038 = AXIS2_PLACEMENT_3D('',#1039,#1040,#1041);
#1039 = CARTESIAN_POINT('',(145.5,-50.5,2.8));
#1040 = DIRECTION('',(-0.,0.,-1.));
#1041 = DIRECTION('',(-0.,-1.,0.));
#1042 = PLANE('',#1043);
#1043 = AXIS2_PLACEMENT_3D('',#1044,#1045,#1046);
#1044 = CARTESIAN_POINT('',(0.,0.,2.8));
#1045 = DIRECTION('',(0.,0.,1.));
#1046 = DIRECTION('',(1.,0.,-0.));
#1047 = ADVANCED_FACE('',(#1048),#1059,.T.);
#1048 = FACE_BOUND('',#1049,.T.);
#1049 = EDGE_LOOP('',(#1050,#1056,#1057,#1058));
#1050 = ORIENTED_EDGE('',*,*,#1051,.T.);
#1051 = EDGE_CURVE('',#148,#601,#1052,.T.);
#1052 = LINE('',#1053,#1054);
#1053 = CARTESIAN_POINT('',(105.5,-46.5,0.));
#1054 = VECTOR('',#1055,1.);
#1055 = DIRECTION('',(0.,0.,1.));
#1056 = ORIENTED_EDGE('',*,*,#600,.T.);
#1057 = ORIENTED_EDGE('',*,*,#81,.F.);
#1058 = ORIENTED_EDGE('',*,*,#147,.F.);
#1059 = CYLINDRICAL_SURFACE('',#1060,0.999999252925);
#1060 = AXIS2_PLACEMENT_3D('',#1061,#1062,#1063);
#1061 = CARTESIAN_POINT('',(106.49999925292,-46.49999925292,0.));
#1062 = DIRECTION('',(0.,0.,-1.));
#1063 = DIRECTION('',(-1.,-7.470757349539E-07,-0.));
#1064 = ADVANCED_FACE('',(#1065),#1076,.T.);
#1065 = FACE_BOUND('',#1066,.T.);
#1066 = EDGE_LOOP('',(#1067,#1068,#1069,#1075));
#1067 = ORIENTED_EDGE('',*,*,#122,.T.);
#1068 = ORIENTED_EDGE('',*,*,#992,.T.);
#1069 = ORIENTED_EDGE('',*,*,#1070,.F.);
#1070 = EDGE_CURVE('',#531,#984,#1071,.T.);
#1071 = LINE('',#1072,#1073);
#1072 = CARTESIAN_POINT('',(147.5,-46.5,0.));
#1073 = VECTOR('',#1074,1.);
#1074 = DIRECTION('',(0.,0.,1.));
#1075 = ORIENTED_EDGE('',*,*,#539,.F.);
#1076 = PLANE('',#1077);
#1077 = AXIS2_PLACEMENT_3D('',#1078,#1079,#1080);
#1078 = CARTESIAN_POINT('',(127.,-46.5,0.));
#1079 = DIRECTION('',(0.,1.,0.));
#1080 = DIRECTION('',(1.,0.,0.));
#1081 = ADVANCED_FACE('',(#1082),#1093,.T.);
#1082 = FACE_BOUND('',#1083,.T.);
#1083 = EDGE_LOOP('',(#1084,#1090,#1091,#1092));
#1084 = ORIENTED_EDGE('',*,*,#1085,.T.);
#1085 = EDGE_CURVE('',#157,#610,#1086,.T.);
#1086 = LINE('',#1087,#1088);
#1087 = CARTESIAN_POINT('',(105.5,-47.,0.));
#1088 = VECTOR('',#1089,1.);
#1089 = DIRECTION('',(0.,0.,1.));
#1090 = ORIENTED_EDGE('',*,*,#609,.T.);
#1091 = ORIENTED_EDGE('',*,*,#1051,.F.);
#1092 = ORIENTED_EDGE('',*,*,#156,.F.);
#1093 = PLANE('',#1094);
#1094 = AXIS2_PLACEMENT_3D('',#1095,#1096,#1097);
#1095 = CARTESIAN_POINT('',(105.5,-47.,0.));
#1096 = DIRECTION('',(-1.,0.,0.));
#1097 = DIRECTION('',(0.,1.,0.));
#1098 = ADVANCED_FACE('',(#1099),#1110,.T.);
#1099 = FACE_BOUND('',#1100,.T.);
#1100 = EDGE_LOOP('',(#1101,#1102,#1103,#1109));
#1101 = ORIENTED_EDGE('',*,*,#1070,.T.);
#1102 = ORIENTED_EDGE('',*,*,#983,.T.);
#1103 = ORIENTED_EDGE('',*,*,#1104,.F.);
#1104 = EDGE_CURVE('',#523,#976,#1105,.T.);
#1105 = LINE('',#1106,#1107);
#1106 = CARTESIAN_POINT('',(148.5,-47.5,0.));
#1107 = VECTOR('',#1108,1.);
#1108 = DIRECTION('',(0.,0.,1.));
#1109 = ORIENTED_EDGE('',*,*,#530,.F.);
#1110 = CYLINDRICAL_SURFACE('',#1111,0.999999252925);
#1111 = AXIS2_PLACEMENT_3D('',#1112,#1113,#1114);
#1112 = CARTESIAN_POINT('',(147.50000074707,-47.49999925292,0.));
#1113 = DIRECTION('',(0.,0.,-1.));
#1114 = DIRECTION('',(-7.470757633756E-07,1.,0.));
#1115 = ADVANCED_FACE('',(#1116),#1127,.F.);
#1116 = FACE_BOUND('',#1117,.T.);
#1117 = EDGE_LOOP('',(#1118,#1124,#1125,#1126));
#1118 = ORIENTED_EDGE('',*,*,#1119,.T.);
#1119 = EDGE_CURVE('',#165,#618,#1120,.T.);
#1120 = LINE('',#1121,#1122);
#1121 = CARTESIAN_POINT('',(104.5,-48.,0.));
#1122 = VECTOR('',#1123,1.);
#1123 = DIRECTION('',(0.,0.,1.));
#1124 = ORIENTED_EDGE('',*,*,#617,.T.);
#1125 = ORIENTED_EDGE('',*,*,#1085,.F.);
#1126 = ORIENTED_EDGE('',*,*,#164,.F.);
#1127 = CYLINDRICAL_SURFACE('',#1128,0.999999252925);
#1128 = AXIS2_PLACEMENT_3D('',#1129,#1130,#1131);
#1129 = CARTESIAN_POINT('',(104.50000074707,-47.00000074707,0.));
#1130 = DIRECTION('',(-0.,-0.,-1.));
#1131 = DIRECTION('',(-7.470757349539E-07,-1.,0.));
#1132 = ADVANCED_FACE('',(#1133),#1144,.T.);
#1133 = FACE_BOUND('',#1134,.T.);
#1134 = EDGE_LOOP('',(#1135,#1136,#1137,#1143));
#1135 = ORIENTED_EDGE('',*,*,#1104,.T.);
#1136 = ORIENTED_EDGE('',*,*,#975,.T.);
#1137 = ORIENTED_EDGE('',*,*,#1138,.F.);
#1138 = EDGE_CURVE('',#514,#967,#1139,.T.);
#1139 = LINE('',#1140,#1141);
#1140 = CARTESIAN_POINT('',(148.5,-55.5,0.));
#1141 = VECTOR('',#1142,1.);
#1142 = DIRECTION('',(0.,0.,1.));
#1143 = ORIENTED_EDGE('',*,*,#522,.F.);
#1144 = PLANE('',#1145);
#1145 = AXIS2_PLACEMENT_3D('',#1146,#1147,#1148);
#1146 = CARTESIAN_POINT('',(148.5,-47.5,0.));
#1147 = DIRECTION('',(1.,0.,-0.));
#1148 = DIRECTION('',(0.,-1.,0.));
#1149 = ADVANCED_FACE('',(#1150),#1161,.T.);
#1150 = FACE_BOUND('',#1151,.T.);
#1151 = EDGE_LOOP('',(#1152,#1158,#1159,#1160));
#1152 = ORIENTED_EDGE('',*,*,#1153,.T.);
#1153 = EDGE_CURVE('',#174,#627,#1154,.T.);
#1154 = LINE('',#1155,#1156);
#1155 = CARTESIAN_POINT('',(86.25,-48.,0.));
#1156 = VECTOR('',#1157,1.);
#1157 = DIRECTION('',(0.,0.,1.));
#1158 = ORIENTED_EDGE('',*,*,#626,.T.);
#1159 = ORIENTED_EDGE('',*,*,#1119,.F.);
#1160 = ORIENTED_EDGE('',*,*,#173,.F.);
#1161 = PLANE('',#1162);
#1162 = AXIS2_PLACEMENT_3D('',#1163,#1164,#1165);
#1163 = CARTESIAN_POINT('',(86.25,-48.,0.));
#1164 = DIRECTION('',(0.,1.,0.));
#1165 = DIRECTION('',(1.,0.,0.));
#1166 = ADVANCED_FACE('',(#1167),#1178,.F.);
#1167 = FACE_BOUND('',#1168,.T.);
#1168 = EDGE_LOOP('',(#1169,#1170,#1171,#1177));
#1169 = ORIENTED_EDGE('',*,*,#1138,.T.);
#1170 = ORIENTED_EDGE('',*,*,#966,.T.);
#1171 = ORIENTED_EDGE('',*,*,#1172,.F.);
#1172 = EDGE_CURVE('',#506,#959,#1173,.T.);
#1173 = LINE('',#1174,#1175);
#1174 = CARTESIAN_POINT('',(149.5,-56.5,0.));
#1175 = VECTOR('',#1176,1.);
#1176 = DIRECTION('',(0.,0.,1.));
#1177 = ORIENTED_EDGE('',*,*,#513,.F.);
#1178 = CYLINDRICAL_SURFACE('',#1179,0.999999252925);
#1179 = AXIS2_PLACEMENT_3D('',#1180,#1181,#1182);
#1180 = CARTESIAN_POINT('',(149.49999925292,-55.50000074707,0.));
#1181 = DIRECTION('',(-0.,-0.,-1.));
#1182 = DIRECTION('',(-1.,7.470757562702E-07,0.));
#1183 = ADVANCED_FACE('',(#1184),#1195,.T.);
#1184 = FACE_BOUND('',#1185,.T.);
#1185 = EDGE_LOOP('',(#1186,#1192,#1193,#1194));
#1186 = ORIENTED_EDGE('',*,*,#1187,.T.);
#1187 = EDGE_CURVE('',#182,#635,#1188,.T.);
#1188 = LINE('',#1189,#1190);
#1189 = CARTESIAN_POINT('',(85.25,-49.,0.));
#1190 = VECTOR('',#1191,1.);
#1191 = DIRECTION('',(0.,0.,1.));
#1192 = ORIENTED_EDGE('',*,*,#634,.T.);
#1193 = ORIENTED_EDGE('',*,*,#1153,.F.);
#1194 = ORIENTED_EDGE('',*,*,#181,.F.);
#1195 = CYLINDRICAL_SURFACE('',#1196,0.999999252925);
#1196 = AXIS2_PLACEMENT_3D('',#1197,#1198,#1199);
#1197 = CARTESIAN_POINT('',(86.249999252925,-48.99999925292,0.));
#1198 = DIRECTION('',(0.,0.,-1.));
#1199 = DIRECTION('',(-1.,-7.470757349539E-07,-0.));
#1200 = ADVANCED_FACE('',(#1201),#1212,.T.);
#1201 = FACE_BOUND('',#1202,.T.);
#1202 = EDGE_LOOP('',(#1203,#1204,#1205,#1211));
#1203 = ORIENTED_EDGE('',*,*,#1172,.T.);
#1204 = ORIENTED_EDGE('',*,*,#958,.T.);
#1205 = ORIENTED_EDGE('',*,*,#1206,.F.);
#1206 = EDGE_CURVE('',#497,#950,#1207,.T.);
#1207 = LINE('',#1208,#1209);
#1208 = CARTESIAN_POINT('',(161.5,-56.5,0.));
#1209 = VECTOR('',#1210,1.);
#1210 = DIRECTION('',(0.,0.,1.));
#1211 = ORIENTED_EDGE('',*,*,#505,.F.);
#1212 = PLANE('',#1213);
#1213 = AXIS2_PLACEMENT_3D('',#1214,#1215,#1216);
#1214 = CARTESIAN_POINT('',(149.5,-56.5,0.));
#1215 = DIRECTION('',(0.,1.,0.));
#1216 = DIRECTION('',(1.,0.,0.));
#1217 = ADVANCED_FACE('',(#1218),#1229,.T.);
#1218 = FACE_BOUND('',#1219,.T.);
#1219 = EDGE_LOOP('',(#1220,#1226,#1227,#1228));
#1220 = ORIENTED_EDGE('',*,*,#1221,.T.);
#1221 = EDGE_CURVE('',#191,#644,#1222,.T.);
#1222 = LINE('',#1223,#1224);
#1223 = CARTESIAN_POINT('',(85.25,-49.5,0.));
#1224 = VECTOR('',#1225,1.);
#1225 = DIRECTION('',(0.,0.,1.));
#1226 = ORIENTED_EDGE('',*,*,#643,.T.);
#1227 = ORIENTED_EDGE('',*,*,#1187,.F.);
#1228 = ORIENTED_EDGE('',*,*,#190,.F.);
#1229 = PLANE('',#1230);
#1230 = AXIS2_PLACEMENT_3D('',#1231,#1232,#1233);
#1231 = CARTESIAN_POINT('',(85.25,-49.5,0.));
#1232 = DIRECTION('',(-1.,0.,0.));
#1233 = DIRECTION('',(0.,1.,0.));
#1234 = ADVANCED_FACE('',(#1235),#1246,.T.);
#1235 = FACE_BOUND('',#1236,.T.);
#1236 = EDGE_LOOP('',(#1237,#1238,#1239,#1245));
#1237 = ORIENTED_EDGE('',*,*,#1206,.T.);
#1238 = ORIENTED_EDGE('',*,*,#949,.T.);
#1239 = ORIENTED_EDGE('',*,*,#1240,.F.);
#1240 = EDGE_CURVE('',#489,#942,#1241,.T.);
#1241 = LINE('',#1242,#1243);
#1242 = CARTESIAN_POINT('',(162.5,-57.5,0.));
#1243 = VECTOR('',#1244,1.);
#1244 = DIRECTION('',(0.,0.,1.));
#1245 = ORIENTED_EDGE('',*,*,#496,.F.);
#1246 = CYLINDRICAL_SURFACE('',#1247,0.999999252925);
#1247 = AXIS2_PLACEMENT_3D('',#1248,#1249,#1250);
#1248 = CARTESIAN_POINT('',(161.50000074707,-57.49999925292,0.));
#1249 = DIRECTION('',(0.,0.,-1.));
#1250 = DIRECTION('',(-7.470757633756E-07,1.,0.));
#1251 = ADVANCED_FACE('',(#1252),#1263,.F.);
#1252 = FACE_BOUND('',#1253,.T.);
#1253 = EDGE_LOOP('',(#1254,#1260,#1261,#1262));
#1254 = ORIENTED_EDGE('',*,*,#1255,.T.);
#1255 = EDGE_CURVE('',#199,#652,#1256,.T.);
#1256 = LINE('',#1257,#1258);
#1257 = CARTESIAN_POINT('',(84.25,-50.5,0.));
#1258 = VECTOR('',#1259,1.);
#1259 = DIRECTION('',(0.,0.,1.));
#1260 = ORIENTED_EDGE('',*,*,#651,.T.);
#1261 = ORIENTED_EDGE('',*,*,#1221,.F.);
#1262 = ORIENTED_EDGE('',*,*,#198,.F.);
#1263 = CYLINDRICAL_SURFACE('',#1264,0.999999252925);
#1264 = AXIS2_PLACEMENT_3D('',#1265,#1266,#1267);
#1265 = CARTESIAN_POINT('',(84.250000747075,-49.50000074707,0.));
#1266 = DIRECTION('',(-0.,-0.,-1.));
#1267 = DIRECTION('',(-7.470757349539E-07,-1.,0.));
#1268 = ADVANCED_FACE('',(#1269),#1280,.T.);
#1269 = FACE_BOUND('',#1270,.T.);
#1270 = EDGE_LOOP('',(#1271,#1272,#1273,#1279));
#1271 = ORIENTED_EDGE('',*,*,#1240,.T.);
#1272 = ORIENTED_EDGE('',*,*,#941,.T.);
#1273 = ORIENTED_EDGE('',*,*,#1274,.F.);
#1274 = EDGE_CURVE('',#480,#933,#1275,.T.);
#1275 = LINE('',#1276,#1277);
#1276 = CARTESIAN_POINT('',(162.5,-68.5,0.));
#1277 = VECTOR('',#1278,1.);
#1278 = DIRECTION('',(0.,0.,1.));
#1279 = ORIENTED_EDGE('',*,*,#488,.F.);
#1280 = PLANE('',#1281);
#1281 = AXIS2_PLACEMENT_3D('',#1282,#1283,#1284);
#1282 = CARTESIAN_POINT('',(162.5,-57.5,0.));
#1283 = DIRECTION('',(1.,0.,-0.));
#1284 = DIRECTION('',(0.,-1.,0.));
#1285 = ADVANCED_FACE('',(#1286),#1297,.T.);
#1286 = FACE_BOUND('',#1287,.T.);
#1287 = EDGE_LOOP('',(#1288,#1294,#1295,#1296));
#1288 = ORIENTED_EDGE('',*,*,#1289,.T.);
#1289 = EDGE_CURVE('',#208,#661,#1290,.T.);
#1290 = LINE('',#1291,#1292);
#1291 = CARTESIAN_POINT('',(50.5,-50.5,0.));
#1292 = VECTOR('',#1293,1.);
#1293 = DIRECTION('',(0.,0.,1.));
#1294 = ORIENTED_EDGE('',*,*,#660,.T.);
#1295 = ORIENTED_EDGE('',*,*,#1255,.F.);
#1296 = ORIENTED_EDGE('',*,*,#207,.F.);
#1297 = PLANE('',#1298);
#1298 = AXIS2_PLACEMENT_3D('',#1299,#1300,#1301);
#1299 = CARTESIAN_POINT('',(50.5,-50.5,0.));
#1300 = DIRECTION('',(0.,1.,0.));
#1301 = DIRECTION('',(1.,0.,0.));
#1302 = ADVANCED_FACE('',(#1303),#1314,.F.);
#1303 = FACE_BOUND('',#1304,.T.);
#1304 = EDGE_LOOP('',(#1305,#1306,#1307,#1313));
#1305 = ORIENTED_EDGE('',*,*,#1274,.T.);
#1306 = ORIENTED_EDGE('',*,*,#932,.T.);
#1307 = ORIENTED_EDGE('',*,*,#1308,.F.);
#1308 = EDGE_CURVE('',#472,#925,#1309,.T.);
#1309 = LINE('',#1310,#1311);
#1310 = CARTESIAN_POINT('',(163.5,-69.5,0.));
#1311 = VECTOR('',#1312,1.);
#1312 = DIRECTION('',(0.,0.,1.));
#1313 = ORIENTED_EDGE('',*,*,#479,.F.);
#1314 = CYLINDRICAL_SURFACE('',#1315,0.999999252925);
#1315 = AXIS2_PLACEMENT_3D('',#1316,#1317,#1318);
#1316 = CARTESIAN_POINT('',(163.49999925292,-68.50000074707,0.));
#1317 = DIRECTION('',(-0.,-0.,-1.));
#1318 = DIRECTION('',(-1.,7.470757491648E-07,0.));
#1319 = ADVANCED_FACE('',(#1320),#1331,.T.);
#1320 = FACE_BOUND('',#1321,.T.);
#1321 = EDGE_LOOP('',(#1322,#1328,#1329,#1330));
#1322 = ORIENTED_EDGE('',*,*,#1323,.T.);
#1323 = EDGE_CURVE('',#216,#669,#1324,.T.);
#1324 = LINE('',#1325,#1326);
#1325 = CARTESIAN_POINT('',(49.5,-51.5,0.));
#1326 = VECTOR('',#1327,1.);
#1327 = DIRECTION('',(0.,0.,1.));
#1328 = ORIENTED_EDGE('',*,*,#668,.T.);
#1329 = ORIENTED_EDGE('',*,*,#1289,.F.);
#1330 = ORIENTED_EDGE('',*,*,#215,.F.);
#1331 = CYLINDRICAL_SURFACE('',#1332,0.999999252925);
#1332 = AXIS2_PLACEMENT_3D('',#1333,#1334,#1335);
#1333 = CARTESIAN_POINT('',(50.499999252925,-51.49999925292,0.));
#1334 = DIRECTION('',(0.,0.,-1.));
#1335 = DIRECTION('',(-1.,-7.470757491648E-07,-0.));
#1336 = ADVANCED_FACE('',(#1337),#1348,.T.);
#1337 = FACE_BOUND('',#1338,.T.);
#1338 = EDGE_LOOP('',(#1339,#1340,#1341,#1347));
#1339 = ORIENTED_EDGE('',*,*,#1308,.T.);
#1340 = ORIENTED_EDGE('',*,*,#924,.T.);
#1341 = ORIENTED_EDGE('',*,*,#1342,.F.);
#1342 = EDGE_CURVE('',#463,#916,#1343,.T.);
#1343 = LINE('',#1344,#1345);
#1344 = CARTESIAN_POINT('',(179.5,-69.5,0.));
#1345 = VECTOR('',#1346,1.);
#1346 = DIRECTION('',(0.,0.,1.));
#1347 = ORIENTED_EDGE('',*,*,#471,.F.);
#1348 = PLANE('',#1349);
#1349 = AXIS2_PLACEMENT_3D('',#1350,#1351,#1352);
#1350 = CARTESIAN_POINT('',(163.5,-69.5,0.));
#1351 = DIRECTION('',(0.,1.,0.));
#1352 = DIRECTION('',(1.,0.,0.));
#1353 = ADVANCED_FACE('',(#1354),#1365,.T.);
#1354 = FACE_BOUND('',#1355,.T.);
#1355 = EDGE_LOOP('',(#1356,#1362,#1363,#1364));
#1356 = ORIENTED_EDGE('',*,*,#1357,.T.);
#1357 = EDGE_CURVE('',#225,#678,#1358,.T.);
#1358 = LINE('',#1359,#1360);
#1359 = CARTESIAN_POINT('',(49.5,-103.70025,0.));
#1360 = VECTOR('',#1361,1.);
#1361 = DIRECTION('',(0.,0.,1.));
#1362 = ORIENTED_EDGE('',*,*,#677,.T.);
#1363 = ORIENTED_EDGE('',*,*,#1323,.F.);
#1364 = ORIENTED_EDGE('',*,*,#224,.F.);
#1365 = PLANE('',#1366);
#1366 = AXIS2_PLACEMENT_3D('',#1367,#1368,#1369);
#1367 = CARTESIAN_POINT('',(49.5,-103.70025,0.));
#1368 = DIRECTION('',(-1.,0.,0.));
#1369 = DIRECTION('',(0.,1.,0.));
#1370 = ADVANCED_FACE('',(#1371),#1382,.T.);
#1371 = FACE_BOUND('',#1372,.T.);
#1372 = EDGE_LOOP('',(#1373,#1374,#1375,#1381));
#1373 = ORIENTED_EDGE('',*,*,#1342,.T.);
#1374 = ORIENTED_EDGE('',*,*,#915,.T.);
#1375 = ORIENTED_EDGE('',*,*,#1376,.F.);
#1376 = EDGE_CURVE('',#455,#908,#1377,.T.);
#1377 = LINE('',#1378,#1379);
#1378 = CARTESIAN_POINT('',(180.5,-70.5,0.));
#1379 = VECTOR('',#1380,1.);
#1380 = DIRECTION('',(0.,0.,1.));
#1381 = ORIENTED_EDGE('',*,*,#462,.F.);
#1382 = CYLINDRICAL_SURFACE('',#1383,0.999999252925);
#1383 = AXIS2_PLACEMENT_3D('',#1384,#1385,#1386);
#1384 = CARTESIAN_POINT('',(179.50000074707,-70.49999925292,0.));
#1385 = DIRECTION('',(0.,0.,-1.));
#1386 = DIRECTION('',(-7.470757349539E-07,1.,0.));
#1387 = ADVANCED_FACE('',(#1388),#1399,.F.);
#1388 = FACE_BOUND('',#1389,.T.);
#1389 = EDGE_LOOP('',(#1390,#1396,#1397,#1398));
#1390 = ORIENTED_EDGE('',*,*,#1391,.T.);
#1391 = EDGE_CURVE('',#233,#686,#1392,.T.);
#1392 = LINE('',#1393,#1394);
#1393 = CARTESIAN_POINT('',(47.,-108.030377,0.));
#1394 = VECTOR('',#1395,1.);
#1395 = DIRECTION('',(0.,0.,1.));
#1396 = ORIENTED_EDGE('',*,*,#685,.T.);
#1397 = ORIENTED_EDGE('',*,*,#1357,.F.);
#1398 = ORIENTED_EDGE('',*,*,#232,.F.);
#1399 = CYLINDRICAL_SURFACE('',#1400,5.00016459185);
#1400 = AXIS2_PLACEMENT_3D('',#1401,#1402,#1403);
#1401 = CARTESIAN_POINT('',(44.499835409053,-103.7001549544,0.));
#1402 = DIRECTION('',(-0.,-0.,-1.));
#1403 = DIRECTION('',(0.500016458463,-0.866015901278,0.));
#1404 = ADVANCED_FACE('',(#1405),#1416,.T.);
#1405 = FACE_BOUND('',#1406,.T.);
#1406 = EDGE_LOOP('',(#1407,#1408,#1409,#1415));
#1407 = ORIENTED_EDGE('',*,*,#1376,.T.);
#1408 = ORIENTED_EDGE('',*,*,#907,.T.);
#1409 = ORIENTED_EDGE('',*,*,#1410,.F.);
#1410 = EDGE_CURVE('',#446,#899,#1411,.T.);
#1411 = LINE('',#1412,#1413);
#1412 = CARTESIAN_POINT('',(180.5,-105.5,0.));
#1413 = VECTOR('',#1414,1.);
#1414 = DIRECTION('',(0.,0.,1.));
#1415 = ORIENTED_EDGE('',*,*,#454,.F.);
#1416 = PLANE('',#1417);
#1417 = AXIS2_PLACEMENT_3D('',#1418,#1419,#1420);
#1418 = CARTESIAN_POINT('',(180.5,-70.5,0.));
#1419 = DIRECTION('',(1.,0.,-0.));
#1420 = DIRECTION('',(0.,-1.,0.));
#1421 = ADVANCED_FACE('',(#1422),#1433,.T.);
#1422 = FACE_BOUND('',#1423,.T.);
#1423 = EDGE_LOOP('',(#1424,#1430,#1431,#1432));
#1424 = ORIENTED_EDGE('',*,*,#1425,.T.);
#1425 = EDGE_CURVE('',#242,#695,#1426,.T.);
#1426 = LINE('',#1427,#1428);
#1427 = CARTESIAN_POINT('',(35.955785,-114.406758,0.));
#1428 = VECTOR('',#1429,1.);
#1429 = DIRECTION('',(0.,0.,1.));
#1430 = ORIENTED_EDGE('',*,*,#694,.T.);
#1431 = ORIENTED_EDGE('',*,*,#1391,.F.);
#1432 = ORIENTED_EDGE('',*,*,#241,.F.);
#1433 = PLANE('',#1434);
#1434 = AXIS2_PLACEMENT_3D('',#1435,#1436,#1437);
#1435 = CARTESIAN_POINT('',(35.955785,-114.406758,0.));
#1436 = DIRECTION('',(-0.500000029215,0.866025386917,0.));
#1437 = DIRECTION('',(0.866025386917,0.500000029215,0.));
#1438 = ADVANCED_FACE('',(#1439),#1450,.T.);
#1439 = FACE_BOUND('',#1440,.T.);
#1440 = EDGE_LOOP('',(#1441,#1442,#1443,#1449));
#1441 = ORIENTED_EDGE('',*,*,#1410,.T.);
#1442 = ORIENTED_EDGE('',*,*,#898,.T.);
#1443 = ORIENTED_EDGE('',*,*,#1444,.F.);
#1444 = EDGE_CURVE('',#438,#891,#1445,.T.);
#1445 = LINE('',#1446,#1447);
#1446 = CARTESIAN_POINT('',(179.5,-106.5,0.));
#1447 = VECTOR('',#1448,1.);
#1448 = DIRECTION('',(0.,0.,1.));
#1449 = ORIENTED_EDGE('',*,*,#445,.F.);
#1450 = CYLINDRICAL_SURFACE('',#1451,0.999999252925);
#1451 = AXIS2_PLACEMENT_3D('',#1452,#1453,#1454);
#1452 = CARTESIAN_POINT('',(179.50000074707,-105.500000747,0.));
#1453 = DIRECTION('',(0.,0.,-1.));
#1454 = DIRECTION('',(1.,7.470757491648E-07,0.));
#1455 = ADVANCED_FACE('',(#1456),#1467,.T.);
#1456 = FACE_BOUND('',#1457,.T.);
#1457 = EDGE_LOOP('',(#1458,#1464,#1465,#1466));
#1458 = ORIENTED_EDGE('',*,*,#1459,.T.);
#1459 = EDGE_CURVE('',#250,#703,#1460,.T.);
#1460 = LINE('',#1461,#1462);
#1461 = CARTESIAN_POINT('',(35.589762,-115.772786,0.));
#1462 = VECTOR('',#1463,1.);
#1463 = DIRECTION('',(0.,0.,1.));
#1464 = ORIENTED_EDGE('',*,*,#702,.T.);
#1465 = ORIENTED_EDGE('',*,*,#1425,.F.);
#1466 = ORIENTED_EDGE('',*,*,#249,.F.);
#1467 = CYLINDRICAL_SURFACE('',#1468,0.999999282751);
#1468 = AXIS2_PLACEMENT_3D('',#1469,#1470,#1471);
#1469 = CARTESIAN_POINT('',(36.455784698856,-115.2727827494,0.));
#1470 = DIRECTION('',(0.,0.,-1.));
#1471 = DIRECTION('',(-0.86602332001,-0.500003609185,-0.));
#1472 = ADVANCED_FACE('',(#1473),#1484,.T.);
#1473 = FACE_BOUND('',#1474,.T.);
#1474 = EDGE_LOOP('',(#1475,#1476,#1477,#1483));
#1475 = ORIENTED_EDGE('',*,*,#1444,.T.);
#1476 = ORIENTED_EDGE('',*,*,#890,.T.);
#1477 = ORIENTED_EDGE('',*,*,#1478,.F.);
#1478 = EDGE_CURVE('',#429,#882,#1479,.T.);
#1479 = LINE('',#1480,#1481);
#1480 = CARTESIAN_POINT('',(167.5,-106.5,0.));
#1481 = VECTOR('',#1482,1.);
#1482 = DIRECTION('',(0.,0.,1.));
#1483 = ORIENTED_EDGE('',*,*,#437,.F.);
#1484 = PLANE('',#1485);
#1485 = AXIS2_PLACEMENT_3D('',#1486,#1487,#1488);
#1486 = CARTESIAN_POINT('',(179.5,-106.5,0.));
#1487 = DIRECTION('',(0.,-1.,0.));
#1488 = DIRECTION('',(-1.,0.,0.));
#1489 = ADVANCED_FACE('',(#1490),#1501,.T.);
#1490 = FACE_BOUND('',#1491,.T.);
#1491 = EDGE_LOOP('',(#1492,#1498,#1499,#1500));
#1492 = ORIENTED_EDGE('',*,*,#1493,.T.);
#1493 = EDGE_CURVE('',#259,#712,#1494,.T.);
#1494 = LINE('',#1495,#1496);
#1495 = CARTESIAN_POINT('',(45.582283,-133.0802,0.));
#1496 = VECTOR('',#1497,1.);
#1497 = DIRECTION('',(0.,0.,1.));
#1498 = ORIENTED_EDGE('',*,*,#711,.T.);
#1499 = ORIENTED_EDGE('',*,*,#1459,.F.);
#1500 = ORIENTED_EDGE('',*,*,#258,.F.);
#1501 = PLANE('',#1502);
#1502 = AXIS2_PLACEMENT_3D('',#1503,#1504,#1505);
#1503 = CARTESIAN_POINT('',(45.582283,-133.0802,0.));
#1504 = DIRECTION('',(-0.866023651612,-0.50000303484,0.));
#1505 = DIRECTION('',(-0.50000303484,0.866023651612,0.));
#1506 = ADVANCED_FACE('',(#1507),#1518,.F.);
#1507 = FACE_BOUND('',#1508,.T.);
#1508 = EDGE_LOOP('',(#1509,#1510,#1511,#1517));
#1509 = ORIENTED_EDGE('',*,*,#1478,.T.);
#1510 = ORIENTED_EDGE('',*,*,#881,.T.);
#1511 = ORIENTED_EDGE('',*,*,#1512,.F.);
#1512 = EDGE_CURVE('',#421,#874,#1513,.T.);
#1513 = LINE('',#1514,#1515);
#1514 = CARTESIAN_POINT('',(166.5,-107.5,0.));
#1515 = VECTOR('',#1516,1.);
#1516 = DIRECTION('',(0.,0.,1.));
#1517 = ORIENTED_EDGE('',*,*,#428,.F.);
#1518 = CYLINDRICAL_SURFACE('',#1519,0.999999252925);
#1519 = AXIS2_PLACEMENT_3D('',#1520,#1521,#1522);
#1520 = CARTESIAN_POINT('',(167.49999925292,-107.4999992529,0.));
#1521 = DIRECTION('',(-0.,-0.,-1.));
#1522 = DIRECTION('',(7.470757349539E-07,1.,-0.));
#1523 = ADVANCED_FACE('',(#1524),#1535,.T.);
#1524 = FACE_BOUND('',#1525,.T.);
#1525 = EDGE_LOOP('',(#1526,#1532,#1533,#1534));
#1526 = ORIENTED_EDGE('',*,*,#1527,.T.);
#1527 = EDGE_CURVE('',#267,#720,#1528,.T.);
#1528 = LINE('',#1529,#1530);
#1529 = CARTESIAN_POINT('',(46.713675,-133.544345,0.));
#1530 = VECTOR('',#1531,1.);
#1531 = DIRECTION('',(0.,0.,1.));
#1532 = ORIENTED_EDGE('',*,*,#719,.T.);
#1533 = ORIENTED_EDGE('',*,*,#1493,.F.);
#1534 = ORIENTED_EDGE('',*,*,#266,.F.);
#1535 = CYLINDRICAL_SURFACE('',#1536,0.999981645884);
#1536 = AXIS2_PLACEMENT_3D('',#1537,#1538,#1539);
#1537 = CARTESIAN_POINT('',(46.448298311215,-132.5802192275,0.));
#1538 = DIRECTION('',(0.,0.,-1.));
#1539 = DIRECTION('',(0.265381559629,-0.964143468478,0.));
#1540 = ADVANCED_FACE('',(#1541),#1552,.T.);
#1541 = FACE_BOUND('',#1542,.T.);
#1542 = EDGE_LOOP('',(#1543,#1544,#1545,#1551));
#1543 = ORIENTED_EDGE('',*,*,#1512,.T.);
#1544 = ORIENTED_EDGE('',*,*,#873,.T.);
#1545 = ORIENTED_EDGE('',*,*,#1546,.F.);
#1546 = EDGE_CURVE('',#412,#865,#1547,.T.);
#1547 = LINE('',#1548,#1549);
#1548 = CARTESIAN_POINT('',(166.5,-109.5,0.));
#1549 = VECTOR('',#1550,1.);
#1550 = DIRECTION('',(0.,0.,1.));
#1551 = ORIENTED_EDGE('',*,*,#420,.F.);
#1552 = PLANE('',#1553);
#1553 = AXIS2_PLACEMENT_3D('',#1554,#1555,#1556);
#1554 = CARTESIAN_POINT('',(166.5,-107.5,0.));
#1555 = DIRECTION('',(1.,0.,-0.));
#1556 = DIRECTION('',(0.,-1.,0.));
#1557 = ADVANCED_FACE('',(#1558),#1569,.T.);
#1558 = FACE_BOUND('',#1559,.T.);
#1559 = EDGE_LOOP('',(#1560,#1566,#1567,#1568));
#1560 = ORIENTED_EDGE('',*,*,#1561,.T.);
#1561 = EDGE_CURVE('',#276,#729,#1562,.T.);
#1562 = LINE('',#1563,#1564);
#1563 = CARTESIAN_POINT('',(80.29895,-124.300482,0.));
#1564 = VECTOR('',#1565,1.);
#1565 = DIRECTION('',(0.,0.,1.));
#1566 = ORIENTED_EDGE('',*,*,#728,.T.);
#1567 = ORIENTED_EDGE('',*,*,#1527,.F.);
#1568 = ORIENTED_EDGE('',*,*,#275,.F.);
#1569 = PLANE('',#1570);
#1570 = AXIS2_PLACEMENT_3D('',#1571,#1572,#1573);
#1571 = CARTESIAN_POINT('',(80.29895,-124.300482,0.));
#1572 = DIRECTION('',(0.265367650665,-0.964147296828,0.));
#1573 = DIRECTION('',(-0.964147296828,-0.265367650665,0.));
#1574 = ADVANCED_FACE('',(#1575),#1586,.T.);
#1575 = FACE_BOUND('',#1576,.T.);
#1576 = EDGE_LOOP('',(#1577,#1578,#1579,#1585));
#1577 = ORIENTED_EDGE('',*,*,#1546,.T.);
#1578 = ORIENTED_EDGE('',*,*,#864,.T.);
#1579 = ORIENTED_EDGE('',*,*,#1580,.F.);
#1580 = EDGE_CURVE('',#404,#857,#1581,.T.);
#1581 = LINE('',#1582,#1583);
#1582 = CARTESIAN_POINT('',(165.5,-110.5,0.));
#1583 = VECTOR('',#1584,1.);
#1584 = DIRECTION('',(0.,0.,1.));
#1585 = ORIENTED_EDGE('',*,*,#411,.F.);
#1586 = CYLINDRICAL_SURFACE('',#1587,0.999999252925);
#1587 = AXIS2_PLACEMENT_3D('',#1588,#1589,#1590);
#1588 = CARTESIAN_POINT('',(165.50000074707,-109.500000747,0.));
#1589 = DIRECTION('',(0.,0.,-1.));
#1590 = DIRECTION('',(1.,7.470757491648E-07,0.));
#1591 = ADVANCED_FACE('',(#1592),#1603,.T.);
#1592 = FACE_BOUND('',#1593,.T.);
#1593 = EDGE_LOOP('',(#1594,#1600,#1601,#1602));
#1594 = ORIENTED_EDGE('',*,*,#1595,.T.);
#1595 = EDGE_CURVE('',#284,#737,#1596,.T.);
#1596 = LINE('',#1597,#1598);
#1597 = CARTESIAN_POINT('',(80.999508,-123.077517,0.));
#1598 = VECTOR('',#1599,1.);
#1599 = DIRECTION('',(0.,0.,1.));
#1600 = ORIENTED_EDGE('',*,*,#736,.T.);
#1601 = ORIENTED_EDGE('',*,*,#1561,.F.);
#1602 = ORIENTED_EDGE('',*,*,#283,.F.);
#1603 = CYLINDRICAL_SURFACE('',#1604,1.000002284271);
#1604 = AXIS2_PLACEMENT_3D('',#1605,#1606,#1607);
#1605 = CARTESIAN_POINT('',(80.033579057257,-123.33633324,0.));
#1606 = DIRECTION('',(0.,0.,-1.));
#1607 = DIRECTION('',(0.965926736305,0.258815648854,0.));
#1608 = ADVANCED_FACE('',(#1609),#1620,.T.);
#1609 = FACE_BOUND('',#1610,.T.);
#1610 = EDGE_LOOP('',(#1611,#1612,#1613,#1619));
#1611 = ORIENTED_EDGE('',*,*,#1580,.T.);
#1612 = ORIENTED_EDGE('',*,*,#856,.T.);
#1613 = ORIENTED_EDGE('',*,*,#1614,.F.);
#1614 = EDGE_CURVE('',#395,#848,#1615,.T.);
#1615 = LINE('',#1616,#1617);
#1616 = CARTESIAN_POINT('',(144.,-110.5,0.));
#1617 = VECTOR('',#1618,1.);
#1618 = DIRECTION('',(0.,0.,1.));
#1619 = ORIENTED_EDGE('',*,*,#403,.F.);
#1620 = PLANE('',#1621);
#1621 = AXIS2_PLACEMENT_3D('',#1622,#1623,#1624);
#1622 = CARTESIAN_POINT('',(165.5,-110.5,0.));
#1623 = DIRECTION('',(0.,-1.,0.));
#1624 = DIRECTION('',(-1.,0.,0.));
#1625 = ADVANCED_FACE('',(#1626),#1637,.T.);
#1626 = FACE_BOUND('',#1627,.T.);
#1627 = EDGE_LOOP('',(#1628,#1634,#1635,#1636));
#1628 = ORIENTED_EDGE('',*,*,#1629,.T.);
#1629 = EDGE_CURVE('',#293,#746,#1630,.T.);
#1630 = LINE('',#1631,#1632);
#1631 = CARTESIAN_POINT('',(77.708196,-110.794087,0.));
#1632 = VECTOR('',#1633,1.);
#1633 = DIRECTION('',(0.,0.,1.));
#1634 = ORIENTED_EDGE('',*,*,#745,.T.);
#1635 = ORIENTED_EDGE('',*,*,#1595,.F.);
#1636 = ORIENTED_EDGE('',*,*,#292,.F.);
#1637 = PLANE('',#1638);
#1638 = AXIS2_PLACEMENT_3D('',#1639,#1640,#1641);
#1639 = CARTESIAN_POINT('',(77.708196,-110.794087,0.));
#1640 = DIRECTION('',(0.965926281373,0.258817346702,-0.));
#1641 = DIRECTION('',(0.258817346702,-0.965926281373,0.));
#1642 = ADVANCED_FACE('',(#1643),#1654,.F.);
#1643 = FACE_BOUND('',#1644,.T.);
#1644 = EDGE_LOOP('',(#1645,#1646,#1647,#1653));
#1645 = ORIENTED_EDGE('',*,*,#1614,.T.);
#1646 = ORIENTED_EDGE('',*,*,#847,.T.);
#1647 = ORIENTED_EDGE('',*,*,#1648,.F.);
#1648 = EDGE_CURVE('',#387,#840,#1649,.T.);
#1649 = LINE('',#1650,#1651);
#1650 = CARTESIAN_POINT('',(143.,-111.5,0.));
#1651 = VECTOR('',#1652,1.);
#1652 = DIRECTION('',(0.,0.,1.));
#1653 = ORIENTED_EDGE('',*,*,#394,.F.);
#1654 = CYLINDRICAL_SURFACE('',#1655,0.999999252925);
#1655 = AXIS2_PLACEMENT_3D('',#1656,#1657,#1658);
#1656 = CARTESIAN_POINT('',(143.99999925292,-111.4999992529,0.));
#1657 = DIRECTION('',(-0.,-0.,-1.));
#1658 = DIRECTION('',(7.470757349539E-07,1.,-0.));
#1659 = ADVANCED_FACE('',(#1660),#1671,.F.);
#1660 = FACE_BOUND('',#1661,.T.);
#1661 = EDGE_LOOP('',(#1662,#1668,#1669,#1670));
#1662 = ORIENTED_EDGE('',*,*,#1663,.T.);
#1663 = EDGE_CURVE('',#301,#754,#1664,.T.);
#1664 = LINE('',#1665,#1666);
#1665 = CARTESIAN_POINT('',(82.537827,-104.5,0.));
#1666 = VECTOR('',#1667,1.);
#1667 = DIRECTION('',(0.,0.,1.));
#1668 = ORIENTED_EDGE('',*,*,#753,.T.);
#1669 = ORIENTED_EDGE('',*,*,#1629,.F.);
#1670 = ORIENTED_EDGE('',*,*,#300,.F.);
#1671 = CYLINDRICAL_SURFACE('',#1672,5.000000216414);
#1672 = AXIS2_PLACEMENT_3D('',#1673,#1674,#1675);
#1673 = CARTESIAN_POINT('',(82.537827617493,-109.5000002164,0.));
#1674 = DIRECTION('',(-0.,-0.,-1.));
#1675 = DIRECTION('',(-1.234985805902E-07,1.,0.));
#1676 = ADVANCED_FACE('',(#1677),#1688,.T.);
#1677 = FACE_BOUND('',#1678,.T.);
#1678 = EDGE_LOOP('',(#1679,#1680,#1681,#1687));
#1679 = ORIENTED_EDGE('',*,*,#1648,.T.);
#1680 = ORIENTED_EDGE('',*,*,#839,.T.);
#1681 = ORIENTED_EDGE('',*,*,#1682,.F.);
#1682 = EDGE_CURVE('',#378,#831,#1683,.T.);
#1683 = LINE('',#1684,#1685);
#1684 = CARTESIAN_POINT('',(143.,-126.,0.));
#1685 = VECTOR('',#1686,1.);
#1686 = DIRECTION('',(0.,0.,1.));
#1687 = ORIENTED_EDGE('',*,*,#386,.F.);
#1688 = PLANE('',#1689);
#1689 = AXIS2_PLACEMENT_3D('',#1690,#1691,#1692);
#1690 = CARTESIAN_POINT('',(143.,-111.5,0.));
#1691 = DIRECTION('',(1.,0.,-0.));
#1692 = DIRECTION('',(0.,-1.,0.));
#1693 = ADVANCED_FACE('',(#1694),#1705,.T.);
#1694 = FACE_BOUND('',#1695,.T.);
#1695 = EDGE_LOOP('',(#1696,#1702,#1703,#1704));
#1696 = ORIENTED_EDGE('',*,*,#1697,.T.);
#1697 = EDGE_CURVE('',#310,#763,#1698,.T.);
#1698 = LINE('',#1699,#1700);
#1699 = CARTESIAN_POINT('',(89.5,-104.5,0.));
#1700 = VECTOR('',#1701,1.);
#1701 = DIRECTION('',(0.,0.,1.));
#1702 = ORIENTED_EDGE('',*,*,#762,.T.);
#1703 = ORIENTED_EDGE('',*,*,#1663,.F.);
#1704 = ORIENTED_EDGE('',*,*,#309,.F.);
#1705 = PLANE('',#1706);
#1706 = AXIS2_PLACEMENT_3D('',#1707,#1708,#1709);
#1707 = CARTESIAN_POINT('',(89.5,-104.5,0.));
#1708 = DIRECTION('',(0.,-1.,0.));
#1709 = DIRECTION('',(-1.,0.,0.));
#1710 = ADVANCED_FACE('',(#1711),#1722,.T.);
#1711 = FACE_BOUND('',#1712,.T.);
#1712 = EDGE_LOOP('',(#1713,#1714,#1715,#1721));
#1713 = ORIENTED_EDGE('',*,*,#1682,.T.);
#1714 = ORIENTED_EDGE('',*,*,#830,.T.);
#1715 = ORIENTED_EDGE('',*,*,#1716,.F.);
#1716 = EDGE_CURVE('',#370,#823,#1717,.T.);
#1717 = LINE('',#1718,#1719);
#1718 = CARTESIAN_POINT('',(142.,-127.,0.));
#1719 = VECTOR('',#1720,1.);
#1720 = DIRECTION('',(0.,0.,1.));
#1721 = ORIENTED_EDGE('',*,*,#377,.F.);
#1722 = CYLINDRICAL_SURFACE('',#1723,0.999999252925);
#1723 = AXIS2_PLACEMENT_3D('',#1724,#1725,#1726);
#1724 = CARTESIAN_POINT('',(142.00000074707,-126.000000747,0.));
#1725 = DIRECTION('',(0.,0.,-1.));
#1726 = DIRECTION('',(1.,7.470757491648E-07,0.));
#1727 = ADVANCED_FACE('',(#1728),#1739,.T.);
#1728 = FACE_BOUND('',#1729,.T.);
#1729 = EDGE_LOOP('',(#1730,#1736,#1737,#1738));
#1730 = ORIENTED_EDGE('',*,*,#1731,.T.);
#1731 = EDGE_CURVE('',#318,#771,#1732,.T.);
#1732 = LINE('',#1733,#1734);
#1733 = CARTESIAN_POINT('',(90.5,-103.5,0.));
#1734 = VECTOR('',#1735,1.);
#1735 = DIRECTION('',(0.,0.,1.));
#1736 = ORIENTED_EDGE('',*,*,#770,.T.);
#1737 = ORIENTED_EDGE('',*,*,#1697,.F.);
#1738 = ORIENTED_EDGE('',*,*,#317,.F.);
#1739 = CYLINDRICAL_SURFACE('',#1740,0.999999252925);
#1740 = AXIS2_PLACEMENT_3D('',#1741,#1742,#1743);
#1741 = CARTESIAN_POINT('',(89.500000747075,-103.500000747,0.));
#1742 = DIRECTION('',(0.,0.,-1.));
#1743 = DIRECTION('',(1.,7.47075720743E-07,0.));
#1744 = ADVANCED_FACE('',(#1745),#1756,.T.);
#1745 = FACE_BOUND('',#1746,.T.);
#1746 = EDGE_LOOP('',(#1747,#1748,#1749,#1755));
#1747 = ORIENTED_EDGE('',*,*,#1716,.T.);
#1748 = ORIENTED_EDGE('',*,*,#822,.T.);
#1749 = ORIENTED_EDGE('',*,*,#1750,.F.);
#1750 = EDGE_CURVE('',#361,#814,#1751,.T.);
#1751 = LINE('',#1752,#1753);
#1752 = CARTESIAN_POINT('',(137.,-127.,0.));
#1753 = VECTOR('',#1754,1.);
#1754 = DIRECTION('',(0.,0.,1.));
#1755 = ORIENTED_EDGE('',*,*,#369,.F.);
#1756 = PLANE('',#1757);
#1757 = AXIS2_PLACEMENT_3D('',#1758,#1759,#1760);
#1758 = CARTESIAN_POINT('',(142.,-127.,0.));
#1759 = DIRECTION('',(0.,-1.,0.));
#1760 = DIRECTION('',(-1.,0.,0.));
#1761 = ADVANCED_FACE('',(#1762),#1773,.F.);
#1762 = FACE_BOUND('',#1763,.T.);
#1763 = EDGE_LOOP('',(#1764,#1770,#1771,#1772));
#1764 = ORIENTED_EDGE('',*,*,#1765,.T.);
#1765 = EDGE_CURVE('',#327,#780,#1766,.T.);
#1766 = LINE('',#1767,#1768);
#1767 = CARTESIAN_POINT('',(91.5,-102.5,0.));
#1768 = VECTOR('',#1769,1.);
#1769 = DIRECTION('',(0.,0.,1.));
#1770 = ORIENTED_EDGE('',*,*,#779,.T.);
#1771 = ORIENTED_EDGE('',*,*,#1731,.F.);
#1772 = ORIENTED_EDGE('',*,*,#326,.F.);
#1773 = CYLINDRICAL_SURFACE('',#1774,0.999999252925);
#1774 = AXIS2_PLACEMENT_3D('',#1775,#1776,#1777);
#1775 = CARTESIAN_POINT('',(91.499999252925,-103.4999992529,0.));
#1776 = DIRECTION('',(-0.,-0.,-1.));
#1777 = DIRECTION('',(7.47075720743E-07,1.,-0.));
#1778 = ADVANCED_FACE('',(#1779),#1790,.T.);
#1779 = FACE_BOUND('',#1780,.T.);
#1780 = EDGE_LOOP('',(#1781,#1782,#1783,#1789));
#1781 = ORIENTED_EDGE('',*,*,#1750,.T.);
#1782 = ORIENTED_EDGE('',*,*,#813,.T.);
#1783 = ORIENTED_EDGE('',*,*,#1784,.F.);
#1784 = EDGE_CURVE('',#353,#806,#1785,.T.);
#1785 = LINE('',#1786,#1787);
#1786 = CARTESIAN_POINT('',(136.,-126.,0.));
#1787 = VECTOR('',#1788,1.);
#1788 = DIRECTION('',(0.,0.,1.));
#1789 = ORIENTED_EDGE('',*,*,#360,.F.);
#1790 = CYLINDRICAL_SURFACE('',#1791,0.999999252925);
#1791 = AXIS2_PLACEMENT_3D('',#1792,#1793,#1794);
#1792 = CARTESIAN_POINT('',(136.99999925292,-126.000000747,0.));
#1793 = DIRECTION('',(0.,0.,-1.));
#1794 = DIRECTION('',(7.470757349539E-07,-1.,0.));
#1795 = ADVANCED_FACE('',(#1796),#1807,.T.);
#1796 = FACE_BOUND('',#1797,.T.);
#1797 = EDGE_LOOP('',(#1798,#1804,#1805,#1806));
#1798 = ORIENTED_EDGE('',*,*,#1799,.T.);
#1799 = EDGE_CURVE('',#336,#789,#1800,.T.);
#1800 = LINE('',#1801,#1802);
#1801 = CARTESIAN_POINT('',(135.,-102.5,0.));
#1802 = VECTOR('',#1803,1.);
#1803 = DIRECTION('',(0.,0.,1.));
#1804 = ORIENTED_EDGE('',*,*,#788,.T.);
#1805 = ORIENTED_EDGE('',*,*,#1765,.F.);
#1806 = ORIENTED_EDGE('',*,*,#335,.F.);
#1807 = PLANE('',#1808);
#1808 = AXIS2_PLACEMENT_3D('',#1809,#1810,#1811);
#1809 = CARTESIAN_POINT('',(135.,-102.5,0.));
#1810 = DIRECTION('',(0.,-1.,0.));
#1811 = DIRECTION('',(-1.,0.,0.));
#1812 = ADVANCED_FACE('',(#1813),#1824,.T.);
#1813 = FACE_BOUND('',#1814,.T.);
#1814 = EDGE_LOOP('',(#1815,#1816,#1817,#1823));
#1815 = ORIENTED_EDGE('',*,*,#1784,.T.);
#1816 = ORIENTED_EDGE('',*,*,#805,.T.);
#1817 = ORIENTED_EDGE('',*,*,#1818,.F.);
#1818 = EDGE_CURVE('',#344,#797,#1819,.T.);
#1819 = LINE('',#1820,#1821);
#1820 = CARTESIAN_POINT('',(136.,-103.5,0.));
#1821 = VECTOR('',#1822,1.);
#1822 = DIRECTION('',(0.,0.,1.));
#1823 = ORIENTED_EDGE('',*,*,#352,.F.);
#1824 = PLANE('',#1825);
#1825 = AXIS2_PLACEMENT_3D('',#1826,#1827,#1828);
#1826 = CARTESIAN_POINT('',(136.,-126.,0.));
#1827 = DIRECTION('',(-1.,0.,0.));
#1828 = DIRECTION('',(0.,1.,0.));
#1829 = ADVANCED_FACE('',(#1830),#1836,.F.);
#1830 = FACE_BOUND('',#1831,.T.);
#1831 = EDGE_LOOP('',(#1832,#1833,#1834,#1835));
#1832 = ORIENTED_EDGE('',*,*,#1818,.T.);
#1833 = ORIENTED_EDGE('',*,*,#796,.T.);
#1834 = ORIENTED_EDGE('',*,*,#1799,.F.);
#1835 = ORIENTED_EDGE('',*,*,#343,.F.);
#1836 = CYLINDRICAL_SURFACE('',#1837,0.999999252925);
#1837 = AXIS2_PLACEMENT_3D('',#1838,#1839,#1840);
#1838 = CARTESIAN_POINT('',(135.00000074707,-103.4999992529,0.));
#1839 = DIRECTION('',(-0.,-0.,-1.));
#1840 = DIRECTION('',(1.,-7.470757491648E-07,0.));
#1841 = ADVANCED_FACE('',(#1842),#1853,.F.);
#1842 = FACE_BOUND('',#1843,.T.);
#1843 = EDGE_LOOP('',(#1844,#1845,#1851,#1852));
#1844 = ORIENTED_EDGE('',*,*,#548,.T.);
#1845 = ORIENTED_EDGE('',*,*,#1846,.T.);
#1846 = EDGE_CURVE('',#549,#1002,#1847,.T.);
#1847 = LINE('',#1848,#1849);
#1848 = CARTESIAN_POINT('',(58.,-108.6,-4.6E-02));
#1849 = VECTOR('',#1850,1.);
#1850 = DIRECTION('',(0.,0.,1.));
#1851 = ORIENTED_EDGE('',*,*,#1001,.F.);
#1852 = ORIENTED_EDGE('',*,*,#1846,.F.);
#1853 = CYLINDRICAL_SURFACE('',#1854,1.1);
#1854 = AXIS2_PLACEMENT_3D('',#1855,#1856,#1857);
#1855 = CARTESIAN_POINT('',(58.,-107.5,-4.6E-02));
#1856 = DIRECTION('',(-0.,-0.,-1.));
#1857 = DIRECTION('',(-0.,-1.,0.));
#1858 = ADVANCED_FACE('',(#1859),#1870,.F.);
#1859 = FACE_BOUND('',#1860,.T.);
#1860 = EDGE_LOOP('',(#1861,#1862,#1868,#1869));
#1861 = ORIENTED_EDGE('',*,*,#559,.T.);
#1862 = ORIENTED_EDGE('',*,*,#1863,.T.);
#1863 = EDGE_CURVE('',#560,#1013,#1864,.T.);
#1864 = LINE('',#1865,#1866);
#1865 = CARTESIAN_POINT('',(163.5,-108.6,-4.6E-02));
#1866 = VECTOR('',#1867,1.);
#1867 = DIRECTION('',(0.,0.,1.));
#1868 = ORIENTED_EDGE('',*,*,#1012,.F.);
#1869 = ORIENTED_EDGE('',*,*,#1863,.F.);
#1870 = CYLINDRICAL_SURFACE('',#1871,1.1);
#1871 = AXIS2_PLACEMENT_3D('',#1872,#1873,#1874);
#1872 = CARTESIAN_POINT('',(163.5,-107.5,-4.6E-02));
#1873 = DIRECTION('',(-0.,-0.,-1.));
#1874 = DIRECTION('',(-0.,-1.,0.));
#1875 = ADVANCED_FACE('',(#1876),#1887,.F.);
#1876 = FACE_BOUND('',#1877,.T.);
#1877 = EDGE_LOOP('',(#1878,#1879,#1885,#1886));
#1878 = ORIENTED_EDGE('',*,*,#570,.T.);
#1879 = ORIENTED_EDGE('',*,*,#1880,.T.);
#1880 = EDGE_CURVE('',#571,#1024,#1881,.T.);
#1881 = LINE('',#1882,#1883);
#1882 = CARTESIAN_POINT('',(88.,-51.85,-4.6E-02));
#1883 = VECTOR('',#1884,1.);
#1884 = DIRECTION('',(0.,0.,1.));
#1885 = ORIENTED_EDGE('',*,*,#1023,.F.);
#1886 = ORIENTED_EDGE('',*,*,#1880,.F.);
#1887 = CYLINDRICAL_SURFACE('',#1888,1.1);
#1888 = AXIS2_PLACEMENT_3D('',#1889,#1890,#1891);
#1889 = CARTESIAN_POINT('',(88.,-50.75,-4.6E-02));
#1890 = DIRECTION('',(-0.,-0.,-1.));
#1891 = DIRECTION('',(-0.,-1.,0.));
#1892 = ADVANCED_FACE('',(#1893),#1904,.F.);
#1893 = FACE_BOUND('',#1894,.T.);
#1894 = EDGE_LOOP('',(#1895,#1896,#1902,#1903));
#1895 = ORIENTED_EDGE('',*,*,#581,.T.);
#1896 = ORIENTED_EDGE('',*,*,#1897,.T.);
#1897 = EDGE_CURVE('',#582,#1035,#1898,.T.);
#1898 = LINE('',#1899,#1900);
#1899 = CARTESIAN_POINT('',(145.5,-51.6,-4.6E-02));
#1900 = VECTOR('',#1901,1.);
#1901 = DIRECTION('',(0.,0.,1.));
#1902 = ORIENTED_EDGE('',*,*,#1034,.F.);
#1903 = ORIENTED_EDGE('',*,*,#1897,.F.);
#1904 = CYLINDRICAL_SURFACE('',#1905,1.1);
#1905 = AXIS2_PLACEMENT_3D('',#1906,#1907,#1908);
#1906 = CARTESIAN_POINT('',(145.5,-50.5,-4.6E-02));
#1907 = DIRECTION('',(-0.,-0.,-1.));
#1908 = DIRECTION('',(-0.,-1.,0.));
#1909 = ( GEOMETRIC_REPRESENTATION_CONTEXT(3) 
GLOBAL_UNCERTAINTY_ASSIGNED_CONTEXT((#1913)) 
GLOBAL_UNIT_ASSIGNED_CONTEXT((#1910,#1911,#1912)) REPRESENTATION_CONTEXT
('Context #1','3D Context with UNIT and UNCERTAINTY') );
#1910 = ( LENGTH_UNIT() NAMED_UNIT(*) SI_UNIT(.MILLI.,.METRE.) );
#1911 = ( NAMED_UNIT(*) PLANE_ANGLE_UNIT() SI_UNIT($,.RADIAN.) );
#1912 = ( NAMED_UNIT(*) SI_UNIT($,.STERADIAN.) SOLID_ANGLE_UNIT() );
#1913 = UNCERTAINTY_MEASURE_WITH_UNIT(LENGTH_MEASURE(1.E-07),#1910,
  'distance_accuracy_value','confusion accuracy');
#1914 = CONTEXT_DEPENDENT_SHAPE_REPRESENTATION(#1915,#1917);
#1915 = ( REPRESENTATION_RELATIONSHIP('','',#32,#10) 
REPRESENTATION_RELATIONSHIP_WITH_TRANSFORMATION(#1916) 
SHAPE_REPRESENTATION_RELATIONSHIP() );
#1916 = ITEM_DEFINED_TRANSFORMATION('','',#11,#15);
#1917 = PRODUCT_DEFINITION_SHAPE('Placement','Placement of an item',
  #1918);
#1918 = NEXT_ASSEMBLY_USAGE_OCCURRENCE('1','=>[0:1:1:2]','',#5,#27,$);
#1919 = PRODUCT_RELATED_PRODUCT_CATEGORY('part',$,(#29));
#1920 = MECHANICAL_DESIGN_GEOMETRIC_PRESENTATION_REPRESENTATION('',(
    #1921),#1909);
#1921 = STYLED_ITEM('color',(#1922),#33);
#1922 = PRESENTATION_STYLE_ASSIGNMENT((#1923));
#1923 = SURFACE_STYLE_USAGE(.BOTH.,#1924);
#1924 = SURFACE_SIDE_STYLE('',(#1925));
#1925 = SURFACE_STYLE_FILL_AREA(#1926);
#1926 = FILL_AREA_STYLE('',(#1927));
#1927 = FILL_AREA_STYLE_COLOUR('',#1928);
#1928 = COLOUR_RGB('',0.313304153717,0.484529207832,0.410020903123);
ENDSEC;
END-ISO-10303-21;
