ISO-10303-21;
HEADER;
FILE_DESCRIPTION(('KiCad electronic assembly'),'2;1');
FILE_NAME('reel_left_bottom.step','2026-07-30T09:51:01',('Pcbnew'),(
    'Kicad'),'Open CASCADE STEP processor 7.9','KiCad to STEP converter'
  ,'Unknown');
FILE_SCHEMA(('AUTOMOTIVE_DESIGN { 1 0 10303 214 1 1 1 1 }'));
ENDSEC;
DATA;
#1 = APPLICATION_PROTOCOL_DEFINITION('international standard',
  'automotive_design',2000,#2);
#2 = APPLICATION_CONTEXT(
  'core data for automotive mechanical design processes');
#3 = SHAPE_DEFINITION_REPRESENTATION(#4,#10);
#4 = PRODUCT_DEFINITION_SHAPE('','',#5);
#5 = PRODUCT_DEFINITION('design','',#6,#9);
#6 = PRODUCT_DEFINITION_FORMATION('','',#7);
#7 = PRODUCT('reel_left_bottom 1','reel_left_bottom 1','',(#8));
#8 = PRODUCT_CONTEXT('',#2,'mechanical');
#9 = PRODUCT_DEFINITION_CONTEXT('part definition',#2,'design');
#10 = SHAPE_REPRESENTATION('',(#11,#15),#19);
#11 = AXIS2_PLACEMENT_3D('',#12,#13,#14);
#12 = CARTESIAN_POINT('',(0.,0.,0.));
#13 = DIRECTION('',(0.,0.,1.));
#14 = DIRECTION('',(1.,0.,-0.));
#15 = AXIS2_PLACEMENT_3D('',#16,#17,#18);
#16 = CARTESIAN_POINT('',(0.,0.,0.));
#17 = DIRECTION('',(0.,0.,1.));
#18 = DIRECTION('',(1.,0.,-0.));
#19 = ( GEOMETRIC_REPRESENTATION_CONTEXT(3) 
GLOBAL_UNCERTAINTY_ASSIGNED_CONTEXT((#23)) GLOBAL_UNIT_ASSIGNED_CONTEXT(
(#20,#21,#22)) REPRESENTATION_CONTEXT('Context #1',
  '3D Context with UNIT and UNCERTAINTY') );
#20 = ( LENGTH_UNIT() NAMED_UNIT(*) SI_UNIT(.MILLI.,.METRE.) );
#21 = ( NAMED_UNIT(*) PLANE_ANGLE_UNIT() SI_UNIT($,.RADIAN.) );
#22 = ( NAMED_UNIT(*) SI_UNIT($,.STERADIAN.) SOLID_ANGLE_UNIT() );
#23 = UNCERTAINTY_MEASURE_WITH_UNIT(LENGTH_MEASURE(1.E-07),#20,
  'distance_accuracy_value','confusion accuracy');
#24 = PRODUCT_RELATED_PRODUCT_CATEGORY('part',$,(#7));
#25 = SHAPE_DEFINITION_REPRESENTATION(#26,#32);
#26 = PRODUCT_DEFINITION_SHAPE('','',#27);
#27 = PRODUCT_DEFINITION('design','',#28,#31);
#28 = PRODUCT_DEFINITION_FORMATION('','',#29);
#29 = PRODUCT('reel_left_bottom_PCB','reel_left_bottom_PCB','',(#30));
#30 = PRODUCT_CONTEXT('',#2,'mechanical');
#31 = PRODUCT_DEFINITION_CONTEXT('part definition',#2,'design');
#32 = ADVANCED_BREP_SHAPE_REPRESENTATION('',(#11,#33),#1878);
#33 = MANIFOLD_SOLID_BREP('',#34);
#34 = CLOSED_SHELL('',(#35,#77,#108,#139,#586,#1033,#1050,#1067,#1084,
    #1101,#1118,#1135,#1152,#1169,#1186,#1203,#1220,#1237,#1254,#1271,
    #1288,#1305,#1322,#1339,#1356,#1373,#1390,#1407,#1424,#1441,#1458,
    #1475,#1492,#1509,#1526,#1543,#1560,#1577,#1594,#1611,#1628,#1645,
    #1662,#1679,#1696,#1713,#1730,#1747,#1764,#1781,#1793,#1810,#1827,
    #1844,#1861));
#35 = ADVANCED_FACE('',(#36),#72,.T.);
#36 = FACE_BOUND('',#37,.T.);
#37 = EDGE_LOOP('',(#38,#48,#57,#65));
#38 = ORIENTED_EDGE('',*,*,#39,.T.);
#39 = EDGE_CURVE('',#40,#42,#44,.T.);
#40 = VERTEX_POINT('',#41);
#41 = CARTESIAN_POINT('',(1.073895,47.970395,0.));
#42 = VERTEX_POINT('',#43);
#43 = CARTESIAN_POINT('',(1.073895,47.970395,2.8));
#44 = LINE('',#45,#46);
#45 = CARTESIAN_POINT('',(1.073895,47.970395,0.));
#46 = VECTOR('',#47,1.);
#47 = DIRECTION('',(0.,0.,1.));
#48 = ORIENTED_EDGE('',*,*,#49,.T.);
#49 = EDGE_CURVE('',#42,#50,#52,.T.);
#50 = VERTEX_POINT('',#51);
#51 = CARTESIAN_POINT('',(2.073895,46.970395,2.8));
#52 = CIRCLE('',#53,0.999999252925);
#53 = AXIS2_PLACEMENT_3D('',#54,#55,#56);
#54 = CARTESIAN_POINT('',(1.073895747075,46.970395747075,2.8));
#55 = DIRECTION('',(0.,0.,-1.));
#56 = DIRECTION('',(-7.470757300689E-07,1.,0.));
#57 = ORIENTED_EDGE('',*,*,#58,.F.);
#58 = EDGE_CURVE('',#59,#50,#61,.T.);
#59 = VERTEX_POINT('',#60);
#60 = CARTESIAN_POINT('',(2.073895,46.970395,0.));
#61 = LINE('',#62,#63);
#62 = CARTESIAN_POINT('',(2.073895,46.970395,0.));
#63 = VECTOR('',#64,1.);
#64 = DIRECTION('',(0.,0.,1.));
#65 = ORIENTED_EDGE('',*,*,#66,.F.);
#66 = EDGE_CURVE('',#40,#59,#67,.T.);
#67 = CIRCLE('',#68,0.999999252925);
#68 = AXIS2_PLACEMENT_3D('',#69,#70,#71);
#69 = CARTESIAN_POINT('',(1.073895747075,46.970395747075,0.));
#70 = DIRECTION('',(0.,0.,-1.));
#71 = DIRECTION('',(-7.470757300689E-07,1.,0.));
#72 = CYLINDRICAL_SURFACE('',#73,0.999999252925);
#73 = AXIS2_PLACEMENT_3D('',#74,#75,#76);
#74 = CARTESIAN_POINT('',(1.073895747075,46.970395747075,0.));
#75 = DIRECTION('',(0.,0.,-1.));
#76 = DIRECTION('',(-7.470757300689E-07,1.,0.));
#77 = ADVANCED_FACE('',(#78),#103,.T.);
#78 = FACE_BOUND('',#79,.T.);
#79 = EDGE_LOOP('',(#80,#90,#96,#97));
#80 = ORIENTED_EDGE('',*,*,#81,.T.);
#81 = EDGE_CURVE('',#82,#84,#86,.T.);
#82 = VERTEX_POINT('',#83);
#83 = CARTESIAN_POINT('',(-18.426105,47.970395,0.));
#84 = VERTEX_POINT('',#85);
#85 = CARTESIAN_POINT('',(-18.426105,47.970395,2.8));
#86 = LINE('',#87,#88);
#87 = CARTESIAN_POINT('',(-18.426105,47.970395,0.));
#88 = VECTOR('',#89,1.);
#89 = DIRECTION('',(0.,0.,1.));
#90 = ORIENTED_EDGE('',*,*,#91,.T.);
#91 = EDGE_CURVE('',#84,#42,#92,.T.);
#92 = LINE('',#93,#94);
#93 = CARTESIAN_POINT('',(-18.426105,47.970395,2.8));
#94 = VECTOR('',#95,1.);
#95 = DIRECTION('',(1.,0.,0.));
#96 = ORIENTED_EDGE('',*,*,#39,.F.);
#97 = ORIENTED_EDGE('',*,*,#98,.F.);
#98 = EDGE_CURVE('',#82,#40,#99,.T.);
#99 = LINE('',#100,#101);
#100 = CARTESIAN_POINT('',(-18.426105,47.970395,0.));
#101 = VECTOR('',#102,1.);
#102 = DIRECTION('',(1.,0.,0.));
#103 = PLANE('',#104);
#104 = AXIS2_PLACEMENT_3D('',#105,#106,#107);
#105 = CARTESIAN_POINT('',(-18.426105,47.970395,0.));
#106 = DIRECTION('',(0.,1.,0.));
#107 = DIRECTION('',(1.,0.,0.));
#108 = ADVANCED_FACE('',(#109),#134,.T.);
#109 = FACE_BOUND('',#110,.T.);
#110 = EDGE_LOOP('',(#111,#112,#120,#128));
#111 = ORIENTED_EDGE('',*,*,#58,.T.);
#112 = ORIENTED_EDGE('',*,*,#113,.T.);
#113 = EDGE_CURVE('',#50,#114,#116,.T.);
#114 = VERTEX_POINT('',#115);
#115 = CARTESIAN_POINT('',(2.073895,46.470395,2.8));
#116 = LINE('',#117,#118);
#117 = CARTESIAN_POINT('',(2.073895,46.970395,2.8));
#118 = VECTOR('',#119,1.);
#119 = DIRECTION('',(0.,-1.,0.));
#120 = ORIENTED_EDGE('',*,*,#121,.F.);
#121 = EDGE_CURVE('',#122,#114,#124,.T.);
#122 = VERTEX_POINT('',#123);
#123 = CARTESIAN_POINT('',(2.073895,46.470395,0.));
#124 = LINE('',#125,#126);
#125 = CARTESIAN_POINT('',(2.073895,46.470395,0.));
#126 = VECTOR('',#127,1.);
#127 = DIRECTION('',(0.,0.,1.));
#128 = ORIENTED_EDGE('',*,*,#129,.F.);
#129 = EDGE_CURVE('',#59,#122,#130,.T.);
#130 = LINE('',#131,#132);
#131 = CARTESIAN_POINT('',(2.073895,46.970395,0.));
#132 = VECTOR('',#133,1.);
#133 = DIRECTION('',(0.,-1.,0.));
#134 = PLANE('',#135);
#135 = AXIS2_PLACEMENT_3D('',#136,#137,#138);
#136 = CARTESIAN_POINT('',(2.073895,46.970395,0.));
#137 = DIRECTION('',(1.,0.,-0.));
#138 = DIRECTION('',(0.,-1.,0.));
#139 = ADVANCED_FACE('',(#140,#526,#537,#548,#559,#570),#581,.F.);
#140 = FACE_BOUND('',#141,.F.);
#141 = EDGE_LOOP('',(#142,#143,#144,#153,#162,#170,#179,#187,#196,#204,
    #213,#221,#230,#238,#247,#255,#264,#272,#281,#289,#298,#306,#315,
    #323,#332,#340,#348,#357,#365,#374,#382,#391,#399,#408,#416,#425,
    #433,#442,#450,#459,#467,#476,#484,#493,#501,#510,#518,#525));
#142 = ORIENTED_EDGE('',*,*,#66,.F.);
#143 = ORIENTED_EDGE('',*,*,#98,.F.);
#144 = ORIENTED_EDGE('',*,*,#145,.F.);
#145 = EDGE_CURVE('',#146,#82,#148,.T.);
#146 = VERTEX_POINT('',#147);
#147 = CARTESIAN_POINT('',(-18.926105,47.470395,0.));
#148 = CIRCLE('',#149,0.500001333575);
#149 = AXIS2_PLACEMENT_3D('',#150,#151,#152);
#150 = CARTESIAN_POINT('',(-18.42610366642,47.470393666427,0.));
#151 = DIRECTION('',(0.,0.,-1.));
#152 = DIRECTION('',(-0.999999999996,2.667139191042E-06,0.));
#153 = ORIENTED_EDGE('',*,*,#154,.F.);
#154 = EDGE_CURVE('',#155,#146,#157,.T.);
#155 = VERTEX_POINT('',#156);
#156 = CARTESIAN_POINT('',(-19.426105,46.970395,0.));
#157 = CIRCLE('',#158,0.500001333575);
#158 = AXIS2_PLACEMENT_3D('',#159,#160,#161);
#159 = CARTESIAN_POINT('',(-19.42610633357,47.470396333573,0.));
#160 = DIRECTION('',(0.,0.,1.));
#161 = DIRECTION('',(2.667139169726E-06,-0.999999999996,0.));
#162 = ORIENTED_EDGE('',*,*,#163,.F.);
#163 = EDGE_CURVE('',#164,#155,#166,.T.);
#164 = VERTEX_POINT('',#165);
#165 = CARTESIAN_POINT('',(-39.676105,46.970395,0.));
#166 = LINE('',#167,#168);
#167 = CARTESIAN_POINT('',(-39.676105,46.970395,0.));
#168 = VECTOR('',#169,1.);
#169 = DIRECTION('',(1.,0.,0.));
#170 = ORIENTED_EDGE('',*,*,#171,.F.);
#171 = EDGE_CURVE('',#172,#164,#174,.T.);
#172 = VERTEX_POINT('',#173);
#173 = CARTESIAN_POINT('',(-40.676105,45.970395,0.));
#174 = CIRCLE('',#175,0.999999252925);
#175 = AXIS2_PLACEMENT_3D('',#176,#177,#178);
#176 = CARTESIAN_POINT('',(-39.67610574707,45.970395747075,0.));
#177 = DIRECTION('',(0.,0.,-1.));
#178 = DIRECTION('',(-1.,-7.470757278485E-07,-0.));
#179 = ORIENTED_EDGE('',*,*,#180,.F.);
#180 = EDGE_CURVE('',#181,#172,#183,.T.);
#181 = VERTEX_POINT('',#182);
#182 = CARTESIAN_POINT('',(-40.676105,37.970395,0.));
#183 = LINE('',#184,#185);
#184 = CARTESIAN_POINT('',(-40.676105,37.970395,0.));
#185 = VECTOR('',#186,1.);
#186 = DIRECTION('',(0.,1.,0.));
#187 = ORIENTED_EDGE('',*,*,#188,.F.);
#188 = EDGE_CURVE('',#189,#181,#191,.T.);
#189 = VERTEX_POINT('',#190);
#190 = CARTESIAN_POINT('',(-41.676105,36.970395,0.));
#191 = CIRCLE('',#192,0.999999252925);
#192 = AXIS2_PLACEMENT_3D('',#193,#194,#195);
#193 = CARTESIAN_POINT('',(-41.67610425292,37.970394252925,0.));
#194 = DIRECTION('',(0.,0.,1.));
#195 = DIRECTION('',(-7.470757420593E-07,-1.,0.));
#196 = ORIENTED_EDGE('',*,*,#197,.F.);
#197 = EDGE_CURVE('',#198,#189,#200,.T.);
#198 = VERTEX_POINT('',#199);
#199 = CARTESIAN_POINT('',(-53.926105,36.970395,0.));
#200 = LINE('',#201,#202);
#201 = CARTESIAN_POINT('',(-53.926105,36.970395,0.));
#202 = VECTOR('',#203,1.);
#203 = DIRECTION('',(1.,0.,0.));
#204 = ORIENTED_EDGE('',*,*,#205,.F.);
#205 = EDGE_CURVE('',#206,#198,#208,.T.);
#206 = VERTEX_POINT('',#207);
#207 = CARTESIAN_POINT('',(-54.926105,35.970395,0.));
#208 = CIRCLE('',#209,0.999999252925);
#209 = AXIS2_PLACEMENT_3D('',#210,#211,#212);
#210 = CARTESIAN_POINT('',(-53.92610574707,35.970395747075,0.));
#211 = DIRECTION('',(0.,0.,-1.));
#212 = DIRECTION('',(-1.,-7.470757278485E-07,-0.));
#213 = ORIENTED_EDGE('',*,*,#214,.F.);
#214 = EDGE_CURVE('',#215,#206,#217,.T.);
#215 = VERTEX_POINT('',#216);
#216 = CARTESIAN_POINT('',(-54.926105,24.970395,0.));
#217 = LINE('',#218,#219);
#218 = CARTESIAN_POINT('',(-54.926105,24.970395,0.));
#219 = VECTOR('',#220,1.);
#220 = DIRECTION('',(0.,1.,0.));
#221 = ORIENTED_EDGE('',*,*,#222,.F.);
#222 = EDGE_CURVE('',#223,#215,#225,.T.);
#223 = VERTEX_POINT('',#224);
#224 = CARTESIAN_POINT('',(-55.926105,23.970395,0.));
#225 = CIRCLE('',#226,0.999999252925);
#226 = AXIS2_PLACEMENT_3D('',#227,#228,#229);
#227 = CARTESIAN_POINT('',(-55.92610425292,24.970394252925,0.));
#228 = DIRECTION('',(0.,0.,1.));
#229 = DIRECTION('',(-7.470757420593E-07,-1.,0.));
#230 = ORIENTED_EDGE('',*,*,#231,.F.);
#231 = EDGE_CURVE('',#232,#223,#234,.T.);
#232 = VERTEX_POINT('',#233);
#233 = CARTESIAN_POINT('',(-71.926105,23.970395,0.));
#234 = LINE('',#235,#236);
#235 = CARTESIAN_POINT('',(-71.926105,23.970395,0.));
#236 = VECTOR('',#237,1.);
#237 = DIRECTION('',(1.,0.,0.));
#238 = ORIENTED_EDGE('',*,*,#239,.F.);
#239 = EDGE_CURVE('',#240,#232,#242,.T.);
#240 = VERTEX_POINT('',#241);
#241 = CARTESIAN_POINT('',(-72.926105,22.970395,0.));
#242 = CIRCLE('',#243,0.999999252925);
#243 = AXIS2_PLACEMENT_3D('',#244,#245,#246);
#244 = CARTESIAN_POINT('',(-71.92610574707,22.970395747075,0.));
#245 = DIRECTION('',(0.,0.,-1.));
#246 = DIRECTION('',(-1.,-7.470757314012E-07,-0.));
#247 = ORIENTED_EDGE('',*,*,#248,.F.);
#248 = EDGE_CURVE('',#249,#240,#251,.T.);
#249 = VERTEX_POINT('',#250);
#250 = CARTESIAN_POINT('',(-72.926105,-12.029605,0.));
#251 = LINE('',#252,#253);
#252 = CARTESIAN_POINT('',(-72.926105,-12.029605,0.));
#253 = VECTOR('',#254,1.);
#254 = DIRECTION('',(0.,1.,0.));
#255 = ORIENTED_EDGE('',*,*,#256,.F.);
#256 = EDGE_CURVE('',#257,#249,#259,.T.);
#257 = VERTEX_POINT('',#258);
#258 = CARTESIAN_POINT('',(-71.926105,-13.029605,0.));
#259 = CIRCLE('',#260,0.999999252925);
#260 = AXIS2_PLACEMENT_3D('',#261,#262,#263);
#261 = CARTESIAN_POINT('',(-71.92610574707,-12.02960574707,0.));
#262 = DIRECTION('',(0.,0.,-1.));
#263 = DIRECTION('',(7.470757349539E-07,-1.,0.));
#264 = ORIENTED_EDGE('',*,*,#265,.F.);
#265 = EDGE_CURVE('',#266,#257,#268,.T.);
#266 = VERTEX_POINT('',#267);
#267 = CARTESIAN_POINT('',(-59.926105,-13.029605,0.));
#268 = LINE('',#269,#270);
#269 = CARTESIAN_POINT('',(-59.926105,-13.029605,0.));
#270 = VECTOR('',#271,1.);
#271 = DIRECTION('',(-1.,0.,0.));
#272 = ORIENTED_EDGE('',*,*,#273,.F.);
#273 = EDGE_CURVE('',#274,#266,#276,.T.);
#274 = VERTEX_POINT('',#275);
#275 = CARTESIAN_POINT('',(-58.926105,-14.029605,0.));
#276 = CIRCLE('',#277,0.999999252925);
#277 = AXIS2_PLACEMENT_3D('',#278,#279,#280);
#278 = CARTESIAN_POINT('',(-59.92610425292,-14.02960425292,0.));
#279 = DIRECTION('',(0.,0.,1.));
#280 = DIRECTION('',(1.,-7.470757438357E-07,0.));
#281 = ORIENTED_EDGE('',*,*,#282,.F.);
#282 = EDGE_CURVE('',#283,#274,#285,.T.);
#283 = VERTEX_POINT('',#284);
#284 = CARTESIAN_POINT('',(-58.926105,-16.029605,0.));
#285 = LINE('',#286,#287);
#286 = CARTESIAN_POINT('',(-58.926105,-16.029605,0.));
#287 = VECTOR('',#288,1.);
#288 = DIRECTION('',(0.,1.,0.));
#289 = ORIENTED_EDGE('',*,*,#290,.F.);
#290 = EDGE_CURVE('',#291,#283,#293,.T.);
#291 = VERTEX_POINT('',#292);
#292 = CARTESIAN_POINT('',(-57.926105,-17.029605,0.));
#293 = CIRCLE('',#294,0.999999252925);
#294 = AXIS2_PLACEMENT_3D('',#295,#296,#297);
#295 = CARTESIAN_POINT('',(-57.92610574707,-16.02960574707,0.));
#296 = DIRECTION('',(0.,0.,-1.));
#297 = DIRECTION('',(7.470757420593E-07,-1.,0.));
#298 = ORIENTED_EDGE('',*,*,#299,.F.);
#299 = EDGE_CURVE('',#300,#291,#302,.T.);
#300 = VERTEX_POINT('',#301);
#301 = CARTESIAN_POINT('',(-12.711386,-17.029605,0.));
#302 = LINE('',#303,#304);
#303 = CARTESIAN_POINT('',(-12.711386,-17.029605,0.));
#304 = VECTOR('',#305,1.);
#305 = DIRECTION('',(-1.,0.,0.));
#306 = ORIENTED_EDGE('',*,*,#307,.F.);
#307 = EDGE_CURVE('',#308,#300,#310,.T.);
#308 = VERTEX_POINT('',#309);
#309 = CARTESIAN_POINT('',(-8.460061,-19.397832,0.));
#310 = CIRCLE('',#311,4.999999336336);
#311 = AXIS2_PLACEMENT_3D('',#312,#313,#314);
#312 = CARTESIAN_POINT('',(-12.71138640898,-22.02960433633,0.));
#313 = DIRECTION('',(0.,0.,1.));
#314 = DIRECTION('',(0.850265194654,0.526354537132,-0.));
#315 = ORIENTED_EDGE('',*,*,#316,.F.);
#316 = EDGE_CURVE('',#317,#308,#319,.T.);
#317 = VERTEX_POINT('',#318);
#318 = CARTESIAN_POINT('',(-4.593677,-25.643527,0.));
#319 = LINE('',#320,#321);
#320 = CARTESIAN_POINT('',(-4.593677,-25.643527,0.));
#321 = VECTOR('',#322,1.);
#322 = DIRECTION('',(-0.526354750529,0.850265062551,0.));
#323 = ORIENTED_EDGE('',*,*,#324,.F.);
#324 = EDGE_CURVE('',#325,#317,#327,.T.);
#325 = VERTEX_POINT('',#326);
#326 = CARTESIAN_POINT('',(-1.244269,-27.929736,0.));
#327 = CIRCLE('',#328,5.00000445242);
#328 = AXIS2_PLACEMENT_3D('',#329,#330,#331);
#329 = CARTESIAN_POINT('',(-0.342348288434,-23.01175027876,0.));
#330 = DIRECTION('',(0.,0.,-1.));
#331 = DIRECTION('',(-0.180383981684,-0.98359626837,-0.));
#332 = ORIENTED_EDGE('',*,*,#333,.F.);
#333 = EDGE_CURVE('',#334,#325,#336,.T.);
#334 = VERTEX_POINT('',#335);
#335 = CARTESIAN_POINT('',(28.86033,-32.931714,0.));
#336 = LINE('',#337,#338);
#337 = CARTESIAN_POINT('',(28.86033,-32.931714,0.));
#338 = VECTOR('',#339,1.);
#339 = DIRECTION('',(-0.986475926036,0.163906215112,0.));
#340 = ORIENTED_EDGE('',*,*,#341,.F.);
#341 = EDGE_CURVE('',#342,#334,#344,.T.);
#342 = VERTEX_POINT('',#343);
#343 = CARTESIAN_POINT('',(54.676153,-47.836486,0.));
#344 = LINE('',#345,#346);
#345 = CARTESIAN_POINT('',(54.676153,-47.836486,0.));
#346 = VECTOR('',#347,1.);
#347 = DIRECTION('',(-0.866025408991,0.499999990983,0.));
#348 = ORIENTED_EDGE('',*,*,#349,.F.);
#349 = EDGE_CURVE('',#350,#342,#352,.T.);
#350 = VERTEX_POINT('',#351);
#351 = CARTESIAN_POINT('',(56.04218,-47.470457,0.));
#352 = CIRCLE('',#353,1.000011003792);
#353 = AXIS2_PLACEMENT_3D('',#354,#355,#356);
#354 = CARTESIAN_POINT('',(55.176148612276,-46.97044535695,0.));
#355 = DIRECTION('',(-0.,0.,-1.));
#356 = DIRECTION('',(0.866021858199,-0.500006141084,-0.));
#357 = ORIENTED_EDGE('',*,*,#358,.F.);
#358 = EDGE_CURVE('',#359,#350,#361,.T.);
#359 = VERTEX_POINT('',#360);
#360 = CARTESIAN_POINT('',(57.542169,-44.872378,0.));
#361 = LINE('',#362,#363);
#362 = CARTESIAN_POINT('',(57.542169,-44.872378,0.));
#363 = VECTOR('',#364,1.);
#364 = DIRECTION('',(-0.499996847487,-0.866027223881,0.));
#365 = ORIENTED_EDGE('',*,*,#366,.F.);
#366 = EDGE_CURVE('',#367,#359,#369,.T.);
#367 = VERTEX_POINT('',#368);
#368 = CARTESIAN_POINT('',(57.176142,-43.506352,0.));
#369 = CIRCLE('',#370,0.999999907587);
#370 = AXIS2_PLACEMENT_3D('',#371,#372,#373);
#371 = CARTESIAN_POINT('',(56.67614358157,-44.37237821019,0.));
#372 = DIRECTION('',(0.,0.,-1.));
#373 = DIRECTION('',(0.499998464637,0.866026290225,0.));
#374 = ORIENTED_EDGE('',*,*,#375,.F.);
#375 = EDGE_CURVE('',#376,#367,#378,.T.);
#376 = VERTEX_POINT('',#377);
#377 = CARTESIAN_POINT('',(49.81492,-39.256365,0.));
#378 = LINE('',#379,#380);
#379 = CARTESIAN_POINT('',(49.81492,-39.256365,0.));
#380 = VECTOR('',#381,1.);
#381 = DIRECTION('',(0.866026244504,-0.499998543829,0.));
#382 = ORIENTED_EDGE('',*,*,#383,.F.);
#383 = EDGE_CURVE('',#384,#376,#386,.T.);
#384 = VERTEX_POINT('',#385);
#385 = CARTESIAN_POINT('',(49.448895,-37.89034,0.));
#386 = CIRCLE('',#387,0.999921027767);
#387 = AXIS2_PLACEMENT_3D('',#388,#389,#390);
#388 = CARTESIAN_POINT('',(50.314812595377,-38.39036877895,0.));
#389 = DIRECTION('',(0.,0.,1.));
#390 = DIRECTION('',(-0.865985984224,0.500068270467,0.));
#391 = ORIENTED_EDGE('',*,*,#392,.F.);
#392 = EDGE_CURVE('',#393,#384,#395,.T.);
#393 = VERTEX_POINT('',#394);
#394 = CARTESIAN_POINT('',(58.698895,-21.868869,0.));
#395 = LINE('',#396,#397);
#396 = CARTESIAN_POINT('',(58.698895,-21.868869,0.));
#397 = VECTOR('',#398,1.);
#398 = DIRECTION('',(-0.499999975892,-0.866025417703,0.));
#399 = ORIENTED_EDGE('',*,*,#400,.F.);
#400 = EDGE_CURVE('',#401,#393,#403,.T.);
#401 = VERTEX_POINT('',#402);
#402 = CARTESIAN_POINT('',(60.06492,-21.502844,0.));
#403 = CIRCLE('',#404,1.000077100812);
#404 = AXIS2_PLACEMENT_3D('',#405,#406,#407);
#405 = CARTESIAN_POINT('',(59.564948347731,-22.36897479525,0.));
#406 = DIRECTION('',(0.,0.,1.));
#407 = DIRECTION('',(0.49993310702,0.86606402102,-0.));
#408 = ORIENTED_EDGE('',*,*,#409,.F.);
#409 = EDGE_CURVE('',#410,#401,#412,.T.);
#410 = VERTEX_POINT('',#411);
#411 = CARTESIAN_POINT('',(67.426136,-25.752844,0.));
#412 = LINE('',#413,#414);
#413 = CARTESIAN_POINT('',(67.426136,-25.752844,0.));
#414 = VECTOR('',#415,1.);
#415 = DIRECTION('',(-0.86602540578,0.499999996544,0.));
#416 = ORIENTED_EDGE('',*,*,#417,.F.);
#417 = EDGE_CURVE('',#418,#410,#420,.T.);
#418 = VERTEX_POINT('',#419);
#419 = CARTESIAN_POINT('',(68.792161,-25.386819,0.));
#420 = CIRCLE('',#421,0.999955542405);
#421 = AXIS2_PLACEMENT_3D('',#422,#423,#424);
#422 = CARTESIAN_POINT('',(67.926152144959,-24.88687925385,0.));
#423 = DIRECTION('',(-0.,0.,-1.));
#424 = DIRECTION('',(0.866047357424,-0.499961973252,-0.));
#425 = ORIENTED_EDGE('',*,*,#426,.F.);
#426 = EDGE_CURVE('',#427,#418,#429,.T.);
#427 = VERTEX_POINT('',#428);
#428 = CARTESIAN_POINT('',(72.792161,-18.458615,0.));
#429 = LINE('',#430,#431);
#430 = CARTESIAN_POINT('',(72.792161,-18.458615,0.));
#431 = VECTOR('',#432,1.);
#432 = DIRECTION('',(-0.499999958337,-0.866025427838,0.));
#433 = ORIENTED_EDGE('',*,*,#434,.F.);
#434 = EDGE_CURVE('',#435,#427,#437,.T.);
#435 = VERTEX_POINT('',#436);
#436 = CARTESIAN_POINT('',(72.426136,-17.09259,0.));
#437 = CIRCLE('',#438,0.999998429191);
#438 = AXIS2_PLACEMENT_3D('',#439,#440,#441);
#439 = CARTESIAN_POINT('',(71.926137668084,-17.95861455303,0.));
#440 = DIRECTION('',(0.,0.,-1.));
#441 = DIRECTION('',(0.499999117319,0.8660259134,0.));
#442 = ORIENTED_EDGE('',*,*,#443,.F.);
#443 = EDGE_CURVE('',#444,#435,#446,.T.);
#444 = VERTEX_POINT('',#445);
#445 = CARTESIAN_POINT('',(60.573895,-10.249696,0.));
#446 = LINE('',#447,#448);
#447 = CARTESIAN_POINT('',(60.573895,-10.249696,0.));
#448 = VECTOR('',#449,1.);
#449 = DIRECTION('',(0.866025420612,-0.499999970854,0.));
#450 = ORIENTED_EDGE('',*,*,#451,.F.);
#451 = EDGE_CURVE('',#452,#444,#454,.T.);
#452 = VERTEX_POINT('',#453);
#453 = CARTESIAN_POINT('',(58.073895,-5.919569,0.));
#454 = CIRCLE('',#455,5.000082517598);
#455 = AXIS2_PLACEMENT_3D('',#456,#457,#458);
#456 = CARTESIAN_POINT('',(63.073977517371,-5.919521339651,0.));
#457 = DIRECTION('',(0.,0.,1.));
#458 = DIRECTION('',(-0.999999999955,-9.531912466769E-06,0.));
#459 = ORIENTED_EDGE('',*,*,#460,.F.);
#460 = EDGE_CURVE('',#461,#452,#463,.T.);
#461 = VERTEX_POINT('',#462);
#462 = CARTESIAN_POINT('',(58.073895,41.970395,0.));
#463 = LINE('',#464,#465);
#464 = CARTESIAN_POINT('',(58.073895,41.970395,0.));
#465 = VECTOR('',#466,1.);
#466 = DIRECTION('',(0.,-1.,0.));
#467 = ORIENTED_EDGE('',*,*,#468,.F.);
#468 = EDGE_CURVE('',#469,#461,#471,.T.);
#469 = VERTEX_POINT('',#470);
#470 = CARTESIAN_POINT('',(57.073895,42.970395,0.));
#471 = CIRCLE('',#472,0.999999252925);
#472 = AXIS2_PLACEMENT_3D('',#473,#474,#475);
#473 = CARTESIAN_POINT('',(57.073895747075,41.970395747075,0.));
#474 = DIRECTION('',(0.,0.,-1.));
#475 = DIRECTION('',(-7.470757278485E-07,1.,0.));
#476 = ORIENTED_EDGE('',*,*,#477,.F.);
#477 = EDGE_CURVE('',#478,#469,#480,.T.);
#478 = VERTEX_POINT('',#479);
#479 = CARTESIAN_POINT('',(23.323895,42.970395,0.));
#480 = LINE('',#481,#482);
#481 = CARTESIAN_POINT('',(23.323895,42.970395,0.));
#482 = VECTOR('',#483,1.);
#483 = DIRECTION('',(1.,0.,0.));
#484 = ORIENTED_EDGE('',*,*,#485,.F.);
#485 = EDGE_CURVE('',#486,#478,#488,.T.);
#486 = VERTEX_POINT('',#487);
#487 = CARTESIAN_POINT('',(22.323895,43.970395,0.));
#488 = CIRCLE('',#489,0.999999252925);
#489 = AXIS2_PLACEMENT_3D('',#490,#491,#492);
#490 = CARTESIAN_POINT('',(23.323894252925,43.970394252925,0.));
#491 = DIRECTION('',(0.,0.,1.));
#492 = DIRECTION('',(-1.,7.470757420593E-07,0.));
#493 = ORIENTED_EDGE('',*,*,#494,.F.);
#494 = EDGE_CURVE('',#495,#486,#497,.T.);
#495 = VERTEX_POINT('',#496);
#496 = CARTESIAN_POINT('',(22.323895,44.470395,0.));
#497 = LINE('',#498,#499);
#498 = CARTESIAN_POINT('',(22.323895,44.470395,0.));
#499 = VECTOR('',#500,1.);
#500 = DIRECTION('',(0.,-1.,0.));
#501 = ORIENTED_EDGE('',*,*,#502,.F.);
#502 = EDGE_CURVE('',#503,#495,#505,.T.);
#503 = VERTEX_POINT('',#504);
#504 = CARTESIAN_POINT('',(21.323895,45.470395,0.));
#505 = CIRCLE('',#506,0.999999252925);
#506 = AXIS2_PLACEMENT_3D('',#507,#508,#509);
#507 = CARTESIAN_POINT('',(21.323895747075,44.470395747075,0.));
#508 = DIRECTION('',(0.,0.,-1.));
#509 = DIRECTION('',(-7.470757314012E-07,1.,0.));
#510 = ORIENTED_EDGE('',*,*,#511,.F.);
#511 = EDGE_CURVE('',#512,#503,#514,.T.);
#512 = VERTEX_POINT('',#513);
#513 = CARTESIAN_POINT('',(3.073895,45.470395,0.));
#514 = LINE('',#515,#516);
#515 = CARTESIAN_POINT('',(3.073895,45.470395,0.));
#516 = VECTOR('',#517,1.);
#517 = DIRECTION('',(1.,0.,0.));
#518 = ORIENTED_EDGE('',*,*,#519,.F.);
#519 = EDGE_CURVE('',#122,#512,#520,.T.);
#520 = CIRCLE('',#521,0.999999252925);
#521 = AXIS2_PLACEMENT_3D('',#522,#523,#524);
#522 = CARTESIAN_POINT('',(3.073894252925,46.470394252925,0.));
#523 = DIRECTION('',(0.,0.,1.));
#524 = DIRECTION('',(-1.,7.470757349539E-07,0.));
#525 = ORIENTED_EDGE('',*,*,#129,.F.);
#526 = FACE_BOUND('',#527,.F.);
#527 = EDGE_LOOP('',(#528));
#528 = ORIENTED_EDGE('',*,*,#529,.T.);
#529 = EDGE_CURVE('',#530,#530,#532,.T.);
#530 = VERTEX_POINT('',#531);
#531 = CARTESIAN_POINT('',(-55.926105,-15.129605,0.));
#532 = CIRCLE('',#533,1.1);
#533 = AXIS2_PLACEMENT_3D('',#534,#535,#536);
#534 = CARTESIAN_POINT('',(-55.926105,-14.029605,0.));
#535 = DIRECTION('',(-0.,0.,-1.));
#536 = DIRECTION('',(-0.,-1.,0.));
#537 = FACE_BOUND('',#538,.F.);
#538 = EDGE_LOOP('',(#539));
#539 = ORIENTED_EDGE('',*,*,#540,.T.);
#540 = EDGE_CURVE('',#541,#541,#543,.T.);
#541 = VERTEX_POINT('',#542);
#542 = CARTESIAN_POINT('',(-7.426105,-14.129605,0.));
#543 = CIRCLE('',#544,1.1);
#544 = AXIS2_PLACEMENT_3D('',#545,#546,#547);
#545 = CARTESIAN_POINT('',(-7.426105,-13.029605,0.));
#546 = DIRECTION('',(-0.,0.,-1.));
#547 = DIRECTION('',(-0.,-1.,0.));
#548 = FACE_BOUND('',#549,.F.);
#549 = EDGE_LOOP('',(#550));
#550 = ORIENTED_EDGE('',*,*,#551,.T.);
#551 = EDGE_CURVE('',#552,#552,#554,.T.);
#552 = VERTEX_POINT('',#553);
#553 = CARTESIAN_POINT('',(39.573895,-15.129605,0.));
#554 = CIRCLE('',#555,1.1);
#555 = AXIS2_PLACEMENT_3D('',#556,#557,#558);
#556 = CARTESIAN_POINT('',(39.573895,-14.029605,0.));
#557 = DIRECTION('',(-0.,0.,-1.));
#558 = DIRECTION('',(-0.,-1.,0.));
#559 = FACE_BOUND('',#560,.F.);
#560 = EDGE_LOOP('',(#561));
#561 = ORIENTED_EDGE('',*,*,#562,.T.);
#562 = EDGE_CURVE('',#563,#563,#565,.T.);
#563 = VERTEX_POINT('',#564);
#564 = CARTESIAN_POINT('',(-37.926105,41.870395,0.));
#565 = CIRCLE('',#566,1.1);
#566 = AXIS2_PLACEMENT_3D('',#567,#568,#569);
#567 = CARTESIAN_POINT('',(-37.926105,42.970395,0.));
#568 = DIRECTION('',(-0.,0.,-1.));
#569 = DIRECTION('',(-0.,-1.,0.));
#570 = FACE_BOUND('',#571,.F.);
#571 = EDGE_LOOP('',(#572));
#572 = ORIENTED_EDGE('',*,*,#573,.T.);
#573 = EDGE_CURVE('',#574,#574,#576,.T.);
#574 = VERTEX_POINT('',#575);
#575 = CARTESIAN_POINT('',(19.573895,41.620395,0.));
#576 = CIRCLE('',#577,1.1);
#577 = AXIS2_PLACEMENT_3D('',#578,#579,#580);
#578 = CARTESIAN_POINT('',(19.573895,42.720395,0.));
#579 = DIRECTION('',(-0.,0.,-1.));
#580 = DIRECTION('',(-0.,-1.,0.));
#581 = PLANE('',#582);
#582 = AXIS2_PLACEMENT_3D('',#583,#584,#585);
#583 = CARTESIAN_POINT('',(0.,0.,0.));
#584 = DIRECTION('',(0.,0.,1.));
#585 = DIRECTION('',(1.,0.,-0.));
#586 = ADVANCED_FACE('',(#587,#973,#984,#995,#1006,#1017),#1028,.T.);
#587 = FACE_BOUND('',#588,.T.);
#588 = EDGE_LOOP('',(#589,#590,#591,#600,#609,#617,#626,#634,#643,#651,
    #660,#668,#677,#685,#694,#702,#711,#719,#728,#736,#745,#753,#762,
    #770,#779,#787,#795,#804,#812,#821,#829,#838,#846,#855,#863,#872,
    #880,#889,#897,#906,#914,#923,#931,#940,#948,#957,#965,#972));
#589 = ORIENTED_EDGE('',*,*,#49,.F.);
#590 = ORIENTED_EDGE('',*,*,#91,.F.);
#591 = ORIENTED_EDGE('',*,*,#592,.F.);
#592 = EDGE_CURVE('',#593,#84,#595,.T.);
#593 = VERTEX_POINT('',#594);
#594 = CARTESIAN_POINT('',(-18.926105,47.470395,2.8));
#595 = CIRCLE('',#596,0.500001333575);
#596 = AXIS2_PLACEMENT_3D('',#597,#598,#599);
#597 = CARTESIAN_POINT('',(-18.42610366642,47.470393666427,2.8));
#598 = DIRECTION('',(0.,0.,-1.));
#599 = DIRECTION('',(-0.999999999996,2.667139191042E-06,0.));
#600 = ORIENTED_EDGE('',*,*,#601,.F.);
#601 = EDGE_CURVE('',#602,#593,#604,.T.);
#602 = VERTEX_POINT('',#603);
#603 = CARTESIAN_POINT('',(-19.426105,46.970395,2.8));
#604 = CIRCLE('',#605,0.500001333575);
#605 = AXIS2_PLACEMENT_3D('',#606,#607,#608);
#606 = CARTESIAN_POINT('',(-19.42610633357,47.470396333573,2.8));
#607 = DIRECTION('',(0.,0.,1.));
#608 = DIRECTION('',(2.667139169726E-06,-0.999999999996,0.));
#609 = ORIENTED_EDGE('',*,*,#610,.F.);
#610 = EDGE_CURVE('',#611,#602,#613,.T.);
#611 = VERTEX_POINT('',#612);
#612 = CARTESIAN_POINT('',(-39.676105,46.970395,2.8));
#613 = LINE('',#614,#615);
#614 = CARTESIAN_POINT('',(-39.676105,46.970395,2.8));
#615 = VECTOR('',#616,1.);
#616 = DIRECTION('',(1.,0.,0.));
#617 = ORIENTED_EDGE('',*,*,#618,.F.);
#618 = EDGE_CURVE('',#619,#611,#621,.T.);
#619 = VERTEX_POINT('',#620);
#620 = CARTESIAN_POINT('',(-40.676105,45.970395,2.8));
#621 = CIRCLE('',#622,0.999999252925);
#622 = AXIS2_PLACEMENT_3D('',#623,#624,#625);
#623 = CARTESIAN_POINT('',(-39.67610574707,45.970395747075,2.8));
#624 = DIRECTION('',(0.,0.,-1.));
#625 = DIRECTION('',(-1.,-7.470757278485E-07,-0.));
#626 = ORIENTED_EDGE('',*,*,#627,.F.);
#627 = EDGE_CURVE('',#628,#619,#630,.T.);
#628 = VERTEX_POINT('',#629);
#629 = CARTESIAN_POINT('',(-40.676105,37.970395,2.8));
#630 = LINE('',#631,#632);
#631 = CARTESIAN_POINT('',(-40.676105,37.970395,2.8));
#632 = VECTOR('',#633,1.);
#633 = DIRECTION('',(0.,1.,0.));
#634 = ORIENTED_EDGE('',*,*,#635,.F.);
#635 = EDGE_CURVE('',#636,#628,#638,.T.);
#636 = VERTEX_POINT('',#637);
#637 = CARTESIAN_POINT('',(-41.676105,36.970395,2.8));
#638 = CIRCLE('',#639,0.999999252925);
#639 = AXIS2_PLACEMENT_3D('',#640,#641,#642);
#640 = CARTESIAN_POINT('',(-41.67610425292,37.970394252925,2.8));
#641 = DIRECTION('',(0.,0.,1.));
#642 = DIRECTION('',(-7.470757420593E-07,-1.,0.));
#643 = ORIENTED_EDGE('',*,*,#644,.F.);
#644 = EDGE_CURVE('',#645,#636,#647,.T.);
#645 = VERTEX_POINT('',#646);
#646 = CARTESIAN_POINT('',(-53.926105,36.970395,2.8));
#647 = LINE('',#648,#649);
#648 = CARTESIAN_POINT('',(-53.926105,36.970395,2.8));
#649 = VECTOR('',#650,1.);
#650 = DIRECTION('',(1.,0.,0.));
#651 = ORIENTED_EDGE('',*,*,#652,.F.);
#652 = EDGE_CURVE('',#653,#645,#655,.T.);
#653 = VERTEX_POINT('',#654);
#654 = CARTESIAN_POINT('',(-54.926105,35.970395,2.8));
#655 = CIRCLE('',#656,0.999999252925);
#656 = AXIS2_PLACEMENT_3D('',#657,#658,#659);
#657 = CARTESIAN_POINT('',(-53.92610574707,35.970395747075,2.8));
#658 = DIRECTION('',(0.,0.,-1.));
#659 = DIRECTION('',(-1.,-7.470757278485E-07,-0.));
#660 = ORIENTED_EDGE('',*,*,#661,.F.);
#661 = EDGE_CURVE('',#662,#653,#664,.T.);
#662 = VERTEX_POINT('',#663);
#663 = CARTESIAN_POINT('',(-54.926105,24.970395,2.8));
#664 = LINE('',#665,#666);
#665 = CARTESIAN_POINT('',(-54.926105,24.970395,2.8));
#666 = VECTOR('',#667,1.);
#667 = DIRECTION('',(0.,1.,0.));
#668 = ORIENTED_EDGE('',*,*,#669,.F.);
#669 = EDGE_CURVE('',#670,#662,#672,.T.);
#670 = VERTEX_POINT('',#671);
#671 = CARTESIAN_POINT('',(-55.926105,23.970395,2.8));
#672 = CIRCLE('',#673,0.999999252925);
#673 = AXIS2_PLACEMENT_3D('',#674,#675,#676);
#674 = CARTESIAN_POINT('',(-55.92610425292,24.970394252925,2.8));
#675 = DIRECTION('',(0.,0.,1.));
#676 = DIRECTION('',(-7.470757420593E-07,-1.,0.));
#677 = ORIENTED_EDGE('',*,*,#678,.F.);
#678 = EDGE_CURVE('',#679,#670,#681,.T.);
#679 = VERTEX_POINT('',#680);
#680 = CARTESIAN_POINT('',(-71.926105,23.970395,2.8));
#681 = LINE('',#682,#683);
#682 = CARTESIAN_POINT('',(-71.926105,23.970395,2.8));
#683 = VECTOR('',#684,1.);
#684 = DIRECTION('',(1.,0.,0.));
#685 = ORIENTED_EDGE('',*,*,#686,.F.);
#686 = EDGE_CURVE('',#687,#679,#689,.T.);
#687 = VERTEX_POINT('',#688);
#688 = CARTESIAN_POINT('',(-72.926105,22.970395,2.8));
#689 = CIRCLE('',#690,0.999999252925);
#690 = AXIS2_PLACEMENT_3D('',#691,#692,#693);
#691 = CARTESIAN_POINT('',(-71.92610574707,22.970395747075,2.8));
#692 = DIRECTION('',(0.,0.,-1.));
#693 = DIRECTION('',(-1.,-7.470757314012E-07,-0.));
#694 = ORIENTED_EDGE('',*,*,#695,.F.);
#695 = EDGE_CURVE('',#696,#687,#698,.T.);
#696 = VERTEX_POINT('',#697);
#697 = CARTESIAN_POINT('',(-72.926105,-12.029605,2.8));
#698 = LINE('',#699,#700);
#699 = CARTESIAN_POINT('',(-72.926105,-12.029605,2.8));
#700 = VECTOR('',#701,1.);
#701 = DIRECTION('',(0.,1.,0.));
#702 = ORIENTED_EDGE('',*,*,#703,.F.);
#703 = EDGE_CURVE('',#704,#696,#706,.T.);
#704 = VERTEX_POINT('',#705);
#705 = CARTESIAN_POINT('',(-71.926105,-13.029605,2.8));
#706 = CIRCLE('',#707,0.999999252925);
#707 = AXIS2_PLACEMENT_3D('',#708,#709,#710);
#708 = CARTESIAN_POINT('',(-71.92610574707,-12.02960574707,2.8));
#709 = DIRECTION('',(0.,0.,-1.));
#710 = DIRECTION('',(7.470757349539E-07,-1.,0.));
#711 = ORIENTED_EDGE('',*,*,#712,.F.);
#712 = EDGE_CURVE('',#713,#704,#715,.T.);
#713 = VERTEX_POINT('',#714);
#714 = CARTESIAN_POINT('',(-59.926105,-13.029605,2.8));
#715 = LINE('',#716,#717);
#716 = CARTESIAN_POINT('',(-59.926105,-13.029605,2.8));
#717 = VECTOR('',#718,1.);
#718 = DIRECTION('',(-1.,0.,0.));
#719 = ORIENTED_EDGE('',*,*,#720,.F.);
#720 = EDGE_CURVE('',#721,#713,#723,.T.);
#721 = VERTEX_POINT('',#722);
#722 = CARTESIAN_POINT('',(-58.926105,-14.029605,2.8));
#723 = CIRCLE('',#724,0.999999252925);
#724 = AXIS2_PLACEMENT_3D('',#725,#726,#727);
#725 = CARTESIAN_POINT('',(-59.92610425292,-14.02960425292,2.8));
#726 = DIRECTION('',(0.,0.,1.));
#727 = DIRECTION('',(1.,-7.470757438357E-07,0.));
#728 = ORIENTED_EDGE('',*,*,#729,.F.);
#729 = EDGE_CURVE('',#730,#721,#732,.T.);
#730 = VERTEX_POINT('',#731);
#731 = CARTESIAN_POINT('',(-58.926105,-16.029605,2.8));
#732 = LINE('',#733,#734);
#733 = CARTESIAN_POINT('',(-58.926105,-16.029605,2.8));
#734 = VECTOR('',#735,1.);
#735 = DIRECTION('',(0.,1.,0.));
#736 = ORIENTED_EDGE('',*,*,#737,.F.);
#737 = EDGE_CURVE('',#738,#730,#740,.T.);
#738 = VERTEX_POINT('',#739);
#739 = CARTESIAN_POINT('',(-57.926105,-17.029605,2.8));
#740 = CIRCLE('',#741,0.999999252925);
#741 = AXIS2_PLACEMENT_3D('',#742,#743,#744);
#742 = CARTESIAN_POINT('',(-57.92610574707,-16.02960574707,2.8));
#743 = DIRECTION('',(0.,0.,-1.));
#744 = DIRECTION('',(7.470757420593E-07,-1.,0.));
#745 = ORIENTED_EDGE('',*,*,#746,.F.);
#746 = EDGE_CURVE('',#747,#738,#749,.T.);
#747 = VERTEX_POINT('',#748);
#748 = CARTESIAN_POINT('',(-12.711386,-17.029605,2.8));
#749 = LINE('',#750,#751);
#750 = CARTESIAN_POINT('',(-12.711386,-17.029605,2.8));
#751 = VECTOR('',#752,1.);
#752 = DIRECTION('',(-1.,0.,0.));
#753 = ORIENTED_EDGE('',*,*,#754,.F.);
#754 = EDGE_CURVE('',#755,#747,#757,.T.);
#755 = VERTEX_POINT('',#756);
#756 = CARTESIAN_POINT('',(-8.460061,-19.397832,2.8));
#757 = CIRCLE('',#758,4.999999336336);
#758 = AXIS2_PLACEMENT_3D('',#759,#760,#761);
#759 = CARTESIAN_POINT('',(-12.71138640898,-22.02960433633,2.8));
#760 = DIRECTION('',(0.,0.,1.));
#761 = DIRECTION('',(0.850265194654,0.526354537132,-0.));
#762 = ORIENTED_EDGE('',*,*,#763,.F.);
#763 = EDGE_CURVE('',#764,#755,#766,.T.);
#764 = VERTEX_POINT('',#765);
#765 = CARTESIAN_POINT('',(-4.593677,-25.643527,2.8));
#766 = LINE('',#767,#768);
#767 = CARTESIAN_POINT('',(-4.593677,-25.643527,2.8));
#768 = VECTOR('',#769,1.);
#769 = DIRECTION('',(-0.526354750529,0.850265062551,0.));
#770 = ORIENTED_EDGE('',*,*,#771,.F.);
#771 = EDGE_CURVE('',#772,#764,#774,.T.);
#772 = VERTEX_POINT('',#773);
#773 = CARTESIAN_POINT('',(-1.244269,-27.929736,2.8));
#774 = CIRCLE('',#775,5.00000445242);
#775 = AXIS2_PLACEMENT_3D('',#776,#777,#778);
#776 = CARTESIAN_POINT('',(-0.342348288434,-23.01175027876,2.8));
#777 = DIRECTION('',(0.,0.,-1.));
#778 = DIRECTION('',(-0.180383981684,-0.98359626837,-0.));
#779 = ORIENTED_EDGE('',*,*,#780,.F.);
#780 = EDGE_CURVE('',#781,#772,#783,.T.);
#781 = VERTEX_POINT('',#782);
#782 = CARTESIAN_POINT('',(28.86033,-32.931714,2.8));
#783 = LINE('',#784,#785);
#784 = CARTESIAN_POINT('',(28.86033,-32.931714,2.8));
#785 = VECTOR('',#786,1.);
#786 = DIRECTION('',(-0.986475926036,0.163906215112,0.));
#787 = ORIENTED_EDGE('',*,*,#788,.F.);
#788 = EDGE_CURVE('',#789,#781,#791,.T.);
#789 = VERTEX_POINT('',#790);
#790 = CARTESIAN_POINT('',(54.676153,-47.836486,2.8));
#791 = LINE('',#792,#793);
#792 = CARTESIAN_POINT('',(54.676153,-47.836486,2.8));
#793 = VECTOR('',#794,1.);
#794 = DIRECTION('',(-0.866025408991,0.499999990983,0.));
#795 = ORIENTED_EDGE('',*,*,#796,.F.);
#796 = EDGE_CURVE('',#797,#789,#799,.T.);
#797 = VERTEX_POINT('',#798);
#798 = CARTESIAN_POINT('',(56.04218,-47.470457,2.8));
#799 = CIRCLE('',#800,1.000011003792);
#800 = AXIS2_PLACEMENT_3D('',#801,#802,#803);
#801 = CARTESIAN_POINT('',(55.176148612276,-46.97044535695,2.8));
#802 = DIRECTION('',(-0.,0.,-1.));
#803 = DIRECTION('',(0.866021858199,-0.500006141084,-0.));
#804 = ORIENTED_EDGE('',*,*,#805,.F.);
#805 = EDGE_CURVE('',#806,#797,#808,.T.);
#806 = VERTEX_POINT('',#807);
#807 = CARTESIAN_POINT('',(57.542169,-44.872378,2.8));
#808 = LINE('',#809,#810);
#809 = CARTESIAN_POINT('',(57.542169,-44.872378,2.8));
#810 = VECTOR('',#811,1.);
#811 = DIRECTION('',(-0.499996847487,-0.866027223881,0.));
#812 = ORIENTED_EDGE('',*,*,#813,.F.);
#813 = EDGE_CURVE('',#814,#806,#816,.T.);
#814 = VERTEX_POINT('',#815);
#815 = CARTESIAN_POINT('',(57.176142,-43.506352,2.8));
#816 = CIRCLE('',#817,0.999999907587);
#817 = AXIS2_PLACEMENT_3D('',#818,#819,#820);
#818 = CARTESIAN_POINT('',(56.67614358157,-44.37237821019,2.8));
#819 = DIRECTION('',(0.,0.,-1.));
#820 = DIRECTION('',(0.499998464637,0.866026290225,0.));
#821 = ORIENTED_EDGE('',*,*,#822,.F.);
#822 = EDGE_CURVE('',#823,#814,#825,.T.);
#823 = VERTEX_POINT('',#824);
#824 = CARTESIAN_POINT('',(49.81492,-39.256365,2.8));
#825 = LINE('',#826,#827);
#826 = CARTESIAN_POINT('',(49.81492,-39.256365,2.8));
#827 = VECTOR('',#828,1.);
#828 = DIRECTION('',(0.866026244504,-0.499998543829,0.));
#829 = ORIENTED_EDGE('',*,*,#830,.F.);
#830 = EDGE_CURVE('',#831,#823,#833,.T.);
#831 = VERTEX_POINT('',#832);
#832 = CARTESIAN_POINT('',(49.448895,-37.89034,2.8));
#833 = CIRCLE('',#834,0.999921027767);
#834 = AXIS2_PLACEMENT_3D('',#835,#836,#837);
#835 = CARTESIAN_POINT('',(50.314812595377,-38.39036877895,2.8));
#836 = DIRECTION('',(0.,0.,1.));
#837 = DIRECTION('',(-0.865985984224,0.500068270467,0.));
#838 = ORIENTED_EDGE('',*,*,#839,.F.);
#839 = EDGE_CURVE('',#840,#831,#842,.T.);
#840 = VERTEX_POINT('',#841);
#841 = CARTESIAN_POINT('',(58.698895,-21.868869,2.8));
#842 = LINE('',#843,#844);
#843 = CARTESIAN_POINT('',(58.698895,-21.868869,2.8));
#844 = VECTOR('',#845,1.);
#845 = DIRECTION('',(-0.499999975892,-0.866025417703,0.));
#846 = ORIENTED_EDGE('',*,*,#847,.F.);
#847 = EDGE_CURVE('',#848,#840,#850,.T.);
#848 = VERTEX_POINT('',#849);
#849 = CARTESIAN_POINT('',(60.06492,-21.502844,2.8));
#850 = CIRCLE('',#851,1.000077100812);
#851 = AXIS2_PLACEMENT_3D('',#852,#853,#854);
#852 = CARTESIAN_POINT('',(59.564948347731,-22.36897479525,2.8));
#853 = DIRECTION('',(0.,0.,1.));
#854 = DIRECTION('',(0.49993310702,0.86606402102,-0.));
#855 = ORIENTED_EDGE('',*,*,#856,.F.);
#856 = EDGE_CURVE('',#857,#848,#859,.T.);
#857 = VERTEX_POINT('',#858);
#858 = CARTESIAN_POINT('',(67.426136,-25.752844,2.8));
#859 = LINE('',#860,#861);
#860 = CARTESIAN_POINT('',(67.426136,-25.752844,2.8));
#861 = VECTOR('',#862,1.);
#862 = DIRECTION('',(-0.86602540578,0.499999996544,0.));
#863 = ORIENTED_EDGE('',*,*,#864,.F.);
#864 = EDGE_CURVE('',#865,#857,#867,.T.);
#865 = VERTEX_POINT('',#866);
#866 = CARTESIAN_POINT('',(68.792161,-25.386819,2.8));
#867 = CIRCLE('',#868,0.999955542405);
#868 = AXIS2_PLACEMENT_3D('',#869,#870,#871);
#869 = CARTESIAN_POINT('',(67.926152144959,-24.88687925385,2.8));
#870 = DIRECTION('',(-0.,0.,-1.));
#871 = DIRECTION('',(0.866047357424,-0.499961973252,-0.));
#872 = ORIENTED_EDGE('',*,*,#873,.F.);
#873 = EDGE_CURVE('',#874,#865,#876,.T.);
#874 = VERTEX_POINT('',#875);
#875 = CARTESIAN_POINT('',(72.792161,-18.458615,2.8));
#876 = LINE('',#877,#878);
#877 = CARTESIAN_POINT('',(72.792161,-18.458615,2.8));
#878 = VECTOR('',#879,1.);
#879 = DIRECTION('',(-0.499999958337,-0.866025427838,0.));
#880 = ORIENTED_EDGE('',*,*,#881,.F.);
#881 = EDGE_CURVE('',#882,#874,#884,.T.);
#882 = VERTEX_POINT('',#883);
#883 = CARTESIAN_POINT('',(72.426136,-17.09259,2.8));
#884 = CIRCLE('',#885,0.999998429191);
#885 = AXIS2_PLACEMENT_3D('',#886,#887,#888);
#886 = CARTESIAN_POINT('',(71.926137668084,-17.95861455303,2.8));
#887 = DIRECTION('',(0.,0.,-1.));
#888 = DIRECTION('',(0.499999117319,0.8660259134,0.));
#889 = ORIENTED_EDGE('',*,*,#890,.F.);
#890 = EDGE_CURVE('',#891,#882,#893,.T.);
#891 = VERTEX_POINT('',#892);
#892 = CARTESIAN_POINT('',(60.573895,-10.249696,2.8));
#893 = LINE('',#894,#895);
#894 = CARTESIAN_POINT('',(60.573895,-10.249696,2.8));
#895 = VECTOR('',#896,1.);
#896 = DIRECTION('',(0.866025420612,-0.499999970854,0.));
#897 = ORIENTED_EDGE('',*,*,#898,.F.);
#898 = EDGE_CURVE('',#899,#891,#901,.T.);
#899 = VERTEX_POINT('',#900);
#900 = CARTESIAN_POINT('',(58.073895,-5.919569,2.8));
#901 = CIRCLE('',#902,5.000082517598);
#902 = AXIS2_PLACEMENT_3D('',#903,#904,#905);
#903 = CARTESIAN_POINT('',(63.073977517371,-5.919521339651,2.8));
#904 = DIRECTION('',(0.,0.,1.));
#905 = DIRECTION('',(-0.999999999955,-9.531912466769E-06,0.));
#906 = ORIENTED_EDGE('',*,*,#907,.F.);
#907 = EDGE_CURVE('',#908,#899,#910,.T.);
#908 = VERTEX_POINT('',#909);
#909 = CARTESIAN_POINT('',(58.073895,41.970395,2.8));
#910 = LINE('',#911,#912);
#911 = CARTESIAN_POINT('',(58.073895,41.970395,2.8));
#912 = VECTOR('',#913,1.);
#913 = DIRECTION('',(0.,-1.,0.));
#914 = ORIENTED_EDGE('',*,*,#915,.F.);
#915 = EDGE_CURVE('',#916,#908,#918,.T.);
#916 = VERTEX_POINT('',#917);
#917 = CARTESIAN_POINT('',(57.073895,42.970395,2.8));
#918 = CIRCLE('',#919,0.999999252925);
#919 = AXIS2_PLACEMENT_3D('',#920,#921,#922);
#920 = CARTESIAN_POINT('',(57.073895747075,41.970395747075,2.8));
#921 = DIRECTION('',(0.,0.,-1.));
#922 = DIRECTION('',(-7.470757278485E-07,1.,0.));
#923 = ORIENTED_EDGE('',*,*,#924,.F.);
#924 = EDGE_CURVE('',#925,#916,#927,.T.);
#925 = VERTEX_POINT('',#926);
#926 = CARTESIAN_POINT('',(23.323895,42.970395,2.8));
#927 = LINE('',#928,#929);
#928 = CARTESIAN_POINT('',(23.323895,42.970395,2.8));
#929 = VECTOR('',#930,1.);
#930 = DIRECTION('',(1.,0.,0.));
#931 = ORIENTED_EDGE('',*,*,#932,.F.);
#932 = EDGE_CURVE('',#933,#925,#935,.T.);
#933 = VERTEX_POINT('',#934);
#934 = CARTESIAN_POINT('',(22.323895,43.970395,2.8));
#935 = CIRCLE('',#936,0.999999252925);
#936 = AXIS2_PLACEMENT_3D('',#937,#938,#939);
#937 = CARTESIAN_POINT('',(23.323894252925,43.970394252925,2.8));
#938 = DIRECTION('',(0.,0.,1.));
#939 = DIRECTION('',(-1.,7.470757420593E-07,0.));
#940 = ORIENTED_EDGE('',*,*,#941,.F.);
#941 = EDGE_CURVE('',#942,#933,#944,.T.);
#942 = VERTEX_POINT('',#943);
#943 = CARTESIAN_POINT('',(22.323895,44.470395,2.8));
#944 = LINE('',#945,#946);
#945 = CARTESIAN_POINT('',(22.323895,44.470395,2.8));
#946 = VECTOR('',#947,1.);
#947 = DIRECTION('',(0.,-1.,0.));
#948 = ORIENTED_EDGE('',*,*,#949,.F.);
#949 = EDGE_CURVE('',#950,#942,#952,.T.);
#950 = VERTEX_POINT('',#951);
#951 = CARTESIAN_POINT('',(21.323895,45.470395,2.8));
#952 = CIRCLE('',#953,0.999999252925);
#953 = AXIS2_PLACEMENT_3D('',#954,#955,#956);
#954 = CARTESIAN_POINT('',(21.323895747075,44.470395747075,2.8));
#955 = DIRECTION('',(0.,0.,-1.));
#956 = DIRECTION('',(-7.470757314012E-07,1.,0.));
#957 = ORIENTED_EDGE('',*,*,#958,.F.);
#958 = EDGE_CURVE('',#959,#950,#961,.T.);
#959 = VERTEX_POINT('',#960);
#960 = CARTESIAN_POINT('',(3.073895,45.470395,2.8));
#961 = LINE('',#962,#963);
#962 = CARTESIAN_POINT('',(3.073895,45.470395,2.8));
#963 = VECTOR('',#964,1.);
#964 = DIRECTION('',(1.,0.,0.));
#965 = ORIENTED_EDGE('',*,*,#966,.F.);
#966 = EDGE_CURVE('',#114,#959,#967,.T.);
#967 = CIRCLE('',#968,0.999999252925);
#968 = AXIS2_PLACEMENT_3D('',#969,#970,#971);
#969 = CARTESIAN_POINT('',(3.073894252925,46.470394252925,2.8));
#970 = DIRECTION('',(0.,0.,1.));
#971 = DIRECTION('',(-1.,7.470757349539E-07,0.));
#972 = ORIENTED_EDGE('',*,*,#113,.F.);
#973 = FACE_BOUND('',#974,.T.);
#974 = EDGE_LOOP('',(#975));
#975 = ORIENTED_EDGE('',*,*,#976,.T.);
#976 = EDGE_CURVE('',#977,#977,#979,.T.);
#977 = VERTEX_POINT('',#978);
#978 = CARTESIAN_POINT('',(-55.926105,-15.129605,2.8));
#979 = CIRCLE('',#980,1.1);
#980 = AXIS2_PLACEMENT_3D('',#981,#982,#983);
#981 = CARTESIAN_POINT('',(-55.926105,-14.029605,2.8));
#982 = DIRECTION('',(-0.,0.,-1.));
#983 = DIRECTION('',(-0.,-1.,0.));
#984 = FACE_BOUND('',#985,.T.);
#985 = EDGE_LOOP('',(#986));
#986 = ORIENTED_EDGE('',*,*,#987,.T.);
#987 = EDGE_CURVE('',#988,#988,#990,.T.);
#988 = VERTEX_POINT('',#989);
#989 = CARTESIAN_POINT('',(-7.426105,-14.129605,2.8));
#990 = CIRCLE('',#991,1.1);
#991 = AXIS2_PLACEMENT_3D('',#992,#993,#994);
#992 = CARTESIAN_POINT('',(-7.426105,-13.029605,2.8));
#993 = DIRECTION('',(-0.,0.,-1.));
#994 = DIRECTION('',(-0.,-1.,0.));
#995 = FACE_BOUND('',#996,.T.);
#996 = EDGE_LOOP('',(#997));
#997 = ORIENTED_EDGE('',*,*,#998,.T.);
#998 = EDGE_CURVE('',#999,#999,#1001,.T.);
#999 = VERTEX_POINT('',#1000);
#1000 = CARTESIAN_POINT('',(39.573895,-15.129605,2.8));
#1001 = CIRCLE('',#1002,1.1);
#1002 = AXIS2_PLACEMENT_3D('',#1003,#1004,#1005);
#1003 = CARTESIAN_POINT('',(39.573895,-14.029605,2.8));
#1004 = DIRECTION('',(-0.,0.,-1.));
#1005 = DIRECTION('',(-0.,-1.,0.));
#1006 = FACE_BOUND('',#1007,.T.);
#1007 = EDGE_LOOP('',(#1008));
#1008 = ORIENTED_EDGE('',*,*,#1009,.T.);
#1009 = EDGE_CURVE('',#1010,#1010,#1012,.T.);
#1010 = VERTEX_POINT('',#1011);
#1011 = CARTESIAN_POINT('',(-37.926105,41.870395,2.8));
#1012 = CIRCLE('',#1013,1.1);
#1013 = AXIS2_PLACEMENT_3D('',#1014,#1015,#1016);
#1014 = CARTESIAN_POINT('',(-37.926105,42.970395,2.8));
#1015 = DIRECTION('',(-0.,0.,-1.));
#1016 = DIRECTION('',(-0.,-1.,0.));
#1017 = FACE_BOUND('',#1018,.T.);
#1018 = EDGE_LOOP('',(#1019));
#1019 = ORIENTED_EDGE('',*,*,#1020,.T.);
#1020 = EDGE_CURVE('',#1021,#1021,#1023,.T.);
#1021 = VERTEX_POINT('',#1022);
#1022 = CARTESIAN_POINT('',(19.573895,41.620395,2.8));
#1023 = CIRCLE('',#1024,1.1);
#1024 = AXIS2_PLACEMENT_3D('',#1025,#1026,#1027);
#1025 = CARTESIAN_POINT('',(19.573895,42.720395,2.8));
#1026 = DIRECTION('',(-0.,0.,-1.));
#1027 = DIRECTION('',(-0.,-1.,0.));
#1028 = PLANE('',#1029);
#1029 = AXIS2_PLACEMENT_3D('',#1030,#1031,#1032);
#1030 = CARTESIAN_POINT('',(0.,0.,2.8));
#1031 = DIRECTION('',(0.,0.,1.));
#1032 = DIRECTION('',(1.,0.,-0.));
#1033 = ADVANCED_FACE('',(#1034),#1045,.T.);
#1034 = FACE_BOUND('',#1035,.T.);
#1035 = EDGE_LOOP('',(#1036,#1042,#1043,#1044));
#1036 = ORIENTED_EDGE('',*,*,#1037,.T.);
#1037 = EDGE_CURVE('',#146,#593,#1038,.T.);
#1038 = LINE('',#1039,#1040);
#1039 = CARTESIAN_POINT('',(-18.926105,47.470395,0.));
#1040 = VECTOR('',#1041,1.);
#1041 = DIRECTION('',(0.,0.,1.));
#1042 = ORIENTED_EDGE('',*,*,#592,.T.);
#1043 = ORIENTED_EDGE('',*,*,#81,.F.);
#1044 = ORIENTED_EDGE('',*,*,#145,.F.);
#1045 = CYLINDRICAL_SURFACE('',#1046,0.500001333575);
#1046 = AXIS2_PLACEMENT_3D('',#1047,#1048,#1049);
#1047 = CARTESIAN_POINT('',(-18.42610366642,47.470393666427,0.));
#1048 = DIRECTION('',(0.,0.,-1.));
#1049 = DIRECTION('',(-0.999999999996,2.667139191042E-06,0.));
#1050 = ADVANCED_FACE('',(#1051),#1062,.F.);
#1051 = FACE_BOUND('',#1052,.T.);
#1052 = EDGE_LOOP('',(#1053,#1054,#1055,#1061));
#1053 = ORIENTED_EDGE('',*,*,#121,.T.);
#1054 = ORIENTED_EDGE('',*,*,#966,.T.);
#1055 = ORIENTED_EDGE('',*,*,#1056,.F.);
#1056 = EDGE_CURVE('',#512,#959,#1057,.T.);
#1057 = LINE('',#1058,#1059);
#1058 = CARTESIAN_POINT('',(3.073895,45.470395,0.));
#1059 = VECTOR('',#1060,1.);
#1060 = DIRECTION('',(0.,0.,1.));
#1061 = ORIENTED_EDGE('',*,*,#519,.F.);
#1062 = CYLINDRICAL_SURFACE('',#1063,0.999999252925);
#1063 = AXIS2_PLACEMENT_3D('',#1064,#1065,#1066);
#1064 = CARTESIAN_POINT('',(3.073894252925,46.470394252925,0.));
#1065 = DIRECTION('',(-0.,-0.,-1.));
#1066 = DIRECTION('',(-1.,7.470757349539E-07,0.));
#1067 = ADVANCED_FACE('',(#1068),#1079,.F.);
#1068 = FACE_BOUND('',#1069,.T.);
#1069 = EDGE_LOOP('',(#1070,#1076,#1077,#1078));
#1070 = ORIENTED_EDGE('',*,*,#1071,.T.);
#1071 = EDGE_CURVE('',#155,#602,#1072,.T.);
#1072 = LINE('',#1073,#1074);
#1073 = CARTESIAN_POINT('',(-19.426105,46.970395,0.));
#1074 = VECTOR('',#1075,1.);
#1075 = DIRECTION('',(0.,0.,1.));
#1076 = ORIENTED_EDGE('',*,*,#601,.T.);
#1077 = ORIENTED_EDGE('',*,*,#1037,.F.);
#1078 = ORIENTED_EDGE('',*,*,#154,.F.);
#1079 = CYLINDRICAL_SURFACE('',#1080,0.500001333575);
#1080 = AXIS2_PLACEMENT_3D('',#1081,#1082,#1083);
#1081 = CARTESIAN_POINT('',(-19.42610633357,47.470396333573,0.));
#1082 = DIRECTION('',(-0.,-0.,-1.));
#1083 = DIRECTION('',(2.667139169726E-06,-0.999999999996,0.));
#1084 = ADVANCED_FACE('',(#1085),#1096,.T.);
#1085 = FACE_BOUND('',#1086,.T.);
#1086 = EDGE_LOOP('',(#1087,#1088,#1089,#1095));
#1087 = ORIENTED_EDGE('',*,*,#1056,.T.);
#1088 = ORIENTED_EDGE('',*,*,#958,.T.);
#1089 = ORIENTED_EDGE('',*,*,#1090,.F.);
#1090 = EDGE_CURVE('',#503,#950,#1091,.T.);
#1091 = LINE('',#1092,#1093);
#1092 = CARTESIAN_POINT('',(21.323895,45.470395,0.));
#1093 = VECTOR('',#1094,1.);
#1094 = DIRECTION('',(0.,0.,1.));
#1095 = ORIENTED_EDGE('',*,*,#511,.F.);
#1096 = PLANE('',#1097);
#1097 = AXIS2_PLACEMENT_3D('',#1098,#1099,#1100);
#1098 = CARTESIAN_POINT('',(3.073895,45.470395,0.));
#1099 = DIRECTION('',(0.,1.,0.));
#1100 = DIRECTION('',(1.,0.,0.));
#1101 = ADVANCED_FACE('',(#1102),#1113,.T.);
#1102 = FACE_BOUND('',#1103,.T.);
#1103 = EDGE_LOOP('',(#1104,#1110,#1111,#1112));
#1104 = ORIENTED_EDGE('',*,*,#1105,.T.);
#1105 = EDGE_CURVE('',#164,#611,#1106,.T.);
#1106 = LINE('',#1107,#1108);
#1107 = CARTESIAN_POINT('',(-39.676105,46.970395,0.));
#1108 = VECTOR('',#1109,1.);
#1109 = DIRECTION('',(0.,0.,1.));
#1110 = ORIENTED_EDGE('',*,*,#610,.T.);
#1111 = ORIENTED_EDGE('',*,*,#1071,.F.);
#1112 = ORIENTED_EDGE('',*,*,#163,.F.);
#1113 = PLANE('',#1114);
#1114 = AXIS2_PLACEMENT_3D('',#1115,#1116,#1117);
#1115 = CARTESIAN_POINT('',(-39.676105,46.970395,0.));
#1116 = DIRECTION('',(0.,1.,0.));
#1117 = DIRECTION('',(1.,0.,0.));
#1118 = ADVANCED_FACE('',(#1119),#1130,.T.);
#1119 = FACE_BOUND('',#1120,.T.);
#1120 = EDGE_LOOP('',(#1121,#1122,#1123,#1129));
#1121 = ORIENTED_EDGE('',*,*,#1090,.T.);
#1122 = ORIENTED_EDGE('',*,*,#949,.T.);
#1123 = ORIENTED_EDGE('',*,*,#1124,.F.);
#1124 = EDGE_CURVE('',#495,#942,#1125,.T.);
#1125 = LINE('',#1126,#1127);
#1126 = CARTESIAN_POINT('',(22.323895,44.470395,0.));
#1127 = VECTOR('',#1128,1.);
#1128 = DIRECTION('',(0.,0.,1.));
#1129 = ORIENTED_EDGE('',*,*,#502,.F.);
#1130 = CYLINDRICAL_SURFACE('',#1131,0.999999252925);
#1131 = AXIS2_PLACEMENT_3D('',#1132,#1133,#1134);
#1132 = CARTESIAN_POINT('',(21.323895747075,44.470395747075,0.));
#1133 = DIRECTION('',(0.,0.,-1.));
#1134 = DIRECTION('',(-7.470757314012E-07,1.,0.));
#1135 = ADVANCED_FACE('',(#1136),#1147,.T.);
#1136 = FACE_BOUND('',#1137,.T.);
#1137 = EDGE_LOOP('',(#1138,#1144,#1145,#1146));
#1138 = ORIENTED_EDGE('',*,*,#1139,.T.);
#1139 = EDGE_CURVE('',#172,#619,#1140,.T.);
#1140 = LINE('',#1141,#1142);
#1141 = CARTESIAN_POINT('',(-40.676105,45.970395,0.));
#1142 = VECTOR('',#1143,1.);
#1143 = DIRECTION('',(0.,0.,1.));
#1144 = ORIENTED_EDGE('',*,*,#618,.T.);
#1145 = ORIENTED_EDGE('',*,*,#1105,.F.);
#1146 = ORIENTED_EDGE('',*,*,#171,.F.);
#1147 = CYLINDRICAL_SURFACE('',#1148,0.999999252925);
#1148 = AXIS2_PLACEMENT_3D('',#1149,#1150,#1151);
#1149 = CARTESIAN_POINT('',(-39.67610574707,45.970395747075,0.));
#1150 = DIRECTION('',(0.,0.,-1.));
#1151 = DIRECTION('',(-1.,-7.470757278485E-07,-0.));
#1152 = ADVANCED_FACE('',(#1153),#1164,.T.);
#1153 = FACE_BOUND('',#1154,.T.);
#1154 = EDGE_LOOP('',(#1155,#1156,#1157,#1163));
#1155 = ORIENTED_EDGE('',*,*,#1124,.T.);
#1156 = ORIENTED_EDGE('',*,*,#941,.T.);
#1157 = ORIENTED_EDGE('',*,*,#1158,.F.);
#1158 = EDGE_CURVE('',#486,#933,#1159,.T.);
#1159 = LINE('',#1160,#1161);
#1160 = CARTESIAN_POINT('',(22.323895,43.970395,0.));
#1161 = VECTOR('',#1162,1.);
#1162 = DIRECTION('',(0.,0.,1.));
#1163 = ORIENTED_EDGE('',*,*,#494,.F.);
#1164 = PLANE('',#1165);
#1165 = AXIS2_PLACEMENT_3D('',#1166,#1167,#1168);
#1166 = CARTESIAN_POINT('',(22.323895,44.470395,0.));
#1167 = DIRECTION('',(1.,0.,-0.));
#1168 = DIRECTION('',(0.,-1.,0.));
#1169 = ADVANCED_FACE('',(#1170),#1181,.T.);
#1170 = FACE_BOUND('',#1171,.T.);
#1171 = EDGE_LOOP('',(#1172,#1178,#1179,#1180));
#1172 = ORIENTED_EDGE('',*,*,#1173,.T.);
#1173 = EDGE_CURVE('',#181,#628,#1174,.T.);
#1174 = LINE('',#1175,#1176);
#1175 = CARTESIAN_POINT('',(-40.676105,37.970395,0.));
#1176 = VECTOR('',#1177,1.);
#1177 = DIRECTION('',(0.,0.,1.));
#1178 = ORIENTED_EDGE('',*,*,#627,.T.);
#1179 = ORIENTED_EDGE('',*,*,#1139,.F.);
#1180 = ORIENTED_EDGE('',*,*,#180,.F.);
#1181 = PLANE('',#1182);
#1182 = AXIS2_PLACEMENT_3D('',#1183,#1184,#1185);
#1183 = CARTESIAN_POINT('',(-40.676105,37.970395,0.));
#1184 = DIRECTION('',(-1.,0.,0.));
#1185 = DIRECTION('',(0.,1.,0.));
#1186 = ADVANCED_FACE('',(#1187),#1198,.F.);
#1187 = FACE_BOUND('',#1188,.T.);
#1188 = EDGE_LOOP('',(#1189,#1190,#1191,#1197));
#1189 = ORIENTED_EDGE('',*,*,#1158,.T.);
#1190 = ORIENTED_EDGE('',*,*,#932,.T.);
#1191 = ORIENTED_EDGE('',*,*,#1192,.F.);
#1192 = EDGE_CURVE('',#478,#925,#1193,.T.);
#1193 = LINE('',#1194,#1195);
#1194 = CARTESIAN_POINT('',(23.323895,42.970395,0.));
#1195 = VECTOR('',#1196,1.);
#1196 = DIRECTION('',(0.,0.,1.));
#1197 = ORIENTED_EDGE('',*,*,#485,.F.);
#1198 = CYLINDRICAL_SURFACE('',#1199,0.999999252925);
#1199 = AXIS2_PLACEMENT_3D('',#1200,#1201,#1202);
#1200 = CARTESIAN_POINT('',(23.323894252925,43.970394252925,0.));
#1201 = DIRECTION('',(-0.,-0.,-1.));
#1202 = DIRECTION('',(-1.,7.470757420593E-07,0.));
#1203 = ADVANCED_FACE('',(#1204),#1215,.F.);
#1204 = FACE_BOUND('',#1205,.T.);
#1205 = EDGE_LOOP('',(#1206,#1212,#1213,#1214));
#1206 = ORIENTED_EDGE('',*,*,#1207,.T.);
#1207 = EDGE_CURVE('',#189,#636,#1208,.T.);
#1208 = LINE('',#1209,#1210);
#1209 = CARTESIAN_POINT('',(-41.676105,36.970395,0.));
#1210 = VECTOR('',#1211,1.);
#1211 = DIRECTION('',(0.,0.,1.));
#1212 = ORIENTED_EDGE('',*,*,#635,.T.);
#1213 = ORIENTED_EDGE('',*,*,#1173,.F.);
#1214 = ORIENTED_EDGE('',*,*,#188,.F.);
#1215 = CYLINDRICAL_SURFACE('',#1216,0.999999252925);
#1216 = AXIS2_PLACEMENT_3D('',#1217,#1218,#1219);
#1217 = CARTESIAN_POINT('',(-41.67610425292,37.970394252925,0.));
#1218 = DIRECTION('',(-0.,-0.,-1.));
#1219 = DIRECTION('',(-7.470757420593E-07,-1.,0.));
#1220 = ADVANCED_FACE('',(#1221),#1232,.T.);
#1221 = FACE_BOUND('',#1222,.T.);
#1222 = EDGE_LOOP('',(#1223,#1224,#1225,#1231));
#1223 = ORIENTED_EDGE('',*,*,#1192,.T.);
#1224 = ORIENTED_EDGE('',*,*,#924,.T.);
#1225 = ORIENTED_EDGE('',*,*,#1226,.F.);
#1226 = EDGE_CURVE('',#469,#916,#1227,.T.);
#1227 = LINE('',#1228,#1229);
#1228 = CARTESIAN_POINT('',(57.073895,42.970395,0.));
#1229 = VECTOR('',#1230,1.);
#1230 = DIRECTION('',(0.,0.,1.));
#1231 = ORIENTED_EDGE('',*,*,#477,.F.);
#1232 = PLANE('',#1233);
#1233 = AXIS2_PLACEMENT_3D('',#1234,#1235,#1236);
#1234 = CARTESIAN_POINT('',(23.323895,42.970395,0.));
#1235 = DIRECTION('',(0.,1.,0.));
#1236 = DIRECTION('',(1.,0.,0.));
#1237 = ADVANCED_FACE('',(#1238),#1249,.T.);
#1238 = FACE_BOUND('',#1239,.T.);
#1239 = EDGE_LOOP('',(#1240,#1246,#1247,#1248));
#1240 = ORIENTED_EDGE('',*,*,#1241,.T.);
#1241 = EDGE_CURVE('',#198,#645,#1242,.T.);
#1242 = LINE('',#1243,#1244);
#1243 = CARTESIAN_POINT('',(-53.926105,36.970395,0.));
#1244 = VECTOR('',#1245,1.);
#1245 = DIRECTION('',(0.,0.,1.));
#1246 = ORIENTED_EDGE('',*,*,#644,.T.);
#1247 = ORIENTED_EDGE('',*,*,#1207,.F.);
#1248 = ORIENTED_EDGE('',*,*,#197,.F.);
#1249 = PLANE('',#1250);
#1250 = AXIS2_PLACEMENT_3D('',#1251,#1252,#1253);
#1251 = CARTESIAN_POINT('',(-53.926105,36.970395,0.));
#1252 = DIRECTION('',(0.,1.,0.));
#1253 = DIRECTION('',(1.,0.,0.));
#1254 = ADVANCED_FACE('',(#1255),#1266,.T.);
#1255 = FACE_BOUND('',#1256,.T.);
#1256 = EDGE_LOOP('',(#1257,#1258,#1259,#1265));
#1257 = ORIENTED_EDGE('',*,*,#1226,.T.);
#1258 = ORIENTED_EDGE('',*,*,#915,.T.);
#1259 = ORIENTED_EDGE('',*,*,#1260,.F.);
#1260 = EDGE_CURVE('',#461,#908,#1261,.T.);
#1261 = LINE('',#1262,#1263);
#1262 = CARTESIAN_POINT('',(58.073895,41.970395,0.));
#1263 = VECTOR('',#1264,1.);
#1264 = DIRECTION('',(0.,0.,1.));
#1265 = ORIENTED_EDGE('',*,*,#468,.F.);
#1266 = CYLINDRICAL_SURFACE('',#1267,0.999999252925);
#1267 = AXIS2_PLACEMENT_3D('',#1268,#1269,#1270);
#1268 = CARTESIAN_POINT('',(57.073895747075,41.970395747075,0.));
#1269 = DIRECTION('',(0.,0.,-1.));
#1270 = DIRECTION('',(-7.470757278485E-07,1.,0.));
#1271 = ADVANCED_FACE('',(#1272),#1283,.T.);
#1272 = FACE_BOUND('',#1273,.T.);
#1273 = EDGE_LOOP('',(#1274,#1280,#1281,#1282));
#1274 = ORIENTED_EDGE('',*,*,#1275,.T.);
#1275 = EDGE_CURVE('',#206,#653,#1276,.T.);
#1276 = LINE('',#1277,#1278);
#1277 = CARTESIAN_POINT('',(-54.926105,35.970395,0.));
#1278 = VECTOR('',#1279,1.);
#1279 = DIRECTION('',(0.,0.,1.));
#1280 = ORIENTED_EDGE('',*,*,#652,.T.);
#1281 = ORIENTED_EDGE('',*,*,#1241,.F.);
#1282 = ORIENTED_EDGE('',*,*,#205,.F.);
#1283 = CYLINDRICAL_SURFACE('',#1284,0.999999252925);
#1284 = AXIS2_PLACEMENT_3D('',#1285,#1286,#1287);
#1285 = CARTESIAN_POINT('',(-53.92610574707,35.970395747075,0.));
#1286 = DIRECTION('',(0.,0.,-1.));
#1287 = DIRECTION('',(-1.,-7.470757278485E-07,-0.));
#1288 = ADVANCED_FACE('',(#1289),#1300,.T.);
#1289 = FACE_BOUND('',#1290,.T.);
#1290 = EDGE_LOOP('',(#1291,#1292,#1293,#1299));
#1291 = ORIENTED_EDGE('',*,*,#1260,.T.);
#1292 = ORIENTED_EDGE('',*,*,#907,.T.);
#1293 = ORIENTED_EDGE('',*,*,#1294,.F.);
#1294 = EDGE_CURVE('',#452,#899,#1295,.T.);
#1295 = LINE('',#1296,#1297);
#1296 = CARTESIAN_POINT('',(58.073895,-5.919569,0.));
#1297 = VECTOR('',#1298,1.);
#1298 = DIRECTION('',(0.,0.,1.));
#1299 = ORIENTED_EDGE('',*,*,#460,.F.);
#1300 = PLANE('',#1301);
#1301 = AXIS2_PLACEMENT_3D('',#1302,#1303,#1304);
#1302 = CARTESIAN_POINT('',(58.073895,41.970395,0.));
#1303 = DIRECTION('',(1.,0.,-0.));
#1304 = DIRECTION('',(0.,-1.,0.));
#1305 = ADVANCED_FACE('',(#1306),#1317,.T.);
#1306 = FACE_BOUND('',#1307,.T.);
#1307 = EDGE_LOOP('',(#1308,#1314,#1315,#1316));
#1308 = ORIENTED_EDGE('',*,*,#1309,.T.);
#1309 = EDGE_CURVE('',#215,#662,#1310,.T.);
#1310 = LINE('',#1311,#1312);
#1311 = CARTESIAN_POINT('',(-54.926105,24.970395,0.));
#1312 = VECTOR('',#1313,1.);
#1313 = DIRECTION('',(0.,0.,1.));
#1314 = ORIENTED_EDGE('',*,*,#661,.T.);
#1315 = ORIENTED_EDGE('',*,*,#1275,.F.);
#1316 = ORIENTED_EDGE('',*,*,#214,.F.);
#1317 = PLANE('',#1318);
#1318 = AXIS2_PLACEMENT_3D('',#1319,#1320,#1321);
#1319 = CARTESIAN_POINT('',(-54.926105,24.970395,0.));
#1320 = DIRECTION('',(-1.,0.,0.));
#1321 = DIRECTION('',(0.,1.,0.));
#1322 = ADVANCED_FACE('',(#1323),#1334,.F.);
#1323 = FACE_BOUND('',#1324,.T.);
#1324 = EDGE_LOOP('',(#1325,#1326,#1327,#1333));
#1325 = ORIENTED_EDGE('',*,*,#1294,.T.);
#1326 = ORIENTED_EDGE('',*,*,#898,.T.);
#1327 = ORIENTED_EDGE('',*,*,#1328,.F.);
#1328 = EDGE_CURVE('',#444,#891,#1329,.T.);
#1329 = LINE('',#1330,#1331);
#1330 = CARTESIAN_POINT('',(60.573895,-10.249696,0.));
#1331 = VECTOR('',#1332,1.);
#1332 = DIRECTION('',(0.,0.,1.));
#1333 = ORIENTED_EDGE('',*,*,#451,.F.);
#1334 = CYLINDRICAL_SURFACE('',#1335,5.000082517598);
#1335 = AXIS2_PLACEMENT_3D('',#1336,#1337,#1338);
#1336 = CARTESIAN_POINT('',(63.073977517371,-5.919521339651,0.));
#1337 = DIRECTION('',(-0.,-0.,-1.));
#1338 = DIRECTION('',(-0.999999999955,-9.531912466769E-06,0.));
#1339 = ADVANCED_FACE('',(#1340),#1351,.F.);
#1340 = FACE_BOUND('',#1341,.T.);
#1341 = EDGE_LOOP('',(#1342,#1348,#1349,#1350));
#1342 = ORIENTED_EDGE('',*,*,#1343,.T.);
#1343 = EDGE_CURVE('',#223,#670,#1344,.T.);
#1344 = LINE('',#1345,#1346);
#1345 = CARTESIAN_POINT('',(-55.926105,23.970395,0.));
#1346 = VECTOR('',#1347,1.);
#1347 = DIRECTION('',(0.,0.,1.));
#1348 = ORIENTED_EDGE('',*,*,#669,.T.);
#1349 = ORIENTED_EDGE('',*,*,#1309,.F.);
#1350 = ORIENTED_EDGE('',*,*,#222,.F.);
#1351 = CYLINDRICAL_SURFACE('',#1352,0.999999252925);
#1352 = AXIS2_PLACEMENT_3D('',#1353,#1354,#1355);
#1353 = CARTESIAN_POINT('',(-55.92610425292,24.970394252925,0.));
#1354 = DIRECTION('',(-0.,-0.,-1.));
#1355 = DIRECTION('',(-7.470757420593E-07,-1.,0.));
#1356 = ADVANCED_FACE('',(#1357),#1368,.T.);
#1357 = FACE_BOUND('',#1358,.T.);
#1358 = EDGE_LOOP('',(#1359,#1360,#1361,#1367));
#1359 = ORIENTED_EDGE('',*,*,#1328,.T.);
#1360 = ORIENTED_EDGE('',*,*,#890,.T.);
#1361 = ORIENTED_EDGE('',*,*,#1362,.F.);
#1362 = EDGE_CURVE('',#435,#882,#1363,.T.);
#1363 = LINE('',#1364,#1365);
#1364 = CARTESIAN_POINT('',(72.426136,-17.09259,0.));
#1365 = VECTOR('',#1366,1.);
#1366 = DIRECTION('',(0.,0.,1.));
#1367 = ORIENTED_EDGE('',*,*,#443,.F.);
#1368 = PLANE('',#1369);
#1369 = AXIS2_PLACEMENT_3D('',#1370,#1371,#1372);
#1370 = CARTESIAN_POINT('',(60.573895,-10.249696,0.));
#1371 = DIRECTION('',(0.499999970854,0.866025420612,-0.));
#1372 = DIRECTION('',(0.866025420612,-0.499999970854,0.));
#1373 = ADVANCED_FACE('',(#1374),#1385,.T.);
#1374 = FACE_BOUND('',#1375,.T.);
#1375 = EDGE_LOOP('',(#1376,#1382,#1383,#1384));
#1376 = ORIENTED_EDGE('',*,*,#1377,.T.);
#1377 = EDGE_CURVE('',#232,#679,#1378,.T.);
#1378 = LINE('',#1379,#1380);
#1379 = CARTESIAN_POINT('',(-71.926105,23.970395,0.));
#1380 = VECTOR('',#1381,1.);
#1381 = DIRECTION('',(0.,0.,1.));
#1382 = ORIENTED_EDGE('',*,*,#678,.T.);
#1383 = ORIENTED_EDGE('',*,*,#1343,.F.);
#1384 = ORIENTED_EDGE('',*,*,#231,.F.);
#1385 = PLANE('',#1386);
#1386 = AXIS2_PLACEMENT_3D('',#1387,#1388,#1389);
#1387 = CARTESIAN_POINT('',(-71.926105,23.970395,0.));
#1388 = DIRECTION('',(0.,1.,0.));
#1389 = DIRECTION('',(1.,0.,0.));
#1390 = ADVANCED_FACE('',(#1391),#1402,.T.);
#1391 = FACE_BOUND('',#1392,.T.);
#1392 = EDGE_LOOP('',(#1393,#1394,#1395,#1401));
#1393 = ORIENTED_EDGE('',*,*,#1362,.T.);
#1394 = ORIENTED_EDGE('',*,*,#881,.T.);
#1395 = ORIENTED_EDGE('',*,*,#1396,.F.);
#1396 = EDGE_CURVE('',#427,#874,#1397,.T.);
#1397 = LINE('',#1398,#1399);
#1398 = CARTESIAN_POINT('',(72.792161,-18.458615,0.));
#1399 = VECTOR('',#1400,1.);
#1400 = DIRECTION('',(0.,0.,1.));
#1401 = ORIENTED_EDGE('',*,*,#434,.F.);
#1402 = CYLINDRICAL_SURFACE('',#1403,0.999998429191);
#1403 = AXIS2_PLACEMENT_3D('',#1404,#1405,#1406);
#1404 = CARTESIAN_POINT('',(71.926137668084,-17.95861455303,0.));
#1405 = DIRECTION('',(0.,0.,-1.));
#1406 = DIRECTION('',(0.499999117319,0.8660259134,0.));
#1407 = ADVANCED_FACE('',(#1408),#1419,.T.);
#1408 = FACE_BOUND('',#1409,.T.);
#1409 = EDGE_LOOP('',(#1410,#1416,#1417,#1418));
#1410 = ORIENTED_EDGE('',*,*,#1411,.T.);
#1411 = EDGE_CURVE('',#240,#687,#1412,.T.);
#1412 = LINE('',#1413,#1414);
#1413 = CARTESIAN_POINT('',(-72.926105,22.970395,0.));
#1414 = VECTOR('',#1415,1.);
#1415 = DIRECTION('',(0.,0.,1.));
#1416 = ORIENTED_EDGE('',*,*,#686,.T.);
#1417 = ORIENTED_EDGE('',*,*,#1377,.F.);
#1418 = ORIENTED_EDGE('',*,*,#239,.F.);
#1419 = CYLINDRICAL_SURFACE('',#1420,0.999999252925);
#1420 = AXIS2_PLACEMENT_3D('',#1421,#1422,#1423);
#1421 = CARTESIAN_POINT('',(-71.92610574707,22.970395747075,0.));
#1422 = DIRECTION('',(0.,0.,-1.));
#1423 = DIRECTION('',(-1.,-7.470757314012E-07,-0.));
#1424 = ADVANCED_FACE('',(#1425),#1436,.T.);
#1425 = FACE_BOUND('',#1426,.T.);
#1426 = EDGE_LOOP('',(#1427,#1428,#1429,#1435));
#1427 = ORIENTED_EDGE('',*,*,#1396,.T.);
#1428 = ORIENTED_EDGE('',*,*,#873,.T.);
#1429 = ORIENTED_EDGE('',*,*,#1430,.F.);
#1430 = EDGE_CURVE('',#418,#865,#1431,.T.);
#1431 = LINE('',#1432,#1433);
#1432 = CARTESIAN_POINT('',(68.792161,-25.386819,0.));
#1433 = VECTOR('',#1434,1.);
#1434 = DIRECTION('',(0.,0.,1.));
#1435 = ORIENTED_EDGE('',*,*,#426,.F.);
#1436 = PLANE('',#1437);
#1437 = AXIS2_PLACEMENT_3D('',#1438,#1439,#1440);
#1438 = CARTESIAN_POINT('',(72.792161,-18.458615,0.));
#1439 = DIRECTION('',(0.866025427838,-0.499999958337,0.));
#1440 = DIRECTION('',(-0.499999958337,-0.866025427838,0.));
#1441 = ADVANCED_FACE('',(#1442),#1453,.T.);
#1442 = FACE_BOUND('',#1443,.T.);
#1443 = EDGE_LOOP('',(#1444,#1450,#1451,#1452));
#1444 = ORIENTED_EDGE('',*,*,#1445,.T.);
#1445 = EDGE_CURVE('',#249,#696,#1446,.T.);
#1446 = LINE('',#1447,#1448);
#1447 = CARTESIAN_POINT('',(-72.926105,-12.029605,0.));
#1448 = VECTOR('',#1449,1.);
#1449 = DIRECTION('',(0.,0.,1.));
#1450 = ORIENTED_EDGE('',*,*,#695,.T.);
#1451 = ORIENTED_EDGE('',*,*,#1411,.F.);
#1452 = ORIENTED_EDGE('',*,*,#248,.F.);
#1453 = PLANE('',#1454);
#1454 = AXIS2_PLACEMENT_3D('',#1455,#1456,#1457);
#1455 = CARTESIAN_POINT('',(-72.926105,-12.029605,0.));
#1456 = DIRECTION('',(-1.,0.,0.));
#1457 = DIRECTION('',(0.,1.,0.));
#1458 = ADVANCED_FACE('',(#1459),#1470,.T.);
#1459 = FACE_BOUND('',#1460,.T.);
#1460 = EDGE_LOOP('',(#1461,#1462,#1463,#1469));
#1461 = ORIENTED_EDGE('',*,*,#1430,.T.);
#1462 = ORIENTED_EDGE('',*,*,#864,.T.);
#1463 = ORIENTED_EDGE('',*,*,#1464,.F.);
#1464 = EDGE_CURVE('',#410,#857,#1465,.T.);
#1465 = LINE('',#1466,#1467);
#1466 = CARTESIAN_POINT('',(67.426136,-25.752844,0.));
#1467 = VECTOR('',#1468,1.);
#1468 = DIRECTION('',(0.,0.,1.));
#1469 = ORIENTED_EDGE('',*,*,#417,.F.);
#1470 = CYLINDRICAL_SURFACE('',#1471,0.999955542405);
#1471 = AXIS2_PLACEMENT_3D('',#1472,#1473,#1474);
#1472 = CARTESIAN_POINT('',(67.926152144959,-24.88687925385,0.));
#1473 = DIRECTION('',(-0.,0.,-1.));
#1474 = DIRECTION('',(0.866047357424,-0.499961973252,-0.));
#1475 = ADVANCED_FACE('',(#1476),#1487,.T.);
#1476 = FACE_BOUND('',#1477,.T.);
#1477 = EDGE_LOOP('',(#1478,#1484,#1485,#1486));
#1478 = ORIENTED_EDGE('',*,*,#1479,.T.);
#1479 = EDGE_CURVE('',#257,#704,#1480,.T.);
#1480 = LINE('',#1481,#1482);
#1481 = CARTESIAN_POINT('',(-71.926105,-13.029605,0.));
#1482 = VECTOR('',#1483,1.);
#1483 = DIRECTION('',(0.,0.,1.));
#1484 = ORIENTED_EDGE('',*,*,#703,.T.);
#1485 = ORIENTED_EDGE('',*,*,#1445,.F.);
#1486 = ORIENTED_EDGE('',*,*,#256,.F.);
#1487 = CYLINDRICAL_SURFACE('',#1488,0.999999252925);
#1488 = AXIS2_PLACEMENT_3D('',#1489,#1490,#1491);
#1489 = CARTESIAN_POINT('',(-71.92610574707,-12.02960574707,0.));
#1490 = DIRECTION('',(0.,0.,-1.));
#1491 = DIRECTION('',(7.470757349539E-07,-1.,0.));
#1492 = ADVANCED_FACE('',(#1493),#1504,.T.);
#1493 = FACE_BOUND('',#1494,.T.);
#1494 = EDGE_LOOP('',(#1495,#1496,#1497,#1503));
#1495 = ORIENTED_EDGE('',*,*,#1464,.T.);
#1496 = ORIENTED_EDGE('',*,*,#856,.T.);
#1497 = ORIENTED_EDGE('',*,*,#1498,.F.);
#1498 = EDGE_CURVE('',#401,#848,#1499,.T.);
#1499 = LINE('',#1500,#1501);
#1500 = CARTESIAN_POINT('',(60.06492,-21.502844,0.));
#1501 = VECTOR('',#1502,1.);
#1502 = DIRECTION('',(0.,0.,1.));
#1503 = ORIENTED_EDGE('',*,*,#409,.F.);
#1504 = PLANE('',#1505);
#1505 = AXIS2_PLACEMENT_3D('',#1506,#1507,#1508);
#1506 = CARTESIAN_POINT('',(67.426136,-25.752844,0.));
#1507 = DIRECTION('',(-0.499999996544,-0.86602540578,0.));
#1508 = DIRECTION('',(-0.86602540578,0.499999996544,0.));
#1509 = ADVANCED_FACE('',(#1510),#1521,.T.);
#1510 = FACE_BOUND('',#1511,.T.);
#1511 = EDGE_LOOP('',(#1512,#1518,#1519,#1520));
#1512 = ORIENTED_EDGE('',*,*,#1513,.T.);
#1513 = EDGE_CURVE('',#266,#713,#1514,.T.);
#1514 = LINE('',#1515,#1516);
#1515 = CARTESIAN_POINT('',(-59.926105,-13.029605,0.));
#1516 = VECTOR('',#1517,1.);
#1517 = DIRECTION('',(0.,0.,1.));
#1518 = ORIENTED_EDGE('',*,*,#712,.T.);
#1519 = ORIENTED_EDGE('',*,*,#1479,.F.);
#1520 = ORIENTED_EDGE('',*,*,#265,.F.);
#1521 = PLANE('',#1522);
#1522 = AXIS2_PLACEMENT_3D('',#1523,#1524,#1525);
#1523 = CARTESIAN_POINT('',(-59.926105,-13.029605,0.));
#1524 = DIRECTION('',(0.,-1.,0.));
#1525 = DIRECTION('',(-1.,0.,0.));
#1526 = ADVANCED_FACE('',(#1527),#1538,.F.);
#1527 = FACE_BOUND('',#1528,.T.);
#1528 = EDGE_LOOP('',(#1529,#1530,#1531,#1537));
#1529 = ORIENTED_EDGE('',*,*,#1498,.T.);
#1530 = ORIENTED_EDGE('',*,*,#847,.T.);
#1531 = ORIENTED_EDGE('',*,*,#1532,.F.);
#1532 = EDGE_CURVE('',#393,#840,#1533,.T.);
#1533 = LINE('',#1534,#1535);
#1534 = CARTESIAN_POINT('',(58.698895,-21.868869,0.));
#1535 = VECTOR('',#1536,1.);
#1536 = DIRECTION('',(0.,0.,1.));
#1537 = ORIENTED_EDGE('',*,*,#400,.F.);
#1538 = CYLINDRICAL_SURFACE('',#1539,1.000077100812);
#1539 = AXIS2_PLACEMENT_3D('',#1540,#1541,#1542);
#1540 = CARTESIAN_POINT('',(59.564948347731,-22.36897479525,0.));
#1541 = DIRECTION('',(-0.,-0.,-1.));
#1542 = DIRECTION('',(0.49993310702,0.86606402102,-0.));
#1543 = ADVANCED_FACE('',(#1544),#1555,.F.);
#1544 = FACE_BOUND('',#1545,.T.);
#1545 = EDGE_LOOP('',(#1546,#1552,#1553,#1554));
#1546 = ORIENTED_EDGE('',*,*,#1547,.T.);
#1547 = EDGE_CURVE('',#274,#721,#1548,.T.);
#1548 = LINE('',#1549,#1550);
#1549 = CARTESIAN_POINT('',(-58.926105,-14.029605,0.));
#1550 = VECTOR('',#1551,1.);
#1551 = DIRECTION('',(0.,0.,1.));
#1552 = ORIENTED_EDGE('',*,*,#720,.T.);
#1553 = ORIENTED_EDGE('',*,*,#1513,.F.);
#1554 = ORIENTED_EDGE('',*,*,#273,.F.);
#1555 = CYLINDRICAL_SURFACE('',#1556,0.999999252925);
#1556 = AXIS2_PLACEMENT_3D('',#1557,#1558,#1559);
#1557 = CARTESIAN_POINT('',(-59.92610425292,-14.02960425292,0.));
#1558 = DIRECTION('',(-0.,-0.,-1.));
#1559 = DIRECTION('',(1.,-7.470757438357E-07,0.));
#1560 = ADVANCED_FACE('',(#1561),#1572,.T.);
#1561 = FACE_BOUND('',#1562,.T.);
#1562 = EDGE_LOOP('',(#1563,#1564,#1565,#1571));
#1563 = ORIENTED_EDGE('',*,*,#1532,.T.);
#1564 = ORIENTED_EDGE('',*,*,#839,.T.);
#1565 = ORIENTED_EDGE('',*,*,#1566,.F.);
#1566 = EDGE_CURVE('',#384,#831,#1567,.T.);
#1567 = LINE('',#1568,#1569);
#1568 = CARTESIAN_POINT('',(49.448895,-37.89034,0.));
#1569 = VECTOR('',#1570,1.);
#1570 = DIRECTION('',(0.,0.,1.));
#1571 = ORIENTED_EDGE('',*,*,#392,.F.);
#1572 = PLANE('',#1573);
#1573 = AXIS2_PLACEMENT_3D('',#1574,#1575,#1576);
#1574 = CARTESIAN_POINT('',(58.698895,-21.868869,0.));
#1575 = DIRECTION('',(0.866025417703,-0.499999975892,0.));
#1576 = DIRECTION('',(-0.499999975892,-0.866025417703,0.));
#1577 = ADVANCED_FACE('',(#1578),#1589,.T.);
#1578 = FACE_BOUND('',#1579,.T.);
#1579 = EDGE_LOOP('',(#1580,#1586,#1587,#1588));
#1580 = ORIENTED_EDGE('',*,*,#1581,.T.);
#1581 = EDGE_CURVE('',#283,#730,#1582,.T.);
#1582 = LINE('',#1583,#1584);
#1583 = CARTESIAN_POINT('',(-58.926105,-16.029605,0.));
#1584 = VECTOR('',#1585,1.);
#1585 = DIRECTION('',(0.,0.,1.));
#1586 = ORIENTED_EDGE('',*,*,#729,.T.);
#1587 = ORIENTED_EDGE('',*,*,#1547,.F.);
#1588 = ORIENTED_EDGE('',*,*,#282,.F.);
#1589 = PLANE('',#1590);
#1590 = AXIS2_PLACEMENT_3D('',#1591,#1592,#1593);
#1591 = CARTESIAN_POINT('',(-58.926105,-16.029605,0.));
#1592 = DIRECTION('',(-1.,0.,0.));
#1593 = DIRECTION('',(0.,1.,0.));
#1594 = ADVANCED_FACE('',(#1595),#1606,.F.);
#1595 = FACE_BOUND('',#1596,.T.);
#1596 = EDGE_LOOP('',(#1597,#1598,#1599,#1605));
#1597 = ORIENTED_EDGE('',*,*,#1566,.T.);
#1598 = ORIENTED_EDGE('',*,*,#830,.T.);
#1599 = ORIENTED_EDGE('',*,*,#1600,.F.);
#1600 = EDGE_CURVE('',#376,#823,#1601,.T.);
#1601 = LINE('',#1602,#1603);
#1602 = CARTESIAN_POINT('',(49.81492,-39.256365,0.));
#1603 = VECTOR('',#1604,1.);
#1604 = DIRECTION('',(0.,0.,1.));
#1605 = ORIENTED_EDGE('',*,*,#383,.F.);
#1606 = CYLINDRICAL_SURFACE('',#1607,0.999921027767);
#1607 = AXIS2_PLACEMENT_3D('',#1608,#1609,#1610);
#1608 = CARTESIAN_POINT('',(50.314812595377,-38.39036877895,0.));
#1609 = DIRECTION('',(-0.,-0.,-1.));
#1610 = DIRECTION('',(-0.865985984224,0.500068270467,0.));
#1611 = ADVANCED_FACE('',(#1612),#1623,.T.);
#1612 = FACE_BOUND('',#1613,.T.);
#1613 = EDGE_LOOP('',(#1614,#1620,#1621,#1622));
#1614 = ORIENTED_EDGE('',*,*,#1615,.T.);
#1615 = EDGE_CURVE('',#291,#738,#1616,.T.);
#1616 = LINE('',#1617,#1618);
#1617 = CARTESIAN_POINT('',(-57.926105,-17.029605,0.));
#1618 = VECTOR('',#1619,1.);
#1619 = DIRECTION('',(0.,0.,1.));
#1620 = ORIENTED_EDGE('',*,*,#737,.T.);
#1621 = ORIENTED_EDGE('',*,*,#1581,.F.);
#1622 = ORIENTED_EDGE('',*,*,#290,.F.);
#1623 = CYLINDRICAL_SURFACE('',#1624,0.999999252925);
#1624 = AXIS2_PLACEMENT_3D('',#1625,#1626,#1627);
#1625 = CARTESIAN_POINT('',(-57.92610574707,-16.02960574707,0.));
#1626 = DIRECTION('',(0.,0.,-1.));
#1627 = DIRECTION('',(7.470757420593E-07,-1.,0.));
#1628 = ADVANCED_FACE('',(#1629),#1640,.T.);
#1629 = FACE_BOUND('',#1630,.T.);
#1630 = EDGE_LOOP('',(#1631,#1632,#1633,#1639));
#1631 = ORIENTED_EDGE('',*,*,#1600,.T.);
#1632 = ORIENTED_EDGE('',*,*,#822,.T.);
#1633 = ORIENTED_EDGE('',*,*,#1634,.F.);
#1634 = EDGE_CURVE('',#367,#814,#1635,.T.);
#1635 = LINE('',#1636,#1637);
#1636 = CARTESIAN_POINT('',(57.176142,-43.506352,0.));
#1637 = VECTOR('',#1638,1.);
#1638 = DIRECTION('',(0.,0.,1.));
#1639 = ORIENTED_EDGE('',*,*,#375,.F.);
#1640 = PLANE('',#1641);
#1641 = AXIS2_PLACEMENT_3D('',#1642,#1643,#1644);
#1642 = CARTESIAN_POINT('',(49.81492,-39.256365,0.));
#1643 = DIRECTION('',(0.499998543829,0.866026244504,-0.));
#1644 = DIRECTION('',(0.866026244504,-0.499998543829,0.));
#1645 = ADVANCED_FACE('',(#1646),#1657,.T.);
#1646 = FACE_BOUND('',#1647,.T.);
#1647 = EDGE_LOOP('',(#1648,#1654,#1655,#1656));
#1648 = ORIENTED_EDGE('',*,*,#1649,.T.);
#1649 = EDGE_CURVE('',#300,#747,#1650,.T.);
#1650 = LINE('',#1651,#1652);
#1651 = CARTESIAN_POINT('',(-12.711386,-17.029605,0.));
#1652 = VECTOR('',#1653,1.);
#1653 = DIRECTION('',(0.,0.,1.));
#1654 = ORIENTED_EDGE('',*,*,#746,.T.);
#1655 = ORIENTED_EDGE('',*,*,#1615,.F.);
#1656 = ORIENTED_EDGE('',*,*,#299,.F.);
#1657 = PLANE('',#1658);
#1658 = AXIS2_PLACEMENT_3D('',#1659,#1660,#1661);
#1659 = CARTESIAN_POINT('',(-12.711386,-17.029605,0.));
#1660 = DIRECTION('',(0.,-1.,0.));
#1661 = DIRECTION('',(-1.,0.,0.));
#1662 = ADVANCED_FACE('',(#1663),#1674,.T.);
#1663 = FACE_BOUND('',#1664,.T.);
#1664 = EDGE_LOOP('',(#1665,#1666,#1667,#1673));
#1665 = ORIENTED_EDGE('',*,*,#1634,.T.);
#1666 = ORIENTED_EDGE('',*,*,#813,.T.);
#1667 = ORIENTED_EDGE('',*,*,#1668,.F.);
#1668 = EDGE_CURVE('',#359,#806,#1669,.T.);
#1669 = LINE('',#1670,#1671);
#1670 = CARTESIAN_POINT('',(57.542169,-44.872378,0.));
#1671 = VECTOR('',#1672,1.);
#1672 = DIRECTION('',(0.,0.,1.));
#1673 = ORIENTED_EDGE('',*,*,#366,.F.);
#1674 = CYLINDRICAL_SURFACE('',#1675,0.999999907587);
#1675 = AXIS2_PLACEMENT_3D('',#1676,#1677,#1678);
#1676 = CARTESIAN_POINT('',(56.67614358157,-44.37237821019,0.));
#1677 = DIRECTION('',(0.,0.,-1.));
#1678 = DIRECTION('',(0.499998464637,0.866026290225,0.));
#1679 = ADVANCED_FACE('',(#1680),#1691,.F.);
#1680 = FACE_BOUND('',#1681,.T.);
#1681 = EDGE_LOOP('',(#1682,#1688,#1689,#1690));
#1682 = ORIENTED_EDGE('',*,*,#1683,.T.);
#1683 = EDGE_CURVE('',#308,#755,#1684,.T.);
#1684 = LINE('',#1685,#1686);
#1685 = CARTESIAN_POINT('',(-8.460061,-19.397832,0.));
#1686 = VECTOR('',#1687,1.);
#1687 = DIRECTION('',(0.,0.,1.));
#1688 = ORIENTED_EDGE('',*,*,#754,.T.);
#1689 = ORIENTED_EDGE('',*,*,#1649,.F.);
#1690 = ORIENTED_EDGE('',*,*,#307,.F.);
#1691 = CYLINDRICAL_SURFACE('',#1692,4.999999336336);
#1692 = AXIS2_PLACEMENT_3D('',#1693,#1694,#1695);
#1693 = CARTESIAN_POINT('',(-12.71138640898,-22.02960433633,0.));
#1694 = DIRECTION('',(-0.,-0.,-1.));
#1695 = DIRECTION('',(0.850265194654,0.526354537132,-0.));
#1696 = ADVANCED_FACE('',(#1697),#1708,.T.);
#1697 = FACE_BOUND('',#1698,.T.);
#1698 = EDGE_LOOP('',(#1699,#1700,#1701,#1707));
#1699 = ORIENTED_EDGE('',*,*,#1668,.T.);
#1700 = ORIENTED_EDGE('',*,*,#805,.T.);
#1701 = ORIENTED_EDGE('',*,*,#1702,.F.);
#1702 = EDGE_CURVE('',#350,#797,#1703,.T.);
#1703 = LINE('',#1704,#1705);
#1704 = CARTESIAN_POINT('',(56.04218,-47.470457,0.));
#1705 = VECTOR('',#1706,1.);
#1706 = DIRECTION('',(0.,0.,1.));
#1707 = ORIENTED_EDGE('',*,*,#358,.F.);
#1708 = PLANE('',#1709);
#1709 = AXIS2_PLACEMENT_3D('',#1710,#1711,#1712);
#1710 = CARTESIAN_POINT('',(57.542169,-44.872378,0.));
#1711 = DIRECTION('',(0.866027223881,-0.499996847487,0.));
#1712 = DIRECTION('',(-0.499996847487,-0.866027223881,0.));
#1713 = ADVANCED_FACE('',(#1714),#1725,.T.);
#1714 = FACE_BOUND('',#1715,.T.);
#1715 = EDGE_LOOP('',(#1716,#1722,#1723,#1724));
#1716 = ORIENTED_EDGE('',*,*,#1717,.T.);
#1717 = EDGE_CURVE('',#317,#764,#1718,.T.);
#1718 = LINE('',#1719,#1720);
#1719 = CARTESIAN_POINT('',(-4.593677,-25.643527,0.));
#1720 = VECTOR('',#1721,1.);
#1721 = DIRECTION('',(0.,0.,1.));
#1722 = ORIENTED_EDGE('',*,*,#763,.T.);
#1723 = ORIENTED_EDGE('',*,*,#1683,.F.);
#1724 = ORIENTED_EDGE('',*,*,#316,.F.);
#1725 = PLANE('',#1726);
#1726 = AXIS2_PLACEMENT_3D('',#1727,#1728,#1729);
#1727 = CARTESIAN_POINT('',(-4.593677,-25.643527,0.));
#1728 = DIRECTION('',(-0.850265062551,-0.526354750529,0.));
#1729 = DIRECTION('',(-0.526354750529,0.850265062551,0.));
#1730 = ADVANCED_FACE('',(#1731),#1742,.T.);
#1731 = FACE_BOUND('',#1732,.T.);
#1732 = EDGE_LOOP('',(#1733,#1734,#1735,#1741));
#1733 = ORIENTED_EDGE('',*,*,#1702,.T.);
#1734 = ORIENTED_EDGE('',*,*,#796,.T.);
#1735 = ORIENTED_EDGE('',*,*,#1736,.F.);
#1736 = EDGE_CURVE('',#342,#789,#1737,.T.);
#1737 = LINE('',#1738,#1739);
#1738 = CARTESIAN_POINT('',(54.676153,-47.836486,0.));
#1739 = VECTOR('',#1740,1.);
#1740 = DIRECTION('',(0.,0.,1.));
#1741 = ORIENTED_EDGE('',*,*,#349,.F.);
#1742 = CYLINDRICAL_SURFACE('',#1743,1.000011003792);
#1743 = AXIS2_PLACEMENT_3D('',#1744,#1745,#1746);
#1744 = CARTESIAN_POINT('',(55.176148612276,-46.97044535695,0.));
#1745 = DIRECTION('',(-0.,0.,-1.));
#1746 = DIRECTION('',(0.866021858199,-0.500006141084,-0.));
#1747 = ADVANCED_FACE('',(#1748),#1759,.T.);
#1748 = FACE_BOUND('',#1749,.T.);
#1749 = EDGE_LOOP('',(#1750,#1756,#1757,#1758));
#1750 = ORIENTED_EDGE('',*,*,#1751,.T.);
#1751 = EDGE_CURVE('',#325,#772,#1752,.T.);
#1752 = LINE('',#1753,#1754);
#1753 = CARTESIAN_POINT('',(-1.244269,-27.929736,0.));
#1754 = VECTOR('',#1755,1.);
#1755 = DIRECTION('',(0.,0.,1.));
#1756 = ORIENTED_EDGE('',*,*,#771,.T.);
#1757 = ORIENTED_EDGE('',*,*,#1717,.F.);
#1758 = ORIENTED_EDGE('',*,*,#324,.F.);
#1759 = CYLINDRICAL_SURFACE('',#1760,5.00000445242);
#1760 = AXIS2_PLACEMENT_3D('',#1761,#1762,#1763);
#1761 = CARTESIAN_POINT('',(-0.342348288434,-23.01175027876,0.));
#1762 = DIRECTION('',(0.,0.,-1.));
#1763 = DIRECTION('',(-0.180383981684,-0.98359626837,-0.));
#1764 = ADVANCED_FACE('',(#1765),#1776,.T.);
#1765 = FACE_BOUND('',#1766,.T.);
#1766 = EDGE_LOOP('',(#1767,#1768,#1769,#1775));
#1767 = ORIENTED_EDGE('',*,*,#1736,.T.);
#1768 = ORIENTED_EDGE('',*,*,#788,.T.);
#1769 = ORIENTED_EDGE('',*,*,#1770,.F.);
#1770 = EDGE_CURVE('',#334,#781,#1771,.T.);
#1771 = LINE('',#1772,#1773);
#1772 = CARTESIAN_POINT('',(28.86033,-32.931714,0.));
#1773 = VECTOR('',#1774,1.);
#1774 = DIRECTION('',(0.,0.,1.));
#1775 = ORIENTED_EDGE('',*,*,#341,.F.);
#1776 = PLANE('',#1777);
#1777 = AXIS2_PLACEMENT_3D('',#1778,#1779,#1780);
#1778 = CARTESIAN_POINT('',(54.676153,-47.836486,0.));
#1779 = DIRECTION('',(-0.499999990983,-0.866025408991,0.));
#1780 = DIRECTION('',(-0.866025408991,0.499999990983,0.));
#1781 = ADVANCED_FACE('',(#1782),#1788,.T.);
#1782 = FACE_BOUND('',#1783,.T.);
#1783 = EDGE_LOOP('',(#1784,#1785,#1786,#1787));
#1784 = ORIENTED_EDGE('',*,*,#1770,.T.);
#1785 = ORIENTED_EDGE('',*,*,#780,.T.);
#1786 = ORIENTED_EDGE('',*,*,#1751,.F.);
#1787 = ORIENTED_EDGE('',*,*,#333,.F.);
#1788 = PLANE('',#1789);
#1789 = AXIS2_PLACEMENT_3D('',#1790,#1791,#1792);
#1790 = CARTESIAN_POINT('',(28.86033,-32.931714,0.));
#1791 = DIRECTION('',(-0.163906215112,-0.986475926036,0.));
#1792 = DIRECTION('',(-0.986475926036,0.163906215112,0.));
#1793 = ADVANCED_FACE('',(#1794),#1805,.F.);
#1794 = FACE_BOUND('',#1795,.T.);
#1795 = EDGE_LOOP('',(#1796,#1797,#1803,#1804));
#1796 = ORIENTED_EDGE('',*,*,#529,.T.);
#1797 = ORIENTED_EDGE('',*,*,#1798,.T.);
#1798 = EDGE_CURVE('',#530,#977,#1799,.T.);
#1799 = LINE('',#1800,#1801);
#1800 = CARTESIAN_POINT('',(-55.926105,-15.129605,-4.6E-02));
#1801 = VECTOR('',#1802,1.);
#1802 = DIRECTION('',(0.,0.,1.));
#1803 = ORIENTED_EDGE('',*,*,#976,.F.);
#1804 = ORIENTED_EDGE('',*,*,#1798,.F.);
#1805 = CYLINDRICAL_SURFACE('',#1806,1.1);
#1806 = AXIS2_PLACEMENT_3D('',#1807,#1808,#1809);
#1807 = CARTESIAN_POINT('',(-55.926105,-14.029605,-4.6E-02));
#1808 = DIRECTION('',(-0.,-0.,-1.));
#1809 = DIRECTION('',(-0.,-1.,0.));
#1810 = ADVANCED_FACE('',(#1811),#1822,.F.);
#1811 = FACE_BOUND('',#1812,.T.);
#1812 = EDGE_LOOP('',(#1813,#1814,#1820,#1821));
#1813 = ORIENTED_EDGE('',*,*,#540,.T.);
#1814 = ORIENTED_EDGE('',*,*,#1815,.T.);
#1815 = EDGE_CURVE('',#541,#988,#1816,.T.);
#1816 = LINE('',#1817,#1818);
#1817 = CARTESIAN_POINT('',(-7.426105,-14.129605,-4.6E-02));
#1818 = VECTOR('',#1819,1.);
#1819 = DIRECTION('',(0.,0.,1.));
#1820 = ORIENTED_EDGE('',*,*,#987,.F.);
#1821 = ORIENTED_EDGE('',*,*,#1815,.F.);
#1822 = CYLINDRICAL_SURFACE('',#1823,1.1);
#1823 = AXIS2_PLACEMENT_3D('',#1824,#1825,#1826);
#1824 = CARTESIAN_POINT('',(-7.426105,-13.029605,-4.6E-02));
#1825 = DIRECTION('',(-0.,-0.,-1.));
#1826 = DIRECTION('',(-0.,-1.,0.));
#1827 = ADVANCED_FACE('',(#1828),#1839,.F.);
#1828 = FACE_BOUND('',#1829,.T.);
#1829 = EDGE_LOOP('',(#1830,#1831,#1837,#1838));
#1830 = ORIENTED_EDGE('',*,*,#551,.T.);
#1831 = ORIENTED_EDGE('',*,*,#1832,.T.);
#1832 = EDGE_CURVE('',#552,#999,#1833,.T.);
#1833 = LINE('',#1834,#1835);
#1834 = CARTESIAN_POINT('',(39.573895,-15.129605,-4.6E-02));
#1835 = VECTOR('',#1836,1.);
#1836 = DIRECTION('',(0.,0.,1.));
#1837 = ORIENTED_EDGE('',*,*,#998,.F.);
#1838 = ORIENTED_EDGE('',*,*,#1832,.F.);
#1839 = CYLINDRICAL_SURFACE('',#1840,1.1);
#1840 = AXIS2_PLACEMENT_3D('',#1841,#1842,#1843);
#1841 = CARTESIAN_POINT('',(39.573895,-14.029605,-4.6E-02));
#1842 = DIRECTION('',(-0.,-0.,-1.));
#1843 = DIRECTION('',(-0.,-1.,0.));
#1844 = ADVANCED_FACE('',(#1845),#1856,.F.);
#1845 = FACE_BOUND('',#1846,.T.);
#1846 = EDGE_LOOP('',(#1847,#1848,#1854,#1855));
#1847 = ORIENTED_EDGE('',*,*,#562,.T.);
#1848 = ORIENTED_EDGE('',*,*,#1849,.T.);
#1849 = EDGE_CURVE('',#563,#1010,#1850,.T.);
#1850 = LINE('',#1851,#1852);
#1851 = CARTESIAN_POINT('',(-37.926105,41.870395,-4.6E-02));
#1852 = VECTOR('',#1853,1.);
#1853 = DIRECTION('',(0.,0.,1.));
#1854 = ORIENTED_EDGE('',*,*,#1009,.F.);
#1855 = ORIENTED_EDGE('',*,*,#1849,.F.);
#1856 = CYLINDRICAL_SURFACE('',#1857,1.1);
#1857 = AXIS2_PLACEMENT_3D('',#1858,#1859,#1860);
#1858 = CARTESIAN_POINT('',(-37.926105,42.970395,-4.6E-02));
#1859 = DIRECTION('',(-0.,-0.,-1.));
#1860 = DIRECTION('',(-0.,-1.,0.));
#1861 = ADVANCED_FACE('',(#1862),#1873,.F.);
#1862 = FACE_BOUND('',#1863,.T.);
#1863 = EDGE_LOOP('',(#1864,#1865,#1871,#1872));
#1864 = ORIENTED_EDGE('',*,*,#573,.T.);
#1865 = ORIENTED_EDGE('',*,*,#1866,.T.);
#1866 = EDGE_CURVE('',#574,#1021,#1867,.T.);
#1867 = LINE('',#1868,#1869);
#1868 = CARTESIAN_POINT('',(19.573895,41.620395,-4.6E-02));
#1869 = VECTOR('',#1870,1.);
#1870 = DIRECTION('',(0.,0.,1.));
#1871 = ORIENTED_EDGE('',*,*,#1020,.F.);
#1872 = ORIENTED_EDGE('',*,*,#1866,.F.);
#1873 = CYLINDRICAL_SURFACE('',#1874,1.1);
#1874 = AXIS2_PLACEMENT_3D('',#1875,#1876,#1877);
#1875 = CARTESIAN_POINT('',(19.573895,42.720395,-4.6E-02));
#1876 = DIRECTION('',(-0.,-0.,-1.));
#1877 = DIRECTION('',(-0.,-1.,0.));
#1878 = ( GEOMETRIC_REPRESENTATION_CONTEXT(3) 
GLOBAL_UNCERTAINTY_ASSIGNED_CONTEXT((#1882)) 
GLOBAL_UNIT_ASSIGNED_CONTEXT((#1879,#1880,#1881)) REPRESENTATION_CONTEXT
('Context #1','3D Context with UNIT and UNCERTAINTY') );
#1879 = ( LENGTH_UNIT() NAMED_UNIT(*) SI_UNIT(.MILLI.,.METRE.) );
#1880 = ( NAMED_UNIT(*) PLANE_ANGLE_UNIT() SI_UNIT($,.RADIAN.) );
#1881 = ( NAMED_UNIT(*) SI_UNIT($,.STERADIAN.) SOLID_ANGLE_UNIT() );
#1882 = UNCERTAINTY_MEASURE_WITH_UNIT(LENGTH_MEASURE(1.E-07),#1879,
  'distance_accuracy_value','confusion accuracy');
#1883 = CONTEXT_DEPENDENT_SHAPE_REPRESENTATION(#1884,#1886);
#1884 = ( REPRESENTATION_RELATIONSHIP('','',#32,#10) 
REPRESENTATION_RELATIONSHIP_WITH_TRANSFORMATION(#1885) 
SHAPE_REPRESENTATION_RELATIONSHIP() );
#1885 = ITEM_DEFINED_TRANSFORMATION('','',#11,#15);
#1886 = PRODUCT_DEFINITION_SHAPE('Placement','Placement of an item',
  #1887);
#1887 = NEXT_ASSEMBLY_USAGE_OCCURRENCE('1','=>[0:1:1:2]','',#5,#27,$);
#1888 = PRODUCT_RELATED_PRODUCT_CATEGORY('part',$,(#29));
#1889 = MECHANICAL_DESIGN_GEOMETRIC_PRESENTATION_REPRESENTATION('',(
    #1890),#1878);
#1890 = STYLED_ITEM('color',(#1891),#33);
#1891 = PRESENTATION_STYLE_ASSIGNMENT((#1892));
#1892 = SURFACE_STYLE_USAGE(.BOTH.,#1893);
#1893 = SURFACE_SIDE_STYLE('',(#1894));
#1894 = SURFACE_STYLE_FILL_AREA(#1895);
#1895 = FILL_AREA_STYLE('',(#1896));
#1896 = FILL_AREA_STYLE_COLOUR('',#1897);
#1897 = COLOUR_RGB('',0.313304153717,0.484529207832,0.410020903123);
ENDSEC;
END-ISO-10303-21;
