ISO-10303-21;
HEADER;
/* Generated by software containing ST-Developer
 * from STEP Tools, Inc. (www.steptools.com) 
 */

FILE_DESCRIPTION(
/* description */ (''),
/* implementation_level */ '2;1');

FILE_NAME(
/* name */ 'encoder_knob.step',
/* time_stamp */ '2026-08-16T17:33:19+09:00',
/* author */ (''),
/* organization */ (''),
/* preprocessor_version */ 'ST-DEVELOPER v20.1',
/* originating_system */ 'Autodesk Translation Framework v15.8.0.0',
/* authorisation */ '');

FILE_SCHEMA (('AUTOMOTIVE_DESIGN { 1 0 10303 214 3 1 1 }'));
ENDSEC;

DATA;
#10=MECHANICAL_DESIGN_GEOMETRIC_PRESENTATION_REPRESENTATION('',(#13),#294);
#11=SHAPE_REPRESENTATION_RELATIONSHIP('SRR','None',#301,#12);
#12=ADVANCED_BREP_SHAPE_REPRESENTATION('',(#14),#293);
#13=STYLED_ITEM('',(#310),#14);
#14=MANIFOLD_SOLID_BREP('\X2\30DC30C730A3\X0\1',#174);
#15=FACE_BOUND('',#38,.T.);
#16=CIRCLE('',#196,3.95);
#17=CIRCLE('',#197,3.95);
#18=CYLINDRICAL_SURFACE('',#195,3.95);
#19=FACE_OUTER_BOUND('',#29,.T.);
#20=FACE_OUTER_BOUND('',#30,.T.);
#21=FACE_OUTER_BOUND('',#31,.T.);
#22=FACE_OUTER_BOUND('',#32,.T.);
#23=FACE_OUTER_BOUND('',#33,.T.);
#24=FACE_OUTER_BOUND('',#34,.T.);
#25=FACE_OUTER_BOUND('',#35,.T.);
#26=FACE_OUTER_BOUND('',#36,.T.);
#27=FACE_OUTER_BOUND('',#37,.T.);
#28=FACE_OUTER_BOUND('',#39,.T.);
#29=EDGE_LOOP('',(#113,#114,#115,#116));
#30=EDGE_LOOP('',(#117,#118,#119,#120));
#31=EDGE_LOOP('',(#121,#122,#123,#124));
#32=EDGE_LOOP('',(#125,#126,#127,#128));
#33=EDGE_LOOP('',(#129,#130,#131,#132));
#34=EDGE_LOOP('',(#133,#134,#135,#136));
#35=EDGE_LOOP('',(#137,#138,#139,#140,#141,#142));
#36=EDGE_LOOP('',(#143,#144,#145,#146));
#37=EDGE_LOOP('',(#147));
#38=EDGE_LOOP('',(#148,#149,#150,#151,#152,#153));
#39=EDGE_LOOP('',(#154));
#40=LINE('',#249,#59);
#41=LINE('',#251,#60);
#42=LINE('',#253,#61);
#43=LINE('',#254,#62);
#44=LINE('',#257,#63);
#45=LINE('',#259,#64);
#46=LINE('',#260,#65);
#47=LINE('',#263,#66);
#48=LINE('',#265,#67);
#49=LINE('',#266,#68);
#50=LINE('',#269,#69);
#51=LINE('',#271,#70);
#52=LINE('',#272,#71);
#53=LINE('',#275,#72);
#54=LINE('',#277,#73);
#55=LINE('',#278,#74);
#56=LINE('',#280,#75);
#57=LINE('',#281,#76);
#58=LINE('',#287,#77);
#59=VECTOR('',#204,10.);
#60=VECTOR('',#205,10.);
#61=VECTOR('',#206,10.);
#62=VECTOR('',#207,10.);
#63=VECTOR('',#210,10.);
#64=VECTOR('',#211,10.);
#65=VECTOR('',#212,10.);
#66=VECTOR('',#215,10.);
#67=VECTOR('',#216,10.);
#68=VECTOR('',#217,10.);
#69=VECTOR('',#220,10.);
#70=VECTOR('',#221,10.);
#71=VECTOR('',#222,10.);
#72=VECTOR('',#225,10.);
#73=VECTOR('',#226,10.);
#74=VECTOR('',#227,10.);
#75=VECTOR('',#230,10.);
#76=VECTOR('',#231,10.);
#77=VECTOR('',#238,3.95);
#78=VERTEX_POINT('',#247);
#79=VERTEX_POINT('',#248);
#80=VERTEX_POINT('',#250);
#81=VERTEX_POINT('',#252);
#82=VERTEX_POINT('',#256);
#83=VERTEX_POINT('',#258);
#84=VERTEX_POINT('',#262);
#85=VERTEX_POINT('',#264);
#86=VERTEX_POINT('',#268);
#87=VERTEX_POINT('',#270);
#88=VERTEX_POINT('',#274);
#89=VERTEX_POINT('',#276);
#90=VERTEX_POINT('',#284);
#91=VERTEX_POINT('',#286);
#92=EDGE_CURVE('',#78,#79,#40,.T.);
#93=EDGE_CURVE('',#78,#80,#41,.T.);
#94=EDGE_CURVE('',#81,#80,#42,.T.);
#95=EDGE_CURVE('',#79,#81,#43,.T.);
#96=EDGE_CURVE('',#79,#82,#44,.T.);
#97=EDGE_CURVE('',#83,#81,#45,.T.);
#98=EDGE_CURVE('',#82,#83,#46,.T.);
#99=EDGE_CURVE('',#82,#84,#47,.T.);
#100=EDGE_CURVE('',#85,#83,#48,.T.);
#101=EDGE_CURVE('',#84,#85,#49,.T.);
#102=EDGE_CURVE('',#84,#86,#50,.T.);
#103=EDGE_CURVE('',#87,#85,#51,.T.);
#104=EDGE_CURVE('',#86,#87,#52,.T.);
#105=EDGE_CURVE('',#86,#88,#53,.T.);
#106=EDGE_CURVE('',#89,#87,#54,.T.);
#107=EDGE_CURVE('',#88,#89,#55,.T.);
#108=EDGE_CURVE('',#88,#78,#56,.T.);
#109=EDGE_CURVE('',#80,#89,#57,.T.);
#110=EDGE_CURVE('',#90,#90,#16,.T.);
#111=EDGE_CURVE('',#90,#91,#58,.T.);
#112=EDGE_CURVE('',#91,#91,#17,.T.);
#113=ORIENTED_EDGE('',*,*,#92,.F.);
#114=ORIENTED_EDGE('',*,*,#93,.T.);
#115=ORIENTED_EDGE('',*,*,#94,.F.);
#116=ORIENTED_EDGE('',*,*,#95,.F.);
#117=ORIENTED_EDGE('',*,*,#96,.F.);
#118=ORIENTED_EDGE('',*,*,#95,.T.);
#119=ORIENTED_EDGE('',*,*,#97,.F.);
#120=ORIENTED_EDGE('',*,*,#98,.F.);
#121=ORIENTED_EDGE('',*,*,#99,.F.);
#122=ORIENTED_EDGE('',*,*,#98,.T.);
#123=ORIENTED_EDGE('',*,*,#100,.F.);
#124=ORIENTED_EDGE('',*,*,#101,.F.);
#125=ORIENTED_EDGE('',*,*,#102,.F.);
#126=ORIENTED_EDGE('',*,*,#101,.T.);
#127=ORIENTED_EDGE('',*,*,#103,.F.);
#128=ORIENTED_EDGE('',*,*,#104,.F.);
#129=ORIENTED_EDGE('',*,*,#105,.F.);
#130=ORIENTED_EDGE('',*,*,#104,.T.);
#131=ORIENTED_EDGE('',*,*,#106,.F.);
#132=ORIENTED_EDGE('',*,*,#107,.F.);
#133=ORIENTED_EDGE('',*,*,#108,.F.);
#134=ORIENTED_EDGE('',*,*,#107,.T.);
#135=ORIENTED_EDGE('',*,*,#109,.F.);
#136=ORIENTED_EDGE('',*,*,#93,.F.);
#137=ORIENTED_EDGE('',*,*,#109,.T.);
#138=ORIENTED_EDGE('',*,*,#106,.T.);
#139=ORIENTED_EDGE('',*,*,#103,.T.);
#140=ORIENTED_EDGE('',*,*,#100,.T.);
#141=ORIENTED_EDGE('',*,*,#97,.T.);
#142=ORIENTED_EDGE('',*,*,#94,.T.);
#143=ORIENTED_EDGE('',*,*,#110,.F.);
#144=ORIENTED_EDGE('',*,*,#111,.T.);
#145=ORIENTED_EDGE('',*,*,#112,.T.);
#146=ORIENTED_EDGE('',*,*,#111,.F.);
#147=ORIENTED_EDGE('',*,*,#110,.T.);
#148=ORIENTED_EDGE('',*,*,#92,.T.);
#149=ORIENTED_EDGE('',*,*,#96,.T.);
#150=ORIENTED_EDGE('',*,*,#99,.T.);
#151=ORIENTED_EDGE('',*,*,#102,.T.);
#152=ORIENTED_EDGE('',*,*,#105,.T.);
#153=ORIENTED_EDGE('',*,*,#108,.T.);
#154=ORIENTED_EDGE('',*,*,#112,.F.);
#155=PLANE('',#188);
#156=PLANE('',#189);
#157=PLANE('',#190);
#158=PLANE('',#191);
#159=PLANE('',#192);
#160=PLANE('',#193);
#161=PLANE('',#194);
#162=PLANE('',#198);
#163=PLANE('',#199);
#164=ADVANCED_FACE('',(#19),#155,.T.);
#165=ADVANCED_FACE('',(#20),#156,.T.);
#166=ADVANCED_FACE('',(#21),#157,.T.);
#167=ADVANCED_FACE('',(#22),#158,.T.);
#168=ADVANCED_FACE('',(#23),#159,.T.);
#169=ADVANCED_FACE('',(#24),#160,.T.);
#170=ADVANCED_FACE('',(#25),#161,.T.);
#171=ADVANCED_FACE('',(#26),#18,.T.);
#172=ADVANCED_FACE('',(#27,#15),#162,.T.);
#173=ADVANCED_FACE('',(#28),#163,.F.);
#174=CLOSED_SHELL('',(#164,#165,#166,#167,#168,#169,#170,#171,#172,#173));
#175=DERIVED_UNIT_ELEMENT(#177,1.);
#176=DERIVED_UNIT_ELEMENT(#296,-3.);
#177=(
MASS_UNIT()
NAMED_UNIT(*)
SI_UNIT(.KILO.,.GRAM.)
);
#178=DERIVED_UNIT((#175,#176));
#179=MEASURE_REPRESENTATION_ITEM('density measure',
POSITIVE_RATIO_MEASURE(7850.),#178);
#180=PROPERTY_DEFINITION_REPRESENTATION(#185,#182);
#181=PROPERTY_DEFINITION_REPRESENTATION(#186,#183);
#182=REPRESENTATION('material name',(#184),#293);
#183=REPRESENTATION('density',(#179),#293);
#184=DESCRIPTIVE_REPRESENTATION_ITEM('\X2\92FC\X0\','\X2\92FC\X0\');
#185=PROPERTY_DEFINITION('material property','material name',#303);
#186=PROPERTY_DEFINITION('material property','density of part',#303);
#187=AXIS2_PLACEMENT_3D('',#245,#200,#201);
#188=AXIS2_PLACEMENT_3D('',#246,#202,#203);
#189=AXIS2_PLACEMENT_3D('',#255,#208,#209);
#190=AXIS2_PLACEMENT_3D('',#261,#213,#214);
#191=AXIS2_PLACEMENT_3D('',#267,#218,#219);
#192=AXIS2_PLACEMENT_3D('',#273,#223,#224);
#193=AXIS2_PLACEMENT_3D('',#279,#228,#229);
#194=AXIS2_PLACEMENT_3D('',#282,#232,#233);
#195=AXIS2_PLACEMENT_3D('',#283,#234,#235);
#196=AXIS2_PLACEMENT_3D('',#285,#236,#237);
#197=AXIS2_PLACEMENT_3D('',#288,#239,#240);
#198=AXIS2_PLACEMENT_3D('',#289,#241,#242);
#199=AXIS2_PLACEMENT_3D('',#290,#243,#244);
#200=DIRECTION('axis',(0.,0.,1.));
#201=DIRECTION('refdir',(1.,0.,0.));
#202=DIRECTION('center_axis',(0.866025403784439,0.,-0.499999999999999));
#203=DIRECTION('ref_axis',(-0.499999999999999,0.,-0.866025403784439));
#204=DIRECTION('',(0.499999999999999,0.,0.866025403784439));
#205=DIRECTION('',(0.,1.,0.));
#206=DIRECTION('',(-0.499999999999999,0.,-0.866025403784439));
#207=DIRECTION('',(0.,1.,0.));
#208=DIRECTION('center_axis',(0.866025403784438,0.,0.500000000000001));
#209=DIRECTION('ref_axis',(0.500000000000001,0.,-0.866025403784438));
#210=DIRECTION('',(-0.500000000000001,0.,0.866025403784438));
#211=DIRECTION('',(0.500000000000001,0.,-0.866025403784438));
#212=DIRECTION('',(0.,1.,0.));
#213=DIRECTION('center_axis',(-5.59000780925455E-16,0.,1.));
#214=DIRECTION('ref_axis',(1.,0.,5.59000780925455E-16));
#215=DIRECTION('',(-1.,0.,-5.59000780925455E-16));
#216=DIRECTION('',(1.,0.,5.59000780925455E-16));
#217=DIRECTION('',(0.,1.,0.));
#218=DIRECTION('center_axis',(-0.866025403784439,0.,0.5));
#219=DIRECTION('ref_axis',(0.5,0.,0.866025403784439));
#220=DIRECTION('',(-0.5,0.,-0.866025403784439));
#221=DIRECTION('',(0.5,0.,0.866025403784439));
#222=DIRECTION('',(0.,1.,0.));
#223=DIRECTION('center_axis',(-0.866025403784438,0.,-0.5));
#224=DIRECTION('ref_axis',(-0.5,0.,0.866025403784438));
#225=DIRECTION('',(0.5,0.,-0.866025403784438));
#226=DIRECTION('',(-0.5,0.,0.866025403784438));
#227=DIRECTION('',(0.,1.,0.));
#228=DIRECTION('center_axis',(5.59000780925454E-16,0.,-1.));
#229=DIRECTION('ref_axis',(-1.,0.,-5.59000780925454E-16));
#230=DIRECTION('',(1.,0.,5.59000780925454E-16));
#231=DIRECTION('',(-1.,0.,-5.59000780925454E-16));
#232=DIRECTION('center_axis',(0.,1.,0.));
#233=DIRECTION('ref_axis',(0.,0.,1.));
#234=DIRECTION('center_axis',(0.,1.,0.));
#235=DIRECTION('ref_axis',(1.,0.,0.));
#236=DIRECTION('center_axis',(0.,1.,0.));
#237=DIRECTION('ref_axis',(1.,0.,0.));
#238=DIRECTION('',(0.,-1.,0.));
#239=DIRECTION('center_axis',(0.,1.,0.));
#240=DIRECTION('ref_axis',(1.,0.,0.));
#241=DIRECTION('center_axis',(0.,1.,0.));
#242=DIRECTION('ref_axis',(1.,0.,0.));
#243=DIRECTION('center_axis',(0.,1.,0.));
#244=DIRECTION('ref_axis',(1.,0.,0.));
#245=CARTESIAN_POINT('',(0.,0.,0.));
#246=CARTESIAN_POINT('Origin',(0.993042463006157,1.5,8.8037216405823E-16));
#247=CARTESIAN_POINT('',(0.496521231503079,1.5,-0.86));
#248=CARTESIAN_POINT('',(0.993042463006157,1.5,8.8037216405823E-16));
#249=CARTESIAN_POINT('',(0.868912155130387,1.5,-0.214999999999999));
#250=CARTESIAN_POINT('',(0.496521231503079,8.3,-0.86));
#251=CARTESIAN_POINT('',(0.496521231503079,1.5,-0.86));
#252=CARTESIAN_POINT('',(0.993042463006157,8.3,8.32667268468867E-16));
#253=CARTESIAN_POINT('',(0.993042463006157,8.3,8.8037216405823E-16));
#254=CARTESIAN_POINT('',(0.993042463006157,1.5,8.8037216405823E-16));
#255=CARTESIAN_POINT('Origin',(0.496521231503078,1.5,0.860000000000001));
#256=CARTESIAN_POINT('',(0.496521231503078,1.5,0.860000000000001));
#257=CARTESIAN_POINT('',(0.620651539378848,1.5,0.645000000000001));
#258=CARTESIAN_POINT('',(0.496521231503078,8.3,0.860000000000001));
#259=CARTESIAN_POINT('',(0.496521231503078,8.3,0.860000000000001));
#260=CARTESIAN_POINT('',(0.496521231503078,1.5,0.860000000000001));
#261=CARTESIAN_POINT('Origin',(-0.496521231503079,1.5,0.86));
#262=CARTESIAN_POINT('',(-0.496521231503079,1.5,0.86));
#263=CARTESIAN_POINT('',(-0.24826061575154,1.5,0.86));
#264=CARTESIAN_POINT('',(-0.496521231503079,8.3,0.86));
#265=CARTESIAN_POINT('',(-0.496521231503079,8.3,0.86));
#266=CARTESIAN_POINT('',(-0.496521231503079,1.5,0.86));
#267=CARTESIAN_POINT('Origin',(-0.993042463006157,1.5,-3.27429056090622E-16));
#268=CARTESIAN_POINT('',(-0.993042463006157,1.5,-3.27429056090622E-16));
#269=CARTESIAN_POINT('',(-0.868912155130387,1.5,0.215));
#270=CARTESIAN_POINT('',(-0.993042463006157,8.3,-2.77555756156289E-16));
#271=CARTESIAN_POINT('',(-0.993042463006157,8.3,-3.27429056090622E-16));
#272=CARTESIAN_POINT('',(-0.993042463006157,1.5,-3.27429056090622E-16));
#273=CARTESIAN_POINT('Origin',(-0.496521231503078,1.5,-0.86));
#274=CARTESIAN_POINT('',(-0.496521231503078,1.5,-0.86));
#275=CARTESIAN_POINT('',(-0.620651539378848,1.5,-0.645));
#276=CARTESIAN_POINT('',(-0.496521231503078,8.3,-0.86));
#277=CARTESIAN_POINT('',(-0.496521231503078,8.3,-0.86));
#278=CARTESIAN_POINT('',(-0.496521231503078,1.5,-0.86));
#279=CARTESIAN_POINT('Origin',(0.496521231503079,1.5,-0.86));
#280=CARTESIAN_POINT('',(0.24826061575154,1.5,-0.86));
#281=CARTESIAN_POINT('',(0.496521231503079,8.3,-0.86));
#282=CARTESIAN_POINT('Origin',(0.,8.3,1.38777878078145E-16));
#283=CARTESIAN_POINT('Origin',(0.,0.,0.));
#284=CARTESIAN_POINT('',(-3.95,1.5,4.83735485663205E-16));
#285=CARTESIAN_POINT('Origin',(0.,1.5,0.));
#286=CARTESIAN_POINT('',(-3.95,0.,4.83735485663205E-16));
#287=CARTESIAN_POINT('',(-3.95,0.,4.83735485663205E-16));
#288=CARTESIAN_POINT('Origin',(0.,0.,0.));
#289=CARTESIAN_POINT('Origin',(0.,1.5,0.));
#290=CARTESIAN_POINT('Origin',(0.,0.,0.));
#291=UNCERTAINTY_MEASURE_WITH_UNIT(LENGTH_MEASURE(0.01),#295,
'DISTANCE_ACCURACY_VALUE',
'Maximum model space distance between geometric entities at asserted c
onnectivities');
#292=UNCERTAINTY_MEASURE_WITH_UNIT(LENGTH_MEASURE(0.01),#295,
'DISTANCE_ACCURACY_VALUE',
'Maximum model space distance between geometric entities at asserted c
onnectivities');
#293=(
GEOMETRIC_REPRESENTATION_CONTEXT(3)
GLOBAL_UNCERTAINTY_ASSIGNED_CONTEXT((#291))
GLOBAL_UNIT_ASSIGNED_CONTEXT((#295,#297,#298))
REPRESENTATION_CONTEXT('','3D')
);
#294=(
GEOMETRIC_REPRESENTATION_CONTEXT(3)
GLOBAL_UNCERTAINTY_ASSIGNED_CONTEXT((#292))
GLOBAL_UNIT_ASSIGNED_CONTEXT((#295,#297,#298))
REPRESENTATION_CONTEXT('','3D')
);
#295=(
LENGTH_UNIT()
NAMED_UNIT(*)
SI_UNIT(.MILLI.,.METRE.)
);
#296=(
LENGTH_UNIT()
NAMED_UNIT(*)
SI_UNIT($,.METRE.)
);
#297=(
NAMED_UNIT(*)
PLANE_ANGLE_UNIT()
SI_UNIT($,.RADIAN.)
);
#298=(
NAMED_UNIT(*)
SI_UNIT($,.STERADIAN.)
SOLID_ANGLE_UNIT()
);
#299=SHAPE_DEFINITION_REPRESENTATION(#300,#301);
#300=PRODUCT_DEFINITION_SHAPE('',$,#303);
#301=SHAPE_REPRESENTATION('',(#187),#293);
#302=PRODUCT_DEFINITION_CONTEXT('part definition',#307,'design');
#303=PRODUCT_DEFINITION('2026-08-16-17-22-24-310','encoder_knob',#304,#302);
#304=PRODUCT_DEFINITION_FORMATION('',$,#309);
#305=PRODUCT_RELATED_PRODUCT_CATEGORY('encoder_knob','encoder_knob',(#309));
#306=APPLICATION_PROTOCOL_DEFINITION('international standard',
'automotive_design',2009,#307);
#307=APPLICATION_CONTEXT(
'Core Data for Automotive Mechanical Design Process');
#308=PRODUCT_CONTEXT('part definition',#307,'mechanical');
#309=PRODUCT('2026-08-16-17-22-24-310','encoder_knob',$,(#308));
#310=PRESENTATION_STYLE_ASSIGNMENT((#311));
#311=SURFACE_STYLE_USAGE(.BOTH.,#312);
#312=SURFACE_SIDE_STYLE('',(#313));
#313=SURFACE_STYLE_FILL_AREA(#314);
#314=FILL_AREA_STYLE('\X2\92FC\X0\ - \X2\30B530C630F3\X0\',(#315));
#315=FILL_AREA_STYLE_COLOUR('\X2\92FC\X0\ - \X2\30B530C630F3\X0\',#316);
#316=COLOUR_RGB('\X2\92FC\X0\ - \X2\30B530C630F3\X0\',0.627450980392157,
0.627450980392157,0.627450980392157);
ENDSEC;
END-ISO-10303-21;
