  0
SECTION
  2
HEADER
  9
$ANGBASE
  50
0.0
  9
$ANGDIR
  70
1
  9
$MEASUREMENT
  70
1
  9
$INSUNITS
  70
4
  0
ENDSEC
  0
SECTION
  2
TABLES
  0
TABLE
  2
LTYPE
  70
4
  0
LTYPE
  5
40F
  2
CONTINUOUS
  70
0
  3
Solid line
  72
65
  73
0
  40
0.0
  0
LTYPE
  5
410
  2
DASHDOT
 70
0
  3
Dash Dot ____ _ ____ _
 72
65
 73
4
 40
2.0
 49
1.25
 49
-0.25
 49
0.25
 49
-0.25
  0
LTYPE
  5
411
  2
DASHED
 70
0
  3
Dashed __ __ __ __ __
 72
65
 73
2
 40
0.75
 49
0.5
 49
-0.25
  0
LTYPE
  5
43B
  2
DOTTED
 70
0
  3
Dotted .  .  .  .
 72
65
 73
2
 40
0.2
 49
0.0
 49
-0.2
  0
ENDTAB
  0
TABLE
  2
STYLE
  70
4
  0
STYLE
  2
KICAD
  70
0
  40
0
  41
1
  42
1
  50
0
  71
0
  3
isocp.shx
  0
STYLE
  2
KICADB
  70
0
  40
0
  41
1
  42
1
  50
0
  71
0
  3
isocp.shx
  0
STYLE
  2
KICADI
  70
0
  40
0
  41
1
  42
1
  50
15
  71
0
  3
isocp.shx
  0
STYLE
  2
KICADBI
  70
0
  40
0
  41
1
  42
1
  50
15
  71
0
  3
isocp.shx
  0
ENDTAB
  0
TABLE
  2
LAYER
  70
1
  0
LAYER
  2
Edge.Cuts
  70
0
  62
254
  420
13685453
  6
CONTINUOUS
  0
ENDTAB
  0
ENDSEC
  0
SECTION
  2
ENTITIES
0
ARC
8
Edge.Cuts
10
46.8528999999999982
20
-116.1829999999999927
40
1.0000246048098016
50
-239.99856632
51
-149.99968922
0
LINE
8
Edge.Cuts
6
CONTINUOUS
10
45.986855999999996
20
-116.6830169999999924
11
54.503471999999995
21
-131.4341540000000066
0
LINE
8
Edge.Cuts
6
CONTINUOUS
10
46.352879999999999
20
-115.3169899999999899
11
49.
21
-113.7886749999999978
0
LINE
8
Edge.Cuts
6
CONTINUOUS
10
49.5
20
-51.5
11
49.5
21
-112.9226499999999902
0
ARC
8
Edge.Cuts
10
50.5
20
-51.5
40
1.
50
90.00000000
51
180.00000000
0
ARC
8
Edge.Cuts
10
48.5
20
-112.9225999999999885
40
1.0000000012499999
50
-60.00142077
51
-0.00286479
0
LINE
8
Edge.Cuts
6
CONTINUOUS
10
50.5
20
-50.5
11
84.25
21
-50.5
0
ARC
8
Edge.Cuts
10
56.2354999999999947
20
-130.4342000000000041
40
1.9999571925838813
50
-150.00081457
51
-74.99908089
0
LINE
8
Edge.Cuts
6
CONTINUOUS
10
85.25
20
-49.
11
85.25
21
-49.5
0
ARC
8
Edge.Cuts
10
86.25
20
-49.
40
1.
50
90.00000000
51
180.00000000
0
ARC
8
Edge.Cuts
10
84.25
20
-49.5
40
1.
50
-90.00000000
51
-0.00000000
0
LINE
8
Edge.Cuts
6
CONTINUOUS
10
86.25
20
-48.
11
104.5
21
-48.
0
LINE
8
Edge.Cuts
6
CONTINUOUS
10
90.0525229999999937
20
-108.7940949999999987
11
93.1977699999999913
21
-120.5323139999999995
0
ARC
8
Edge.Cuts
10
94.8821999999999974
20
-107.5
40
5.0000461791221484
50
-269.99944996
51
-165.00014447
0
LINE
8
Edge.Cuts
6
CONTINUOUS
10
91.8714030000000008
20
-122.9560969999999998
11
56.7531579999999991
21
-132.3660019999999804
0
ARC
8
Edge.Cuts
10
91.2659999999999911
20
-121.0499999999999972
40
1.9999335307694603
50
-72.37942585
51
15.00193123
0
ARC
8
Edge.Cuts
10
106.5
20
-46.5
40
1.
50
90.00000000
51
180.00000000
0
ARC
8
Edge.Cuts
10
104.5
20
-47.
40
1.
50
-90.00000000
51
-0.00000000
0
LINE
8
Edge.Cuts
6
CONTINUOUS
10
105.5
20
-47.
11
105.5
21
-46.5
0
LINE
8
Edge.Cuts
6
CONTINUOUS
10
106.5
20
-45.5
11
126.
21
-45.5
0
ARC
8
Edge.Cuts
10
126.
20
-46.
40
0.5
50
0.00000000
51
90.00000000
0
ARC
8
Edge.Cuts
10
127.
20
-46.
40
0.5
50
-180.00000000
51
-90.00000000
0
LINE
8
Edge.Cuts
6
CONTINUOUS
10
127.
20
-46.5
11
147.5
21
-46.5
0
LINE
8
Edge.Cuts
6
CONTINUOUS
10
135.
20
-102.5
11
94.8821519999999907
21
-102.5
0
ARC
8
Edge.Cuts
10
135.
20
-103.5
40
1.
50
0.00000000
51
90.00000000
0
LINE
8
Edge.Cuts
6
CONTINUOUS
10
136.
20
-125.5
11
136.
21
-103.5
0
ARC
8
Edge.Cuts
10
137.
20
-125.5
40
1.
50
-180.00000000
51
-90.00000000
0
LINE
8
Edge.Cuts
6
CONTINUOUS
10
142.
20
-126.5
11
137.
21
-126.5
0
LINE
8
Edge.Cuts
6
CONTINUOUS
10
143.
20
-111.5
11
143.
21
-125.5
0
ARC
8
Edge.Cuts
10
144.
20
-111.5
40
1.
50
90.00000000
51
180.00000000
0
ARC
8
Edge.Cuts
10
142.
20
-125.5
40
1.
50
-90.00000000
51
-0.00000000
0
ARC
8
Edge.Cuts
10
147.5
20
-47.5
40
1.
50
0.00000000
51
90.00000000
0
LINE
8
Edge.Cuts
6
CONTINUOUS
10
148.5
20
-47.5
11
148.5
21
-55.5
0
ARC
8
Edge.Cuts
10
149.5
20
-55.5
40
1.
50
-180.00000000
51
-90.00000000
0
LINE
8
Edge.Cuts
6
CONTINUOUS
10
149.5
20
-56.5
11
161.5
21
-56.5
0
ARC
8
Edge.Cuts
10
161.5
20
-57.5
40
1.
50
0.00000000
51
90.00000000
0
LINE
8
Edge.Cuts
6
CONTINUOUS
10
162.5
20
-57.5
11
162.5
21
-68.5
0
ARC
8
Edge.Cuts
10
163.5
20
-68.5
40
1.
50
-180.00000000
51
-90.00000000
0
LINE
8
Edge.Cuts
6
CONTINUOUS
10
163.5
20
-69.5
11
179.5
21
-69.5
0
LINE
8
Edge.Cuts
6
CONTINUOUS
10
165.5
20
-110.5
11
144.
21
-110.5
0
LINE
8
Edge.Cuts
6
CONTINUOUS
10
166.5
20
-107.5
11
166.5
21
-109.5
0
ARC
8
Edge.Cuts
10
167.5
20
-107.5
40
1.
50
90.00000000
51
180.00000000
0
ARC
8
Edge.Cuts
10
165.5
20
-109.5
40
1.
50
-90.00000000
51
-0.00000000
0
ARC
8
Edge.Cuts
10
179.5
20
-70.5
40
1.
50
0.00000000
51
90.00000000
0
LINE
8
Edge.Cuts
6
CONTINUOUS
10
179.5
20
-106.5
11
167.5
21
-106.5
0
LINE
8
Edge.Cuts
6
CONTINUOUS
10
180.5
20
-70.5
11
180.5
21
-105.5
0
ARC
8
Edge.Cuts
10
179.5
20
-105.5
40
1.
50
-90.00000000
51
-0.00000000
0
LINE
8
Edge.Cuts
6
CONTINUOUS
10
55.2922469999999961
20
-60.2494469999999964
11
55.2922469999999961
21
-59.2080470000000005
0
LINE
8
Edge.Cuts
6
CONTINUOUS
10
55.9780469999999966
20
-58.5222470000000001
11
57.5782469999999975
21
-58.5222470000000001
0
LINE
8
Edge.Cuts
6
CONTINUOUS
10
57.5782469999999975
20
-60.9352469999999968
11
55.9780469999999966
21
-60.9352469999999968
0
LINE
8
Edge.Cuts
6
CONTINUOUS
10
57.9592469999999977
20
-58.9032470000000004
11
57.9592469999999977
21
-60.5542469999999966
0
LINE
8
Edge.Cuts
6
CONTINUOUS
10
63.5722469999999973
20
-69.8919530000000009
11
63.5722469999999973
21
-68.2917529999999999
0
LINE
8
Edge.Cuts
6
CONTINUOUS
10
63.9532469999999975
20
-67.9107529999999997
11
65.6042470000000009
21
-67.9107529999999997
0
LINE
8
Edge.Cuts
6
CONTINUOUS
10
65.2994470000000007
20
-70.5777530000000013
11
64.2580469999999906
21
-70.5777530000000013
0
LINE
8
Edge.Cuts
6
CONTINUOUS
10
65.9852470000000011
20
-68.2917529999999999
11
65.9852470000000011
21
-69.8919530000000009
0
ARC
8
Edge.Cuts
10
55.5399999999999991
20
-60.6874939999999938
40
0.5032561208947189
50
-29.49186786
51
119.49186786
0
ARC
8
Edge.Cuts
10
55.5399999999999991
20
-58.769999999999996
40
0.5032561208947189
50
-119.49186786
51
29.49186786
0
ARC
8
Edge.Cuts
10
57.5782549999999986
20
-58.9032389999999992
40
0.3809920000839913
50
-0.00120309
51
90.00120309
0
ARC
8
Edge.Cuts
10
57.5782509999999945
20
-60.5542510000000007
40
0.3809960000209976
50
-90.00060154
51
0.00060154
0
ARC
8
Edge.Cuts
10
63.9532399999999939
20
-68.2917499999999933
40
0.3809930000118112
50
-270.00105269
51
-179.99954884
0
ARC
8
Edge.Cuts
10
63.8200000000000003
20
-70.3299999999999983
40
0.5032561208947189
50
-29.49186786
51
119.49186786
0
ARC
8
Edge.Cuts
10
65.7374999999999972
20
-70.3299999999999983
40
0.5032613434568565
50
-299.49127326
51
-150.50846843
0
ARC
8
Edge.Cuts
10
65.6042499999999933
20
-68.2917499999999933
40
0.3809970000118111
50
-0.00045115
51
90.00045115
  0
ENDSEC
  0
EOF
