%TF.GenerationSoftware,KiCad,Pcbnew,10.0.1*%
%TF.CreationDate,2026-08-10T19:32:32+09:00*%
%TF.ProjectId,reel-left,7265656c-2d6c-4656-9674-2e6b69636164,rev?*%
%TF.SameCoordinates,Original*%
%TF.FileFunction,Soldermask,Bot*%
%TF.FilePolarity,Negative*%
%FSLAX46Y46*%
G04 Gerber Fmt 4.6, Leading zero omitted, Abs format (unit mm)*
G04 Created by KiCad (PCBNEW 10.0.1) date 2026-08-10 19:32:32*
%MOMM*%
%LPD*%
G01*
G04 APERTURE LIST*
G04 Aperture macros list*
%AMRoundRect*
0 Rectangle with rounded corners*
0 $1 Rounding radius*
0 $2 $3 $4 $5 $6 $7 $8 $9 X,Y pos of 4 corners*
0 Add a 4 corners polygon primitive as box body*
4,1,4,$2,$3,$4,$5,$6,$7,$8,$9,$2,$3,0*
0 Add four circle primitives for the rounded corners*
1,1,$1+$1,$2,$3*
1,1,$1+$1,$4,$5*
1,1,$1+$1,$6,$7*
1,1,$1+$1,$8,$9*
0 Add four rect primitives between the rounded corners*
20,1,$1+$1,$2,$3,$4,$5,0*
20,1,$1+$1,$4,$5,$6,$7,0*
20,1,$1+$1,$6,$7,$8,$9,0*
20,1,$1+$1,$8,$9,$2,$3,0*%
%AMRotRect*
0 Rectangle, with rotation*
0 The origin of the aperture is its center*
0 $1 length*
0 $2 width*
0 $3 Rotation angle, in degrees counterclockwise*
0 Add horizontal line*
21,1,$1,$2,0,0,$3*%
%AMFreePoly0*
4,1,5,0.762000,-1.000000,-0.762000,-1.000000,-0.762000,1.000000,0.762000,1.000000,0.762000,-1.000000,0.762000,-1.000000,$1*%
G04 Aperture macros list end*
%ADD10C,1.900000*%
%ADD11C,1.600000*%
%ADD12C,3.050000*%
%ADD13C,5.050000*%
%ADD14RoundRect,0.250000X1.025000X1.000000X-1.025000X1.000000X-1.025000X-1.000000X1.025000X-1.000000X0*%
%ADD15R,0.950000X1.200000*%
%ADD16C,4.500000*%
%ADD17RotRect,1.200000X0.950000X330.000000*%
%ADD18RotRect,1.800000X1.800000X150.000000*%
%ADD19C,1.800000*%
%ADD20RotRect,1.800000X1.800000X330.000000*%
%ADD21RoundRect,0.250000X-0.353525X1.387676X-1.378525X-0.387676X0.353525X-1.387676X1.378525X0.387676X0*%
%ADD22RoundRect,0.250000X1.248893X0.700636X-0.731255X1.231215X-1.248893X-0.700636X0.731255X-1.231215X0*%
%ADD23RotRect,1.200000X0.950000X255.000000*%
%ADD24RotRect,1.200000X0.950000X240.000000*%
%ADD25O,2.750000X1.800000*%
%ADD26C,1.500000*%
%ADD27FreePoly0,0.000000*%
%ADD28O,1.524000X2.000000*%
%ADD29C,1.350000*%
%ADD30O,1.350000X1.350000*%
%ADD31R,1.350000X1.350000*%
%ADD32R,0.800000X1.000000*%
%ADD33C,0.900000*%
%ADD34R,1.500000X0.700000*%
%ADD35RoundRect,0.250000X0.350000X0.625000X-0.350000X0.625000X-0.350000X-0.625000X0.350000X-0.625000X0*%
%ADD36O,1.200000X1.750000*%
%ADD37C,0.350000*%
G04 APERTURE END LIST*
D10*
%TO.C,SW6*%
X184000000Y-85000000D03*
D11*
X183500000Y-79850000D03*
D12*
X178500000Y-90900000D03*
D13*
X178500000Y-85000000D03*
D12*
X173500000Y-88800000D03*
D10*
X173000000Y-85000000D03*
D14*
X182000000Y-91000000D03*
X170000000Y-88800000D03*
%TD*%
D15*
%TO.C,D9*%
X113000000Y-77553125D03*
X113000000Y-81003125D03*
%TD*%
D16*
%TO.C,Ref\u002A\u002A*%
X169000000Y-74500000D03*
%TD*%
D17*
%TO.C,D19*%
X189208566Y-137170101D03*
X192196353Y-138895101D03*
%TD*%
D15*
%TO.C,D15*%
X113000000Y-96553125D03*
X113000000Y-100003125D03*
%TD*%
D10*
%TO.C,SW15*%
X127000000Y-100000000D03*
D11*
X126500000Y-94850000D03*
D12*
X121500000Y-105900000D03*
D13*
X121500000Y-100000000D03*
D12*
X116500000Y-103800000D03*
D10*
X116000000Y-100000000D03*
D14*
X125000000Y-106000000D03*
X113000000Y-103800000D03*
%TD*%
D17*
%TO.C,D18*%
X200208566Y-117170101D03*
X203196353Y-118895101D03*
%TD*%
D16*
%TO.C,Ref\u002A\u002A*%
X189500000Y-117000000D03*
%TD*%
D10*
%TO.C,SW16*%
X108000000Y-110000000D03*
D11*
X107500000Y-104850000D03*
D12*
X102500000Y-115900000D03*
D13*
X102500000Y-110000000D03*
D12*
X97500000Y-113800000D03*
D10*
X97000000Y-110000000D03*
D14*
X106000000Y-116000000D03*
X94000000Y-113800000D03*
%TD*%
D15*
%TO.C,D4*%
X113000000Y-58553125D03*
X113000000Y-62003125D03*
%TD*%
D10*
%TO.C,SW2*%
X165000000Y-64000000D03*
D11*
X164500000Y-58850000D03*
D12*
X159500000Y-69900000D03*
D13*
X159500000Y-64000000D03*
D12*
X154500000Y-67800000D03*
D10*
X154000000Y-64000000D03*
D14*
X163000000Y-70000000D03*
X151000000Y-67800000D03*
%TD*%
D15*
%TO.C,D2*%
X151000000Y-60553125D03*
X151000000Y-64003125D03*
%TD*%
%TO.C,D8*%
X132000000Y-76553125D03*
X132000000Y-80003125D03*
%TD*%
D16*
%TO.C,Ref\u002A\u002A*%
X140500000Y-115000000D03*
%TD*%
D15*
%TO.C,D14*%
X132000000Y-95553125D03*
X132000000Y-99003125D03*
%TD*%
%TO.C,D12*%
X170000000Y-100553125D03*
X170000000Y-104003125D03*
%TD*%
D18*
%TO.C,SW18*%
X221636946Y-121159155D03*
D19*
X217237536Y-118619155D03*
%TD*%
D10*
%TO.C,SW3*%
X146000000Y-61000000D03*
D11*
X145500000Y-55850000D03*
D12*
X140500000Y-66900000D03*
D13*
X140500000Y-61000000D03*
D12*
X135500000Y-64800000D03*
D10*
X135000000Y-61000000D03*
D14*
X144000000Y-67000000D03*
X132000000Y-64800000D03*
%TD*%
D15*
%TO.C,D3*%
X132000000Y-57553125D03*
X132000000Y-61003125D03*
%TD*%
D10*
%TO.C,SW17*%
X89000000Y-105000000D03*
D11*
X88500000Y-99850000D03*
D12*
X83500000Y-110900000D03*
D13*
X83500000Y-105000000D03*
D12*
X78500000Y-108800000D03*
D10*
X78000000Y-105000000D03*
D14*
X87000000Y-111000000D03*
X75000000Y-108800000D03*
%TD*%
D20*
%TO.C,SW19*%
X200688692Y-147164969D03*
D19*
X205088102Y-149704969D03*
%TD*%
D15*
%TO.C,D13*%
X151000000Y-98553125D03*
X151000000Y-102003125D03*
%TD*%
D10*
%TO.C,SW8*%
X146000000Y-80000000D03*
D11*
X145500000Y-74850000D03*
D12*
X140500000Y-85900000D03*
D13*
X140500000Y-80000000D03*
D12*
X135500000Y-83800000D03*
D10*
X135000000Y-80000000D03*
D14*
X144000000Y-86000000D03*
X132000000Y-83800000D03*
%TD*%
D15*
%TO.C,D7*%
X151000000Y-79553125D03*
X151000000Y-83003125D03*
%TD*%
D10*
%TO.C,SW11*%
X89000000Y-86000000D03*
D11*
X88500000Y-80850000D03*
D12*
X83500000Y-91900000D03*
D13*
X83500000Y-86000000D03*
D12*
X78500000Y-89800000D03*
D10*
X78000000Y-86000000D03*
D14*
X87000000Y-92000000D03*
X75000000Y-89800000D03*
%TD*%
D15*
%TO.C,D10*%
X94000000Y-87553125D03*
X94000000Y-91003125D03*
%TD*%
%TO.C,D22*%
X148000000Y-117553125D03*
X148000000Y-121003125D03*
%TD*%
D10*
%TO.C,SW4*%
X127000000Y-62000000D03*
D11*
X126500000Y-56850000D03*
D12*
X121500000Y-67900000D03*
D13*
X121500000Y-62000000D03*
D12*
X116500000Y-65800000D03*
D10*
X116000000Y-62000000D03*
D14*
X125000000Y-68000000D03*
X113000000Y-65800000D03*
%TD*%
D16*
%TO.C,Ref\u002A\u002A*%
X112500000Y-71500000D03*
%TD*%
D10*
%TO.C,SW7*%
X165000000Y-83000000D03*
D11*
X164500000Y-77850000D03*
D12*
X159500000Y-88900000D03*
D13*
X159500000Y-83000000D03*
D12*
X154500000Y-86800000D03*
D10*
X154000000Y-83000000D03*
D14*
X163000000Y-89000000D03*
X151000000Y-86800000D03*
%TD*%
D10*
%TO.C,SW20*%
X199250000Y-123736860D03*
D11*
X194539969Y-121594873D03*
D12*
X201609550Y-131450000D03*
D13*
X196500000Y-128500000D03*
D12*
X197290897Y-134730127D03*
D10*
X193750000Y-133263140D03*
D21*
X203446152Y-128468911D03*
X195540897Y-137761216D03*
%TD*%
D10*
%TO.C,SW21*%
X181812592Y-126423505D03*
D11*
X182662547Y-121319577D03*
D12*
X174972968Y-130698962D03*
D13*
X176500000Y-125000000D03*
D12*
X170686858Y-127376423D03*
D10*
X171187408Y-123576495D03*
D22*
X178327826Y-131701422D03*
X167306118Y-126470556D03*
%TD*%
D10*
%TO.C,SW14*%
X146000000Y-99000000D03*
D11*
X145500000Y-93850000D03*
D12*
X140500000Y-104900000D03*
D13*
X140500000Y-99000000D03*
D12*
X135500000Y-102800000D03*
D10*
X135000000Y-99000000D03*
D14*
X144000000Y-105000000D03*
X132000000Y-102800000D03*
%TD*%
D23*
%TO.C,D21*%
X169446463Y-119116151D03*
X168553538Y-122448595D03*
%TD*%
D15*
%TO.C,D6*%
X170000000Y-81553125D03*
X170000000Y-85003125D03*
%TD*%
D10*
%TO.C,SW9*%
X127000000Y-81000000D03*
D11*
X126500000Y-75850000D03*
D12*
X121500000Y-86900000D03*
D13*
X121500000Y-81000000D03*
D12*
X116500000Y-84800000D03*
D10*
X116000000Y-81000000D03*
D14*
X125000000Y-87000000D03*
X113000000Y-84800000D03*
%TD*%
D10*
%TO.C,SW13*%
X165000000Y-102000000D03*
D11*
X164500000Y-96850000D03*
D12*
X159500000Y-107900000D03*
D13*
X159500000Y-102000000D03*
D12*
X154500000Y-105800000D03*
D10*
X154000000Y-102000000D03*
D14*
X163000000Y-108000000D03*
X151000000Y-105800000D03*
%TD*%
D15*
%TO.C,D17*%
X75000000Y-101553125D03*
X75000000Y-105003125D03*
%TD*%
D10*
%TO.C,SW5*%
X108000000Y-72000000D03*
D11*
X107500000Y-66850000D03*
D12*
X102500000Y-77900000D03*
D13*
X102500000Y-72000000D03*
D12*
X97500000Y-75800000D03*
D10*
X97000000Y-72000000D03*
D14*
X106000000Y-78000000D03*
X94000000Y-75800000D03*
%TD*%
D15*
%TO.C,D1*%
X170000000Y-62553125D03*
X170000000Y-66003125D03*
%TD*%
%TO.C,D5*%
X94000000Y-68553125D03*
X94000000Y-72003125D03*
%TD*%
D10*
%TO.C,SW10*%
X108000000Y-91000000D03*
D11*
X107500000Y-85850000D03*
D12*
X102500000Y-96900000D03*
D13*
X102500000Y-91000000D03*
D12*
X97500000Y-94800000D03*
D10*
X97000000Y-91000000D03*
D14*
X106000000Y-97000000D03*
X94000000Y-94800000D03*
%TD*%
D24*
%TO.C,D20*%
X187329900Y-127208565D03*
X185604900Y-130196354D03*
%TD*%
D25*
%TO.C,U1*%
X190380000Y-58880000D03*
X190380000Y-61420000D03*
X190380000Y-63960000D03*
X190380000Y-66500000D03*
X190380000Y-69040000D03*
X190380000Y-71580000D03*
X190380000Y-74120000D03*
X206620000Y-74120000D03*
X206620000Y-71580000D03*
X206620000Y-69040000D03*
X206620000Y-66500000D03*
X206620000Y-63960000D03*
X206620000Y-61420000D03*
X206620000Y-58880000D03*
D26*
X202335400Y-75812000D03*
X204215000Y-75812000D03*
D27*
X201460000Y-80700000D03*
D28*
X204000000Y-80700000D03*
X206540000Y-80700000D03*
D26*
X194055000Y-66183000D03*
X194055000Y-64278000D03*
%TD*%
D29*
%TO.C,J2*%
X193395000Y-111000000D03*
D30*
X195935000Y-111000000D03*
X198475000Y-111000000D03*
X201015000Y-111000000D03*
D31*
X203555000Y-111000000D03*
%TD*%
D19*
%TO.C,SW25*%
X214783333Y-122832334D03*
X219113461Y-125332334D03*
X216948397Y-124082334D03*
%TD*%
D10*
%TO.C,SW22*%
X162000000Y-121000000D03*
D11*
X161500000Y-115850000D03*
D12*
X156500000Y-126900000D03*
D13*
X156500000Y-121000000D03*
D12*
X151500000Y-124800000D03*
D10*
X151000000Y-121000000D03*
D14*
X160000000Y-127000000D03*
X148000000Y-124800000D03*
%TD*%
D15*
%TO.C,D16*%
X94000000Y-106553125D03*
X94000000Y-110003125D03*
%TD*%
%TO.C,D11*%
X75000000Y-82553125D03*
X75000000Y-86003125D03*
%TD*%
D16*
%TO.C,Ref\u002A\u002A*%
X93500000Y-100500000D03*
%TD*%
D10*
%TO.C,SW12*%
X184000000Y-104000000D03*
D11*
X183500000Y-98850000D03*
D12*
X178500000Y-109900000D03*
D13*
X178500000Y-104000000D03*
D12*
X173500000Y-107800000D03*
D10*
X173000000Y-104000000D03*
D14*
X182000000Y-110000000D03*
X170000000Y-107800000D03*
%TD*%
D10*
%TO.C,SW1*%
X184000000Y-66000000D03*
D11*
X183500000Y-60850000D03*
D12*
X178500000Y-71900000D03*
D13*
X178500000Y-66000000D03*
D12*
X173500000Y-69800000D03*
D10*
X173000000Y-66000000D03*
D14*
X182000000Y-72000000D03*
X170000000Y-69800000D03*
%TD*%
D32*
%TO.C,SW24*%
X208430000Y-86350000D03*
X206220000Y-86350000D03*
D33*
X207330000Y-88500000D03*
X207330000Y-91500000D03*
D32*
X208430000Y-93650000D03*
X206220000Y-93650000D03*
D34*
X205570000Y-87750000D03*
X205570000Y-90750000D03*
X205570000Y-92250000D03*
%TD*%
D35*
%TO.C,J1*%
X197000000Y-75375000D03*
D36*
X195000000Y-75375000D03*
%TD*%
D37*
X184000000Y-85000000D03*
X183500000Y-79850000D03*
X178500000Y-90900000D03*
X178500000Y-85000000D03*
X173500000Y-88800000D03*
X173000000Y-85000000D03*
X169000000Y-74500000D03*
X127000000Y-100000000D03*
X126500000Y-94850000D03*
X121500000Y-105900000D03*
X121500000Y-100000000D03*
X116500000Y-103800000D03*
X116000000Y-100000000D03*
X189500000Y-117000000D03*
X108000000Y-110000000D03*
X107500000Y-104850000D03*
X102500000Y-115900000D03*
X102500000Y-110000000D03*
X97500000Y-113800000D03*
X97000000Y-110000000D03*
X165000000Y-64000000D03*
X164500000Y-58850000D03*
X159500000Y-69900000D03*
X159500000Y-64000000D03*
X154500000Y-67800000D03*
X154000000Y-64000000D03*
X140500000Y-115000000D03*
X221636946Y-121159155D03*
X217237536Y-118619155D03*
X146000000Y-61000000D03*
X145500000Y-55850000D03*
X140500000Y-66900000D03*
X140500000Y-61000000D03*
X135500000Y-64800000D03*
X135000000Y-61000000D03*
X89000000Y-105000000D03*
X88500000Y-99850000D03*
X83500000Y-110900000D03*
X83500000Y-105000000D03*
X78500000Y-108800000D03*
X78000000Y-105000000D03*
X200688692Y-147164969D03*
X205088102Y-149704969D03*
X146000000Y-80000000D03*
X145500000Y-74850000D03*
X140500000Y-85900000D03*
X140500000Y-80000000D03*
X135500000Y-83800000D03*
X135000000Y-80000000D03*
X89000000Y-86000000D03*
X88500000Y-80850000D03*
X83500000Y-91900000D03*
X83500000Y-86000000D03*
X78500000Y-89800000D03*
X78000000Y-86000000D03*
X127000000Y-62000000D03*
X126500000Y-56850000D03*
X121500000Y-67900000D03*
X121500000Y-62000000D03*
X116500000Y-65800000D03*
X116000000Y-62000000D03*
X112500000Y-71500000D03*
X165000000Y-83000000D03*
X164500000Y-77850000D03*
X159500000Y-88900000D03*
X159500000Y-83000000D03*
X154500000Y-86800000D03*
X154000000Y-83000000D03*
X199250000Y-123736860D03*
X194539969Y-121594873D03*
X201609550Y-131450000D03*
X196500000Y-128500000D03*
X197290897Y-134730127D03*
X193750000Y-133263140D03*
X181812592Y-126423505D03*
X182662547Y-121319577D03*
X174972968Y-130698962D03*
X176500000Y-125000000D03*
X170686858Y-127376423D03*
X171187408Y-123576495D03*
X146000000Y-99000000D03*
X145500000Y-93850000D03*
X140500000Y-104900000D03*
X140500000Y-99000000D03*
X135500000Y-102800000D03*
X135000000Y-99000000D03*
X127000000Y-81000000D03*
X126500000Y-75850000D03*
X121500000Y-86900000D03*
X121500000Y-81000000D03*
X116500000Y-84800000D03*
X116000000Y-81000000D03*
X165000000Y-102000000D03*
X164500000Y-96850000D03*
X159500000Y-107900000D03*
X159500000Y-102000000D03*
X154500000Y-105800000D03*
X154000000Y-102000000D03*
X108000000Y-72000000D03*
X107500000Y-66850000D03*
X102500000Y-77900000D03*
X102500000Y-72000000D03*
X97500000Y-75800000D03*
X97000000Y-72000000D03*
X108000000Y-91000000D03*
X107500000Y-85850000D03*
X102500000Y-96900000D03*
X102500000Y-91000000D03*
X97500000Y-94800000D03*
X97000000Y-91000000D03*
X190880000Y-58880000D03*
X190880000Y-61420000D03*
X190880000Y-63960000D03*
X190880000Y-66500000D03*
X190880000Y-69040000D03*
X190880000Y-71580000D03*
X190880000Y-74120000D03*
X206120000Y-74120000D03*
X206120000Y-71580000D03*
X206120000Y-69040000D03*
X206120000Y-66500000D03*
X206120000Y-63960000D03*
X206120000Y-61420000D03*
X206120000Y-58880000D03*
X202335400Y-75812000D03*
X204215000Y-75812000D03*
X201460000Y-81000000D03*
X204000000Y-81000000D03*
X206540000Y-81000000D03*
X194055000Y-66183000D03*
X194055000Y-64278000D03*
X193395000Y-111000000D03*
X195935000Y-111000000D03*
X198475000Y-111000000D03*
X201015000Y-111000000D03*
X203555000Y-111000000D03*
X214783333Y-122832334D03*
X219113461Y-125332334D03*
X216948397Y-124082334D03*
X162000000Y-121000000D03*
X161500000Y-115850000D03*
X156500000Y-126900000D03*
X156500000Y-121000000D03*
X151500000Y-124800000D03*
X151000000Y-121000000D03*
X93500000Y-100500000D03*
X184000000Y-104000000D03*
X183500000Y-98850000D03*
X178500000Y-109900000D03*
X178500000Y-104000000D03*
X173500000Y-107800000D03*
X173000000Y-104000000D03*
X184000000Y-66000000D03*
X183500000Y-60850000D03*
X178500000Y-71900000D03*
X178500000Y-66000000D03*
X173500000Y-69800000D03*
X173000000Y-66000000D03*
X207330000Y-88500000D03*
X207330000Y-91500000D03*
X197000000Y-75375000D03*
X195000000Y-75375000D03*
M02*
