%TF.GenerationSoftware,KiCad,Pcbnew,10.0.1*%
%TF.CreationDate,2026-07-22T17:22:58+09:00*%
%TF.ProjectId,reel-left,7265656c-2d6c-4656-9674-2e6b69636164,rev?*%
%TF.SameCoordinates,Original*%
%TF.FileFunction,Profile,NP*%
%FSLAX46Y46*%
G04 Gerber Fmt 4.6, Leading zero omitted, Abs format (unit mm)*
G04 Created by KiCad (PCBNEW 10.0.1) date 2026-07-22 17:22:58*
%MOMM*%
%LPD*%
G01*
G04 APERTURE LIST*
%TA.AperFunction,Profile*%
%ADD10C,0.050000*%
%TD*%
%TA.AperFunction,Profile*%
%ADD11C,0.120000*%
%TD*%
%ADD12C,0.350000*%
G04 APERTURE END LIST*
D10*
X77000000Y-78000000D02*
X77000000Y-113000000D01*
X77000000Y-78000000D02*
G75*
G02*
X78000000Y-77000000I1000000J0D01*
G01*
X78000000Y-114000000D02*
G75*
G02*
X77000000Y-113000000I0J1000000D01*
G01*
X78000000Y-114000000D02*
X90000000Y-114000000D01*
X90000000Y-114000000D02*
G75*
G02*
X91000000Y-115000000I0J-1000000D01*
G01*
X91000000Y-115000000D02*
X91000000Y-117000000D01*
X92000000Y-118000000D02*
G75*
G02*
X91000000Y-117000000I0J1000000D01*
G01*
X92000000Y-118000000D02*
X137214719Y-118000000D01*
X94000000Y-77000000D02*
X78000000Y-77000000D01*
X95000000Y-65000000D02*
X95000000Y-76000000D01*
X95000000Y-65000000D02*
G75*
G02*
X96000000Y-64000000I1000000J0D01*
G01*
X95000000Y-76000000D02*
G75*
G02*
X94000000Y-77000000I-1000000J0D01*
G01*
X108250000Y-64000000D02*
X96000000Y-64000000D01*
X109250000Y-55000000D02*
X109250000Y-63000000D01*
X109250000Y-55000000D02*
G75*
G02*
X110250000Y-54000000I1000000J0D01*
G01*
X109250000Y-63000000D02*
G75*
G02*
X108250000Y-64000000I-1000000J0D01*
G01*
X130500000Y-54000000D02*
X110250000Y-54000000D01*
X131000000Y-53500000D02*
G75*
G02*
X130500000Y-54000000I-500000J0D01*
G01*
X131000000Y-53500000D02*
G75*
G02*
X131500000Y-53000000I500000J0D01*
G01*
X137214719Y-118000000D02*
G75*
G02*
X141466031Y-120368235I-19J-5000000D01*
G01*
X141466044Y-120368227D02*
X145332428Y-126613922D01*
X148681836Y-128900131D02*
G75*
G02*
X145332435Y-126613918I901964J4918031D01*
G01*
X148681836Y-128900131D02*
X178786435Y-133902109D01*
X151000000Y-53000000D02*
X131500000Y-53000000D01*
X151000000Y-53000000D02*
G75*
G02*
X152000000Y-54000000I0J-1000000D01*
G01*
X152000000Y-54500000D02*
X152000000Y-54000000D01*
X153000000Y-55500000D02*
G75*
G02*
X152000000Y-54500000I0J1000000D01*
G01*
X171250000Y-55500000D02*
X153000000Y-55500000D01*
X171250000Y-55500000D02*
G75*
G02*
X172250000Y-56500000I0J-1000000D01*
G01*
X172250000Y-56500000D02*
X172250000Y-57000000D01*
X173250000Y-58000000D02*
G75*
G02*
X172250000Y-57000000I0J1000000D01*
G01*
X199375000Y-138860735D02*
X208625000Y-122839264D01*
X199741025Y-140226760D02*
G75*
G02*
X199375037Y-138860757I499875J865960D01*
G01*
X199741025Y-140226760D02*
X207102247Y-144476747D01*
X204602258Y-148806881D02*
X178786435Y-133902109D01*
X205968285Y-148440852D02*
G75*
G02*
X204602297Y-148806813I-865985J500052D01*
G01*
X207000000Y-58000000D02*
X173250000Y-58000000D01*
X207000000Y-58000000D02*
G75*
G02*
X208000000Y-59000000I0J-1000000D01*
G01*
X207102247Y-144476747D02*
G75*
G02*
X207468290Y-145842782I-500047J-866053D01*
G01*
X207468274Y-145842773D02*
X205968285Y-148440852D01*
X208000000Y-106889964D02*
X208000000Y-59000000D01*
X208625000Y-122839264D02*
G75*
G02*
X209991051Y-122473193I866100J-500136D01*
G01*
X209991025Y-122473239D02*
X217352241Y-126723239D01*
X210500000Y-111220091D02*
G75*
G02*
X207999995Y-106889964I2500100J4330191D01*
G01*
X218718266Y-126357214D02*
G75*
G02*
X217352266Y-126723196I-865966J499914D01*
G01*
X218718266Y-126357214D02*
X222718266Y-119429010D01*
X222352241Y-118062985D02*
X210500000Y-111220091D01*
X222352241Y-118062985D02*
G75*
G02*
X222718241Y-119428996I-500041J-866015D01*
G01*
%TO.C,U1*%
D11*
X192792247Y-67749447D02*
X192792247Y-66708047D01*
X193478047Y-66022247D02*
X195078247Y-66022247D01*
X195078247Y-68435247D02*
X193478047Y-68435247D01*
X195459247Y-66403247D02*
X195459247Y-68054247D01*
X201072247Y-77391953D02*
X201072247Y-75791753D01*
X201453247Y-75410753D02*
X203104247Y-75410753D01*
X202799447Y-78077753D02*
X201758047Y-78077753D01*
X203485247Y-75791753D02*
X203485247Y-77391953D01*
X192792247Y-67749447D02*
G75*
G02*
X193478047Y-68435247I247753J-438047D01*
G01*
X193478047Y-66022247D02*
G75*
G02*
X192792247Y-66708047I-438047J-247753D01*
G01*
X195078247Y-66022247D02*
G75*
G02*
X195459247Y-66403247I8J-380992D01*
G01*
X195459247Y-68054247D02*
G75*
G02*
X195078247Y-68435247I-380996J-4D01*
G01*
X201072247Y-75791753D02*
G75*
G02*
X201453247Y-75410757I380993J3D01*
G01*
X201072247Y-77391953D02*
G75*
G02*
X201758047Y-78077753I247753J-438047D01*
G01*
X202799447Y-78077753D02*
G75*
G02*
X203485251Y-77391946I438053J247753D01*
G01*
X203104247Y-75410753D02*
G75*
G02*
X203485247Y-75791753I3J-380997D01*
G01*
%TD*%
D12*
X183000000Y-85000000D03*
X182500000Y-79850000D03*
X177500000Y-90900000D03*
X177500000Y-85000000D03*
X172500000Y-88800000D03*
X172000000Y-85000000D03*
X169500000Y-58250000D03*
X129000000Y-98000000D03*
X128500000Y-92850000D03*
X123500000Y-103900000D03*
X123500000Y-98000000D03*
X118500000Y-101800000D03*
X118000000Y-98000000D03*
X189500000Y-115000000D03*
X111000000Y-108000000D03*
X110500000Y-102850000D03*
X105500000Y-113900000D03*
X105500000Y-108000000D03*
X100500000Y-111800000D03*
X100000000Y-108000000D03*
X165000000Y-66000000D03*
X164500000Y-60850000D03*
X159500000Y-71900000D03*
X159500000Y-66000000D03*
X154500000Y-69800000D03*
X154000000Y-66000000D03*
X142500000Y-114000000D03*
X220909705Y-118759155D03*
X216510295Y-116219155D03*
X147000000Y-63000000D03*
X146500000Y-57850000D03*
X141500000Y-68900000D03*
X141500000Y-63000000D03*
X136500000Y-66800000D03*
X136000000Y-63000000D03*
X93000000Y-104000000D03*
X92500000Y-98850000D03*
X87500000Y-109900000D03*
X87500000Y-104000000D03*
X82500000Y-107800000D03*
X82000000Y-104000000D03*
X199961451Y-144764969D03*
X204360861Y-147304969D03*
X147000000Y-80000000D03*
X146500000Y-74850000D03*
X141500000Y-85900000D03*
X141500000Y-80000000D03*
X136500000Y-83800000D03*
X136000000Y-80000000D03*
X93000000Y-87000000D03*
X92500000Y-81850000D03*
X87500000Y-92900000D03*
X87500000Y-87000000D03*
X82500000Y-90800000D03*
X82000000Y-87000000D03*
X129000000Y-64000000D03*
X128500000Y-58850000D03*
X123500000Y-69900000D03*
X123500000Y-64000000D03*
X118500000Y-67800000D03*
X118000000Y-64000000D03*
X112000000Y-58000000D03*
X165000000Y-83000000D03*
X164500000Y-77850000D03*
X159500000Y-88900000D03*
X159500000Y-83000000D03*
X154500000Y-86800000D03*
X154000000Y-83000000D03*
X199250000Y-121736860D03*
X194539969Y-119594873D03*
X201609550Y-129450000D03*
X196500000Y-126500000D03*
X197290897Y-132730127D03*
X193750000Y-131263140D03*
X181812592Y-124423505D03*
X182662547Y-119319577D03*
X174972968Y-128698962D03*
X176500000Y-123000000D03*
X170686858Y-125376423D03*
X171187408Y-121576495D03*
X147000000Y-97000000D03*
X146500000Y-91850000D03*
X141500000Y-102900000D03*
X141500000Y-97000000D03*
X136500000Y-100800000D03*
X136000000Y-97000000D03*
X129000000Y-81000000D03*
X128500000Y-75850000D03*
X123500000Y-86900000D03*
X123500000Y-81000000D03*
X118500000Y-84800000D03*
X118000000Y-81000000D03*
X165000000Y-100000000D03*
X164500000Y-94850000D03*
X159500000Y-105900000D03*
X159500000Y-100000000D03*
X154500000Y-103800000D03*
X154000000Y-100000000D03*
X111000000Y-74000000D03*
X110500000Y-68850000D03*
X105500000Y-79900000D03*
X105500000Y-74000000D03*
X100500000Y-77800000D03*
X100000000Y-74000000D03*
X111000000Y-91000000D03*
X110500000Y-85850000D03*
X105500000Y-96900000D03*
X105500000Y-91000000D03*
X100500000Y-94800000D03*
X100000000Y-91000000D03*
X189880000Y-60880000D03*
X189880000Y-63420000D03*
X189880000Y-65960000D03*
X189880000Y-68500000D03*
X189880000Y-71040000D03*
X189880000Y-73580000D03*
X189880000Y-76120000D03*
X205120000Y-76120000D03*
X205120000Y-73580000D03*
X205120000Y-71040000D03*
X205120000Y-68500000D03*
X205120000Y-65960000D03*
X205120000Y-63420000D03*
X205120000Y-60880000D03*
X201335400Y-77812000D03*
X203215000Y-77812000D03*
X200460000Y-83000000D03*
X203000000Y-83000000D03*
X205540000Y-83000000D03*
X193055000Y-68183000D03*
X193055000Y-66278000D03*
X192395000Y-95000000D03*
X194935000Y-95000000D03*
X197475000Y-95000000D03*
X200015000Y-95000000D03*
X202555000Y-95000000D03*
X214056092Y-120432334D03*
X218386220Y-122932334D03*
X216221156Y-121682334D03*
X162000000Y-119000000D03*
X161500000Y-113850000D03*
X156500000Y-124900000D03*
X156500000Y-119000000D03*
X151500000Y-122800000D03*
X151000000Y-119000000D03*
X94000000Y-115000000D03*
X183000000Y-102000000D03*
X182500000Y-96850000D03*
X177500000Y-107900000D03*
X177500000Y-102000000D03*
X172500000Y-105800000D03*
X172000000Y-102000000D03*
X183000000Y-68000000D03*
X182500000Y-62850000D03*
X177500000Y-73900000D03*
X177500000Y-68000000D03*
X172500000Y-71800000D03*
X172000000Y-68000000D03*
X206330000Y-88500000D03*
X206330000Y-91500000D03*
M02*
