%TF.GenerationSoftware,KiCad,Pcbnew,10.0.1*%
%TF.CreationDate,2026-07-22T17:22:58+09:00*%
%TF.ProjectId,reel-left,7265656c-2d6c-4656-9674-2e6b69636164,rev?*%
%TF.SameCoordinates,Original*%
%TF.FileFunction,Copper,L1,Top*%
%TF.FilePolarity,Positive*%
%FSLAX46Y46*%
G04 Gerber Fmt 4.6, Leading zero omitted, Abs format (unit mm)*
G04 Created by KiCad (PCBNEW 10.0.1) date 2026-07-22 17:22:58*
%MOMM*%
%LPD*%
G01*
G04 APERTURE LIST*
G04 Aperture macros list*
%AMRotRect*
0 Rectangle, with rotation*
0 The origin of the aperture is its center*
0 $1 length*
0 $2 width*
0 $3 Rotation angle, in degrees counterclockwise*
0 Add horizontal line*
21,1,$1,$2,0,0,$3*%
%AMFreePoly0*
4,1,5,0.762000,-1.000000,-0.762000,-1.000000,-0.762000,1.000000,0.762000,1.000000,0.762000,-1.000000,0.762000,-1.000000,$1*%
G04 Aperture macros list end*
%TA.AperFunction,WasherPad*%
%ADD10C,4.500000*%
%TD*%
%TA.AperFunction,ComponentPad*%
%ADD11RotRect,1.800000X1.800000X150.000000*%
%TD*%
%TA.AperFunction,ComponentPad*%
%ADD12C,1.800000*%
%TD*%
%TA.AperFunction,ComponentPad*%
%ADD13RotRect,1.800000X1.800000X330.000000*%
%TD*%
%TA.AperFunction,ComponentPad*%
%ADD14O,2.750000X1.800000*%
%TD*%
%TA.AperFunction,ComponentPad*%
%ADD15C,1.500000*%
%TD*%
%TA.AperFunction,ComponentPad*%
%ADD16FreePoly0,0.000000*%
%TD*%
%TA.AperFunction,ComponentPad*%
%ADD17O,1.524000X2.000000*%
%TD*%
%TA.AperFunction,ComponentPad*%
%ADD18R,1.350000X1.350000*%
%TD*%
%TA.AperFunction,ComponentPad*%
%ADD19O,1.350000X1.350000*%
%TD*%
%TA.AperFunction,ViaPad*%
%ADD20C,0.600000*%
%TD*%
%TA.AperFunction,Conductor*%
%ADD21C,0.250000*%
%TD*%
%TA.AperFunction,Conductor*%
%ADD22C,0.200000*%
%TD*%
%ADD23C,0.300000*%
%ADD24C,0.350000*%
G04 APERTURE END LIST*
D10*
%TO.P,Ref\u002A\u002A,*%
%TO.N,*%
X169500000Y-58250000D03*
%TD*%
%TO.P,Ref\u002A\u002A,*%
%TO.N,*%
X189500000Y-115000000D03*
%TD*%
%TO.P,Ref\u002A\u002A,*%
%TO.N,*%
X142500000Y-114000000D03*
%TD*%
D11*
%TO.P,SW18,1,1_1*%
%TO.N,Col0*%
X220909705Y-118759155D03*
D12*
%TO.P,SW18,2,2_2*%
%TO.N,Net-(D18-A)*%
X216510295Y-116219155D03*
%TD*%
D13*
%TO.P,SW19,1,1_1*%
%TO.N,Col1*%
X199961451Y-144764969D03*
D12*
%TO.P,SW19,2,2_2*%
%TO.N,Net-(D19-A)*%
X204360861Y-147304969D03*
%TD*%
D10*
%TO.P,Ref\u002A\u002A,*%
%TO.N,*%
X112000000Y-58000000D03*
%TD*%
D14*
%TO.P,U1,1,P0.02_A0_D0_1*%
%TO.N,Row0*%
X189380000Y-60880000D03*
%TO.P,U1,2,P0.03_A1_D1_2*%
%TO.N,Row1*%
X189380000Y-63420000D03*
%TO.P,U1,3,P0.28_A2_D2_3*%
%TO.N,Row2*%
X189380000Y-65960000D03*
%TO.P,U1,4,P0.29_A3_D3_4*%
%TO.N,Row3*%
X189380000Y-68500000D03*
%TO.P,U1,5,P0.04_A4_D4_SDA_5*%
%TO.N,Col0*%
X189380000Y-71040000D03*
%TO.P,U1,6,P0.05_A5_D5_SCL_6*%
%TO.N,Col1*%
X189380000Y-73580000D03*
%TO.P,U1,7,P1.11_D6_TX_7*%
%TO.N,Col2*%
X189380000Y-76120000D03*
%TO.P,U1,8,P1.12_D7_RX_8*%
%TO.N,Col3*%
X205620000Y-76120000D03*
%TO.P,U1,9,P1.13_D8_SCK_9*%
%TO.N,Col4*%
X205620000Y-73580000D03*
%TO.P,U1,10,P1.14_D9_MISO_10*%
%TO.N,RotA*%
X205620000Y-71040000D03*
%TO.P,U1,11,P1.15_D10_MOSI_11*%
%TO.N,RotB*%
X205620000Y-68500000D03*
%TO.P,U1,12,3V3_12*%
%TO.N,3.3V*%
X205620000Y-65960000D03*
%TO.P,U1,13,GND_13*%
%TO.N,GND*%
X205620000Y-63420000D03*
%TO.P,U1,14,5V_14*%
%TO.N,unconnected-(U1-5V-Pad14)*%
X205620000Y-60880000D03*
D15*
%TO.P,U1,15,NFC1_0.09_15*%
%TO.N,Col5*%
X201335400Y-77812000D03*
%TO.P,U1,16,NFC2_0.10_16*%
%TO.N,unconnected-(U1-NFC2_0.10-Pad16)*%
X203215000Y-77812000D03*
D16*
%TO.P,U1,17,NFC3_0.16_17*%
%TO.N,SI*%
X200460000Y-82700000D03*
D17*
%TO.P,U1,18,NFC4_1.00_18*%
%TO.N,SCK*%
X203000000Y-82700000D03*
%TO.P,U1,19,NFC5_1.10_19*%
%TO.N,CS*%
X205540000Y-82700000D03*
D15*
%TO.P,U1,20,BATT+_20*%
%TO.N,VBAT_SW*%
X193055000Y-68183000D03*
%TO.P,U1,21,BATT-_21*%
%TO.N,GND*%
X193055000Y-66278000D03*
%TD*%
D18*
%TO.P,J2,1,Pin_1_1*%
%TO.N,GND*%
X192395000Y-95000000D03*
D19*
%TO.P,J2,2,Pin_2_2*%
%TO.N,3.3V*%
X194935000Y-95000000D03*
%TO.P,J2,3,Pin_3_3*%
%TO.N,SI*%
X197475000Y-95000000D03*
%TO.P,J2,4,Pin_4_4*%
%TO.N,SCK*%
X200015000Y-95000000D03*
%TO.P,J2,5,Pin_5_5*%
%TO.N,CS*%
X202555000Y-95000000D03*
%TD*%
D12*
%TO.P,SW25,A,A_A*%
%TO.N,RotA*%
X214056092Y-120432334D03*
%TO.P,SW25,B,B_B*%
%TO.N,RotB*%
X218386220Y-122932334D03*
%TO.P,SW25,C,C_C*%
%TO.N,GND*%
X216221156Y-121682334D03*
%TD*%
D10*
%TO.P,Ref\u002A\u002A,*%
%TO.N,*%
X94000000Y-115000000D03*
%TD*%
D20*
%TO.N,Col0*%
X186375000Y-108000000D03*
%TO.N,Row1*%
X168000000Y-81500000D03*
X134000000Y-76500000D03*
X150000000Y-79500000D03*
X116000000Y-77500000D03*
X170000000Y-81500000D03*
X96000000Y-87500000D03*
X114000000Y-77500000D03*
X152000000Y-79500000D03*
X132000000Y-76500000D03*
X80000000Y-83500000D03*
X98000000Y-87500000D03*
%TO.N,Row3*%
X189000000Y-133500000D03*
X168500000Y-117000000D03*
X200000000Y-116500000D03*
X149000000Y-115500000D03*
X188500000Y-125000000D03*
X170500000Y-117000000D03*
X186000000Y-125000000D03*
%TO.N,Row2*%
X116000000Y-94500000D03*
X80000000Y-100500000D03*
X152000000Y-96500000D03*
X134000000Y-93500000D03*
X98000000Y-104500000D03*
X114000000Y-94500000D03*
X168000000Y-98500000D03*
X150000000Y-96500000D03*
X96000000Y-104500000D03*
X132000000Y-93500000D03*
X170000000Y-98500000D03*
%TO.N,Col3*%
X188000000Y-107000000D03*
X188000000Y-109000000D03*
X187000000Y-112000000D03*
%TO.N,Net-(D18-A)*%
X204500000Y-117500000D03*
%TO.N,Col4*%
X202000000Y-62500000D03*
%TO.N,Row0*%
X132000000Y-59500000D03*
X114000000Y-60500000D03*
X134000000Y-59500000D03*
X168000000Y-64500000D03*
X98000000Y-70500000D03*
X170000000Y-64500000D03*
X150000000Y-62000000D03*
X116000000Y-60500000D03*
X152000000Y-62000000D03*
%TO.N,Col1*%
X182000000Y-76500000D03*
X163000000Y-108000000D03*
X180000000Y-76500000D03*
%TO.N,Col5*%
X93000000Y-93000000D03*
%TO.N,VBAT_SW*%
X193000000Y-80625000D03*
X199625000Y-92500000D03*
%TO.N,Net-(J1-Pin_1)*%
X200000000Y-90500000D03*
X197000000Y-80625000D03*
%TD*%
%TO.N,Col0*%
D21*
X220909705Y-118759155D02*
X204009155Y-118759155D01*
X193250000Y-108000000D02*
X186375000Y-108000000D01*
X204009155Y-118759155D02*
X193250000Y-108000000D01*
%TO.N,Row1*%
X149000000Y-76500000D02*
X150000000Y-77500000D01*
X116000000Y-77500000D02*
X131000000Y-77500000D01*
X113000000Y-87500000D02*
X114000000Y-86500000D01*
X170500000Y-72487006D02*
X170500000Y-65000000D01*
X134000000Y-76500000D02*
X149000000Y-76500000D01*
X171500000Y-80000000D02*
X171500000Y-73487006D01*
X174000000Y-61500000D02*
X185500000Y-61500000D01*
X80000000Y-83500000D02*
X92000000Y-83500000D01*
X131000000Y-77500000D02*
X132000000Y-76500000D01*
X170000000Y-81500000D02*
X171500000Y-80000000D01*
X187420000Y-63420000D02*
X189880000Y-63420000D01*
X114000000Y-86500000D02*
X114000000Y-77500000D01*
X152000000Y-79500000D02*
X166000000Y-79500000D01*
X92000000Y-83500000D02*
X96000000Y-87500000D01*
X98000000Y-87500000D02*
X113000000Y-87500000D01*
X171500000Y-73487006D02*
X170500000Y-72487006D01*
X189275000Y-64025000D02*
X189880000Y-63420000D01*
X185500000Y-61500000D02*
X187420000Y-63420000D01*
X170500000Y-65000000D02*
X174000000Y-61500000D01*
X150000000Y-77500000D02*
X150000000Y-79500000D01*
X166000000Y-79500000D02*
X168000000Y-81500000D01*
%TO.N,Row3*%
X186000000Y-125000000D02*
X178000000Y-117000000D01*
X168500000Y-117000000D02*
X167000000Y-115500000D01*
X167000000Y-115500000D02*
X149000000Y-115500000D01*
X189000000Y-133500000D02*
X189000000Y-126500000D01*
X178000000Y-117000000D02*
X170500000Y-117000000D01*
X178000000Y-117000000D02*
X185000000Y-110000000D01*
X189880000Y-68500000D02*
X186000000Y-68500000D01*
X185000000Y-69500000D02*
X185000000Y-110000000D01*
X194500000Y-122000000D02*
X200000000Y-116500000D01*
X188500000Y-125000000D02*
X189000000Y-125500000D01*
X192500000Y-122000000D02*
X194500000Y-122000000D01*
X189000000Y-125500000D02*
X192500000Y-122000000D01*
X186000000Y-68500000D02*
X185000000Y-69500000D01*
X189000000Y-125500000D02*
X189000000Y-126500000D01*
%TO.N,Row2*%
X116000000Y-94500000D02*
X131000000Y-94500000D01*
X186500000Y-65000000D02*
X175500000Y-65000000D01*
X92000000Y-100500000D02*
X96000000Y-104500000D01*
X98000000Y-104500000D02*
X113000000Y-104500000D01*
X174500000Y-66000000D02*
X174500000Y-78000000D01*
X175500000Y-65000000D02*
X174500000Y-66000000D01*
X113000000Y-104500000D02*
X114000000Y-103500000D01*
X152000000Y-96500000D02*
X166000000Y-96500000D01*
X134000000Y-93500000D02*
X149000000Y-93500000D01*
X131000000Y-94500000D02*
X132000000Y-93500000D01*
X168000000Y-98500000D02*
X166000000Y-96500000D01*
X114000000Y-103500000D02*
X114000000Y-94500000D01*
X187460000Y-65960000D02*
X186500000Y-65000000D01*
X149000000Y-93500000D02*
X150000000Y-94500000D01*
X170000000Y-82500000D02*
X170000000Y-98500000D01*
X80000000Y-100500000D02*
X92000000Y-100500000D01*
X189880000Y-65960000D02*
X187460000Y-65960000D01*
X174500000Y-78000000D02*
X170000000Y-82500000D01*
X150000000Y-94500000D02*
X150000000Y-96500000D01*
%TO.N,Col3*%
X205000000Y-79000000D02*
X205000000Y-76240000D01*
X188000000Y-107000000D02*
X188000000Y-81000000D01*
X204000000Y-80000000D02*
X205000000Y-79000000D01*
X189000000Y-80000000D02*
X204000000Y-80000000D01*
X205000000Y-76240000D02*
X205120000Y-76120000D01*
X188000000Y-111000000D02*
X188000000Y-109000000D01*
X187000000Y-112000000D02*
X188000000Y-111000000D01*
X188000000Y-81000000D02*
X189000000Y-80000000D01*
%TO.N,Net-(D18-A)*%
X216510295Y-116219155D02*
X215229450Y-117500000D01*
X215229450Y-117500000D02*
X204500000Y-117500000D01*
%TO.N,Col4*%
X202000000Y-70460000D02*
X202000000Y-62500000D01*
X205120000Y-73580000D02*
X202000000Y-70460000D01*
%TO.N,Row0*%
X150000000Y-60500000D02*
X150000000Y-62000000D01*
X113000000Y-70500000D02*
X114000000Y-69500000D01*
X173620000Y-60880000D02*
X189880000Y-60880000D01*
X114000000Y-69500000D02*
X114000000Y-60500000D01*
X165525000Y-62025000D02*
X168000000Y-64500000D01*
X134000000Y-59500000D02*
X149000000Y-59500000D01*
X152000000Y-62000000D02*
X152025000Y-62025000D01*
X170000000Y-64500000D02*
X173620000Y-60880000D01*
X131000000Y-60500000D02*
X132000000Y-59500000D01*
X149000000Y-59500000D02*
X150000000Y-60500000D01*
X116000000Y-60500000D02*
X131000000Y-60500000D01*
X98000000Y-70500000D02*
X113000000Y-70500000D01*
X152025000Y-62025000D02*
X165525000Y-62025000D01*
%TO.N,Col1*%
X199961451Y-144764969D02*
X199851433Y-144764969D01*
X199851433Y-144764969D02*
X197872337Y-143622337D01*
X177500000Y-118000000D02*
X170616116Y-118000000D01*
X163000000Y-110383884D02*
X163000000Y-108000000D01*
X180000000Y-76500000D02*
X182000000Y-76500000D01*
X187500000Y-133250000D02*
X187500000Y-128000000D01*
X187500000Y-128000000D02*
X177500000Y-118000000D01*
X197872337Y-143622337D02*
X187500000Y-133250000D01*
X170616116Y-118000000D02*
X163000000Y-110383884D01*
%TO.N,Col5*%
X169000000Y-71000000D02*
X169000000Y-64500000D01*
X174500000Y-59000000D02*
X200000000Y-59000000D01*
X148500000Y-74500000D02*
X165500000Y-74500000D01*
X97000000Y-87616116D02*
X100616116Y-84000000D01*
X200391518Y-72608482D02*
X200391518Y-77667015D01*
X201000000Y-60000000D02*
X201000000Y-72000000D01*
X169000000Y-64500000D02*
X174500000Y-59000000D01*
X97000000Y-92000000D02*
X97000000Y-87616116D01*
X113000000Y-83000000D02*
X113000000Y-75500000D01*
X112000000Y-84000000D02*
X113000000Y-83000000D01*
X200797185Y-78072682D02*
X201089456Y-78072682D01*
X200000000Y-59000000D02*
X201000000Y-60000000D01*
X96000000Y-93000000D02*
X97000000Y-92000000D01*
X165500000Y-74500000D02*
X169000000Y-71000000D01*
X100616116Y-84000000D02*
X112000000Y-84000000D01*
X93000000Y-93000000D02*
X96000000Y-93000000D01*
X145825000Y-73675000D02*
X147675000Y-73675000D01*
X147675000Y-73675000D02*
X148500000Y-74500000D01*
X200391518Y-77667015D02*
X200797185Y-78072682D01*
X145000000Y-74500000D02*
X145825000Y-73675000D01*
X113000000Y-75500000D02*
X114000000Y-74500000D01*
X201003953Y-78035093D02*
X201112307Y-78072682D01*
X201000000Y-72000000D02*
X200391518Y-72608482D01*
X200500000Y-78035093D02*
X201003953Y-78035093D01*
X114000000Y-74500000D02*
X145000000Y-74500000D01*
%TO.N,SI*%
X197475000Y-95000000D02*
X198429594Y-95000000D01*
X200625000Y-92804594D02*
X200625000Y-83165000D01*
X198429594Y-95000000D02*
X200625000Y-92804594D01*
X200625000Y-83165000D02*
X200460000Y-83000000D01*
%TO.N,SCK*%
X203000000Y-92015000D02*
X203000000Y-83000000D01*
X200015000Y-95000000D02*
X203000000Y-92015000D01*
%TO.N,CS*%
X204270000Y-93285000D02*
X204270000Y-84270000D01*
X202555000Y-95000000D02*
X204270000Y-93285000D01*
X204270000Y-84270000D02*
X205540000Y-83000000D01*
%TO.N,VBAT_SW*%
X199625000Y-92500000D02*
X194000000Y-92500000D01*
X194000000Y-92500000D02*
X193000000Y-91500000D01*
X193000000Y-91500000D02*
X193000000Y-80625000D01*
%TO.N,Net-(J1-Pin_1)*%
D22*
X200000000Y-90500000D02*
X197000000Y-87500000D01*
X197000000Y-80625000D02*
X197000000Y-87500000D01*
%TD*%
D23*
X186375000Y-108000000D03*
X168000000Y-81500000D03*
X134000000Y-76500000D03*
X150000000Y-79500000D03*
X116000000Y-77500000D03*
X170000000Y-81500000D03*
X96000000Y-87500000D03*
X114000000Y-77500000D03*
X152000000Y-79500000D03*
X132000000Y-76500000D03*
X80000000Y-83500000D03*
X98000000Y-87500000D03*
X189000000Y-133500000D03*
X168500000Y-117000000D03*
X200000000Y-116500000D03*
X149000000Y-115500000D03*
X188500000Y-125000000D03*
X170500000Y-117000000D03*
X186000000Y-125000000D03*
X116000000Y-94500000D03*
X80000000Y-100500000D03*
X152000000Y-96500000D03*
X134000000Y-93500000D03*
X98000000Y-104500000D03*
X114000000Y-94500000D03*
X168000000Y-98500000D03*
X150000000Y-96500000D03*
X96000000Y-104500000D03*
X132000000Y-93500000D03*
X170000000Y-98500000D03*
X188000000Y-107000000D03*
X188000000Y-109000000D03*
X187000000Y-112000000D03*
X204500000Y-117500000D03*
X202000000Y-62500000D03*
X132000000Y-59500000D03*
X114000000Y-60500000D03*
X134000000Y-59500000D03*
X168000000Y-64500000D03*
X98000000Y-70500000D03*
X170000000Y-64500000D03*
X150000000Y-62000000D03*
X116000000Y-60500000D03*
X152000000Y-62000000D03*
X182000000Y-76500000D03*
X163000000Y-108000000D03*
X180000000Y-76500000D03*
X93000000Y-93000000D03*
X193000000Y-80625000D03*
X199625000Y-92500000D03*
X200000000Y-90500000D03*
X197000000Y-80625000D03*
D24*
X183000000Y-85000000D03*
X182500000Y-79850000D03*
X177500000Y-90900000D03*
X177500000Y-85000000D03*
X172500000Y-88800000D03*
X172000000Y-85000000D03*
X169500000Y-58250000D03*
X129000000Y-98000000D03*
X128500000Y-92850000D03*
X123500000Y-103900000D03*
X123500000Y-98000000D03*
X118500000Y-101800000D03*
X118000000Y-98000000D03*
X189500000Y-115000000D03*
X111000000Y-108000000D03*
X110500000Y-102850000D03*
X105500000Y-113900000D03*
X105500000Y-108000000D03*
X100500000Y-111800000D03*
X100000000Y-108000000D03*
X165000000Y-66000000D03*
X164500000Y-60850000D03*
X159500000Y-71900000D03*
X159500000Y-66000000D03*
X154500000Y-69800000D03*
X154000000Y-66000000D03*
X142500000Y-114000000D03*
X220909705Y-118759155D03*
X216510295Y-116219155D03*
X147000000Y-63000000D03*
X146500000Y-57850000D03*
X141500000Y-68900000D03*
X141500000Y-63000000D03*
X136500000Y-66800000D03*
X136000000Y-63000000D03*
X93000000Y-104000000D03*
X92500000Y-98850000D03*
X87500000Y-109900000D03*
X87500000Y-104000000D03*
X82500000Y-107800000D03*
X82000000Y-104000000D03*
X199961451Y-144764969D03*
X204360861Y-147304969D03*
X147000000Y-80000000D03*
X146500000Y-74850000D03*
X141500000Y-85900000D03*
X141500000Y-80000000D03*
X136500000Y-83800000D03*
X136000000Y-80000000D03*
X93000000Y-87000000D03*
X92500000Y-81850000D03*
X87500000Y-92900000D03*
X87500000Y-87000000D03*
X82500000Y-90800000D03*
X82000000Y-87000000D03*
X129000000Y-64000000D03*
X128500000Y-58850000D03*
X123500000Y-69900000D03*
X123500000Y-64000000D03*
X118500000Y-67800000D03*
X118000000Y-64000000D03*
X112000000Y-58000000D03*
X165000000Y-83000000D03*
X164500000Y-77850000D03*
X159500000Y-88900000D03*
X159500000Y-83000000D03*
X154500000Y-86800000D03*
X154000000Y-83000000D03*
X199250000Y-121736860D03*
X194539969Y-119594873D03*
X201609550Y-129450000D03*
X196500000Y-126500000D03*
X197290897Y-132730127D03*
X193750000Y-131263140D03*
X181812592Y-124423505D03*
X182662547Y-119319577D03*
X174972968Y-128698962D03*
X176500000Y-123000000D03*
X170686858Y-125376423D03*
X171187408Y-121576495D03*
X147000000Y-97000000D03*
X146500000Y-91850000D03*
X141500000Y-102900000D03*
X141500000Y-97000000D03*
X136500000Y-100800000D03*
X136000000Y-97000000D03*
X129000000Y-81000000D03*
X128500000Y-75850000D03*
X123500000Y-86900000D03*
X123500000Y-81000000D03*
X118500000Y-84800000D03*
X118000000Y-81000000D03*
X165000000Y-100000000D03*
X164500000Y-94850000D03*
X159500000Y-105900000D03*
X159500000Y-100000000D03*
X154500000Y-103800000D03*
X154000000Y-100000000D03*
X111000000Y-74000000D03*
X110500000Y-68850000D03*
X105500000Y-79900000D03*
X105500000Y-74000000D03*
X100500000Y-77800000D03*
X100000000Y-74000000D03*
X111000000Y-91000000D03*
X110500000Y-85850000D03*
X105500000Y-96900000D03*
X105500000Y-91000000D03*
X100500000Y-94800000D03*
X100000000Y-91000000D03*
X189880000Y-60880000D03*
X189880000Y-63420000D03*
X189880000Y-65960000D03*
X189880000Y-68500000D03*
X189880000Y-71040000D03*
X189880000Y-73580000D03*
X189880000Y-76120000D03*
X205120000Y-76120000D03*
X205120000Y-73580000D03*
X205120000Y-71040000D03*
X205120000Y-68500000D03*
X205120000Y-65960000D03*
X205120000Y-63420000D03*
X205120000Y-60880000D03*
X201335400Y-77812000D03*
X203215000Y-77812000D03*
X200460000Y-83000000D03*
X203000000Y-83000000D03*
X205540000Y-83000000D03*
X193055000Y-68183000D03*
X193055000Y-66278000D03*
X192395000Y-95000000D03*
X194935000Y-95000000D03*
X197475000Y-95000000D03*
X200015000Y-95000000D03*
X202555000Y-95000000D03*
X214056092Y-120432334D03*
X218386220Y-122932334D03*
X216221156Y-121682334D03*
X162000000Y-119000000D03*
X161500000Y-113850000D03*
X156500000Y-124900000D03*
X156500000Y-119000000D03*
X151500000Y-122800000D03*
X151000000Y-119000000D03*
X94000000Y-115000000D03*
X183000000Y-102000000D03*
X182500000Y-96850000D03*
X177500000Y-107900000D03*
X177500000Y-102000000D03*
X172500000Y-105800000D03*
X172000000Y-102000000D03*
X183000000Y-68000000D03*
X182500000Y-62850000D03*
X177500000Y-73900000D03*
X177500000Y-68000000D03*
X172500000Y-71800000D03*
X172000000Y-68000000D03*
X206330000Y-88500000D03*
X206330000Y-91500000D03*
M02*
