M48
; DRILL file KiCad 10.0.1 date 2026-07-22T17:22:59
; FORMAT={-:-/ absolute / metric / decimal}
; #@! TF.CreationDate,2026-07-22T17:22:59+09:00
; #@! TF.GenerationSoftware,Kicad,Pcbnew,10.0.1
; #@! TF.FileFunction,NonPlated,1,2,NPTH
FMAT,2
METRIC
; #@! TA.AperFunction,NonPlated,NPTH,ComponentDrill
T1C0.900
; #@! TA.AperFunction,NonPlated,NPTH,ComponentDrill
T2C1.600
; #@! TA.AperFunction,NonPlated,NPTH,ComponentDrill
T3C1.900
; #@! TA.AperFunction,NonPlated,NPTH,ComponentDrill
T4C3.050
; #@! TA.AperFunction,NonPlated,NPTH,ComponentDrill
T5C4.300
; #@! TA.AperFunction,NonPlated,NPTH,ComponentDrill
T6C5.050
%
G90
G05
T1
X206.33Y-88.5
X206.33Y-91.5
T2
X92.5Y-81.85
X92.5Y-98.85
X110.5Y-68.85
X110.5Y-85.85
X110.5Y-102.85
X128.5Y-58.85
X128.5Y-75.85
X128.5Y-92.85
X146.5Y-57.85
X146.5Y-74.85
X146.5Y-91.85
X161.5Y-113.85
X164.5Y-60.85
X164.5Y-77.85
X164.5Y-94.85
X182.5Y-62.85
X182.5Y-79.85
X182.5Y-96.85
X182.663Y-119.32
X194.54Y-119.595
T3
X82.0Y-87.0
X82.0Y-104.0
X93.0Y-87.0
X93.0Y-104.0
X100.0Y-74.0
X100.0Y-91.0
X100.0Y-108.0
X111.0Y-74.0
X111.0Y-91.0
X111.0Y-108.0
X118.0Y-64.0
X118.0Y-81.0
X118.0Y-98.0
X129.0Y-64.0
X129.0Y-81.0
X129.0Y-98.0
X136.0Y-63.0
X136.0Y-80.0
X136.0Y-97.0
X147.0Y-63.0
X147.0Y-80.0
X147.0Y-97.0
X151.0Y-119.0
X154.0Y-66.0
X154.0Y-83.0
X154.0Y-100.0
X162.0Y-119.0
X165.0Y-66.0
X165.0Y-83.0
X165.0Y-100.0
X171.187Y-121.576
X172.0Y-68.0
X172.0Y-85.0
X172.0Y-102.0
X181.813Y-124.424
X183.0Y-68.0
X183.0Y-85.0
X183.0Y-102.0
X193.75Y-131.263
X199.25Y-121.737
T4
X82.5Y-90.8
X82.5Y-107.8
X87.5Y-92.9
X87.5Y-109.9
X100.5Y-77.8
X100.5Y-94.8
X100.5Y-111.8
X105.5Y-79.9
X105.5Y-96.9
X105.5Y-113.9
X118.5Y-67.8
X118.5Y-84.8
X118.5Y-101.8
X123.5Y-69.9
X123.5Y-86.9
X123.5Y-103.9
X136.5Y-66.8
X136.5Y-83.8
X136.5Y-100.8
X141.5Y-68.9
X141.5Y-85.9
X141.5Y-102.9
X151.5Y-122.8
X154.5Y-69.8
X154.5Y-86.8
X154.5Y-103.8
X156.5Y-124.9
X159.5Y-71.9
X159.5Y-88.9
X159.5Y-105.9
X170.687Y-125.376
X172.5Y-71.8
X172.5Y-88.8
X172.5Y-105.8
X174.973Y-128.699
X177.5Y-73.9
X177.5Y-90.9
X177.5Y-107.9
X197.291Y-132.73
X201.61Y-129.45
T5
X94.0Y-115.0
X112.0Y-58.0
X142.5Y-114.0
X169.5Y-58.25
X189.5Y-115.0
T6
X87.5Y-87.0
X87.5Y-104.0
X105.5Y-74.0
X105.5Y-91.0
X105.5Y-108.0
X123.5Y-64.0
X123.5Y-81.0
X123.5Y-98.0
X141.5Y-63.0
X141.5Y-80.0
X141.5Y-97.0
X156.5Y-119.0
X159.5Y-66.0
X159.5Y-83.0
X159.5Y-100.0
X176.5Y-123.0
X177.5Y-68.0
X177.5Y-85.0
X177.5Y-102.0
X196.5Y-126.5
M30
