%TF.GenerationSoftware,KiCad,Pcbnew,10.0.1*%
%TF.CreationDate,2026-07-22T17:22:58+09:00*%
%TF.ProjectId,reel-left,7265656c-2d6c-4656-9674-2e6b69636164,rev?*%
%TF.SameCoordinates,Original*%
%TF.FileFunction,Soldermask,Top*%
%TF.FilePolarity,Negative*%
%FSLAX46Y46*%
G04 Gerber Fmt 4.6, Leading zero omitted, Abs format (unit mm)*
G04 Created by KiCad (PCBNEW 10.0.1) date 2026-07-22 17:22:58*
%MOMM*%
%LPD*%
G01*
G04 APERTURE LIST*
G04 Aperture macros list*
%AMRotRect*
0 Rectangle, with rotation*
0 The origin of the aperture is its center*
0 $1 length*
0 $2 width*
0 $3 Rotation angle, in degrees counterclockwise*
0 Add horizontal line*
21,1,$1,$2,0,0,$3*%
%AMFreePoly0*
4,1,5,0.762000,-1.000000,-0.762000,-1.000000,-0.762000,1.000000,0.762000,1.000000,0.762000,-1.000000,0.762000,-1.000000,$1*%
G04 Aperture macros list end*
%ADD10C,1.900000*%
%ADD11C,1.600000*%
%ADD12C,3.050000*%
%ADD13C,5.050000*%
%ADD14C,4.500000*%
%ADD15RotRect,1.800000X1.800000X150.000000*%
%ADD16C,1.800000*%
%ADD17RotRect,1.800000X1.800000X330.000000*%
%ADD18O,2.750000X1.800000*%
%ADD19C,1.500000*%
%ADD20FreePoly0,0.000000*%
%ADD21O,1.524000X2.000000*%
%ADD22R,1.350000X1.350000*%
%ADD23O,1.350000X1.350000*%
%ADD24C,0.900000*%
%ADD25C,0.350000*%
G04 APERTURE END LIST*
D10*
%TO.C,SW6*%
X183000000Y-85000000D03*
D11*
X182500000Y-79850000D03*
D12*
X177500000Y-90900000D03*
D13*
X177500000Y-85000000D03*
D12*
X172500000Y-88800000D03*
D10*
X172000000Y-85000000D03*
%TD*%
D14*
%TO.C,Ref\u002A\u002A*%
X169500000Y-58250000D03*
%TD*%
D10*
%TO.C,SW15*%
X129000000Y-98000000D03*
D11*
X128500000Y-92850000D03*
D12*
X123500000Y-103900000D03*
D13*
X123500000Y-98000000D03*
D12*
X118500000Y-101800000D03*
D10*
X118000000Y-98000000D03*
%TD*%
D14*
%TO.C,Ref\u002A\u002A*%
X189500000Y-115000000D03*
%TD*%
D10*
%TO.C,SW16*%
X111000000Y-108000000D03*
D11*
X110500000Y-102850000D03*
D12*
X105500000Y-113900000D03*
D13*
X105500000Y-108000000D03*
D12*
X100500000Y-111800000D03*
D10*
X100000000Y-108000000D03*
%TD*%
%TO.C,SW2*%
X165000000Y-66000000D03*
D11*
X164500000Y-60850000D03*
D12*
X159500000Y-71900000D03*
D13*
X159500000Y-66000000D03*
D12*
X154500000Y-69800000D03*
D10*
X154000000Y-66000000D03*
%TD*%
D14*
%TO.C,Ref\u002A\u002A*%
X142500000Y-114000000D03*
%TD*%
D15*
%TO.C,SW18*%
X220909705Y-118759155D03*
D16*
X216510295Y-116219155D03*
%TD*%
D10*
%TO.C,SW3*%
X147000000Y-63000000D03*
D11*
X146500000Y-57850000D03*
D12*
X141500000Y-68900000D03*
D13*
X141500000Y-63000000D03*
D12*
X136500000Y-66800000D03*
D10*
X136000000Y-63000000D03*
%TD*%
%TO.C,SW17*%
X93000000Y-104000000D03*
D11*
X92500000Y-98850000D03*
D12*
X87500000Y-109900000D03*
D13*
X87500000Y-104000000D03*
D12*
X82500000Y-107800000D03*
D10*
X82000000Y-104000000D03*
%TD*%
D17*
%TO.C,SW19*%
X199961451Y-144764969D03*
D16*
X204360861Y-147304969D03*
%TD*%
D10*
%TO.C,SW8*%
X147000000Y-80000000D03*
D11*
X146500000Y-74850000D03*
D12*
X141500000Y-85900000D03*
D13*
X141500000Y-80000000D03*
D12*
X136500000Y-83800000D03*
D10*
X136000000Y-80000000D03*
%TD*%
%TO.C,SW11*%
X93000000Y-87000000D03*
D11*
X92500000Y-81850000D03*
D12*
X87500000Y-92900000D03*
D13*
X87500000Y-87000000D03*
D12*
X82500000Y-90800000D03*
D10*
X82000000Y-87000000D03*
%TD*%
%TO.C,SW4*%
X129000000Y-64000000D03*
D11*
X128500000Y-58850000D03*
D12*
X123500000Y-69900000D03*
D13*
X123500000Y-64000000D03*
D12*
X118500000Y-67800000D03*
D10*
X118000000Y-64000000D03*
%TD*%
D14*
%TO.C,Ref\u002A\u002A*%
X112000000Y-58000000D03*
%TD*%
D10*
%TO.C,SW7*%
X165000000Y-83000000D03*
D11*
X164500000Y-77850000D03*
D12*
X159500000Y-88900000D03*
D13*
X159500000Y-83000000D03*
D12*
X154500000Y-86800000D03*
D10*
X154000000Y-83000000D03*
%TD*%
%TO.C,SW20*%
X199250000Y-121736860D03*
D11*
X194539969Y-119594873D03*
D12*
X201609550Y-129450000D03*
D13*
X196500000Y-126500000D03*
D12*
X197290897Y-132730127D03*
D10*
X193750000Y-131263140D03*
%TD*%
%TO.C,SW21*%
X181812592Y-124423505D03*
D11*
X182662547Y-119319577D03*
D12*
X174972968Y-128698962D03*
D13*
X176500000Y-123000000D03*
D12*
X170686858Y-125376423D03*
D10*
X171187408Y-121576495D03*
%TD*%
%TO.C,SW14*%
X147000000Y-97000000D03*
D11*
X146500000Y-91850000D03*
D12*
X141500000Y-102900000D03*
D13*
X141500000Y-97000000D03*
D12*
X136500000Y-100800000D03*
D10*
X136000000Y-97000000D03*
%TD*%
%TO.C,SW9*%
X129000000Y-81000000D03*
D11*
X128500000Y-75850000D03*
D12*
X123500000Y-86900000D03*
D13*
X123500000Y-81000000D03*
D12*
X118500000Y-84800000D03*
D10*
X118000000Y-81000000D03*
%TD*%
%TO.C,SW13*%
X165000000Y-100000000D03*
D11*
X164500000Y-94850000D03*
D12*
X159500000Y-105900000D03*
D13*
X159500000Y-100000000D03*
D12*
X154500000Y-103800000D03*
D10*
X154000000Y-100000000D03*
%TD*%
%TO.C,SW5*%
X111000000Y-74000000D03*
D11*
X110500000Y-68850000D03*
D12*
X105500000Y-79900000D03*
D13*
X105500000Y-74000000D03*
D12*
X100500000Y-77800000D03*
D10*
X100000000Y-74000000D03*
%TD*%
%TO.C,SW10*%
X111000000Y-91000000D03*
D11*
X110500000Y-85850000D03*
D12*
X105500000Y-96900000D03*
D13*
X105500000Y-91000000D03*
D12*
X100500000Y-94800000D03*
D10*
X100000000Y-91000000D03*
%TD*%
D18*
%TO.C,U1*%
X189380000Y-60880000D03*
X189380000Y-63420000D03*
X189380000Y-65960000D03*
X189380000Y-68500000D03*
X189380000Y-71040000D03*
X189380000Y-73580000D03*
X189380000Y-76120000D03*
X205620000Y-76120000D03*
X205620000Y-73580000D03*
X205620000Y-71040000D03*
X205620000Y-68500000D03*
X205620000Y-65960000D03*
X205620000Y-63420000D03*
X205620000Y-60880000D03*
D19*
X201335400Y-77812000D03*
X203215000Y-77812000D03*
D20*
X200460000Y-82700000D03*
D21*
X203000000Y-82700000D03*
X205540000Y-82700000D03*
D19*
X193055000Y-68183000D03*
X193055000Y-66278000D03*
%TD*%
D22*
%TO.C,J2*%
X192395000Y-95000000D03*
D23*
X194935000Y-95000000D03*
X197475000Y-95000000D03*
X200015000Y-95000000D03*
X202555000Y-95000000D03*
%TD*%
D16*
%TO.C,SW25*%
X214056092Y-120432334D03*
X218386220Y-122932334D03*
X216221156Y-121682334D03*
%TD*%
D10*
%TO.C,SW22*%
X162000000Y-119000000D03*
D11*
X161500000Y-113850000D03*
D12*
X156500000Y-124900000D03*
D13*
X156500000Y-119000000D03*
D12*
X151500000Y-122800000D03*
D10*
X151000000Y-119000000D03*
%TD*%
D14*
%TO.C,Ref\u002A\u002A*%
X94000000Y-115000000D03*
%TD*%
D10*
%TO.C,SW12*%
X183000000Y-102000000D03*
D11*
X182500000Y-96850000D03*
D12*
X177500000Y-107900000D03*
D13*
X177500000Y-102000000D03*
D12*
X172500000Y-105800000D03*
D10*
X172000000Y-102000000D03*
%TD*%
%TO.C,SW1*%
X183000000Y-68000000D03*
D11*
X182500000Y-62850000D03*
D12*
X177500000Y-73900000D03*
D13*
X177500000Y-68000000D03*
D12*
X172500000Y-71800000D03*
D10*
X172000000Y-68000000D03*
%TD*%
D24*
%TO.C,SW24*%
X206330000Y-88500000D03*
X206330000Y-91500000D03*
%TD*%
D25*
X183000000Y-85000000D03*
X182500000Y-79850000D03*
X177500000Y-90900000D03*
X177500000Y-85000000D03*
X172500000Y-88800000D03*
X172000000Y-85000000D03*
X169500000Y-58250000D03*
X129000000Y-98000000D03*
X128500000Y-92850000D03*
X123500000Y-103900000D03*
X123500000Y-98000000D03*
X118500000Y-101800000D03*
X118000000Y-98000000D03*
X189500000Y-115000000D03*
X111000000Y-108000000D03*
X110500000Y-102850000D03*
X105500000Y-113900000D03*
X105500000Y-108000000D03*
X100500000Y-111800000D03*
X100000000Y-108000000D03*
X165000000Y-66000000D03*
X164500000Y-60850000D03*
X159500000Y-71900000D03*
X159500000Y-66000000D03*
X154500000Y-69800000D03*
X154000000Y-66000000D03*
X142500000Y-114000000D03*
X220909705Y-118759155D03*
X216510295Y-116219155D03*
X147000000Y-63000000D03*
X146500000Y-57850000D03*
X141500000Y-68900000D03*
X141500000Y-63000000D03*
X136500000Y-66800000D03*
X136000000Y-63000000D03*
X93000000Y-104000000D03*
X92500000Y-98850000D03*
X87500000Y-109900000D03*
X87500000Y-104000000D03*
X82500000Y-107800000D03*
X82000000Y-104000000D03*
X199961451Y-144764969D03*
X204360861Y-147304969D03*
X147000000Y-80000000D03*
X146500000Y-74850000D03*
X141500000Y-85900000D03*
X141500000Y-80000000D03*
X136500000Y-83800000D03*
X136000000Y-80000000D03*
X93000000Y-87000000D03*
X92500000Y-81850000D03*
X87500000Y-92900000D03*
X87500000Y-87000000D03*
X82500000Y-90800000D03*
X82000000Y-87000000D03*
X129000000Y-64000000D03*
X128500000Y-58850000D03*
X123500000Y-69900000D03*
X123500000Y-64000000D03*
X118500000Y-67800000D03*
X118000000Y-64000000D03*
X112000000Y-58000000D03*
X165000000Y-83000000D03*
X164500000Y-77850000D03*
X159500000Y-88900000D03*
X159500000Y-83000000D03*
X154500000Y-86800000D03*
X154000000Y-83000000D03*
X199250000Y-121736860D03*
X194539969Y-119594873D03*
X201609550Y-129450000D03*
X196500000Y-126500000D03*
X197290897Y-132730127D03*
X193750000Y-131263140D03*
X181812592Y-124423505D03*
X182662547Y-119319577D03*
X174972968Y-128698962D03*
X176500000Y-123000000D03*
X170686858Y-125376423D03*
X171187408Y-121576495D03*
X147000000Y-97000000D03*
X146500000Y-91850000D03*
X141500000Y-102900000D03*
X141500000Y-97000000D03*
X136500000Y-100800000D03*
X136000000Y-97000000D03*
X129000000Y-81000000D03*
X128500000Y-75850000D03*
X123500000Y-86900000D03*
X123500000Y-81000000D03*
X118500000Y-84800000D03*
X118000000Y-81000000D03*
X165000000Y-100000000D03*
X164500000Y-94850000D03*
X159500000Y-105900000D03*
X159500000Y-100000000D03*
X154500000Y-103800000D03*
X154000000Y-100000000D03*
X111000000Y-74000000D03*
X110500000Y-68850000D03*
X105500000Y-79900000D03*
X105500000Y-74000000D03*
X100500000Y-77800000D03*
X100000000Y-74000000D03*
X111000000Y-91000000D03*
X110500000Y-85850000D03*
X105500000Y-96900000D03*
X105500000Y-91000000D03*
X100500000Y-94800000D03*
X100000000Y-91000000D03*
X189880000Y-60880000D03*
X189880000Y-63420000D03*
X189880000Y-65960000D03*
X189880000Y-68500000D03*
X189880000Y-71040000D03*
X189880000Y-73580000D03*
X189880000Y-76120000D03*
X205120000Y-76120000D03*
X205120000Y-73580000D03*
X205120000Y-71040000D03*
X205120000Y-68500000D03*
X205120000Y-65960000D03*
X205120000Y-63420000D03*
X205120000Y-60880000D03*
X201335400Y-77812000D03*
X203215000Y-77812000D03*
X200460000Y-83000000D03*
X203000000Y-83000000D03*
X205540000Y-83000000D03*
X193055000Y-68183000D03*
X193055000Y-66278000D03*
X192395000Y-95000000D03*
X194935000Y-95000000D03*
X197475000Y-95000000D03*
X200015000Y-95000000D03*
X202555000Y-95000000D03*
X214056092Y-120432334D03*
X218386220Y-122932334D03*
X216221156Y-121682334D03*
X162000000Y-119000000D03*
X161500000Y-113850000D03*
X156500000Y-124900000D03*
X156500000Y-119000000D03*
X151500000Y-122800000D03*
X151000000Y-119000000D03*
X94000000Y-115000000D03*
X183000000Y-102000000D03*
X182500000Y-96850000D03*
X177500000Y-107900000D03*
X177500000Y-102000000D03*
X172500000Y-105800000D03*
X172000000Y-102000000D03*
X183000000Y-68000000D03*
X182500000Y-62850000D03*
X177500000Y-73900000D03*
X177500000Y-68000000D03*
X172500000Y-71800000D03*
X172000000Y-68000000D03*
X206330000Y-88500000D03*
X206330000Y-91500000D03*
M02*
