%TF.GenerationSoftware,KiCad,Pcbnew,10.0.1*%
%TF.CreationDate,2026-08-10T19:32:32+09:00*%
%TF.ProjectId,reel-left,7265656c-2d6c-4656-9674-2e6b69636164,rev?*%
%TF.SameCoordinates,Original*%
%TF.FileFunction,Copper,L2,Bot*%
%TF.FilePolarity,Positive*%
%FSLAX46Y46*%
G04 Gerber Fmt 4.6, Leading zero omitted, Abs format (unit mm)*
G04 Created by KiCad (PCBNEW 10.0.1) date 2026-08-10 19:32:32*
%MOMM*%
%LPD*%
G01*
G04 APERTURE LIST*
G04 Aperture macros list*
%AMRoundRect*
0 Rectangle with rounded corners*
0 $1 Rounding radius*
0 $2 $3 $4 $5 $6 $7 $8 $9 X,Y pos of 4 corners*
0 Add a 4 corners polygon primitive as box body*
4,1,4,$2,$3,$4,$5,$6,$7,$8,$9,$2,$3,0*
0 Add four circle primitives for the rounded corners*
1,1,$1+$1,$2,$3*
1,1,$1+$1,$4,$5*
1,1,$1+$1,$6,$7*
1,1,$1+$1,$8,$9*
0 Add four rect primitives between the rounded corners*
20,1,$1+$1,$2,$3,$4,$5,0*
20,1,$1+$1,$4,$5,$6,$7,0*
20,1,$1+$1,$6,$7,$8,$9,0*
20,1,$1+$1,$8,$9,$2,$3,0*%
%AMRotRect*
0 Rectangle, with rotation*
0 The origin of the aperture is its center*
0 $1 length*
0 $2 width*
0 $3 Rotation angle, in degrees counterclockwise*
0 Add horizontal line*
21,1,$1,$2,0,0,$3*%
%AMFreePoly0*
4,1,5,0.762000,-1.000000,-0.762000,-1.000000,-0.762000,1.000000,0.762000,1.000000,0.762000,-1.000000,0.762000,-1.000000,$1*%
G04 Aperture macros list end*
%TA.AperFunction,SMDPad,CuDef*%
%ADD10RoundRect,0.250000X1.025000X1.000000X-1.025000X1.000000X-1.025000X-1.000000X1.025000X-1.000000X0*%
%TD*%
%TA.AperFunction,SMDPad,CuDef*%
%ADD11R,0.950000X1.200000*%
%TD*%
%TA.AperFunction,WasherPad*%
%ADD12C,4.500000*%
%TD*%
%TA.AperFunction,SMDPad,CuDef*%
%ADD13RotRect,1.200000X0.950000X330.000000*%
%TD*%
%TA.AperFunction,ComponentPad*%
%ADD14RotRect,1.800000X1.800000X150.000000*%
%TD*%
%TA.AperFunction,ComponentPad*%
%ADD15C,1.800000*%
%TD*%
%TA.AperFunction,ComponentPad*%
%ADD16RotRect,1.800000X1.800000X330.000000*%
%TD*%
%TA.AperFunction,SMDPad,CuDef*%
%ADD17RoundRect,0.250000X-0.353525X1.387676X-1.378525X-0.387676X0.353525X-1.387676X1.378525X0.387676X0*%
%TD*%
%TA.AperFunction,SMDPad,CuDef*%
%ADD18RoundRect,0.250000X1.248893X0.700636X-0.731255X1.231215X-1.248893X-0.700636X0.731255X-1.231215X0*%
%TD*%
%TA.AperFunction,SMDPad,CuDef*%
%ADD19RotRect,1.200000X0.950000X255.000000*%
%TD*%
%TA.AperFunction,SMDPad,CuDef*%
%ADD20RotRect,1.200000X0.950000X240.000000*%
%TD*%
%TA.AperFunction,ComponentPad*%
%ADD21O,2.750000X1.800000*%
%TD*%
%TA.AperFunction,ComponentPad*%
%ADD22C,1.500000*%
%TD*%
%TA.AperFunction,ComponentPad*%
%ADD23FreePoly0,0.000000*%
%TD*%
%TA.AperFunction,ComponentPad*%
%ADD24O,1.524000X2.000000*%
%TD*%
%TA.AperFunction,ComponentPad*%
%ADD25C,1.350000*%
%TD*%
%TA.AperFunction,ComponentPad*%
%ADD26O,1.350000X1.350000*%
%TD*%
%TA.AperFunction,ComponentPad*%
%ADD27R,1.350000X1.350000*%
%TD*%
%TA.AperFunction,SMDPad,CuDef*%
%ADD28R,0.800000X1.000000*%
%TD*%
%TA.AperFunction,SMDPad,CuDef*%
%ADD29R,1.500000X0.700000*%
%TD*%
%TA.AperFunction,ComponentPad*%
%ADD30RoundRect,0.250000X0.350000X0.625000X-0.350000X0.625000X-0.350000X-0.625000X0.350000X-0.625000X0*%
%TD*%
%TA.AperFunction,ComponentPad*%
%ADD31O,1.200000X1.750000*%
%TD*%
%TA.AperFunction,ViaPad*%
%ADD32C,0.600000*%
%TD*%
%TA.AperFunction,Conductor*%
%ADD33C,0.250000*%
%TD*%
%TA.AperFunction,Conductor*%
%ADD34C,0.500000*%
%TD*%
%ADD35C,0.300000*%
%ADD36C,0.350000*%
G04 APERTURE END LIST*
D10*
%TO.P,SW6,1,1_1*%
%TO.N,Col0*%
X182000000Y-91000000D03*
%TO.P,SW6,2,2_2*%
%TO.N,Net-(D6-A)*%
X170000000Y-88800000D03*
%TD*%
D11*
%TO.P,D9,1,K_1*%
%TO.N,Row1*%
X113000000Y-77553125D03*
%TO.P,D9,2,A_2*%
%TO.N,Net-(D9-A)*%
X113000000Y-81003125D03*
%TD*%
D12*
%TO.P,Ref\u002A\u002A,*%
%TO.N,*%
X169000000Y-74500000D03*
%TD*%
D13*
%TO.P,D19,1,K_1*%
%TO.N,Row3*%
X189208566Y-137170101D03*
%TO.P,D19,2,A_2*%
%TO.N,Net-(D19-A)*%
X192196353Y-138895101D03*
%TD*%
D11*
%TO.P,D15,1,K_1*%
%TO.N,Row2*%
X113000000Y-96553125D03*
%TO.P,D15,2,A_2*%
%TO.N,Net-(D15-A)*%
X113000000Y-100003125D03*
%TD*%
D10*
%TO.P,SW15,1,1_1*%
%TO.N,Col3*%
X125000000Y-106000000D03*
%TO.P,SW15,2,2_2*%
%TO.N,Net-(D15-A)*%
X113000000Y-103800000D03*
%TD*%
D13*
%TO.P,D18,1,K_1*%
%TO.N,Row3*%
X200208566Y-117170101D03*
%TO.P,D18,2,A_2*%
%TO.N,Net-(D18-A)*%
X203196353Y-118895101D03*
%TD*%
D12*
%TO.P,Ref\u002A\u002A,*%
%TO.N,*%
X189500000Y-117000000D03*
%TD*%
D10*
%TO.P,SW16,1,1_1*%
%TO.N,Col4*%
X106000000Y-116000000D03*
%TO.P,SW16,2,2_2*%
%TO.N,Net-(D16-A)*%
X94000000Y-113800000D03*
%TD*%
D11*
%TO.P,D4,1,K_1*%
%TO.N,Row0*%
X113000000Y-58553125D03*
%TO.P,D4,2,A_2*%
%TO.N,Net-(D4-A)*%
X113000000Y-62003125D03*
%TD*%
D10*
%TO.P,SW2,1,1_1*%
%TO.N,Col1*%
X163000000Y-70000000D03*
%TO.P,SW2,2,2_2*%
%TO.N,Net-(D2-A)*%
X151000000Y-67800000D03*
%TD*%
D11*
%TO.P,D2,1,K_1*%
%TO.N,Row0*%
X151000000Y-60553125D03*
%TO.P,D2,2,A_2*%
%TO.N,Net-(D2-A)*%
X151000000Y-64003125D03*
%TD*%
%TO.P,D8,1,K_1*%
%TO.N,Row1*%
X132000000Y-76553125D03*
%TO.P,D8,2,A_2*%
%TO.N,Net-(D8-A)*%
X132000000Y-80003125D03*
%TD*%
D12*
%TO.P,Ref\u002A\u002A,*%
%TO.N,*%
X140500000Y-115000000D03*
%TD*%
D11*
%TO.P,D14,1,K_1*%
%TO.N,Row2*%
X132000000Y-95553125D03*
%TO.P,D14,2,A_2*%
%TO.N,Net-(D14-A)*%
X132000000Y-99003125D03*
%TD*%
%TO.P,D12,1,K_1*%
%TO.N,Row2*%
X170000000Y-100553125D03*
%TO.P,D12,2,A_2*%
%TO.N,Net-(D12-A)*%
X170000000Y-104003125D03*
%TD*%
D14*
%TO.P,SW18,1,1_1*%
%TO.N,Col0*%
X221636946Y-121159155D03*
D15*
%TO.P,SW18,2,2_2*%
%TO.N,Net-(D18-A)*%
X217237536Y-118619155D03*
%TD*%
D10*
%TO.P,SW3,1,1_1*%
%TO.N,Col2*%
X144000000Y-67000000D03*
%TO.P,SW3,2,2_2*%
%TO.N,Net-(D3-A)*%
X132000000Y-64800000D03*
%TD*%
D11*
%TO.P,D3,1,K_1*%
%TO.N,Row0*%
X132000000Y-57553125D03*
%TO.P,D3,2,A_2*%
%TO.N,Net-(D3-A)*%
X132000000Y-61003125D03*
%TD*%
D10*
%TO.P,SW17,1,1_1*%
%TO.N,Col5*%
X87000000Y-111000000D03*
%TO.P,SW17,2,2_2*%
%TO.N,Net-(D17-A)*%
X75000000Y-108800000D03*
%TD*%
D16*
%TO.P,SW19,1,1_1*%
%TO.N,Col1*%
X200688692Y-147164969D03*
D15*
%TO.P,SW19,2,2_2*%
%TO.N,Net-(D19-A)*%
X205088102Y-149704969D03*
%TD*%
D11*
%TO.P,D13,1,K_1*%
%TO.N,Row2*%
X151000000Y-98553125D03*
%TO.P,D13,2,A_2*%
%TO.N,Net-(D13-A)*%
X151000000Y-102003125D03*
%TD*%
D10*
%TO.P,SW8,1,1_1*%
%TO.N,Col2*%
X144000000Y-86000000D03*
%TO.P,SW8,2,2_2*%
%TO.N,Net-(D8-A)*%
X132000000Y-83800000D03*
%TD*%
D11*
%TO.P,D7,1,K_1*%
%TO.N,Row1*%
X151000000Y-79553125D03*
%TO.P,D7,2,A_2*%
%TO.N,Net-(D7-A)*%
X151000000Y-83003125D03*
%TD*%
D10*
%TO.P,SW11,1,1_1*%
%TO.N,Col5*%
X87000000Y-92000000D03*
%TO.P,SW11,2,2_2*%
%TO.N,Net-(D11-A)*%
X75000000Y-89800000D03*
%TD*%
D11*
%TO.P,D10,1,K_1*%
%TO.N,Row1*%
X94000000Y-87553125D03*
%TO.P,D10,2,A_2*%
%TO.N,Net-(D10-A)*%
X94000000Y-91003125D03*
%TD*%
%TO.P,D22,1,K_1*%
%TO.N,Row3*%
X148000000Y-117553125D03*
%TO.P,D22,2,A_2*%
%TO.N,Net-(D22-A)*%
X148000000Y-121003125D03*
%TD*%
D10*
%TO.P,SW4,1,1_1*%
%TO.N,Col3*%
X125000000Y-68000000D03*
%TO.P,SW4,2,2_2*%
%TO.N,Net-(D4-A)*%
X113000000Y-65800000D03*
%TD*%
D12*
%TO.P,Ref\u002A\u002A,*%
%TO.N,*%
X112500000Y-71500000D03*
%TD*%
D10*
%TO.P,SW7,1,1_1*%
%TO.N,Col1*%
X163000000Y-89000000D03*
%TO.P,SW7,2,2_2*%
%TO.N,Net-(D7-A)*%
X151000000Y-86800000D03*
%TD*%
D17*
%TO.P,SW20,1,1_1*%
%TO.N,Col2*%
X203446152Y-128468911D03*
%TO.P,SW20,2,2_2*%
%TO.N,Net-(D20-A)*%
X195540897Y-137761216D03*
%TD*%
D18*
%TO.P,SW21,1,1_1*%
%TO.N,Col3*%
X178327826Y-131701422D03*
%TO.P,SW21,2,2_2*%
%TO.N,Net-(D21-A)*%
X167306118Y-126470556D03*
%TD*%
D10*
%TO.P,SW14,1,1_1*%
%TO.N,Col2*%
X144000000Y-105000000D03*
%TO.P,SW14,2,2_2*%
%TO.N,Net-(D14-A)*%
X132000000Y-102800000D03*
%TD*%
D19*
%TO.P,D21,1,K_1*%
%TO.N,Row3*%
X169446463Y-119116151D03*
%TO.P,D21,2,A_2*%
%TO.N,Net-(D21-A)*%
X168553538Y-122448595D03*
%TD*%
D11*
%TO.P,D6,1,K_1*%
%TO.N,Row1*%
X170000000Y-81553125D03*
%TO.P,D6,2,A_2*%
%TO.N,Net-(D6-A)*%
X170000000Y-85003125D03*
%TD*%
D10*
%TO.P,SW9,1,1_1*%
%TO.N,Col3*%
X125000000Y-87000000D03*
%TO.P,SW9,2,2_2*%
%TO.N,Net-(D9-A)*%
X113000000Y-84800000D03*
%TD*%
%TO.P,SW13,1,1_1*%
%TO.N,Col1*%
X163000000Y-108000000D03*
%TO.P,SW13,2,2_2*%
%TO.N,Net-(D13-A)*%
X151000000Y-105800000D03*
%TD*%
D11*
%TO.P,D17,1,K_1*%
%TO.N,Row2*%
X75000000Y-101553125D03*
%TO.P,D17,2,A_2*%
%TO.N,Net-(D17-A)*%
X75000000Y-105003125D03*
%TD*%
D10*
%TO.P,SW5,1,1_1*%
%TO.N,Col4*%
X106000000Y-78000000D03*
%TO.P,SW5,2,2_2*%
%TO.N,Net-(D5-A)*%
X94000000Y-75800000D03*
%TD*%
D11*
%TO.P,D1,1,K_1*%
%TO.N,Row0*%
X170000000Y-62553125D03*
%TO.P,D1,2,A_2*%
%TO.N,Net-(D1-A)*%
X170000000Y-66003125D03*
%TD*%
%TO.P,D5,1,K_1*%
%TO.N,Row0*%
X94000000Y-68553125D03*
%TO.P,D5,2,A_2*%
%TO.N,Net-(D5-A)*%
X94000000Y-72003125D03*
%TD*%
D10*
%TO.P,SW10,1,1_1*%
%TO.N,Col4*%
X106000000Y-97000000D03*
%TO.P,SW10,2,2_2*%
%TO.N,Net-(D10-A)*%
X94000000Y-94800000D03*
%TD*%
D20*
%TO.P,D20,1,K_1*%
%TO.N,Row3*%
X187329900Y-127208565D03*
%TO.P,D20,2,A_2*%
%TO.N,Net-(D20-A)*%
X185604900Y-130196354D03*
%TD*%
D21*
%TO.P,U1,1,P0.02_A0_D0_1*%
%TO.N,Row0*%
X190380000Y-58880000D03*
%TO.P,U1,2,P0.03_A1_D1_2*%
%TO.N,Row1*%
X190380000Y-61420000D03*
%TO.P,U1,3,P0.28_A2_D2_3*%
%TO.N,Row2*%
X190380000Y-63960000D03*
%TO.P,U1,4,P0.29_A3_D3_4*%
%TO.N,Row3*%
X190380000Y-66500000D03*
%TO.P,U1,5,P0.04_A4_D4_SDA_5*%
%TO.N,Col0*%
X190380000Y-69040000D03*
%TO.P,U1,6,P0.05_A5_D5_SCL_6*%
%TO.N,Col1*%
X190380000Y-71580000D03*
%TO.P,U1,7,P1.11_D6_TX_7*%
%TO.N,Col2*%
X190380000Y-74120000D03*
%TO.P,U1,8,P1.12_D7_RX_8*%
%TO.N,Col3*%
X206620000Y-74120000D03*
%TO.P,U1,9,P1.13_D8_SCK_9*%
%TO.N,Col4*%
X206620000Y-71580000D03*
%TO.P,U1,10,P1.14_D9_MISO_10*%
%TO.N,RotA*%
X206620000Y-69040000D03*
%TO.P,U1,11,P1.15_D10_MOSI_11*%
%TO.N,RotB*%
X206620000Y-66500000D03*
%TO.P,U1,12,3V3_12*%
%TO.N,3.3V*%
X206620000Y-63960000D03*
%TO.P,U1,13,GND_13*%
%TO.N,GND*%
X206620000Y-61420000D03*
%TO.P,U1,14,5V_14*%
%TO.N,unconnected-(U1-5V-Pad14)*%
X206620000Y-58880000D03*
D22*
%TO.P,U1,15,NFC1_0.09_15*%
%TO.N,Col5*%
X202335400Y-75812000D03*
%TO.P,U1,16,NFC2_0.10_16*%
%TO.N,unconnected-(U1-NFC2_0.10-Pad16)*%
X204215000Y-75812000D03*
D23*
%TO.P,U1,17,NFC3_0.16_17*%
%TO.N,SI*%
X201460000Y-80700000D03*
D24*
%TO.P,U1,18,NFC4_1.00_18*%
%TO.N,SCK*%
X204000000Y-80700000D03*
%TO.P,U1,19,NFC5_1.10_19*%
%TO.N,CS*%
X206540000Y-80700000D03*
D22*
%TO.P,U1,20,BATT+_20*%
%TO.N,VBAT_SW*%
X194055000Y-66183000D03*
%TO.P,U1,21,BATT-_21*%
%TO.N,GND*%
X194055000Y-64278000D03*
%TD*%
D25*
%TO.P,J2,1,Pin_1_1*%
%TO.N,SI*%
X193395000Y-111000000D03*
D26*
%TO.P,J2,2,Pin_2_2*%
%TO.N,SCK*%
X195935000Y-111000000D03*
%TO.P,J2,3,Pin_3_3*%
%TO.N,3.3V*%
X198475000Y-111000000D03*
%TO.P,J2,4,Pin_4_4*%
%TO.N,GND*%
X201015000Y-111000000D03*
D27*
%TO.P,J2,5,Pin_5_5*%
%TO.N,CS*%
X203555000Y-111000000D03*
%TD*%
D15*
%TO.P,SW25,A,A_A*%
%TO.N,RotA*%
X214783333Y-122832334D03*
%TO.P,SW25,B,B_B*%
%TO.N,RotB*%
X219113461Y-125332334D03*
%TO.P,SW25,C,C_C*%
%TO.N,GND*%
X216948397Y-124082334D03*
%TD*%
D10*
%TO.P,SW22,1,1_1*%
%TO.N,Col4*%
X160000000Y-127000000D03*
%TO.P,SW22,2,2_2*%
%TO.N,Net-(D22-A)*%
X148000000Y-124800000D03*
%TD*%
D11*
%TO.P,D16,1,K_1*%
%TO.N,Row2*%
X94000000Y-106553125D03*
%TO.P,D16,2,A_2*%
%TO.N,Net-(D16-A)*%
X94000000Y-110003125D03*
%TD*%
%TO.P,D11,1,K_1*%
%TO.N,Row1*%
X75000000Y-82553125D03*
%TO.P,D11,2,A_2*%
%TO.N,Net-(D11-A)*%
X75000000Y-86003125D03*
%TD*%
D12*
%TO.P,Ref\u002A\u002A,*%
%TO.N,*%
X93500000Y-100500000D03*
%TD*%
D10*
%TO.P,SW12,1,1_1*%
%TO.N,Col0*%
X182000000Y-110000000D03*
%TO.P,SW12,2,2_2*%
%TO.N,Net-(D12-A)*%
X170000000Y-107800000D03*
%TD*%
%TO.P,SW1,1,1_1*%
%TO.N,Col0*%
X182000000Y-72000000D03*
%TO.P,SW1,2,2_2*%
%TO.N,Net-(D1-A)*%
X170000000Y-69800000D03*
%TD*%
D28*
%TO.P,SW24,*%
%TO.N,*%
X208430000Y-86350000D03*
X206220000Y-86350000D03*
X208430000Y-93650000D03*
X206220000Y-93650000D03*
D29*
%TO.P,SW24,1,A_1*%
%TO.N,unconnected-(SW24-A-Pad1)*%
X205570000Y-87750000D03*
%TO.P,SW24,2,B_2*%
%TO.N,Net-(J1-Pin_1)*%
X205570000Y-90750000D03*
%TO.P,SW24,3,C_3*%
%TO.N,VBAT_SW*%
X205570000Y-92250000D03*
%TD*%
D30*
%TO.P,J1,1,Pin_1_1*%
%TO.N,Net-(J1-Pin_1)*%
X197000000Y-75375000D03*
D31*
%TO.P,J1,2,Pin_2_2*%
%TO.N,GND*%
X195000000Y-75375000D03*
%TD*%
D32*
%TO.N,Col0*%
X185000000Y-69000000D03*
%TO.N,Row1*%
X113000000Y-76000000D03*
X170000000Y-79500000D03*
X75000000Y-81000000D03*
X94000000Y-84500000D03*
X151000000Y-71500000D03*
X132000000Y-71500000D03*
%TO.N,Row3*%
X186500000Y-113500000D03*
X168250000Y-113500000D03*
X192250000Y-108250000D03*
X148000000Y-113500000D03*
%TO.N,Row2*%
X151000000Y-93500000D03*
X132000000Y-90500000D03*
X113000000Y-91500000D03*
X94000000Y-103500000D03*
X170000000Y-93500000D03*
X75000000Y-100000000D03*
%TO.N,Col3*%
X199500000Y-72500000D03*
X168750000Y-112750000D03*
X150500000Y-112750000D03*
%TO.N,Col4*%
X165250000Y-114250000D03*
%TO.N,Row0*%
X113000000Y-54000000D03*
X170000000Y-57500000D03*
X94000000Y-67000000D03*
X132000000Y-52500000D03*
X151000000Y-55500000D03*
%TO.N,Col1*%
X172750000Y-115750000D03*
X181000000Y-75500000D03*
%TO.N,Col2*%
X151000000Y-112000000D03*
X187500000Y-111000000D03*
%TO.N,Col5*%
X87000000Y-106500000D03*
%TO.N,RotA*%
X205000000Y-86000000D03*
%TO.N,3.3V*%
X199000000Y-64750000D03*
%TO.N,GND*%
X206500000Y-106000000D03*
%TO.N,SCK*%
X200000000Y-106250000D03*
%TO.N,VBAT_SW*%
X197750000Y-71250000D03*
%TO.N,Net-(J1-Pin_1)*%
X199250000Y-83000000D03*
%TD*%
%TO.N,Col0*%
D33*
X182000000Y-72000000D02*
X185000000Y-69000000D01*
X182000000Y-91000000D02*
X182000000Y-110000000D01*
X182000000Y-72000000D02*
X182000000Y-91000000D01*
X220977791Y-120500000D02*
X221636946Y-121159155D01*
X198000000Y-120500000D02*
X220977791Y-120500000D01*
X187500000Y-110000000D02*
X198000000Y-120500000D01*
X182000000Y-110000000D02*
X187500000Y-110000000D01*
%TO.N,Net-(D6-A)*%
X170000000Y-88800000D02*
X170000000Y-85003125D01*
%TO.N,Row1*%
X94000000Y-87553125D02*
X94000000Y-84500000D01*
X170000000Y-81553125D02*
X170000000Y-79500000D01*
X113000000Y-77553125D02*
X113000000Y-76000000D01*
X75000000Y-82553125D02*
X75000000Y-81000000D01*
X132000000Y-76553125D02*
X132000000Y-71500000D01*
X151000000Y-79553125D02*
X151000000Y-71500000D01*
%TO.N,Net-(D9-A)*%
X113000000Y-84800000D02*
X113000000Y-81003125D01*
%TO.N,Row3*%
X192250000Y-108250000D02*
X192250000Y-67870000D01*
X184500000Y-132461535D02*
X184500000Y-128378665D01*
X148000000Y-117553125D02*
X148000000Y-113500000D01*
X168250000Y-113500000D02*
X169446463Y-114696463D01*
X192250000Y-113500000D02*
X195920101Y-117170101D01*
X184500000Y-128378665D02*
X186500000Y-126378665D01*
X169446463Y-114696463D02*
X169446463Y-119116151D01*
X192250000Y-108250000D02*
X192250000Y-113500000D01*
X195920101Y-117170101D02*
X200208566Y-117170101D01*
X192250000Y-67870000D02*
X190880000Y-66500000D01*
X189208566Y-137170101D02*
X184500000Y-132461535D01*
X186500000Y-126378665D02*
X186500000Y-113500000D01*
X187329900Y-127208565D02*
X186500000Y-126378665D01*
%TO.N,Net-(D19-A)*%
X205088102Y-149704969D02*
X205088102Y-148680989D01*
X193347696Y-140046444D02*
X196453556Y-140046444D01*
X192196353Y-138895101D02*
X193347696Y-140046444D01*
X205088102Y-148680989D02*
X196453556Y-140046444D01*
%TO.N,Row2*%
X94000000Y-106553125D02*
X94000000Y-103500000D01*
X170000000Y-100553125D02*
X170000000Y-93500000D01*
X113000000Y-96553125D02*
X113000000Y-91500000D01*
X75000000Y-101553125D02*
X75000000Y-100000000D01*
X151000000Y-98553125D02*
X151000000Y-93500000D01*
X132000000Y-95553125D02*
X132000000Y-90500000D01*
%TO.N,Net-(D15-A)*%
X113000000Y-103800000D02*
X113000000Y-100003125D01*
%TO.N,Col3*%
X178327826Y-131701422D02*
X178327826Y-130929045D01*
X125000000Y-106000000D02*
X125000000Y-87000000D01*
X173500000Y-126101219D02*
X173500000Y-117500000D01*
X125000000Y-87000000D02*
X125000000Y-68000000D01*
X173500000Y-117500000D02*
X168750000Y-112750000D01*
X126500000Y-107500000D02*
X145250000Y-107500000D01*
X150500000Y-112750000D02*
X145250000Y-107500000D01*
X204500000Y-72500000D02*
X206120000Y-74120000D01*
X125000000Y-106000000D02*
X126500000Y-107500000D01*
X199500000Y-72500000D02*
X204500000Y-72500000D01*
X178327826Y-130929045D02*
X173500000Y-126101219D01*
%TO.N,Net-(D18-A)*%
X216961590Y-118895101D02*
X217237536Y-118619155D01*
X203196353Y-118895101D02*
X216961590Y-118895101D01*
%TO.N,Col4*%
X107000000Y-108500000D02*
X106000000Y-107500000D01*
X154000000Y-117500000D02*
X158000000Y-117500000D01*
X106000000Y-97000000D02*
X106000000Y-107500000D01*
X107000000Y-108500000D02*
X106000000Y-109500000D01*
X107000000Y-108500000D02*
X145000000Y-108500000D01*
X106000000Y-109500000D02*
X106000000Y-116000000D01*
X160000000Y-127000000D02*
X160000000Y-119500000D01*
X145000000Y-108500000D02*
X154000000Y-117500000D01*
X106000000Y-78000000D02*
X106000000Y-97000000D01*
X160000000Y-119500000D02*
X165250000Y-114250000D01*
X160000000Y-119500000D02*
X158000000Y-117500000D01*
%TO.N,Net-(D16-A)*%
X94000000Y-110003125D02*
X94000000Y-113800000D01*
%TO.N,Row0*%
X151000000Y-60553125D02*
X151000000Y-55500000D01*
X113000000Y-58553125D02*
X113000000Y-54000000D01*
X94000000Y-68553125D02*
X94000000Y-67000000D01*
X132000000Y-57553125D02*
X132000000Y-52500000D01*
X170000000Y-62553125D02*
X170000000Y-57500000D01*
%TO.N,Net-(D4-A)*%
X113000000Y-65800000D02*
X113000000Y-62003125D01*
%TO.N,Col1*%
X164000000Y-80000000D02*
X168000000Y-80000000D01*
X168000000Y-80000000D02*
X172500000Y-75500000D01*
X172750000Y-115750000D02*
X165000000Y-108000000D01*
X163000000Y-70000000D02*
X163000000Y-79000000D01*
X172500000Y-75500000D02*
X181000000Y-75500000D01*
X164000000Y-80000000D02*
X163000000Y-81000000D01*
X164000000Y-80000000D02*
X163000000Y-79000000D01*
X163000000Y-81000000D02*
X163000000Y-89000000D01*
X165000000Y-108000000D02*
X163000000Y-108000000D01*
X163000000Y-108000000D02*
X163000000Y-89000000D01*
%TO.N,Net-(D2-A)*%
X151000000Y-67800000D02*
X151000000Y-64003125D01*
%TO.N,Net-(D8-A)*%
X132000000Y-80003125D02*
X132000000Y-83800000D01*
%TO.N,Net-(D14-A)*%
X132000000Y-99003125D02*
X132000000Y-102800000D01*
%TO.N,Net-(D12-A)*%
X170000000Y-107800000D02*
X170000000Y-104003125D01*
%TO.N,Col2*%
X144000000Y-105000000D02*
X144000000Y-86000000D01*
X187500000Y-111000000D02*
X197000000Y-120500000D01*
X202102306Y-128468911D02*
X203446152Y-128468911D01*
X151000000Y-112000000D02*
X144000000Y-105000000D01*
X197000000Y-123366605D02*
X202102306Y-128468911D01*
X197000000Y-120500000D02*
X197000000Y-123366605D01*
X144000000Y-67000000D02*
X144000000Y-86000000D01*
%TO.N,Net-(D3-A)*%
X132000000Y-61003125D02*
X132000000Y-64800000D01*
%TO.N,Col5*%
X87000000Y-111000000D02*
X87000000Y-106500000D01*
X87000000Y-106500000D02*
X87000000Y-92000000D01*
%TO.N,Net-(D17-A)*%
X75000000Y-108800000D02*
X75000000Y-105003125D01*
%TO.N,Net-(D13-A)*%
X151000000Y-105800000D02*
X151000000Y-102003125D01*
%TO.N,Net-(D7-A)*%
X151000000Y-86800000D02*
X151000000Y-83003125D01*
%TO.N,Net-(D11-A)*%
X75000000Y-86003125D02*
X75000000Y-89800000D01*
%TO.N,Net-(D10-A)*%
X94000000Y-94800000D02*
X94000000Y-91003125D01*
%TO.N,Net-(D22-A)*%
X148000000Y-121003125D02*
X148000000Y-124800000D01*
%TO.N,Net-(D20-A)*%
X193169762Y-137761216D02*
X185604900Y-130196354D01*
X195540897Y-137761216D02*
X193169762Y-137761216D01*
%TO.N,Net-(D21-A)*%
X168553538Y-125223136D02*
X168553538Y-122448595D01*
X167306118Y-126470556D02*
X168553538Y-125223136D01*
%TO.N,Net-(D5-A)*%
X94000000Y-72003125D02*
X94000000Y-75800000D01*
%TO.N,Net-(D1-A)*%
X170000000Y-66003125D02*
X170000000Y-69800000D01*
%TO.N,RotA*%
X205000000Y-86000000D02*
X208375000Y-82625000D01*
X206120000Y-69040000D02*
X207415000Y-69040000D01*
X207415000Y-69040000D02*
X208375000Y-70000000D01*
X208375000Y-82625000D02*
X208375000Y-70000000D01*
%TO.N,3.3V*%
D34*
X193500000Y-70250000D02*
X199000000Y-64750000D01*
X193500000Y-106025000D02*
X193500000Y-70250000D01*
X198475000Y-111000000D02*
X193500000Y-106025000D01*
%TO.N,GND*%
X206120000Y-61420000D02*
X201580000Y-61420000D01*
X206500000Y-106000000D02*
X205500000Y-105000000D01*
X195000000Y-75375000D02*
X195000000Y-71000000D01*
X196000000Y-105000000D02*
X200015000Y-105000000D01*
X200000000Y-63000000D02*
X198500000Y-61500000D01*
X195000000Y-75375000D02*
X195000000Y-104000000D01*
X195000000Y-61500000D02*
X193817822Y-62682178D01*
X194875000Y-75500000D02*
X195000000Y-75375000D01*
X200015000Y-105000000D02*
X201015000Y-106000000D01*
X201015000Y-106000000D02*
X201015000Y-111000000D01*
X200000000Y-66000000D02*
X195000000Y-71000000D01*
X193817822Y-62682178D02*
X193817822Y-63621812D01*
X201015000Y-105985000D02*
X202000000Y-105000000D01*
X200000000Y-63000000D02*
X200000000Y-66000000D01*
X205500000Y-105000000D02*
X202000000Y-105000000D01*
X198500000Y-61500000D02*
X195000000Y-61500000D01*
X201580000Y-61420000D02*
X200000000Y-63000000D01*
X195000000Y-104000000D02*
X196000000Y-105000000D01*
%TO.N,SCK*%
D33*
X195935000Y-111935000D02*
X196500000Y-112500000D01*
X195935000Y-111000000D02*
X195935000Y-111935000D01*
X196500000Y-112500000D02*
X199250000Y-112500000D01*
X199250000Y-112500000D02*
X199750000Y-112000000D01*
X199750000Y-112000000D02*
X199750000Y-106500000D01*
X200000000Y-106250000D02*
X199750000Y-106500000D01*
%TO.N,VBAT_SW*%
D34*
X198500000Y-85580000D02*
X205170000Y-92250000D01*
X197750000Y-71250000D02*
X198500000Y-72000000D01*
X205170000Y-92250000D02*
X205570000Y-92250000D01*
X198500000Y-72000000D02*
X198500000Y-85580000D01*
%TO.N,Net-(J1-Pin_1)*%
X205570000Y-90750000D02*
X199250000Y-84430000D01*
X199250000Y-84430000D02*
X199250000Y-83000000D01*
%TD*%
D35*
X185000000Y-69000000D03*
X113000000Y-76000000D03*
X170000000Y-79500000D03*
X75000000Y-81000000D03*
X94000000Y-84500000D03*
X151000000Y-71500000D03*
X132000000Y-71500000D03*
X186500000Y-113500000D03*
X168250000Y-113500000D03*
X192250000Y-108250000D03*
X148000000Y-113500000D03*
X151000000Y-93500000D03*
X132000000Y-90500000D03*
X113000000Y-91500000D03*
X94000000Y-103500000D03*
X170000000Y-93500000D03*
X75000000Y-100000000D03*
X199500000Y-72500000D03*
X168750000Y-112750000D03*
X150500000Y-112750000D03*
X165250000Y-114250000D03*
X113000000Y-54000000D03*
X170000000Y-57500000D03*
X94000000Y-67000000D03*
X132000000Y-52500000D03*
X151000000Y-55500000D03*
X172750000Y-115750000D03*
X181000000Y-75500000D03*
X151000000Y-112000000D03*
X187500000Y-111000000D03*
X87000000Y-106500000D03*
X205000000Y-86000000D03*
X199000000Y-64750000D03*
X206500000Y-106000000D03*
X200000000Y-106250000D03*
X197750000Y-71250000D03*
X199250000Y-83000000D03*
D36*
X184000000Y-85000000D03*
X183500000Y-79850000D03*
X178500000Y-90900000D03*
X178500000Y-85000000D03*
X173500000Y-88800000D03*
X173000000Y-85000000D03*
X169000000Y-74500000D03*
X127000000Y-100000000D03*
X126500000Y-94850000D03*
X121500000Y-105900000D03*
X121500000Y-100000000D03*
X116500000Y-103800000D03*
X116000000Y-100000000D03*
X189500000Y-117000000D03*
X108000000Y-110000000D03*
X107500000Y-104850000D03*
X102500000Y-115900000D03*
X102500000Y-110000000D03*
X97500000Y-113800000D03*
X97000000Y-110000000D03*
X165000000Y-64000000D03*
X164500000Y-58850000D03*
X159500000Y-69900000D03*
X159500000Y-64000000D03*
X154500000Y-67800000D03*
X154000000Y-64000000D03*
X140500000Y-115000000D03*
X221636946Y-121159155D03*
X217237536Y-118619155D03*
X146000000Y-61000000D03*
X145500000Y-55850000D03*
X140500000Y-66900000D03*
X140500000Y-61000000D03*
X135500000Y-64800000D03*
X135000000Y-61000000D03*
X89000000Y-105000000D03*
X88500000Y-99850000D03*
X83500000Y-110900000D03*
X83500000Y-105000000D03*
X78500000Y-108800000D03*
X78000000Y-105000000D03*
X200688692Y-147164969D03*
X205088102Y-149704969D03*
X146000000Y-80000000D03*
X145500000Y-74850000D03*
X140500000Y-85900000D03*
X140500000Y-80000000D03*
X135500000Y-83800000D03*
X135000000Y-80000000D03*
X89000000Y-86000000D03*
X88500000Y-80850000D03*
X83500000Y-91900000D03*
X83500000Y-86000000D03*
X78500000Y-89800000D03*
X78000000Y-86000000D03*
X127000000Y-62000000D03*
X126500000Y-56850000D03*
X121500000Y-67900000D03*
X121500000Y-62000000D03*
X116500000Y-65800000D03*
X116000000Y-62000000D03*
X112500000Y-71500000D03*
X165000000Y-83000000D03*
X164500000Y-77850000D03*
X159500000Y-88900000D03*
X159500000Y-83000000D03*
X154500000Y-86800000D03*
X154000000Y-83000000D03*
X199250000Y-123736860D03*
X194539969Y-121594873D03*
X201609550Y-131450000D03*
X196500000Y-128500000D03*
X197290897Y-134730127D03*
X193750000Y-133263140D03*
X181812592Y-126423505D03*
X182662547Y-121319577D03*
X174972968Y-130698962D03*
X176500000Y-125000000D03*
X170686858Y-127376423D03*
X171187408Y-123576495D03*
X146000000Y-99000000D03*
X145500000Y-93850000D03*
X140500000Y-104900000D03*
X140500000Y-99000000D03*
X135500000Y-102800000D03*
X135000000Y-99000000D03*
X127000000Y-81000000D03*
X126500000Y-75850000D03*
X121500000Y-86900000D03*
X121500000Y-81000000D03*
X116500000Y-84800000D03*
X116000000Y-81000000D03*
X165000000Y-102000000D03*
X164500000Y-96850000D03*
X159500000Y-107900000D03*
X159500000Y-102000000D03*
X154500000Y-105800000D03*
X154000000Y-102000000D03*
X108000000Y-72000000D03*
X107500000Y-66850000D03*
X102500000Y-77900000D03*
X102500000Y-72000000D03*
X97500000Y-75800000D03*
X97000000Y-72000000D03*
X108000000Y-91000000D03*
X107500000Y-85850000D03*
X102500000Y-96900000D03*
X102500000Y-91000000D03*
X97500000Y-94800000D03*
X97000000Y-91000000D03*
X190880000Y-58880000D03*
X190880000Y-61420000D03*
X190880000Y-63960000D03*
X190880000Y-66500000D03*
X190880000Y-69040000D03*
X190880000Y-71580000D03*
X190880000Y-74120000D03*
X206120000Y-74120000D03*
X206120000Y-71580000D03*
X206120000Y-69040000D03*
X206120000Y-66500000D03*
X206120000Y-63960000D03*
X206120000Y-61420000D03*
X206120000Y-58880000D03*
X202335400Y-75812000D03*
X204215000Y-75812000D03*
X201460000Y-81000000D03*
X204000000Y-81000000D03*
X206540000Y-81000000D03*
X194055000Y-66183000D03*
X194055000Y-64278000D03*
X193395000Y-111000000D03*
X195935000Y-111000000D03*
X198475000Y-111000000D03*
X201015000Y-111000000D03*
X203555000Y-111000000D03*
X214783333Y-122832334D03*
X219113461Y-125332334D03*
X216948397Y-124082334D03*
X162000000Y-121000000D03*
X161500000Y-115850000D03*
X156500000Y-126900000D03*
X156500000Y-121000000D03*
X151500000Y-124800000D03*
X151000000Y-121000000D03*
X93500000Y-100500000D03*
X184000000Y-104000000D03*
X183500000Y-98850000D03*
X178500000Y-109900000D03*
X178500000Y-104000000D03*
X173500000Y-107800000D03*
X173000000Y-104000000D03*
X184000000Y-66000000D03*
X183500000Y-60850000D03*
X178500000Y-71900000D03*
X178500000Y-66000000D03*
X173500000Y-69800000D03*
X173000000Y-66000000D03*
X207330000Y-88500000D03*
X207330000Y-91500000D03*
X197000000Y-75375000D03*
X195000000Y-75375000D03*
M02*
