M48
; DRILL file KiCad 10.0.1 date 2026-07-22T17:22:59
; FORMAT={-:-/ absolute / metric / decimal}
; #@! TF.CreationDate,2026-07-22T17:22:59+09:00
; #@! TF.GenerationSoftware,Kicad,Pcbnew,10.0.1
; #@! TF.FileFunction,Plated,1,2,PTH
FMAT,2
METRIC
; #@! TA.AperFunction,Plated,PTH,ViaDrill
T1C0.300
; #@! TA.AperFunction,Plated,PTH,ComponentDrill
T2C0.762
; #@! TA.AperFunction,Plated,PTH,ComponentDrill
T3C0.800
; #@! TA.AperFunction,Plated,PTH,ComponentDrill
T4C0.813
; #@! TA.AperFunction,Plated,PTH,ComponentDrill
T5C1.000
%
G90
G05
T1
X80.0Y-83.5
X80.0Y-100.5
X93.0Y-93.0
X96.0Y-87.5
X96.0Y-104.5
X98.0Y-70.5
X98.0Y-87.5
X98.0Y-104.5
X114.0Y-60.5
X114.0Y-77.5
X114.0Y-94.5
X116.0Y-60.5
X116.0Y-77.5
X116.0Y-94.5
X132.0Y-59.5
X132.0Y-76.5
X132.0Y-93.5
X134.0Y-59.5
X134.0Y-76.5
X134.0Y-93.5
X149.0Y-115.5
X150.0Y-62.0
X150.0Y-79.5
X150.0Y-96.5
X152.0Y-62.0
X152.0Y-79.5
X152.0Y-96.5
X163.0Y-108.0
X168.0Y-64.5
X168.0Y-81.5
X168.0Y-98.5
X168.5Y-117.0
X170.0Y-64.5
X170.0Y-81.5
X170.0Y-98.5
X170.5Y-117.0
X180.0Y-76.5
X182.0Y-76.5
X186.0Y-125.0
X186.375Y-108.0
X187.0Y-112.0
X188.0Y-107.0
X188.0Y-109.0
X188.5Y-125.0
X189.0Y-133.5
X193.0Y-80.625
X197.0Y-80.625
X199.625Y-92.5
X200.0Y-90.5
X200.0Y-116.5
X202.0Y-62.5
X204.5Y-117.5
T2
X203.0Y-83.0
T3
X192.395Y-95.0
X194.935Y-95.0
X197.475Y-95.0
X200.015Y-95.0
X202.555Y-95.0
T4
X189.88Y-60.88
X189.88Y-63.42
X189.88Y-65.96
X189.88Y-68.5
X189.88Y-71.04
X189.88Y-73.58
X189.88Y-76.12
X200.46Y-83.0
X205.12Y-60.88
X205.12Y-63.42
X205.12Y-65.96
X205.12Y-68.5
X205.12Y-71.04
X205.12Y-73.58
X205.12Y-76.12
X205.54Y-83.0
T5
X193.055Y-66.278
X193.055Y-68.183
X199.961Y-144.765
X201.335Y-77.812
X203.215Y-77.812
X204.361Y-147.305
X214.056Y-120.432
X216.221Y-121.682
X216.51Y-116.219
X218.386Y-122.932
X220.91Y-118.759
M30
