%TF.GenerationSoftware,KiCad,Pcbnew,10.0.1*%
%TF.CreationDate,2026-08-10T19:32:32+09:00*%
%TF.ProjectId,reel-left,7265656c-2d6c-4656-9674-2e6b69636164,rev?*%
%TF.SameCoordinates,Original*%
%TF.FileFunction,Paste,Top*%
%TF.FilePolarity,Positive*%
%FSLAX46Y46*%
G04 Gerber Fmt 4.6, Leading zero omitted, Abs format (unit mm)*
G04 Created by KiCad (PCBNEW 10.0.1) date 2026-08-10 19:32:32*
%MOMM*%
%LPD*%
G01*
G04 APERTURE LIST*
%ADD10C,0.350000*%
G04 APERTURE END LIST*
D10*
X184000000Y-85000000D03*
X183500000Y-79850000D03*
X178500000Y-90900000D03*
X178500000Y-85000000D03*
X173500000Y-88800000D03*
X173000000Y-85000000D03*
X169000000Y-74500000D03*
X127000000Y-100000000D03*
X126500000Y-94850000D03*
X121500000Y-105900000D03*
X121500000Y-100000000D03*
X116500000Y-103800000D03*
X116000000Y-100000000D03*
X189500000Y-117000000D03*
X108000000Y-110000000D03*
X107500000Y-104850000D03*
X102500000Y-115900000D03*
X102500000Y-110000000D03*
X97500000Y-113800000D03*
X97000000Y-110000000D03*
X165000000Y-64000000D03*
X164500000Y-58850000D03*
X159500000Y-69900000D03*
X159500000Y-64000000D03*
X154500000Y-67800000D03*
X154000000Y-64000000D03*
X140500000Y-115000000D03*
X221636946Y-121159155D03*
X217237536Y-118619155D03*
X146000000Y-61000000D03*
X145500000Y-55850000D03*
X140500000Y-66900000D03*
X140500000Y-61000000D03*
X135500000Y-64800000D03*
X135000000Y-61000000D03*
X89000000Y-105000000D03*
X88500000Y-99850000D03*
X83500000Y-110900000D03*
X83500000Y-105000000D03*
X78500000Y-108800000D03*
X78000000Y-105000000D03*
X200688692Y-147164969D03*
X205088102Y-149704969D03*
X146000000Y-80000000D03*
X145500000Y-74850000D03*
X140500000Y-85900000D03*
X140500000Y-80000000D03*
X135500000Y-83800000D03*
X135000000Y-80000000D03*
X89000000Y-86000000D03*
X88500000Y-80850000D03*
X83500000Y-91900000D03*
X83500000Y-86000000D03*
X78500000Y-89800000D03*
X78000000Y-86000000D03*
X127000000Y-62000000D03*
X126500000Y-56850000D03*
X121500000Y-67900000D03*
X121500000Y-62000000D03*
X116500000Y-65800000D03*
X116000000Y-62000000D03*
X112500000Y-71500000D03*
X165000000Y-83000000D03*
X164500000Y-77850000D03*
X159500000Y-88900000D03*
X159500000Y-83000000D03*
X154500000Y-86800000D03*
X154000000Y-83000000D03*
X199250000Y-123736860D03*
X194539969Y-121594873D03*
X201609550Y-131450000D03*
X196500000Y-128500000D03*
X197290897Y-134730127D03*
X193750000Y-133263140D03*
X181812592Y-126423505D03*
X182662547Y-121319577D03*
X174972968Y-130698962D03*
X176500000Y-125000000D03*
X170686858Y-127376423D03*
X171187408Y-123576495D03*
X146000000Y-99000000D03*
X145500000Y-93850000D03*
X140500000Y-104900000D03*
X140500000Y-99000000D03*
X135500000Y-102800000D03*
X135000000Y-99000000D03*
X127000000Y-81000000D03*
X126500000Y-75850000D03*
X121500000Y-86900000D03*
X121500000Y-81000000D03*
X116500000Y-84800000D03*
X116000000Y-81000000D03*
X165000000Y-102000000D03*
X164500000Y-96850000D03*
X159500000Y-107900000D03*
X159500000Y-102000000D03*
X154500000Y-105800000D03*
X154000000Y-102000000D03*
X108000000Y-72000000D03*
X107500000Y-66850000D03*
X102500000Y-77900000D03*
X102500000Y-72000000D03*
X97500000Y-75800000D03*
X97000000Y-72000000D03*
X108000000Y-91000000D03*
X107500000Y-85850000D03*
X102500000Y-96900000D03*
X102500000Y-91000000D03*
X97500000Y-94800000D03*
X97000000Y-91000000D03*
X190880000Y-58880000D03*
X190880000Y-61420000D03*
X190880000Y-63960000D03*
X190880000Y-66500000D03*
X190880000Y-69040000D03*
X190880000Y-71580000D03*
X190880000Y-74120000D03*
X206120000Y-74120000D03*
X206120000Y-71580000D03*
X206120000Y-69040000D03*
X206120000Y-66500000D03*
X206120000Y-63960000D03*
X206120000Y-61420000D03*
X206120000Y-58880000D03*
X202335400Y-75812000D03*
X204215000Y-75812000D03*
X201460000Y-81000000D03*
X204000000Y-81000000D03*
X206540000Y-81000000D03*
X194055000Y-66183000D03*
X194055000Y-64278000D03*
X193395000Y-111000000D03*
X195935000Y-111000000D03*
X198475000Y-111000000D03*
X201015000Y-111000000D03*
X203555000Y-111000000D03*
X214783333Y-122832334D03*
X219113461Y-125332334D03*
X216948397Y-124082334D03*
X162000000Y-121000000D03*
X161500000Y-115850000D03*
X156500000Y-126900000D03*
X156500000Y-121000000D03*
X151500000Y-124800000D03*
X151000000Y-121000000D03*
X93500000Y-100500000D03*
X184000000Y-104000000D03*
X183500000Y-98850000D03*
X178500000Y-109900000D03*
X178500000Y-104000000D03*
X173500000Y-107800000D03*
X173000000Y-104000000D03*
X184000000Y-66000000D03*
X183500000Y-60850000D03*
X178500000Y-71900000D03*
X178500000Y-66000000D03*
X173500000Y-69800000D03*
X173000000Y-66000000D03*
X207330000Y-88500000D03*
X207330000Y-91500000D03*
X197000000Y-75375000D03*
X195000000Y-75375000D03*
M02*
