M48
; DRILL file KiCad 10.0.1 date 2026-08-10T18:10:42
; FORMAT={-:-/ absolute / metric / decimal}
; #@! TF.CreationDate,2026-08-10T18:10:42+09:00
; #@! TF.GenerationSoftware,Kicad,Pcbnew,10.0.1
; #@! TF.FileFunction,Plated,1,2,PTH
FMAT,2
METRIC
; #@! TA.AperFunction,Plated,PTH,ViaDrill
T1C0.300
; #@! TA.AperFunction,Plated,PTH,ComponentDrill
T2C0.750
; #@! TA.AperFunction,Plated,PTH,ComponentDrill
T3C0.762
; #@! TA.AperFunction,Plated,PTH,ComponentDrill
T4C0.800
; #@! TA.AperFunction,Plated,PTH,ComponentDrill
T5C0.813
; #@! TA.AperFunction,Plated,PTH,ComponentDrill
T6C1.000
%
G90
G05
T1
X75.0Y-81.0
X75.0Y-100.0
X87.0Y-106.5
X94.0Y-67.0
X94.0Y-84.5
X94.0Y-103.5
X113.0Y-54.0
X113.0Y-76.0
X113.0Y-91.5
X132.0Y-52.5
X132.0Y-71.5
X132.0Y-90.5
X148.0Y-113.5
X150.5Y-112.75
X151.0Y-55.5
X151.0Y-71.5
X151.0Y-93.5
X151.0Y-112.0
X165.25Y-114.25
X168.25Y-113.5
X168.75Y-112.75
X170.0Y-57.5
X170.0Y-79.5
X170.0Y-93.5
X172.75Y-115.75
X181.0Y-75.5
X185.0Y-69.0
X186.5Y-113.5
X187.5Y-111.0
X192.25Y-108.25
X197.75Y-71.25
X199.0Y-64.75
X199.25Y-83.0
X199.5Y-72.5
X200.0Y-106.25
X205.0Y-86.0
X206.5Y-106.0
T2
X195.0Y-75.375
X197.0Y-75.375
T3
X204.0Y-81.0
T4
X193.395Y-111.0
X195.935Y-111.0
X198.475Y-111.0
X201.015Y-111.0
X203.555Y-111.0
T5
X190.88Y-58.88
X190.88Y-61.42
X190.88Y-63.96
X190.88Y-66.5
X190.88Y-69.04
X190.88Y-71.58
X190.88Y-74.12
X201.46Y-81.0
X206.12Y-58.88
X206.12Y-61.42
X206.12Y-63.96
X206.12Y-66.5
X206.12Y-69.04
X206.12Y-71.58
X206.12Y-74.12
X206.54Y-81.0
T6
X194.055Y-64.278
X194.055Y-66.183
X200.689Y-147.165
X202.335Y-75.812
X204.215Y-75.812
X205.088Y-149.705
X214.783Y-122.832
X216.948Y-124.082
X217.238Y-118.619
X219.113Y-125.332
X221.637Y-121.159
M30
