%TF.GenerationSoftware,KiCad,Pcbnew,10.0.1*%
%TF.CreationDate,2026-07-22T17:22:58+09:00*%
%TF.ProjectId,reel-left,7265656c-2d6c-4656-9674-2e6b69636164,rev?*%
%TF.SameCoordinates,Original*%
%TF.FileFunction,Soldermask,Bot*%
%TF.FilePolarity,Negative*%
%FSLAX46Y46*%
G04 Gerber Fmt 4.6, Leading zero omitted, Abs format (unit mm)*
G04 Created by KiCad (PCBNEW 10.0.1) date 2026-07-22 17:22:58*
%MOMM*%
%LPD*%
G01*
G04 APERTURE LIST*
G04 Aperture macros list*
%AMRoundRect*
0 Rectangle with rounded corners*
0 $1 Rounding radius*
0 $2 $3 $4 $5 $6 $7 $8 $9 X,Y pos of 4 corners*
0 Add a 4 corners polygon primitive as box body*
4,1,4,$2,$3,$4,$5,$6,$7,$8,$9,$2,$3,0*
0 Add four circle primitives for the rounded corners*
1,1,$1+$1,$2,$3*
1,1,$1+$1,$4,$5*
1,1,$1+$1,$6,$7*
1,1,$1+$1,$8,$9*
0 Add four rect primitives between the rounded corners*
20,1,$1+$1,$2,$3,$4,$5,0*
20,1,$1+$1,$4,$5,$6,$7,0*
20,1,$1+$1,$6,$7,$8,$9,0*
20,1,$1+$1,$8,$9,$2,$3,0*%
%AMRotRect*
0 Rectangle, with rotation*
0 The origin of the aperture is its center*
0 $1 length*
0 $2 width*
0 $3 Rotation angle, in degrees counterclockwise*
0 Add horizontal line*
21,1,$1,$2,0,0,$3*%
%AMFreePoly0*
4,1,5,0.762000,-1.000000,-0.762000,-1.000000,-0.762000,1.000000,0.762000,1.000000,0.762000,-1.000000,0.762000,-1.000000,$1*%
G04 Aperture macros list end*
%ADD10C,1.900000*%
%ADD11C,1.600000*%
%ADD12C,3.050000*%
%ADD13C,5.050000*%
%ADD14RoundRect,0.250000X1.025000X1.000000X-1.025000X1.000000X-1.025000X-1.000000X1.025000X-1.000000X0*%
%ADD15R,0.950000X1.200000*%
%ADD16C,4.500000*%
%ADD17RotRect,1.200000X0.950000X330.000000*%
%ADD18RotRect,1.800000X1.800000X150.000000*%
%ADD19C,1.800000*%
%ADD20RotRect,1.800000X1.800000X330.000000*%
%ADD21RoundRect,0.250000X-0.353525X1.387676X-1.378525X-0.387676X0.353525X-1.387676X1.378525X0.387676X0*%
%ADD22RoundRect,0.250000X1.248893X0.700636X-0.731255X1.231215X-1.248893X-0.700636X0.731255X-1.231215X0*%
%ADD23RotRect,1.200000X0.950000X255.000000*%
%ADD24RotRect,1.200000X0.950000X240.000000*%
%ADD25O,2.750000X1.800000*%
%ADD26C,1.500000*%
%ADD27FreePoly0,0.000000*%
%ADD28O,1.524000X2.000000*%
%ADD29R,1.350000X1.350000*%
%ADD30O,1.350000X1.350000*%
%ADD31R,0.800000X1.000000*%
%ADD32C,0.900000*%
%ADD33R,1.500000X0.700000*%
%ADD34RoundRect,0.102000X0.500000X1.750000X-0.500000X1.750000X-0.500000X-1.750000X0.500000X-1.750000X0*%
%ADD35RoundRect,0.102000X0.750000X1.700000X-0.750000X1.700000X-0.750000X-1.700000X0.750000X-1.700000X0*%
%ADD36C,0.350000*%
G04 APERTURE END LIST*
D10*
%TO.C,SW6*%
X183000000Y-85000000D03*
D11*
X182500000Y-79850000D03*
D12*
X177500000Y-90900000D03*
D13*
X177500000Y-85000000D03*
D12*
X172500000Y-88800000D03*
D10*
X172000000Y-85000000D03*
D14*
X181000000Y-91000000D03*
X169000000Y-88800000D03*
%TD*%
D15*
%TO.C,D9*%
X115000000Y-77626563D03*
X115000000Y-81076563D03*
%TD*%
D16*
%TO.C,Ref\u002A\u002A*%
X169500000Y-58250000D03*
%TD*%
D17*
%TO.C,D19*%
X189208566Y-135170101D03*
X192196353Y-136895101D03*
%TD*%
D15*
%TO.C,D15*%
X115000000Y-94626563D03*
X115000000Y-98076563D03*
%TD*%
D10*
%TO.C,SW15*%
X129000000Y-98000000D03*
D11*
X128500000Y-92850000D03*
D12*
X123500000Y-103900000D03*
D13*
X123500000Y-98000000D03*
D12*
X118500000Y-101800000D03*
D10*
X118000000Y-98000000D03*
D14*
X127000000Y-104000000D03*
X115000000Y-101800000D03*
%TD*%
D17*
%TO.C,D18*%
X200208566Y-115170101D03*
X203196353Y-116895101D03*
%TD*%
D16*
%TO.C,Ref\u002A\u002A*%
X189500000Y-115000000D03*
%TD*%
D10*
%TO.C,SW16*%
X111000000Y-108000000D03*
D11*
X110500000Y-102850000D03*
D12*
X105500000Y-113900000D03*
D13*
X105500000Y-108000000D03*
D12*
X100500000Y-111800000D03*
D10*
X100000000Y-108000000D03*
D14*
X109000000Y-114000000D03*
X97000000Y-111800000D03*
%TD*%
D15*
%TO.C,D4*%
X115000000Y-60626563D03*
X115000000Y-64076563D03*
%TD*%
D10*
%TO.C,SW2*%
X165000000Y-66000000D03*
D11*
X164500000Y-60850000D03*
D12*
X159500000Y-71900000D03*
D13*
X159500000Y-66000000D03*
D12*
X154500000Y-69800000D03*
D10*
X154000000Y-66000000D03*
D14*
X163000000Y-72000000D03*
X151000000Y-69800000D03*
%TD*%
D15*
%TO.C,D2*%
X151000000Y-62126563D03*
X151000000Y-65576563D03*
%TD*%
%TO.C,D8*%
X133000000Y-76626563D03*
X133000000Y-80076563D03*
%TD*%
D16*
%TO.C,Ref\u002A\u002A*%
X142500000Y-114000000D03*
%TD*%
D15*
%TO.C,D14*%
X133000000Y-93626563D03*
X133000000Y-97076563D03*
%TD*%
%TO.C,D12*%
X169000000Y-98626563D03*
X169000000Y-102076563D03*
%TD*%
D18*
%TO.C,SW18*%
X220909705Y-118759155D03*
D19*
X216510295Y-116219155D03*
%TD*%
D10*
%TO.C,SW3*%
X147000000Y-63000000D03*
D11*
X146500000Y-57850000D03*
D12*
X141500000Y-68900000D03*
D13*
X141500000Y-63000000D03*
D12*
X136500000Y-66800000D03*
D10*
X136000000Y-63000000D03*
D14*
X145000000Y-69000000D03*
X133000000Y-66800000D03*
%TD*%
D15*
%TO.C,D3*%
X133000000Y-59626563D03*
X133000000Y-63076563D03*
%TD*%
D10*
%TO.C,SW17*%
X93000000Y-104000000D03*
D11*
X92500000Y-98850000D03*
D12*
X87500000Y-109900000D03*
D13*
X87500000Y-104000000D03*
D12*
X82500000Y-107800000D03*
D10*
X82000000Y-104000000D03*
D14*
X91000000Y-110000000D03*
X79000000Y-107800000D03*
%TD*%
D20*
%TO.C,SW19*%
X199961451Y-144764969D03*
D19*
X204360861Y-147304969D03*
%TD*%
D15*
%TO.C,D13*%
X151000000Y-96626563D03*
X151000000Y-100076563D03*
%TD*%
D10*
%TO.C,SW8*%
X147000000Y-80000000D03*
D11*
X146500000Y-74850000D03*
D12*
X141500000Y-85900000D03*
D13*
X141500000Y-80000000D03*
D12*
X136500000Y-83800000D03*
D10*
X136000000Y-80000000D03*
D14*
X145000000Y-86000000D03*
X133000000Y-83800000D03*
%TD*%
D15*
%TO.C,D7*%
X151000000Y-79626563D03*
X151000000Y-83076563D03*
%TD*%
D10*
%TO.C,SW11*%
X93000000Y-87000000D03*
D11*
X92500000Y-81850000D03*
D12*
X87500000Y-92900000D03*
D13*
X87500000Y-87000000D03*
D12*
X82500000Y-90800000D03*
D10*
X82000000Y-87000000D03*
D14*
X91000000Y-93000000D03*
X79000000Y-90800000D03*
%TD*%
D15*
%TO.C,D10*%
X97000000Y-87626563D03*
X97000000Y-91076563D03*
%TD*%
%TO.C,D22*%
X148000000Y-115626563D03*
X148000000Y-119076563D03*
%TD*%
D10*
%TO.C,SW4*%
X129000000Y-64000000D03*
D11*
X128500000Y-58850000D03*
D12*
X123500000Y-69900000D03*
D13*
X123500000Y-64000000D03*
D12*
X118500000Y-67800000D03*
D10*
X118000000Y-64000000D03*
D14*
X127000000Y-70000000D03*
X115000000Y-67800000D03*
%TD*%
D16*
%TO.C,Ref\u002A\u002A*%
X112000000Y-58000000D03*
%TD*%
D10*
%TO.C,SW7*%
X165000000Y-83000000D03*
D11*
X164500000Y-77850000D03*
D12*
X159500000Y-88900000D03*
D13*
X159500000Y-83000000D03*
D12*
X154500000Y-86800000D03*
D10*
X154000000Y-83000000D03*
D14*
X163000000Y-89000000D03*
X151000000Y-86800000D03*
%TD*%
D10*
%TO.C,SW20*%
X199250000Y-121736860D03*
D11*
X194539969Y-119594873D03*
D12*
X201609550Y-129450000D03*
D13*
X196500000Y-126500000D03*
D12*
X197290897Y-132730127D03*
D10*
X193750000Y-131263140D03*
D21*
X203446152Y-126468911D03*
X195540897Y-135761216D03*
%TD*%
D10*
%TO.C,SW21*%
X181812592Y-124423505D03*
D11*
X182662547Y-119319577D03*
D12*
X174972968Y-128698962D03*
D13*
X176500000Y-123000000D03*
D12*
X170686858Y-125376423D03*
D10*
X171187408Y-121576495D03*
D22*
X178327826Y-129701422D03*
X167306118Y-124470556D03*
%TD*%
D10*
%TO.C,SW14*%
X147000000Y-97000000D03*
D11*
X146500000Y-91850000D03*
D12*
X141500000Y-102900000D03*
D13*
X141500000Y-97000000D03*
D12*
X136500000Y-100800000D03*
D10*
X136000000Y-97000000D03*
D14*
X145000000Y-103000000D03*
X133000000Y-100800000D03*
%TD*%
D23*
%TO.C,D21*%
X169446463Y-117116151D03*
X168553538Y-120448595D03*
%TD*%
D15*
%TO.C,D6*%
X169000000Y-81626563D03*
X169000000Y-85076563D03*
%TD*%
D10*
%TO.C,SW9*%
X129000000Y-81000000D03*
D11*
X128500000Y-75850000D03*
D12*
X123500000Y-86900000D03*
D13*
X123500000Y-81000000D03*
D12*
X118500000Y-84800000D03*
D10*
X118000000Y-81000000D03*
D14*
X127000000Y-87000000D03*
X115000000Y-84800000D03*
%TD*%
D10*
%TO.C,SW13*%
X165000000Y-100000000D03*
D11*
X164500000Y-94850000D03*
D12*
X159500000Y-105900000D03*
D13*
X159500000Y-100000000D03*
D12*
X154500000Y-103800000D03*
D10*
X154000000Y-100000000D03*
D14*
X163000000Y-106000000D03*
X151000000Y-103800000D03*
%TD*%
D15*
%TO.C,D17*%
X79000000Y-100626563D03*
X79000000Y-104076563D03*
%TD*%
D10*
%TO.C,SW5*%
X111000000Y-74000000D03*
D11*
X110500000Y-68850000D03*
D12*
X105500000Y-79900000D03*
D13*
X105500000Y-74000000D03*
D12*
X100500000Y-77800000D03*
D10*
X100000000Y-74000000D03*
D14*
X109000000Y-80000000D03*
X97000000Y-77800000D03*
%TD*%
D15*
%TO.C,D1*%
X169000000Y-64626563D03*
X169000000Y-68076563D03*
%TD*%
%TO.C,D5*%
X97000000Y-70626563D03*
X97000000Y-74076563D03*
%TD*%
D10*
%TO.C,SW10*%
X111000000Y-91000000D03*
D11*
X110500000Y-85850000D03*
D12*
X105500000Y-96900000D03*
D13*
X105500000Y-91000000D03*
D12*
X100500000Y-94800000D03*
D10*
X100000000Y-91000000D03*
D14*
X109000000Y-97000000D03*
X97000000Y-94800000D03*
%TD*%
D24*
%TO.C,D20*%
X187329900Y-125208565D03*
X185604900Y-128196354D03*
%TD*%
D25*
%TO.C,U1*%
X189380000Y-60880000D03*
X189380000Y-63420000D03*
X189380000Y-65960000D03*
X189380000Y-68500000D03*
X189380000Y-71040000D03*
X189380000Y-73580000D03*
X189380000Y-76120000D03*
X205620000Y-76120000D03*
X205620000Y-73580000D03*
X205620000Y-71040000D03*
X205620000Y-68500000D03*
X205620000Y-65960000D03*
X205620000Y-63420000D03*
X205620000Y-60880000D03*
D26*
X201335400Y-77812000D03*
X203215000Y-77812000D03*
D27*
X200460000Y-82700000D03*
D28*
X203000000Y-82700000D03*
X205540000Y-82700000D03*
D26*
X193055000Y-68183000D03*
X193055000Y-66278000D03*
%TD*%
D29*
%TO.C,J2*%
X192395000Y-95000000D03*
D30*
X194935000Y-95000000D03*
X197475000Y-95000000D03*
X200015000Y-95000000D03*
X202555000Y-95000000D03*
%TD*%
D19*
%TO.C,SW25*%
X214056092Y-120432334D03*
X218386220Y-122932334D03*
X216221156Y-121682334D03*
%TD*%
D10*
%TO.C,SW22*%
X162000000Y-119000000D03*
D11*
X161500000Y-113850000D03*
D12*
X156500000Y-124900000D03*
D13*
X156500000Y-119000000D03*
D12*
X151500000Y-122800000D03*
D10*
X151000000Y-119000000D03*
D14*
X160000000Y-125000000D03*
X148000000Y-122800000D03*
%TD*%
D15*
%TO.C,D16*%
X97000000Y-104626563D03*
X97000000Y-108076563D03*
%TD*%
%TO.C,D11*%
X79000000Y-83626563D03*
X79000000Y-87076563D03*
%TD*%
D16*
%TO.C,Ref\u002A\u002A*%
X94000000Y-115000000D03*
%TD*%
D10*
%TO.C,SW12*%
X183000000Y-102000000D03*
D11*
X182500000Y-96850000D03*
D12*
X177500000Y-107900000D03*
D13*
X177500000Y-102000000D03*
D12*
X172500000Y-105800000D03*
D10*
X172000000Y-102000000D03*
D14*
X181000000Y-108000000D03*
X169000000Y-105800000D03*
%TD*%
D10*
%TO.C,SW1*%
X183000000Y-68000000D03*
D11*
X182500000Y-62850000D03*
D12*
X177500000Y-73900000D03*
D13*
X177500000Y-68000000D03*
D12*
X172500000Y-71800000D03*
D10*
X172000000Y-68000000D03*
D14*
X181000000Y-74000000D03*
X169000000Y-71800000D03*
%TD*%
D31*
%TO.C,SW24*%
X207430000Y-86350000D03*
X205220000Y-86350000D03*
D32*
X206330000Y-88500000D03*
X206330000Y-91500000D03*
D31*
X207430000Y-93650000D03*
X205220000Y-93650000D03*
D33*
X204570000Y-87750000D03*
X204570000Y-90750000D03*
X204570000Y-92250000D03*
%TD*%
D34*
%TO.C,J1*%
X197000000Y-77375000D03*
X195000000Y-77375000D03*
D35*
X192650000Y-71625000D03*
X199350000Y-71625000D03*
%TD*%
D36*
X183000000Y-85000000D03*
X182500000Y-79850000D03*
X177500000Y-90900000D03*
X177500000Y-85000000D03*
X172500000Y-88800000D03*
X172000000Y-85000000D03*
X169500000Y-58250000D03*
X129000000Y-98000000D03*
X128500000Y-92850000D03*
X123500000Y-103900000D03*
X123500000Y-98000000D03*
X118500000Y-101800000D03*
X118000000Y-98000000D03*
X189500000Y-115000000D03*
X111000000Y-108000000D03*
X110500000Y-102850000D03*
X105500000Y-113900000D03*
X105500000Y-108000000D03*
X100500000Y-111800000D03*
X100000000Y-108000000D03*
X165000000Y-66000000D03*
X164500000Y-60850000D03*
X159500000Y-71900000D03*
X159500000Y-66000000D03*
X154500000Y-69800000D03*
X154000000Y-66000000D03*
X142500000Y-114000000D03*
X220909705Y-118759155D03*
X216510295Y-116219155D03*
X147000000Y-63000000D03*
X146500000Y-57850000D03*
X141500000Y-68900000D03*
X141500000Y-63000000D03*
X136500000Y-66800000D03*
X136000000Y-63000000D03*
X93000000Y-104000000D03*
X92500000Y-98850000D03*
X87500000Y-109900000D03*
X87500000Y-104000000D03*
X82500000Y-107800000D03*
X82000000Y-104000000D03*
X199961451Y-144764969D03*
X204360861Y-147304969D03*
X147000000Y-80000000D03*
X146500000Y-74850000D03*
X141500000Y-85900000D03*
X141500000Y-80000000D03*
X136500000Y-83800000D03*
X136000000Y-80000000D03*
X93000000Y-87000000D03*
X92500000Y-81850000D03*
X87500000Y-92900000D03*
X87500000Y-87000000D03*
X82500000Y-90800000D03*
X82000000Y-87000000D03*
X129000000Y-64000000D03*
X128500000Y-58850000D03*
X123500000Y-69900000D03*
X123500000Y-64000000D03*
X118500000Y-67800000D03*
X118000000Y-64000000D03*
X112000000Y-58000000D03*
X165000000Y-83000000D03*
X164500000Y-77850000D03*
X159500000Y-88900000D03*
X159500000Y-83000000D03*
X154500000Y-86800000D03*
X154000000Y-83000000D03*
X199250000Y-121736860D03*
X194539969Y-119594873D03*
X201609550Y-129450000D03*
X196500000Y-126500000D03*
X197290897Y-132730127D03*
X193750000Y-131263140D03*
X181812592Y-124423505D03*
X182662547Y-119319577D03*
X174972968Y-128698962D03*
X176500000Y-123000000D03*
X170686858Y-125376423D03*
X171187408Y-121576495D03*
X147000000Y-97000000D03*
X146500000Y-91850000D03*
X141500000Y-102900000D03*
X141500000Y-97000000D03*
X136500000Y-100800000D03*
X136000000Y-97000000D03*
X129000000Y-81000000D03*
X128500000Y-75850000D03*
X123500000Y-86900000D03*
X123500000Y-81000000D03*
X118500000Y-84800000D03*
X118000000Y-81000000D03*
X165000000Y-100000000D03*
X164500000Y-94850000D03*
X159500000Y-105900000D03*
X159500000Y-100000000D03*
X154500000Y-103800000D03*
X154000000Y-100000000D03*
X111000000Y-74000000D03*
X110500000Y-68850000D03*
X105500000Y-79900000D03*
X105500000Y-74000000D03*
X100500000Y-77800000D03*
X100000000Y-74000000D03*
X111000000Y-91000000D03*
X110500000Y-85850000D03*
X105500000Y-96900000D03*
X105500000Y-91000000D03*
X100500000Y-94800000D03*
X100000000Y-91000000D03*
X189880000Y-60880000D03*
X189880000Y-63420000D03*
X189880000Y-65960000D03*
X189880000Y-68500000D03*
X189880000Y-71040000D03*
X189880000Y-73580000D03*
X189880000Y-76120000D03*
X205120000Y-76120000D03*
X205120000Y-73580000D03*
X205120000Y-71040000D03*
X205120000Y-68500000D03*
X205120000Y-65960000D03*
X205120000Y-63420000D03*
X205120000Y-60880000D03*
X201335400Y-77812000D03*
X203215000Y-77812000D03*
X200460000Y-83000000D03*
X203000000Y-83000000D03*
X205540000Y-83000000D03*
X193055000Y-68183000D03*
X193055000Y-66278000D03*
X192395000Y-95000000D03*
X194935000Y-95000000D03*
X197475000Y-95000000D03*
X200015000Y-95000000D03*
X202555000Y-95000000D03*
X214056092Y-120432334D03*
X218386220Y-122932334D03*
X216221156Y-121682334D03*
X162000000Y-119000000D03*
X161500000Y-113850000D03*
X156500000Y-124900000D03*
X156500000Y-119000000D03*
X151500000Y-122800000D03*
X151000000Y-119000000D03*
X94000000Y-115000000D03*
X183000000Y-102000000D03*
X182500000Y-96850000D03*
X177500000Y-107900000D03*
X177500000Y-102000000D03*
X172500000Y-105800000D03*
X172000000Y-102000000D03*
X183000000Y-68000000D03*
X182500000Y-62850000D03*
X177500000Y-73900000D03*
X177500000Y-68000000D03*
X172500000Y-71800000D03*
X172000000Y-68000000D03*
X206330000Y-88500000D03*
X206330000Y-91500000D03*
M02*
