M48
; DRILL file KiCad 10.0.1 date 2026-08-10T19:32:33
; FORMAT={-:-/ absolute / metric / decimal}
; #@! TF.CreationDate,2026-08-10T19:32:33+09:00
; #@! TF.GenerationSoftware,Kicad,Pcbnew,10.0.1
; #@! TF.FileFunction,NonPlated,1,2,NPTH
FMAT,2
METRIC
; #@! TA.AperFunction,NonPlated,NPTH,ComponentDrill
T1C0.900
; #@! TA.AperFunction,NonPlated,NPTH,ComponentDrill
T2C1.600
; #@! TA.AperFunction,NonPlated,NPTH,ComponentDrill
T3C1.900
; #@! TA.AperFunction,NonPlated,NPTH,ComponentDrill
T4C3.050
; #@! TA.AperFunction,NonPlated,NPTH,ComponentDrill
T5C4.300
; #@! TA.AperFunction,NonPlated,NPTH,ComponentDrill
T6C5.050
%
G90
G05
T1
X207.33Y-88.5
X207.33Y-91.5
T2
X88.5Y-80.85
X88.5Y-99.85
X107.5Y-66.85
X107.5Y-85.85
X107.5Y-104.85
X126.5Y-56.85
X126.5Y-75.85
X126.5Y-94.85
X145.5Y-55.85
X145.5Y-74.85
X145.5Y-93.85
X161.5Y-115.85
X164.5Y-58.85
X164.5Y-77.85
X164.5Y-96.85
X182.663Y-121.32
X183.5Y-60.85
X183.5Y-79.85
X183.5Y-98.85
X194.54Y-121.595
T3
X78.0Y-86.0
X78.0Y-105.0
X89.0Y-86.0
X89.0Y-105.0
X97.0Y-72.0
X97.0Y-91.0
X97.0Y-110.0
X108.0Y-72.0
X108.0Y-91.0
X108.0Y-110.0
X116.0Y-62.0
X116.0Y-81.0
X116.0Y-100.0
X127.0Y-62.0
X127.0Y-81.0
X127.0Y-100.0
X135.0Y-61.0
X135.0Y-80.0
X135.0Y-99.0
X146.0Y-61.0
X146.0Y-80.0
X146.0Y-99.0
X151.0Y-121.0
X154.0Y-64.0
X154.0Y-83.0
X154.0Y-102.0
X162.0Y-121.0
X165.0Y-64.0
X165.0Y-83.0
X165.0Y-102.0
X171.187Y-123.576
X173.0Y-66.0
X173.0Y-85.0
X173.0Y-104.0
X181.813Y-126.424
X184.0Y-66.0
X184.0Y-85.0
X184.0Y-104.0
X193.75Y-133.263
X199.25Y-123.737
T4
X78.5Y-89.8
X78.5Y-108.8
X83.5Y-91.9
X83.5Y-110.9
X97.5Y-75.8
X97.5Y-94.8
X97.5Y-113.8
X102.5Y-77.9
X102.5Y-96.9
X102.5Y-115.9
X116.5Y-65.8
X116.5Y-84.8
X116.5Y-103.8
X121.5Y-67.9
X121.5Y-86.9
X121.5Y-105.9
X135.5Y-64.8
X135.5Y-83.8
X135.5Y-102.8
X140.5Y-66.9
X140.5Y-85.9
X140.5Y-104.9
X151.5Y-124.8
X154.5Y-67.8
X154.5Y-86.8
X154.5Y-105.8
X156.5Y-126.9
X159.5Y-69.9
X159.5Y-88.9
X159.5Y-107.9
X170.687Y-127.376
X173.5Y-69.8
X173.5Y-88.8
X173.5Y-107.8
X174.973Y-130.699
X178.5Y-71.9
X178.5Y-90.9
X178.5Y-109.9
X197.291Y-134.73
X201.61Y-131.45
T5
X93.5Y-100.5
X112.5Y-71.5
X140.5Y-115.0
X169.0Y-74.5
X189.5Y-117.0
T6
X83.5Y-86.0
X83.5Y-105.0
X102.5Y-72.0
X102.5Y-91.0
X102.5Y-110.0
X121.5Y-62.0
X121.5Y-81.0
X121.5Y-100.0
X140.5Y-61.0
X140.5Y-80.0
X140.5Y-99.0
X156.5Y-121.0
X159.5Y-64.0
X159.5Y-83.0
X159.5Y-102.0
X176.5Y-125.0
X178.5Y-66.0
X178.5Y-85.0
X178.5Y-104.0
X196.5Y-128.5
M30
