%TF.GenerationSoftware,KiCad,Pcbnew,10.0.1*%
%TF.CreationDate,2026-07-22T17:22:58+09:00*%
%TF.ProjectId,reel-left,7265656c-2d6c-4656-9674-2e6b69636164,rev?*%
%TF.SameCoordinates,Original*%
%TF.FileFunction,Legend,Top*%
%TF.FilePolarity,Positive*%
%FSLAX46Y46*%
G04 Gerber Fmt 4.6, Leading zero omitted, Abs format (unit mm)*
G04 Created by KiCad (PCBNEW 10.0.1) date 2026-07-22 17:22:58*
%MOMM*%
%LPD*%
G01*
G04 APERTURE LIST*
%ADD10C,0.150000*%
%ADD11C,0.120000*%
%ADD12C,0.200000*%
%ADD13C,0.350000*%
G04 APERTURE END LIST*
D10*
X176166667Y-81407200D02*
X176309524Y-81454819D01*
X176309524Y-81454819D02*
X176547619Y-81454819D01*
X176547619Y-81454819D02*
X176642857Y-81407200D01*
X176642857Y-81407200D02*
X176690476Y-81359580D01*
X176690476Y-81359580D02*
X176738095Y-81264342D01*
X176738095Y-81264342D02*
X176738095Y-81169104D01*
X176738095Y-81169104D02*
X176690476Y-81073866D01*
X176690476Y-81073866D02*
X176642857Y-81026247D01*
X176642857Y-81026247D02*
X176547619Y-80978628D01*
X176547619Y-80978628D02*
X176357143Y-80931009D01*
X176357143Y-80931009D02*
X176261905Y-80883390D01*
X176261905Y-80883390D02*
X176214286Y-80835771D01*
X176214286Y-80835771D02*
X176166667Y-80740533D01*
X176166667Y-80740533D02*
X176166667Y-80645295D01*
X176166667Y-80645295D02*
X176214286Y-80550057D01*
X176214286Y-80550057D02*
X176261905Y-80502438D01*
X176261905Y-80502438D02*
X176357143Y-80454819D01*
X176357143Y-80454819D02*
X176595238Y-80454819D01*
X176595238Y-80454819D02*
X176738095Y-80502438D01*
X177071429Y-80454819D02*
X177309524Y-81454819D01*
X177309524Y-81454819D02*
X177500000Y-80740533D01*
X177500000Y-80740533D02*
X177690476Y-81454819D01*
X177690476Y-81454819D02*
X177928572Y-80454819D01*
X178738095Y-80454819D02*
X178547619Y-80454819D01*
X178547619Y-80454819D02*
X178452381Y-80502438D01*
X178452381Y-80502438D02*
X178404762Y-80550057D01*
X178404762Y-80550057D02*
X178309524Y-80692914D01*
X178309524Y-80692914D02*
X178261905Y-80883390D01*
X178261905Y-80883390D02*
X178261905Y-81264342D01*
X178261905Y-81264342D02*
X178309524Y-81359580D01*
X178309524Y-81359580D02*
X178357143Y-81407200D01*
X178357143Y-81407200D02*
X178452381Y-81454819D01*
X178452381Y-81454819D02*
X178642857Y-81454819D01*
X178642857Y-81454819D02*
X178738095Y-81407200D01*
X178738095Y-81407200D02*
X178785714Y-81359580D01*
X178785714Y-81359580D02*
X178833333Y-81264342D01*
X178833333Y-81264342D02*
X178833333Y-81026247D01*
X178833333Y-81026247D02*
X178785714Y-80931009D01*
X178785714Y-80931009D02*
X178738095Y-80883390D01*
X178738095Y-80883390D02*
X178642857Y-80835771D01*
X178642857Y-80835771D02*
X178452381Y-80835771D01*
X178452381Y-80835771D02*
X178357143Y-80883390D01*
X178357143Y-80883390D02*
X178309524Y-80931009D01*
X178309524Y-80931009D02*
X178261905Y-81026247D01*
X121690476Y-94407200D02*
X121833333Y-94454819D01*
X121833333Y-94454819D02*
X122071428Y-94454819D01*
X122071428Y-94454819D02*
X122166666Y-94407200D01*
X122166666Y-94407200D02*
X122214285Y-94359580D01*
X122214285Y-94359580D02*
X122261904Y-94264342D01*
X122261904Y-94264342D02*
X122261904Y-94169104D01*
X122261904Y-94169104D02*
X122214285Y-94073866D01*
X122214285Y-94073866D02*
X122166666Y-94026247D01*
X122166666Y-94026247D02*
X122071428Y-93978628D01*
X122071428Y-93978628D02*
X121880952Y-93931009D01*
X121880952Y-93931009D02*
X121785714Y-93883390D01*
X121785714Y-93883390D02*
X121738095Y-93835771D01*
X121738095Y-93835771D02*
X121690476Y-93740533D01*
X121690476Y-93740533D02*
X121690476Y-93645295D01*
X121690476Y-93645295D02*
X121738095Y-93550057D01*
X121738095Y-93550057D02*
X121785714Y-93502438D01*
X121785714Y-93502438D02*
X121880952Y-93454819D01*
X121880952Y-93454819D02*
X122119047Y-93454819D01*
X122119047Y-93454819D02*
X122261904Y-93502438D01*
X122595238Y-93454819D02*
X122833333Y-94454819D01*
X122833333Y-94454819D02*
X123023809Y-93740533D01*
X123023809Y-93740533D02*
X123214285Y-94454819D01*
X123214285Y-94454819D02*
X123452381Y-93454819D01*
X124357142Y-94454819D02*
X123785714Y-94454819D01*
X124071428Y-94454819D02*
X124071428Y-93454819D01*
X124071428Y-93454819D02*
X123976190Y-93597676D01*
X123976190Y-93597676D02*
X123880952Y-93692914D01*
X123880952Y-93692914D02*
X123785714Y-93740533D01*
X125261904Y-93454819D02*
X124785714Y-93454819D01*
X124785714Y-93454819D02*
X124738095Y-93931009D01*
X124738095Y-93931009D02*
X124785714Y-93883390D01*
X124785714Y-93883390D02*
X124880952Y-93835771D01*
X124880952Y-93835771D02*
X125119047Y-93835771D01*
X125119047Y-93835771D02*
X125214285Y-93883390D01*
X125214285Y-93883390D02*
X125261904Y-93931009D01*
X125261904Y-93931009D02*
X125309523Y-94026247D01*
X125309523Y-94026247D02*
X125309523Y-94264342D01*
X125309523Y-94264342D02*
X125261904Y-94359580D01*
X125261904Y-94359580D02*
X125214285Y-94407200D01*
X125214285Y-94407200D02*
X125119047Y-94454819D01*
X125119047Y-94454819D02*
X124880952Y-94454819D01*
X124880952Y-94454819D02*
X124785714Y-94407200D01*
X124785714Y-94407200D02*
X124738095Y-94359580D01*
X103690476Y-104407200D02*
X103833333Y-104454819D01*
X103833333Y-104454819D02*
X104071428Y-104454819D01*
X104071428Y-104454819D02*
X104166666Y-104407200D01*
X104166666Y-104407200D02*
X104214285Y-104359580D01*
X104214285Y-104359580D02*
X104261904Y-104264342D01*
X104261904Y-104264342D02*
X104261904Y-104169104D01*
X104261904Y-104169104D02*
X104214285Y-104073866D01*
X104214285Y-104073866D02*
X104166666Y-104026247D01*
X104166666Y-104026247D02*
X104071428Y-103978628D01*
X104071428Y-103978628D02*
X103880952Y-103931009D01*
X103880952Y-103931009D02*
X103785714Y-103883390D01*
X103785714Y-103883390D02*
X103738095Y-103835771D01*
X103738095Y-103835771D02*
X103690476Y-103740533D01*
X103690476Y-103740533D02*
X103690476Y-103645295D01*
X103690476Y-103645295D02*
X103738095Y-103550057D01*
X103738095Y-103550057D02*
X103785714Y-103502438D01*
X103785714Y-103502438D02*
X103880952Y-103454819D01*
X103880952Y-103454819D02*
X104119047Y-103454819D01*
X104119047Y-103454819D02*
X104261904Y-103502438D01*
X104595238Y-103454819D02*
X104833333Y-104454819D01*
X104833333Y-104454819D02*
X105023809Y-103740533D01*
X105023809Y-103740533D02*
X105214285Y-104454819D01*
X105214285Y-104454819D02*
X105452381Y-103454819D01*
X106357142Y-104454819D02*
X105785714Y-104454819D01*
X106071428Y-104454819D02*
X106071428Y-103454819D01*
X106071428Y-103454819D02*
X105976190Y-103597676D01*
X105976190Y-103597676D02*
X105880952Y-103692914D01*
X105880952Y-103692914D02*
X105785714Y-103740533D01*
X107214285Y-103454819D02*
X107023809Y-103454819D01*
X107023809Y-103454819D02*
X106928571Y-103502438D01*
X106928571Y-103502438D02*
X106880952Y-103550057D01*
X106880952Y-103550057D02*
X106785714Y-103692914D01*
X106785714Y-103692914D02*
X106738095Y-103883390D01*
X106738095Y-103883390D02*
X106738095Y-104264342D01*
X106738095Y-104264342D02*
X106785714Y-104359580D01*
X106785714Y-104359580D02*
X106833333Y-104407200D01*
X106833333Y-104407200D02*
X106928571Y-104454819D01*
X106928571Y-104454819D02*
X107119047Y-104454819D01*
X107119047Y-104454819D02*
X107214285Y-104407200D01*
X107214285Y-104407200D02*
X107261904Y-104359580D01*
X107261904Y-104359580D02*
X107309523Y-104264342D01*
X107309523Y-104264342D02*
X107309523Y-104026247D01*
X107309523Y-104026247D02*
X107261904Y-103931009D01*
X107261904Y-103931009D02*
X107214285Y-103883390D01*
X107214285Y-103883390D02*
X107119047Y-103835771D01*
X107119047Y-103835771D02*
X106928571Y-103835771D01*
X106928571Y-103835771D02*
X106833333Y-103883390D01*
X106833333Y-103883390D02*
X106785714Y-103931009D01*
X106785714Y-103931009D02*
X106738095Y-104026247D01*
X158166667Y-62407200D02*
X158309524Y-62454819D01*
X158309524Y-62454819D02*
X158547619Y-62454819D01*
X158547619Y-62454819D02*
X158642857Y-62407200D01*
X158642857Y-62407200D02*
X158690476Y-62359580D01*
X158690476Y-62359580D02*
X158738095Y-62264342D01*
X158738095Y-62264342D02*
X158738095Y-62169104D01*
X158738095Y-62169104D02*
X158690476Y-62073866D01*
X158690476Y-62073866D02*
X158642857Y-62026247D01*
X158642857Y-62026247D02*
X158547619Y-61978628D01*
X158547619Y-61978628D02*
X158357143Y-61931009D01*
X158357143Y-61931009D02*
X158261905Y-61883390D01*
X158261905Y-61883390D02*
X158214286Y-61835771D01*
X158214286Y-61835771D02*
X158166667Y-61740533D01*
X158166667Y-61740533D02*
X158166667Y-61645295D01*
X158166667Y-61645295D02*
X158214286Y-61550057D01*
X158214286Y-61550057D02*
X158261905Y-61502438D01*
X158261905Y-61502438D02*
X158357143Y-61454819D01*
X158357143Y-61454819D02*
X158595238Y-61454819D01*
X158595238Y-61454819D02*
X158738095Y-61502438D01*
X159071429Y-61454819D02*
X159309524Y-62454819D01*
X159309524Y-62454819D02*
X159500000Y-61740533D01*
X159500000Y-61740533D02*
X159690476Y-62454819D01*
X159690476Y-62454819D02*
X159928572Y-61454819D01*
X160261905Y-61550057D02*
X160309524Y-61502438D01*
X160309524Y-61502438D02*
X160404762Y-61454819D01*
X160404762Y-61454819D02*
X160642857Y-61454819D01*
X160642857Y-61454819D02*
X160738095Y-61502438D01*
X160738095Y-61502438D02*
X160785714Y-61550057D01*
X160785714Y-61550057D02*
X160833333Y-61645295D01*
X160833333Y-61645295D02*
X160833333Y-61740533D01*
X160833333Y-61740533D02*
X160785714Y-61883390D01*
X160785714Y-61883390D02*
X160214286Y-62454819D01*
X160214286Y-62454819D02*
X160833333Y-62454819D01*
X217945693Y-122432020D02*
X217845785Y-122319352D01*
X217845785Y-122319352D02*
X217639588Y-122200304D01*
X217639588Y-122200304D02*
X217533300Y-122193925D01*
X217533300Y-122193925D02*
X217468251Y-122211354D01*
X217468251Y-122211354D02*
X217379393Y-122270023D01*
X217379393Y-122270023D02*
X217331774Y-122352502D01*
X217331774Y-122352502D02*
X217325394Y-122458790D01*
X217325394Y-122458790D02*
X217342824Y-122523839D01*
X217342824Y-122523839D02*
X217401493Y-122612697D01*
X217401493Y-122612697D02*
X217542641Y-122749175D01*
X217542641Y-122749175D02*
X217601310Y-122838033D01*
X217601310Y-122838033D02*
X217618739Y-122903082D01*
X217618739Y-122903082D02*
X217612360Y-123009370D01*
X217612360Y-123009370D02*
X217564741Y-123091849D01*
X217564741Y-123091849D02*
X217475882Y-123150518D01*
X217475882Y-123150518D02*
X217410834Y-123167948D01*
X217410834Y-123167948D02*
X217304545Y-123161568D01*
X217304545Y-123161568D02*
X217098349Y-123042520D01*
X217098349Y-123042520D02*
X216998440Y-122929852D01*
X216685956Y-122804425D02*
X216979759Y-121819352D01*
X216979759Y-121819352D02*
X216457659Y-122342703D01*
X216457659Y-122342703D02*
X216649845Y-121628876D01*
X216649845Y-121628876D02*
X215943648Y-122375854D01*
X215660102Y-121057447D02*
X216154973Y-121343162D01*
X215907537Y-121200304D02*
X215407537Y-122066330D01*
X215407537Y-122066330D02*
X215561445Y-121990231D01*
X215561445Y-121990231D02*
X215691542Y-121955371D01*
X215691542Y-121955371D02*
X215797830Y-121961751D01*
X214879516Y-121266605D02*
X214938185Y-121355463D01*
X214938185Y-121355463D02*
X214955614Y-121420512D01*
X214955614Y-121420512D02*
X214949235Y-121526800D01*
X214949235Y-121526800D02*
X214925425Y-121568039D01*
X214925425Y-121568039D02*
X214836567Y-121626708D01*
X214836567Y-121626708D02*
X214771518Y-121644138D01*
X214771518Y-121644138D02*
X214665230Y-121637758D01*
X214665230Y-121637758D02*
X214500273Y-121542520D01*
X214500273Y-121542520D02*
X214441604Y-121453662D01*
X214441604Y-121453662D02*
X214424174Y-121388613D01*
X214424174Y-121388613D02*
X214430554Y-121282325D01*
X214430554Y-121282325D02*
X214454363Y-121241086D01*
X214454363Y-121241086D02*
X214543221Y-121182417D01*
X214543221Y-121182417D02*
X214608270Y-121164987D01*
X214608270Y-121164987D02*
X214714558Y-121171367D01*
X214714558Y-121171367D02*
X214879516Y-121266605D01*
X214879516Y-121266605D02*
X214985804Y-121272984D01*
X214985804Y-121272984D02*
X215050853Y-121255555D01*
X215050853Y-121255555D02*
X215139711Y-121196885D01*
X215139711Y-121196885D02*
X215234949Y-121031928D01*
X215234949Y-121031928D02*
X215241329Y-120925640D01*
X215241329Y-120925640D02*
X215223899Y-120860591D01*
X215223899Y-120860591D02*
X215165230Y-120771733D01*
X215165230Y-120771733D02*
X215000273Y-120676495D01*
X215000273Y-120676495D02*
X214893985Y-120670115D01*
X214893985Y-120670115D02*
X214828936Y-120687545D01*
X214828936Y-120687545D02*
X214740077Y-120746214D01*
X214740077Y-120746214D02*
X214644839Y-120911171D01*
X214644839Y-120911171D02*
X214638460Y-121017459D01*
X214638460Y-121017459D02*
X214655889Y-121082508D01*
X214655889Y-121082508D02*
X214714558Y-121171367D01*
X140166667Y-59407200D02*
X140309524Y-59454819D01*
X140309524Y-59454819D02*
X140547619Y-59454819D01*
X140547619Y-59454819D02*
X140642857Y-59407200D01*
X140642857Y-59407200D02*
X140690476Y-59359580D01*
X140690476Y-59359580D02*
X140738095Y-59264342D01*
X140738095Y-59264342D02*
X140738095Y-59169104D01*
X140738095Y-59169104D02*
X140690476Y-59073866D01*
X140690476Y-59073866D02*
X140642857Y-59026247D01*
X140642857Y-59026247D02*
X140547619Y-58978628D01*
X140547619Y-58978628D02*
X140357143Y-58931009D01*
X140357143Y-58931009D02*
X140261905Y-58883390D01*
X140261905Y-58883390D02*
X140214286Y-58835771D01*
X140214286Y-58835771D02*
X140166667Y-58740533D01*
X140166667Y-58740533D02*
X140166667Y-58645295D01*
X140166667Y-58645295D02*
X140214286Y-58550057D01*
X140214286Y-58550057D02*
X140261905Y-58502438D01*
X140261905Y-58502438D02*
X140357143Y-58454819D01*
X140357143Y-58454819D02*
X140595238Y-58454819D01*
X140595238Y-58454819D02*
X140738095Y-58502438D01*
X141071429Y-58454819D02*
X141309524Y-59454819D01*
X141309524Y-59454819D02*
X141500000Y-58740533D01*
X141500000Y-58740533D02*
X141690476Y-59454819D01*
X141690476Y-59454819D02*
X141928572Y-58454819D01*
X142214286Y-58454819D02*
X142833333Y-58454819D01*
X142833333Y-58454819D02*
X142500000Y-58835771D01*
X142500000Y-58835771D02*
X142642857Y-58835771D01*
X142642857Y-58835771D02*
X142738095Y-58883390D01*
X142738095Y-58883390D02*
X142785714Y-58931009D01*
X142785714Y-58931009D02*
X142833333Y-59026247D01*
X142833333Y-59026247D02*
X142833333Y-59264342D01*
X142833333Y-59264342D02*
X142785714Y-59359580D01*
X142785714Y-59359580D02*
X142738095Y-59407200D01*
X142738095Y-59407200D02*
X142642857Y-59454819D01*
X142642857Y-59454819D02*
X142357143Y-59454819D01*
X142357143Y-59454819D02*
X142261905Y-59407200D01*
X142261905Y-59407200D02*
X142214286Y-59359580D01*
X85690476Y-100407200D02*
X85833333Y-100454819D01*
X85833333Y-100454819D02*
X86071428Y-100454819D01*
X86071428Y-100454819D02*
X86166666Y-100407200D01*
X86166666Y-100407200D02*
X86214285Y-100359580D01*
X86214285Y-100359580D02*
X86261904Y-100264342D01*
X86261904Y-100264342D02*
X86261904Y-100169104D01*
X86261904Y-100169104D02*
X86214285Y-100073866D01*
X86214285Y-100073866D02*
X86166666Y-100026247D01*
X86166666Y-100026247D02*
X86071428Y-99978628D01*
X86071428Y-99978628D02*
X85880952Y-99931009D01*
X85880952Y-99931009D02*
X85785714Y-99883390D01*
X85785714Y-99883390D02*
X85738095Y-99835771D01*
X85738095Y-99835771D02*
X85690476Y-99740533D01*
X85690476Y-99740533D02*
X85690476Y-99645295D01*
X85690476Y-99645295D02*
X85738095Y-99550057D01*
X85738095Y-99550057D02*
X85785714Y-99502438D01*
X85785714Y-99502438D02*
X85880952Y-99454819D01*
X85880952Y-99454819D02*
X86119047Y-99454819D01*
X86119047Y-99454819D02*
X86261904Y-99502438D01*
X86595238Y-99454819D02*
X86833333Y-100454819D01*
X86833333Y-100454819D02*
X87023809Y-99740533D01*
X87023809Y-99740533D02*
X87214285Y-100454819D01*
X87214285Y-100454819D02*
X87452381Y-99454819D01*
X88357142Y-100454819D02*
X87785714Y-100454819D01*
X88071428Y-100454819D02*
X88071428Y-99454819D01*
X88071428Y-99454819D02*
X87976190Y-99597676D01*
X87976190Y-99597676D02*
X87880952Y-99692914D01*
X87880952Y-99692914D02*
X87785714Y-99740533D01*
X88690476Y-99454819D02*
X89357142Y-99454819D01*
X89357142Y-99454819D02*
X88928571Y-100454819D01*
X202925462Y-141092103D02*
X203025370Y-141204771D01*
X203025370Y-141204771D02*
X203231567Y-141323819D01*
X203231567Y-141323819D02*
X203337855Y-141330198D01*
X203337855Y-141330198D02*
X203402904Y-141312769D01*
X203402904Y-141312769D02*
X203491762Y-141254100D01*
X203491762Y-141254100D02*
X203539381Y-141171621D01*
X203539381Y-141171621D02*
X203545761Y-141065333D01*
X203545761Y-141065333D02*
X203528331Y-141000284D01*
X203528331Y-141000284D02*
X203469662Y-140911426D01*
X203469662Y-140911426D02*
X203328514Y-140774948D01*
X203328514Y-140774948D02*
X203269845Y-140686090D01*
X203269845Y-140686090D02*
X203252416Y-140621041D01*
X203252416Y-140621041D02*
X203258795Y-140514753D01*
X203258795Y-140514753D02*
X203306414Y-140432274D01*
X203306414Y-140432274D02*
X203395273Y-140373605D01*
X203395273Y-140373605D02*
X203460321Y-140356175D01*
X203460321Y-140356175D02*
X203566610Y-140362555D01*
X203566610Y-140362555D02*
X203772806Y-140481603D01*
X203772806Y-140481603D02*
X203872715Y-140594271D01*
X204185199Y-140719698D02*
X203891396Y-141704771D01*
X203891396Y-141704771D02*
X204413496Y-141181420D01*
X204413496Y-141181420D02*
X204221310Y-141895247D01*
X204221310Y-141895247D02*
X204927507Y-141148269D01*
X205211053Y-142466676D02*
X204716182Y-142180961D01*
X204963618Y-142323819D02*
X205463618Y-141457793D01*
X205463618Y-141457793D02*
X205309710Y-141533892D01*
X205309710Y-141533892D02*
X205179613Y-141568752D01*
X205179613Y-141568752D02*
X205073325Y-141562372D01*
X205623446Y-142704771D02*
X205788404Y-142800009D01*
X205788404Y-142800009D02*
X205894692Y-142806389D01*
X205894692Y-142806389D02*
X205959741Y-142788959D01*
X205959741Y-142788959D02*
X206113648Y-142712860D01*
X206113648Y-142712860D02*
X206250125Y-142571712D01*
X206250125Y-142571712D02*
X206440601Y-142241798D01*
X206440601Y-142241798D02*
X206446981Y-142135510D01*
X206446981Y-142135510D02*
X206429551Y-142070461D01*
X206429551Y-142070461D02*
X206370882Y-141981603D01*
X206370882Y-141981603D02*
X206205925Y-141886365D01*
X206205925Y-141886365D02*
X206099637Y-141879985D01*
X206099637Y-141879985D02*
X206034588Y-141897415D01*
X206034588Y-141897415D02*
X205945730Y-141956084D01*
X205945730Y-141956084D02*
X205826682Y-142162280D01*
X205826682Y-142162280D02*
X205820302Y-142268568D01*
X205820302Y-142268568D02*
X205837732Y-142333617D01*
X205837732Y-142333617D02*
X205896401Y-142422476D01*
X205896401Y-142422476D02*
X206061358Y-142517714D01*
X206061358Y-142517714D02*
X206167647Y-142524093D01*
X206167647Y-142524093D02*
X206232695Y-142506664D01*
X206232695Y-142506664D02*
X206321554Y-142447995D01*
X140166667Y-76407200D02*
X140309524Y-76454819D01*
X140309524Y-76454819D02*
X140547619Y-76454819D01*
X140547619Y-76454819D02*
X140642857Y-76407200D01*
X140642857Y-76407200D02*
X140690476Y-76359580D01*
X140690476Y-76359580D02*
X140738095Y-76264342D01*
X140738095Y-76264342D02*
X140738095Y-76169104D01*
X140738095Y-76169104D02*
X140690476Y-76073866D01*
X140690476Y-76073866D02*
X140642857Y-76026247D01*
X140642857Y-76026247D02*
X140547619Y-75978628D01*
X140547619Y-75978628D02*
X140357143Y-75931009D01*
X140357143Y-75931009D02*
X140261905Y-75883390D01*
X140261905Y-75883390D02*
X140214286Y-75835771D01*
X140214286Y-75835771D02*
X140166667Y-75740533D01*
X140166667Y-75740533D02*
X140166667Y-75645295D01*
X140166667Y-75645295D02*
X140214286Y-75550057D01*
X140214286Y-75550057D02*
X140261905Y-75502438D01*
X140261905Y-75502438D02*
X140357143Y-75454819D01*
X140357143Y-75454819D02*
X140595238Y-75454819D01*
X140595238Y-75454819D02*
X140738095Y-75502438D01*
X141071429Y-75454819D02*
X141309524Y-76454819D01*
X141309524Y-76454819D02*
X141500000Y-75740533D01*
X141500000Y-75740533D02*
X141690476Y-76454819D01*
X141690476Y-76454819D02*
X141928572Y-75454819D01*
X142452381Y-75883390D02*
X142357143Y-75835771D01*
X142357143Y-75835771D02*
X142309524Y-75788152D01*
X142309524Y-75788152D02*
X142261905Y-75692914D01*
X142261905Y-75692914D02*
X142261905Y-75645295D01*
X142261905Y-75645295D02*
X142309524Y-75550057D01*
X142309524Y-75550057D02*
X142357143Y-75502438D01*
X142357143Y-75502438D02*
X142452381Y-75454819D01*
X142452381Y-75454819D02*
X142642857Y-75454819D01*
X142642857Y-75454819D02*
X142738095Y-75502438D01*
X142738095Y-75502438D02*
X142785714Y-75550057D01*
X142785714Y-75550057D02*
X142833333Y-75645295D01*
X142833333Y-75645295D02*
X142833333Y-75692914D01*
X142833333Y-75692914D02*
X142785714Y-75788152D01*
X142785714Y-75788152D02*
X142738095Y-75835771D01*
X142738095Y-75835771D02*
X142642857Y-75883390D01*
X142642857Y-75883390D02*
X142452381Y-75883390D01*
X142452381Y-75883390D02*
X142357143Y-75931009D01*
X142357143Y-75931009D02*
X142309524Y-75978628D01*
X142309524Y-75978628D02*
X142261905Y-76073866D01*
X142261905Y-76073866D02*
X142261905Y-76264342D01*
X142261905Y-76264342D02*
X142309524Y-76359580D01*
X142309524Y-76359580D02*
X142357143Y-76407200D01*
X142357143Y-76407200D02*
X142452381Y-76454819D01*
X142452381Y-76454819D02*
X142642857Y-76454819D01*
X142642857Y-76454819D02*
X142738095Y-76407200D01*
X142738095Y-76407200D02*
X142785714Y-76359580D01*
X142785714Y-76359580D02*
X142833333Y-76264342D01*
X142833333Y-76264342D02*
X142833333Y-76073866D01*
X142833333Y-76073866D02*
X142785714Y-75978628D01*
X142785714Y-75978628D02*
X142738095Y-75931009D01*
X142738095Y-75931009D02*
X142642857Y-75883390D01*
X85690476Y-83407200D02*
X85833333Y-83454819D01*
X85833333Y-83454819D02*
X86071428Y-83454819D01*
X86071428Y-83454819D02*
X86166666Y-83407200D01*
X86166666Y-83407200D02*
X86214285Y-83359580D01*
X86214285Y-83359580D02*
X86261904Y-83264342D01*
X86261904Y-83264342D02*
X86261904Y-83169104D01*
X86261904Y-83169104D02*
X86214285Y-83073866D01*
X86214285Y-83073866D02*
X86166666Y-83026247D01*
X86166666Y-83026247D02*
X86071428Y-82978628D01*
X86071428Y-82978628D02*
X85880952Y-82931009D01*
X85880952Y-82931009D02*
X85785714Y-82883390D01*
X85785714Y-82883390D02*
X85738095Y-82835771D01*
X85738095Y-82835771D02*
X85690476Y-82740533D01*
X85690476Y-82740533D02*
X85690476Y-82645295D01*
X85690476Y-82645295D02*
X85738095Y-82550057D01*
X85738095Y-82550057D02*
X85785714Y-82502438D01*
X85785714Y-82502438D02*
X85880952Y-82454819D01*
X85880952Y-82454819D02*
X86119047Y-82454819D01*
X86119047Y-82454819D02*
X86261904Y-82502438D01*
X86595238Y-82454819D02*
X86833333Y-83454819D01*
X86833333Y-83454819D02*
X87023809Y-82740533D01*
X87023809Y-82740533D02*
X87214285Y-83454819D01*
X87214285Y-83454819D02*
X87452381Y-82454819D01*
X88357142Y-83454819D02*
X87785714Y-83454819D01*
X88071428Y-83454819D02*
X88071428Y-82454819D01*
X88071428Y-82454819D02*
X87976190Y-82597676D01*
X87976190Y-82597676D02*
X87880952Y-82692914D01*
X87880952Y-82692914D02*
X87785714Y-82740533D01*
X89309523Y-83454819D02*
X88738095Y-83454819D01*
X89023809Y-83454819D02*
X89023809Y-82454819D01*
X89023809Y-82454819D02*
X88928571Y-82597676D01*
X88928571Y-82597676D02*
X88833333Y-82692914D01*
X88833333Y-82692914D02*
X88738095Y-82740533D01*
X122166667Y-60407200D02*
X122309524Y-60454819D01*
X122309524Y-60454819D02*
X122547619Y-60454819D01*
X122547619Y-60454819D02*
X122642857Y-60407200D01*
X122642857Y-60407200D02*
X122690476Y-60359580D01*
X122690476Y-60359580D02*
X122738095Y-60264342D01*
X122738095Y-60264342D02*
X122738095Y-60169104D01*
X122738095Y-60169104D02*
X122690476Y-60073866D01*
X122690476Y-60073866D02*
X122642857Y-60026247D01*
X122642857Y-60026247D02*
X122547619Y-59978628D01*
X122547619Y-59978628D02*
X122357143Y-59931009D01*
X122357143Y-59931009D02*
X122261905Y-59883390D01*
X122261905Y-59883390D02*
X122214286Y-59835771D01*
X122214286Y-59835771D02*
X122166667Y-59740533D01*
X122166667Y-59740533D02*
X122166667Y-59645295D01*
X122166667Y-59645295D02*
X122214286Y-59550057D01*
X122214286Y-59550057D02*
X122261905Y-59502438D01*
X122261905Y-59502438D02*
X122357143Y-59454819D01*
X122357143Y-59454819D02*
X122595238Y-59454819D01*
X122595238Y-59454819D02*
X122738095Y-59502438D01*
X123071429Y-59454819D02*
X123309524Y-60454819D01*
X123309524Y-60454819D02*
X123500000Y-59740533D01*
X123500000Y-59740533D02*
X123690476Y-60454819D01*
X123690476Y-60454819D02*
X123928572Y-59454819D01*
X124738095Y-59788152D02*
X124738095Y-60454819D01*
X124500000Y-59407200D02*
X124261905Y-60121485D01*
X124261905Y-60121485D02*
X124880952Y-60121485D01*
X158166667Y-79407200D02*
X158309524Y-79454819D01*
X158309524Y-79454819D02*
X158547619Y-79454819D01*
X158547619Y-79454819D02*
X158642857Y-79407200D01*
X158642857Y-79407200D02*
X158690476Y-79359580D01*
X158690476Y-79359580D02*
X158738095Y-79264342D01*
X158738095Y-79264342D02*
X158738095Y-79169104D01*
X158738095Y-79169104D02*
X158690476Y-79073866D01*
X158690476Y-79073866D02*
X158642857Y-79026247D01*
X158642857Y-79026247D02*
X158547619Y-78978628D01*
X158547619Y-78978628D02*
X158357143Y-78931009D01*
X158357143Y-78931009D02*
X158261905Y-78883390D01*
X158261905Y-78883390D02*
X158214286Y-78835771D01*
X158214286Y-78835771D02*
X158166667Y-78740533D01*
X158166667Y-78740533D02*
X158166667Y-78645295D01*
X158166667Y-78645295D02*
X158214286Y-78550057D01*
X158214286Y-78550057D02*
X158261905Y-78502438D01*
X158261905Y-78502438D02*
X158357143Y-78454819D01*
X158357143Y-78454819D02*
X158595238Y-78454819D01*
X158595238Y-78454819D02*
X158738095Y-78502438D01*
X159071429Y-78454819D02*
X159309524Y-79454819D01*
X159309524Y-79454819D02*
X159500000Y-78740533D01*
X159500000Y-78740533D02*
X159690476Y-79454819D01*
X159690476Y-79454819D02*
X159928572Y-78454819D01*
X160214286Y-78454819D02*
X160880952Y-78454819D01*
X160880952Y-78454819D02*
X160452381Y-79454819D01*
X192447883Y-126270693D02*
X192560551Y-126170785D01*
X192560551Y-126170785D02*
X192679599Y-125964588D01*
X192679599Y-125964588D02*
X192685978Y-125858300D01*
X192685978Y-125858300D02*
X192668549Y-125793251D01*
X192668549Y-125793251D02*
X192609880Y-125704393D01*
X192609880Y-125704393D02*
X192527401Y-125656774D01*
X192527401Y-125656774D02*
X192421113Y-125650394D01*
X192421113Y-125650394D02*
X192356064Y-125667824D01*
X192356064Y-125667824D02*
X192267206Y-125726493D01*
X192267206Y-125726493D02*
X192130728Y-125867641D01*
X192130728Y-125867641D02*
X192041870Y-125926310D01*
X192041870Y-125926310D02*
X191976821Y-125943739D01*
X191976821Y-125943739D02*
X191870533Y-125937360D01*
X191870533Y-125937360D02*
X191788054Y-125889741D01*
X191788054Y-125889741D02*
X191729385Y-125800882D01*
X191729385Y-125800882D02*
X191711955Y-125735834D01*
X191711955Y-125735834D02*
X191718335Y-125629545D01*
X191718335Y-125629545D02*
X191837383Y-125423349D01*
X191837383Y-125423349D02*
X191950051Y-125323440D01*
X192075478Y-125010956D02*
X193060551Y-125304759D01*
X193060551Y-125304759D02*
X192537200Y-124782659D01*
X192537200Y-124782659D02*
X193251027Y-124974845D01*
X193251027Y-124974845D02*
X192504049Y-124268648D01*
X192753195Y-124027592D02*
X192735765Y-123962543D01*
X192735765Y-123962543D02*
X192742145Y-123856255D01*
X192742145Y-123856255D02*
X192861192Y-123650059D01*
X192861192Y-123650059D02*
X192950051Y-123591390D01*
X192950051Y-123591390D02*
X193015099Y-123573960D01*
X193015099Y-123573960D02*
X193121388Y-123580340D01*
X193121388Y-123580340D02*
X193203866Y-123627959D01*
X193203866Y-123627959D02*
X193303775Y-123740627D01*
X193303775Y-123740627D02*
X193512932Y-124521213D01*
X193512932Y-124521213D02*
X193822456Y-123985102D01*
X193265954Y-122948991D02*
X193313573Y-122866512D01*
X193313573Y-122866512D02*
X193402432Y-122807843D01*
X193402432Y-122807843D02*
X193467480Y-122790413D01*
X193467480Y-122790413D02*
X193573769Y-122796793D01*
X193573769Y-122796793D02*
X193762535Y-122850792D01*
X193762535Y-122850792D02*
X193968732Y-122969839D01*
X193968732Y-122969839D02*
X194109879Y-123106317D01*
X194109879Y-123106317D02*
X194168549Y-123195175D01*
X194168549Y-123195175D02*
X194185978Y-123260224D01*
X194185978Y-123260224D02*
X194179599Y-123366512D01*
X194179599Y-123366512D02*
X194131980Y-123448991D01*
X194131980Y-123448991D02*
X194043121Y-123507660D01*
X194043121Y-123507660D02*
X193978072Y-123525089D01*
X193978072Y-123525089D02*
X193871784Y-123518710D01*
X193871784Y-123518710D02*
X193683018Y-123464711D01*
X193683018Y-123464711D02*
X193476821Y-123345663D01*
X193476821Y-123345663D02*
X193335673Y-123209186D01*
X193335673Y-123209186D02*
X193277004Y-123120328D01*
X193277004Y-123120328D02*
X193259574Y-123055279D01*
X193259574Y-123055279D02*
X193265954Y-122948991D01*
X175646743Y-119424985D02*
X175772407Y-119507956D01*
X175772407Y-119507956D02*
X176002390Y-119569579D01*
X176002390Y-119569579D02*
X176106707Y-119548232D01*
X176106707Y-119548232D02*
X176165028Y-119514561D01*
X176165028Y-119514561D02*
X176235674Y-119434892D01*
X176235674Y-119434892D02*
X176260324Y-119342900D01*
X176260324Y-119342900D02*
X176238977Y-119238582D01*
X176238977Y-119238582D02*
X176205305Y-119180261D01*
X176205305Y-119180261D02*
X176125637Y-119109615D01*
X176125637Y-119109615D02*
X175953976Y-119014319D01*
X175953976Y-119014319D02*
X175874307Y-118943674D01*
X175874307Y-118943674D02*
X175840636Y-118885352D01*
X175840636Y-118885352D02*
X175819289Y-118781035D01*
X175819289Y-118781035D02*
X175843938Y-118689042D01*
X175843938Y-118689042D02*
X175914584Y-118609374D01*
X175914584Y-118609374D02*
X175972905Y-118575702D01*
X175972905Y-118575702D02*
X176077223Y-118554355D01*
X176077223Y-118554355D02*
X176307205Y-118615978D01*
X176307205Y-118615978D02*
X176432870Y-118698949D01*
X176767170Y-118739226D02*
X176738333Y-119766775D01*
X176738333Y-119766775D02*
X177107190Y-119126127D01*
X177107190Y-119126127D02*
X177106305Y-119865373D01*
X177106305Y-119865373D02*
X177595106Y-118961070D01*
X177892432Y-119139336D02*
X177950753Y-119105665D01*
X177950753Y-119105665D02*
X178055071Y-119084318D01*
X178055071Y-119084318D02*
X178285053Y-119145941D01*
X178285053Y-119145941D02*
X178364721Y-119216587D01*
X178364721Y-119216587D02*
X178398393Y-119274908D01*
X178398393Y-119274908D02*
X178419740Y-119379226D01*
X178419740Y-119379226D02*
X178395091Y-119471219D01*
X178395091Y-119471219D02*
X178312120Y-119596884D01*
X178312120Y-119596884D02*
X177612266Y-120000945D01*
X177612266Y-120000945D02*
X178210220Y-120161166D01*
X179130149Y-120407660D02*
X178578192Y-120259764D01*
X178854171Y-120333712D02*
X179112990Y-119367786D01*
X179112990Y-119367786D02*
X178984023Y-119481126D01*
X178984023Y-119481126D02*
X178867380Y-119548470D01*
X178867380Y-119548470D02*
X178763063Y-119569817D01*
X139690476Y-93407200D02*
X139833333Y-93454819D01*
X139833333Y-93454819D02*
X140071428Y-93454819D01*
X140071428Y-93454819D02*
X140166666Y-93407200D01*
X140166666Y-93407200D02*
X140214285Y-93359580D01*
X140214285Y-93359580D02*
X140261904Y-93264342D01*
X140261904Y-93264342D02*
X140261904Y-93169104D01*
X140261904Y-93169104D02*
X140214285Y-93073866D01*
X140214285Y-93073866D02*
X140166666Y-93026247D01*
X140166666Y-93026247D02*
X140071428Y-92978628D01*
X140071428Y-92978628D02*
X139880952Y-92931009D01*
X139880952Y-92931009D02*
X139785714Y-92883390D01*
X139785714Y-92883390D02*
X139738095Y-92835771D01*
X139738095Y-92835771D02*
X139690476Y-92740533D01*
X139690476Y-92740533D02*
X139690476Y-92645295D01*
X139690476Y-92645295D02*
X139738095Y-92550057D01*
X139738095Y-92550057D02*
X139785714Y-92502438D01*
X139785714Y-92502438D02*
X139880952Y-92454819D01*
X139880952Y-92454819D02*
X140119047Y-92454819D01*
X140119047Y-92454819D02*
X140261904Y-92502438D01*
X140595238Y-92454819D02*
X140833333Y-93454819D01*
X140833333Y-93454819D02*
X141023809Y-92740533D01*
X141023809Y-92740533D02*
X141214285Y-93454819D01*
X141214285Y-93454819D02*
X141452381Y-92454819D01*
X142357142Y-93454819D02*
X141785714Y-93454819D01*
X142071428Y-93454819D02*
X142071428Y-92454819D01*
X142071428Y-92454819D02*
X141976190Y-92597676D01*
X141976190Y-92597676D02*
X141880952Y-92692914D01*
X141880952Y-92692914D02*
X141785714Y-92740533D01*
X143214285Y-92788152D02*
X143214285Y-93454819D01*
X142976190Y-92407200D02*
X142738095Y-93121485D01*
X142738095Y-93121485D02*
X143357142Y-93121485D01*
X122166667Y-77407200D02*
X122309524Y-77454819D01*
X122309524Y-77454819D02*
X122547619Y-77454819D01*
X122547619Y-77454819D02*
X122642857Y-77407200D01*
X122642857Y-77407200D02*
X122690476Y-77359580D01*
X122690476Y-77359580D02*
X122738095Y-77264342D01*
X122738095Y-77264342D02*
X122738095Y-77169104D01*
X122738095Y-77169104D02*
X122690476Y-77073866D01*
X122690476Y-77073866D02*
X122642857Y-77026247D01*
X122642857Y-77026247D02*
X122547619Y-76978628D01*
X122547619Y-76978628D02*
X122357143Y-76931009D01*
X122357143Y-76931009D02*
X122261905Y-76883390D01*
X122261905Y-76883390D02*
X122214286Y-76835771D01*
X122214286Y-76835771D02*
X122166667Y-76740533D01*
X122166667Y-76740533D02*
X122166667Y-76645295D01*
X122166667Y-76645295D02*
X122214286Y-76550057D01*
X122214286Y-76550057D02*
X122261905Y-76502438D01*
X122261905Y-76502438D02*
X122357143Y-76454819D01*
X122357143Y-76454819D02*
X122595238Y-76454819D01*
X122595238Y-76454819D02*
X122738095Y-76502438D01*
X123071429Y-76454819D02*
X123309524Y-77454819D01*
X123309524Y-77454819D02*
X123500000Y-76740533D01*
X123500000Y-76740533D02*
X123690476Y-77454819D01*
X123690476Y-77454819D02*
X123928572Y-76454819D01*
X124357143Y-77454819D02*
X124547619Y-77454819D01*
X124547619Y-77454819D02*
X124642857Y-77407200D01*
X124642857Y-77407200D02*
X124690476Y-77359580D01*
X124690476Y-77359580D02*
X124785714Y-77216723D01*
X124785714Y-77216723D02*
X124833333Y-77026247D01*
X124833333Y-77026247D02*
X124833333Y-76645295D01*
X124833333Y-76645295D02*
X124785714Y-76550057D01*
X124785714Y-76550057D02*
X124738095Y-76502438D01*
X124738095Y-76502438D02*
X124642857Y-76454819D01*
X124642857Y-76454819D02*
X124452381Y-76454819D01*
X124452381Y-76454819D02*
X124357143Y-76502438D01*
X124357143Y-76502438D02*
X124309524Y-76550057D01*
X124309524Y-76550057D02*
X124261905Y-76645295D01*
X124261905Y-76645295D02*
X124261905Y-76883390D01*
X124261905Y-76883390D02*
X124309524Y-76978628D01*
X124309524Y-76978628D02*
X124357143Y-77026247D01*
X124357143Y-77026247D02*
X124452381Y-77073866D01*
X124452381Y-77073866D02*
X124642857Y-77073866D01*
X124642857Y-77073866D02*
X124738095Y-77026247D01*
X124738095Y-77026247D02*
X124785714Y-76978628D01*
X124785714Y-76978628D02*
X124833333Y-76883390D01*
X157690476Y-96407200D02*
X157833333Y-96454819D01*
X157833333Y-96454819D02*
X158071428Y-96454819D01*
X158071428Y-96454819D02*
X158166666Y-96407200D01*
X158166666Y-96407200D02*
X158214285Y-96359580D01*
X158214285Y-96359580D02*
X158261904Y-96264342D01*
X158261904Y-96264342D02*
X158261904Y-96169104D01*
X158261904Y-96169104D02*
X158214285Y-96073866D01*
X158214285Y-96073866D02*
X158166666Y-96026247D01*
X158166666Y-96026247D02*
X158071428Y-95978628D01*
X158071428Y-95978628D02*
X157880952Y-95931009D01*
X157880952Y-95931009D02*
X157785714Y-95883390D01*
X157785714Y-95883390D02*
X157738095Y-95835771D01*
X157738095Y-95835771D02*
X157690476Y-95740533D01*
X157690476Y-95740533D02*
X157690476Y-95645295D01*
X157690476Y-95645295D02*
X157738095Y-95550057D01*
X157738095Y-95550057D02*
X157785714Y-95502438D01*
X157785714Y-95502438D02*
X157880952Y-95454819D01*
X157880952Y-95454819D02*
X158119047Y-95454819D01*
X158119047Y-95454819D02*
X158261904Y-95502438D01*
X158595238Y-95454819D02*
X158833333Y-96454819D01*
X158833333Y-96454819D02*
X159023809Y-95740533D01*
X159023809Y-95740533D02*
X159214285Y-96454819D01*
X159214285Y-96454819D02*
X159452381Y-95454819D01*
X160357142Y-96454819D02*
X159785714Y-96454819D01*
X160071428Y-96454819D02*
X160071428Y-95454819D01*
X160071428Y-95454819D02*
X159976190Y-95597676D01*
X159976190Y-95597676D02*
X159880952Y-95692914D01*
X159880952Y-95692914D02*
X159785714Y-95740533D01*
X160690476Y-95454819D02*
X161309523Y-95454819D01*
X161309523Y-95454819D02*
X160976190Y-95835771D01*
X160976190Y-95835771D02*
X161119047Y-95835771D01*
X161119047Y-95835771D02*
X161214285Y-95883390D01*
X161214285Y-95883390D02*
X161261904Y-95931009D01*
X161261904Y-95931009D02*
X161309523Y-96026247D01*
X161309523Y-96026247D02*
X161309523Y-96264342D01*
X161309523Y-96264342D02*
X161261904Y-96359580D01*
X161261904Y-96359580D02*
X161214285Y-96407200D01*
X161214285Y-96407200D02*
X161119047Y-96454819D01*
X161119047Y-96454819D02*
X160833333Y-96454819D01*
X160833333Y-96454819D02*
X160738095Y-96407200D01*
X160738095Y-96407200D02*
X160690476Y-96359580D01*
X104166667Y-70407200D02*
X104309524Y-70454819D01*
X104309524Y-70454819D02*
X104547619Y-70454819D01*
X104547619Y-70454819D02*
X104642857Y-70407200D01*
X104642857Y-70407200D02*
X104690476Y-70359580D01*
X104690476Y-70359580D02*
X104738095Y-70264342D01*
X104738095Y-70264342D02*
X104738095Y-70169104D01*
X104738095Y-70169104D02*
X104690476Y-70073866D01*
X104690476Y-70073866D02*
X104642857Y-70026247D01*
X104642857Y-70026247D02*
X104547619Y-69978628D01*
X104547619Y-69978628D02*
X104357143Y-69931009D01*
X104357143Y-69931009D02*
X104261905Y-69883390D01*
X104261905Y-69883390D02*
X104214286Y-69835771D01*
X104214286Y-69835771D02*
X104166667Y-69740533D01*
X104166667Y-69740533D02*
X104166667Y-69645295D01*
X104166667Y-69645295D02*
X104214286Y-69550057D01*
X104214286Y-69550057D02*
X104261905Y-69502438D01*
X104261905Y-69502438D02*
X104357143Y-69454819D01*
X104357143Y-69454819D02*
X104595238Y-69454819D01*
X104595238Y-69454819D02*
X104738095Y-69502438D01*
X105071429Y-69454819D02*
X105309524Y-70454819D01*
X105309524Y-70454819D02*
X105500000Y-69740533D01*
X105500000Y-69740533D02*
X105690476Y-70454819D01*
X105690476Y-70454819D02*
X105928572Y-69454819D01*
X106785714Y-69454819D02*
X106309524Y-69454819D01*
X106309524Y-69454819D02*
X106261905Y-69931009D01*
X106261905Y-69931009D02*
X106309524Y-69883390D01*
X106309524Y-69883390D02*
X106404762Y-69835771D01*
X106404762Y-69835771D02*
X106642857Y-69835771D01*
X106642857Y-69835771D02*
X106738095Y-69883390D01*
X106738095Y-69883390D02*
X106785714Y-69931009D01*
X106785714Y-69931009D02*
X106833333Y-70026247D01*
X106833333Y-70026247D02*
X106833333Y-70264342D01*
X106833333Y-70264342D02*
X106785714Y-70359580D01*
X106785714Y-70359580D02*
X106738095Y-70407200D01*
X106738095Y-70407200D02*
X106642857Y-70454819D01*
X106642857Y-70454819D02*
X106404762Y-70454819D01*
X106404762Y-70454819D02*
X106309524Y-70407200D01*
X106309524Y-70407200D02*
X106261905Y-70359580D01*
X103690476Y-87407200D02*
X103833333Y-87454819D01*
X103833333Y-87454819D02*
X104071428Y-87454819D01*
X104071428Y-87454819D02*
X104166666Y-87407200D01*
X104166666Y-87407200D02*
X104214285Y-87359580D01*
X104214285Y-87359580D02*
X104261904Y-87264342D01*
X104261904Y-87264342D02*
X104261904Y-87169104D01*
X104261904Y-87169104D02*
X104214285Y-87073866D01*
X104214285Y-87073866D02*
X104166666Y-87026247D01*
X104166666Y-87026247D02*
X104071428Y-86978628D01*
X104071428Y-86978628D02*
X103880952Y-86931009D01*
X103880952Y-86931009D02*
X103785714Y-86883390D01*
X103785714Y-86883390D02*
X103738095Y-86835771D01*
X103738095Y-86835771D02*
X103690476Y-86740533D01*
X103690476Y-86740533D02*
X103690476Y-86645295D01*
X103690476Y-86645295D02*
X103738095Y-86550057D01*
X103738095Y-86550057D02*
X103785714Y-86502438D01*
X103785714Y-86502438D02*
X103880952Y-86454819D01*
X103880952Y-86454819D02*
X104119047Y-86454819D01*
X104119047Y-86454819D02*
X104261904Y-86502438D01*
X104595238Y-86454819D02*
X104833333Y-87454819D01*
X104833333Y-87454819D02*
X105023809Y-86740533D01*
X105023809Y-86740533D02*
X105214285Y-87454819D01*
X105214285Y-87454819D02*
X105452381Y-86454819D01*
X106357142Y-87454819D02*
X105785714Y-87454819D01*
X106071428Y-87454819D02*
X106071428Y-86454819D01*
X106071428Y-86454819D02*
X105976190Y-86597676D01*
X105976190Y-86597676D02*
X105880952Y-86692914D01*
X105880952Y-86692914D02*
X105785714Y-86740533D01*
X106976190Y-86454819D02*
X107071428Y-86454819D01*
X107071428Y-86454819D02*
X107166666Y-86502438D01*
X107166666Y-86502438D02*
X107214285Y-86550057D01*
X107214285Y-86550057D02*
X107261904Y-86645295D01*
X107261904Y-86645295D02*
X107309523Y-86835771D01*
X107309523Y-86835771D02*
X107309523Y-87073866D01*
X107309523Y-87073866D02*
X107261904Y-87264342D01*
X107261904Y-87264342D02*
X107214285Y-87359580D01*
X107214285Y-87359580D02*
X107166666Y-87407200D01*
X107166666Y-87407200D02*
X107071428Y-87454819D01*
X107071428Y-87454819D02*
X106976190Y-87454819D01*
X106976190Y-87454819D02*
X106880952Y-87407200D01*
X106880952Y-87407200D02*
X106833333Y-87359580D01*
X106833333Y-87359580D02*
X106785714Y-87264342D01*
X106785714Y-87264342D02*
X106738095Y-87073866D01*
X106738095Y-87073866D02*
X106738095Y-86835771D01*
X106738095Y-86835771D02*
X106785714Y-86645295D01*
X106785714Y-86645295D02*
X106833333Y-86550057D01*
X106833333Y-86550057D02*
X106880952Y-86502438D01*
X106880952Y-86502438D02*
X106976190Y-86454819D01*
X197808333Y-62545180D02*
X197808333Y-61830895D01*
X197808333Y-61830895D02*
X197855952Y-61688038D01*
X197855952Y-61688038D02*
X197951190Y-61592800D01*
X197951190Y-61592800D02*
X198094047Y-61545180D01*
X198094047Y-61545180D02*
X198189285Y-61545180D01*
X197379761Y-62449942D02*
X197332142Y-62497561D01*
X197332142Y-62497561D02*
X197236904Y-62545180D01*
X197236904Y-62545180D02*
X196998809Y-62545180D01*
X196998809Y-62545180D02*
X196903571Y-62497561D01*
X196903571Y-62497561D02*
X196855952Y-62449942D01*
X196855952Y-62449942D02*
X196808333Y-62354704D01*
X196808333Y-62354704D02*
X196808333Y-62259466D01*
X196808333Y-62259466D02*
X196855952Y-62116609D01*
X196855952Y-62116609D02*
X197427380Y-61545180D01*
X197427380Y-61545180D02*
X196808333Y-61545180D01*
X154690476Y-115407200D02*
X154833333Y-115454819D01*
X154833333Y-115454819D02*
X155071428Y-115454819D01*
X155071428Y-115454819D02*
X155166666Y-115407200D01*
X155166666Y-115407200D02*
X155214285Y-115359580D01*
X155214285Y-115359580D02*
X155261904Y-115264342D01*
X155261904Y-115264342D02*
X155261904Y-115169104D01*
X155261904Y-115169104D02*
X155214285Y-115073866D01*
X155214285Y-115073866D02*
X155166666Y-115026247D01*
X155166666Y-115026247D02*
X155071428Y-114978628D01*
X155071428Y-114978628D02*
X154880952Y-114931009D01*
X154880952Y-114931009D02*
X154785714Y-114883390D01*
X154785714Y-114883390D02*
X154738095Y-114835771D01*
X154738095Y-114835771D02*
X154690476Y-114740533D01*
X154690476Y-114740533D02*
X154690476Y-114645295D01*
X154690476Y-114645295D02*
X154738095Y-114550057D01*
X154738095Y-114550057D02*
X154785714Y-114502438D01*
X154785714Y-114502438D02*
X154880952Y-114454819D01*
X154880952Y-114454819D02*
X155119047Y-114454819D01*
X155119047Y-114454819D02*
X155261904Y-114502438D01*
X155595238Y-114454819D02*
X155833333Y-115454819D01*
X155833333Y-115454819D02*
X156023809Y-114740533D01*
X156023809Y-114740533D02*
X156214285Y-115454819D01*
X156214285Y-115454819D02*
X156452381Y-114454819D01*
X156785714Y-114550057D02*
X156833333Y-114502438D01*
X156833333Y-114502438D02*
X156928571Y-114454819D01*
X156928571Y-114454819D02*
X157166666Y-114454819D01*
X157166666Y-114454819D02*
X157261904Y-114502438D01*
X157261904Y-114502438D02*
X157309523Y-114550057D01*
X157309523Y-114550057D02*
X157357142Y-114645295D01*
X157357142Y-114645295D02*
X157357142Y-114740533D01*
X157357142Y-114740533D02*
X157309523Y-114883390D01*
X157309523Y-114883390D02*
X156738095Y-115454819D01*
X156738095Y-115454819D02*
X157357142Y-115454819D01*
X157738095Y-114550057D02*
X157785714Y-114502438D01*
X157785714Y-114502438D02*
X157880952Y-114454819D01*
X157880952Y-114454819D02*
X158119047Y-114454819D01*
X158119047Y-114454819D02*
X158214285Y-114502438D01*
X158214285Y-114502438D02*
X158261904Y-114550057D01*
X158261904Y-114550057D02*
X158309523Y-114645295D01*
X158309523Y-114645295D02*
X158309523Y-114740533D01*
X158309523Y-114740533D02*
X158261904Y-114883390D01*
X158261904Y-114883390D02*
X157690476Y-115454819D01*
X157690476Y-115454819D02*
X158309523Y-115454819D01*
X175690476Y-98407200D02*
X175833333Y-98454819D01*
X175833333Y-98454819D02*
X176071428Y-98454819D01*
X176071428Y-98454819D02*
X176166666Y-98407200D01*
X176166666Y-98407200D02*
X176214285Y-98359580D01*
X176214285Y-98359580D02*
X176261904Y-98264342D01*
X176261904Y-98264342D02*
X176261904Y-98169104D01*
X176261904Y-98169104D02*
X176214285Y-98073866D01*
X176214285Y-98073866D02*
X176166666Y-98026247D01*
X176166666Y-98026247D02*
X176071428Y-97978628D01*
X176071428Y-97978628D02*
X175880952Y-97931009D01*
X175880952Y-97931009D02*
X175785714Y-97883390D01*
X175785714Y-97883390D02*
X175738095Y-97835771D01*
X175738095Y-97835771D02*
X175690476Y-97740533D01*
X175690476Y-97740533D02*
X175690476Y-97645295D01*
X175690476Y-97645295D02*
X175738095Y-97550057D01*
X175738095Y-97550057D02*
X175785714Y-97502438D01*
X175785714Y-97502438D02*
X175880952Y-97454819D01*
X175880952Y-97454819D02*
X176119047Y-97454819D01*
X176119047Y-97454819D02*
X176261904Y-97502438D01*
X176595238Y-97454819D02*
X176833333Y-98454819D01*
X176833333Y-98454819D02*
X177023809Y-97740533D01*
X177023809Y-97740533D02*
X177214285Y-98454819D01*
X177214285Y-98454819D02*
X177452381Y-97454819D01*
X178357142Y-98454819D02*
X177785714Y-98454819D01*
X178071428Y-98454819D02*
X178071428Y-97454819D01*
X178071428Y-97454819D02*
X177976190Y-97597676D01*
X177976190Y-97597676D02*
X177880952Y-97692914D01*
X177880952Y-97692914D02*
X177785714Y-97740533D01*
X178738095Y-97550057D02*
X178785714Y-97502438D01*
X178785714Y-97502438D02*
X178880952Y-97454819D01*
X178880952Y-97454819D02*
X179119047Y-97454819D01*
X179119047Y-97454819D02*
X179214285Y-97502438D01*
X179214285Y-97502438D02*
X179261904Y-97550057D01*
X179261904Y-97550057D02*
X179309523Y-97645295D01*
X179309523Y-97645295D02*
X179309523Y-97740533D01*
X179309523Y-97740533D02*
X179261904Y-97883390D01*
X179261904Y-97883390D02*
X178690476Y-98454819D01*
X178690476Y-98454819D02*
X179309523Y-98454819D01*
X176166667Y-64407200D02*
X176309524Y-64454819D01*
X176309524Y-64454819D02*
X176547619Y-64454819D01*
X176547619Y-64454819D02*
X176642857Y-64407200D01*
X176642857Y-64407200D02*
X176690476Y-64359580D01*
X176690476Y-64359580D02*
X176738095Y-64264342D01*
X176738095Y-64264342D02*
X176738095Y-64169104D01*
X176738095Y-64169104D02*
X176690476Y-64073866D01*
X176690476Y-64073866D02*
X176642857Y-64026247D01*
X176642857Y-64026247D02*
X176547619Y-63978628D01*
X176547619Y-63978628D02*
X176357143Y-63931009D01*
X176357143Y-63931009D02*
X176261905Y-63883390D01*
X176261905Y-63883390D02*
X176214286Y-63835771D01*
X176214286Y-63835771D02*
X176166667Y-63740533D01*
X176166667Y-63740533D02*
X176166667Y-63645295D01*
X176166667Y-63645295D02*
X176214286Y-63550057D01*
X176214286Y-63550057D02*
X176261905Y-63502438D01*
X176261905Y-63502438D02*
X176357143Y-63454819D01*
X176357143Y-63454819D02*
X176595238Y-63454819D01*
X176595238Y-63454819D02*
X176738095Y-63502438D01*
X177071429Y-63454819D02*
X177309524Y-64454819D01*
X177309524Y-64454819D02*
X177500000Y-63740533D01*
X177500000Y-63740533D02*
X177690476Y-64454819D01*
X177690476Y-64454819D02*
X177928572Y-63454819D01*
X178833333Y-64454819D02*
X178261905Y-64454819D01*
X178547619Y-64454819D02*
X178547619Y-63454819D01*
X178547619Y-63454819D02*
X178452381Y-63597676D01*
X178452381Y-63597676D02*
X178357143Y-63692914D01*
X178357143Y-63692914D02*
X178261905Y-63740533D01*
%TO.C,SW6*%
D11*
X169900000Y-77400000D02*
X169900000Y-92600000D01*
X169900000Y-92600000D02*
X185100000Y-92600000D01*
X185100000Y-77400000D02*
X169900000Y-77400000D01*
X185100000Y-92600000D02*
X185100000Y-77400000D01*
%TO.C,SW15*%
X115900000Y-90400000D02*
X115900000Y-105600000D01*
X115900000Y-105600000D02*
X131100000Y-105600000D01*
X131100000Y-90400000D02*
X115900000Y-90400000D01*
X131100000Y-105600000D02*
X131100000Y-90400000D01*
%TO.C,SW16*%
X97900000Y-100400000D02*
X97900000Y-115600000D01*
X97900000Y-115600000D02*
X113100000Y-115600000D01*
X113100000Y-100400000D02*
X97900000Y-100400000D01*
X113100000Y-115600000D02*
X113100000Y-100400000D01*
%TO.C,SW2*%
X151900000Y-58400000D02*
X151900000Y-73600000D01*
X151900000Y-73600000D02*
X167100000Y-73600000D01*
X167100000Y-58400000D02*
X151900000Y-58400000D01*
X167100000Y-73600000D02*
X167100000Y-58400000D01*
%TO.C,SW18*%
D12*
X214201924Y-119297372D02*
X215576924Y-116915803D01*
X219398076Y-122297372D02*
X214201924Y-119297372D01*
X219398076Y-122297372D02*
X220773076Y-119915803D01*
X219762436Y-118466284D02*
X217337564Y-117066284D01*
%TO.C,SW3*%
D11*
X133900000Y-55400000D02*
X133900000Y-70600000D01*
X133900000Y-70600000D02*
X149100000Y-70600000D01*
X149100000Y-55400000D02*
X133900000Y-55400000D01*
X149100000Y-70600000D02*
X149100000Y-55400000D01*
%TO.C,SW17*%
X79900000Y-96400000D02*
X79900000Y-111600000D01*
X79900000Y-111600000D02*
X95100000Y-111600000D01*
X95100000Y-96400000D02*
X79900000Y-96400000D01*
X95100000Y-111600000D02*
X95100000Y-96400000D01*
%TO.C,SW19*%
D12*
X201108720Y-145057840D02*
X203533592Y-146457840D01*
X201473080Y-141226752D02*
X200098080Y-143608321D01*
X201473080Y-141226752D02*
X206669232Y-144226752D01*
X206669232Y-144226752D02*
X205294232Y-146608321D01*
%TO.C,SW8*%
D11*
X133900000Y-72400000D02*
X133900000Y-87600000D01*
X133900000Y-87600000D02*
X149100000Y-87600000D01*
X149100000Y-72400000D02*
X133900000Y-72400000D01*
X149100000Y-87600000D02*
X149100000Y-72400000D01*
%TO.C,SW11*%
X79900000Y-79400000D02*
X79900000Y-94600000D01*
X79900000Y-94600000D02*
X95100000Y-94600000D01*
X95100000Y-79400000D02*
X79900000Y-79400000D01*
X95100000Y-94600000D02*
X95100000Y-79400000D01*
%TO.C,SW4*%
X115900000Y-56400000D02*
X115900000Y-71600000D01*
X115900000Y-71600000D02*
X131100000Y-71600000D01*
X131100000Y-56400000D02*
X115900000Y-56400000D01*
X131100000Y-71600000D02*
X131100000Y-56400000D01*
%TO.C,SW7*%
X151900000Y-75400000D02*
X151900000Y-90600000D01*
X151900000Y-90600000D02*
X167100000Y-90600000D01*
X167100000Y-75400000D02*
X151900000Y-75400000D01*
X167100000Y-90600000D02*
X167100000Y-75400000D01*
%TO.C,SW20*%
X186118207Y-129281793D02*
X199281793Y-136881793D01*
X193718207Y-116118207D02*
X186118207Y-129281793D01*
X199281793Y-136881793D02*
X206881793Y-123718207D01*
X206881793Y-123718207D02*
X193718207Y-116118207D01*
%TO.C,SW21*%
X167191939Y-128374012D02*
X181874012Y-132308061D01*
X171125988Y-113691939D02*
X167191939Y-128374012D01*
X181874012Y-132308061D02*
X185808061Y-117625988D01*
X185808061Y-117625988D02*
X171125988Y-113691939D01*
%TO.C,SW14*%
X133900000Y-89400000D02*
X133900000Y-104600000D01*
X133900000Y-104600000D02*
X149100000Y-104600000D01*
X149100000Y-89400000D02*
X133900000Y-89400000D01*
X149100000Y-104600000D02*
X149100000Y-89400000D01*
%TO.C,SW9*%
X115900000Y-73400000D02*
X115900000Y-88600000D01*
X115900000Y-88600000D02*
X131100000Y-88600000D01*
X131100000Y-73400000D02*
X115900000Y-73400000D01*
X131100000Y-88600000D02*
X131100000Y-73400000D01*
%TO.C,SW13*%
X151900000Y-92400000D02*
X151900000Y-107600000D01*
X151900000Y-107600000D02*
X167100000Y-107600000D01*
X167100000Y-92400000D02*
X151900000Y-92400000D01*
X167100000Y-107600000D02*
X167100000Y-92400000D01*
%TO.C,SW5*%
X97900000Y-66400000D02*
X97900000Y-81600000D01*
X97900000Y-81600000D02*
X113100000Y-81600000D01*
X113100000Y-66400000D02*
X97900000Y-66400000D01*
X113100000Y-81600000D02*
X113100000Y-66400000D01*
%TO.C,SW10*%
X97900000Y-83400000D02*
X97900000Y-98600000D01*
X97900000Y-98600000D02*
X113100000Y-98600000D01*
X113100000Y-83400000D02*
X97900000Y-83400000D01*
X113100000Y-98600000D02*
X113100000Y-83400000D01*
%TO.C,J2*%
D12*
X190475000Y-63500000D02*
X204475000Y-63500000D01*
X204475000Y-96500000D01*
X190475000Y-96500000D01*
X190475000Y-63500000D01*
D10*
X191875000Y-97500000D02*
X191475000Y-96800000D01*
X192275000Y-96800000D01*
X191875000Y-97500000D01*
G36*
X191875000Y-97500000D02*
G01*
X191475000Y-96800000D01*
X192275000Y-96800000D01*
X191875000Y-97500000D01*
G37*
%TO.C,SW22*%
D11*
X148900000Y-111400000D02*
X148900000Y-126600000D01*
X148900000Y-126600000D02*
X164100000Y-126600000D01*
X164100000Y-111400000D02*
X148900000Y-111400000D01*
X164100000Y-126600000D02*
X164100000Y-111400000D01*
%TO.C,SW12*%
X169900000Y-94400000D02*
X169900000Y-109600000D01*
X169900000Y-109600000D02*
X185100000Y-109600000D01*
X185100000Y-94400000D02*
X169900000Y-94400000D01*
X185100000Y-109600000D02*
X185100000Y-94400000D01*
%TO.C,SW1*%
X169900000Y-60400000D02*
X169900000Y-75600000D01*
X169900000Y-75600000D02*
X185100000Y-75600000D01*
X185100000Y-60400000D02*
X169900000Y-60400000D01*
X185100000Y-75600000D02*
X185100000Y-60400000D01*
%TD*%
D13*
X183000000Y-85000000D03*
X182500000Y-79850000D03*
X177500000Y-90900000D03*
X177500000Y-85000000D03*
X172500000Y-88800000D03*
X172000000Y-85000000D03*
X169500000Y-58250000D03*
X129000000Y-98000000D03*
X128500000Y-92850000D03*
X123500000Y-103900000D03*
X123500000Y-98000000D03*
X118500000Y-101800000D03*
X118000000Y-98000000D03*
X189500000Y-115000000D03*
X111000000Y-108000000D03*
X110500000Y-102850000D03*
X105500000Y-113900000D03*
X105500000Y-108000000D03*
X100500000Y-111800000D03*
X100000000Y-108000000D03*
X165000000Y-66000000D03*
X164500000Y-60850000D03*
X159500000Y-71900000D03*
X159500000Y-66000000D03*
X154500000Y-69800000D03*
X154000000Y-66000000D03*
X142500000Y-114000000D03*
X220909705Y-118759155D03*
X216510295Y-116219155D03*
X147000000Y-63000000D03*
X146500000Y-57850000D03*
X141500000Y-68900000D03*
X141500000Y-63000000D03*
X136500000Y-66800000D03*
X136000000Y-63000000D03*
X93000000Y-104000000D03*
X92500000Y-98850000D03*
X87500000Y-109900000D03*
X87500000Y-104000000D03*
X82500000Y-107800000D03*
X82000000Y-104000000D03*
X199961451Y-144764969D03*
X204360861Y-147304969D03*
X147000000Y-80000000D03*
X146500000Y-74850000D03*
X141500000Y-85900000D03*
X141500000Y-80000000D03*
X136500000Y-83800000D03*
X136000000Y-80000000D03*
X93000000Y-87000000D03*
X92500000Y-81850000D03*
X87500000Y-92900000D03*
X87500000Y-87000000D03*
X82500000Y-90800000D03*
X82000000Y-87000000D03*
X129000000Y-64000000D03*
X128500000Y-58850000D03*
X123500000Y-69900000D03*
X123500000Y-64000000D03*
X118500000Y-67800000D03*
X118000000Y-64000000D03*
X112000000Y-58000000D03*
X165000000Y-83000000D03*
X164500000Y-77850000D03*
X159500000Y-88900000D03*
X159500000Y-83000000D03*
X154500000Y-86800000D03*
X154000000Y-83000000D03*
X199250000Y-121736860D03*
X194539969Y-119594873D03*
X201609550Y-129450000D03*
X196500000Y-126500000D03*
X197290897Y-132730127D03*
X193750000Y-131263140D03*
X181812592Y-124423505D03*
X182662547Y-119319577D03*
X174972968Y-128698962D03*
X176500000Y-123000000D03*
X170686858Y-125376423D03*
X171187408Y-121576495D03*
X147000000Y-97000000D03*
X146500000Y-91850000D03*
X141500000Y-102900000D03*
X141500000Y-97000000D03*
X136500000Y-100800000D03*
X136000000Y-97000000D03*
X129000000Y-81000000D03*
X128500000Y-75850000D03*
X123500000Y-86900000D03*
X123500000Y-81000000D03*
X118500000Y-84800000D03*
X118000000Y-81000000D03*
X165000000Y-100000000D03*
X164500000Y-94850000D03*
X159500000Y-105900000D03*
X159500000Y-100000000D03*
X154500000Y-103800000D03*
X154000000Y-100000000D03*
X111000000Y-74000000D03*
X110500000Y-68850000D03*
X105500000Y-79900000D03*
X105500000Y-74000000D03*
X100500000Y-77800000D03*
X100000000Y-74000000D03*
X111000000Y-91000000D03*
X110500000Y-85850000D03*
X105500000Y-96900000D03*
X105500000Y-91000000D03*
X100500000Y-94800000D03*
X100000000Y-91000000D03*
X189880000Y-60880000D03*
X189880000Y-63420000D03*
X189880000Y-65960000D03*
X189880000Y-68500000D03*
X189880000Y-71040000D03*
X189880000Y-73580000D03*
X189880000Y-76120000D03*
X205120000Y-76120000D03*
X205120000Y-73580000D03*
X205120000Y-71040000D03*
X205120000Y-68500000D03*
X205120000Y-65960000D03*
X205120000Y-63420000D03*
X205120000Y-60880000D03*
X201335400Y-77812000D03*
X203215000Y-77812000D03*
X200460000Y-83000000D03*
X203000000Y-83000000D03*
X205540000Y-83000000D03*
X193055000Y-68183000D03*
X193055000Y-66278000D03*
X192395000Y-95000000D03*
X194935000Y-95000000D03*
X197475000Y-95000000D03*
X200015000Y-95000000D03*
X202555000Y-95000000D03*
X214056092Y-120432334D03*
X218386220Y-122932334D03*
X216221156Y-121682334D03*
X162000000Y-119000000D03*
X161500000Y-113850000D03*
X156500000Y-124900000D03*
X156500000Y-119000000D03*
X151500000Y-122800000D03*
X151000000Y-119000000D03*
X94000000Y-115000000D03*
X183000000Y-102000000D03*
X182500000Y-96850000D03*
X177500000Y-107900000D03*
X177500000Y-102000000D03*
X172500000Y-105800000D03*
X172000000Y-102000000D03*
X183000000Y-68000000D03*
X182500000Y-62850000D03*
X177500000Y-73900000D03*
X177500000Y-68000000D03*
X172500000Y-71800000D03*
X172000000Y-68000000D03*
X206330000Y-88500000D03*
X206330000Y-91500000D03*
M02*
