%TF.GenerationSoftware,KiCad,Pcbnew,10.0.1*%
%TF.CreationDate,2026-08-10T18:10:41+09:00*%
%TF.ProjectId,reel-left,7265656c-2d6c-4656-9674-2e6b69636164,rev?*%
%TF.SameCoordinates,Original*%
%TF.FileFunction,Profile,NP*%
%FSLAX46Y46*%
G04 Gerber Fmt 4.6, Leading zero omitted, Abs format (unit mm)*
G04 Created by KiCad (PCBNEW 10.0.1) date 2026-08-10 18:10:41*
%MOMM*%
%LPD*%
G01*
G04 APERTURE LIST*
%TA.AperFunction,Profile*%
%ADD10C,0.050000*%
%TD*%
%TA.AperFunction,Profile*%
%ADD11C,0.120000*%
%TD*%
%ADD12C,0.350000*%
G04 APERTURE END LIST*
D10*
X73000000Y-77000000D02*
X73000000Y-114000000D01*
X73000000Y-77000000D02*
G75*
G02*
X74000000Y-76000000I1000000J0D01*
G01*
X74000000Y-115000000D02*
G75*
G02*
X73000000Y-114000000I0J1000000D01*
G01*
X74000000Y-115000000D02*
X91000000Y-115000000D01*
X91000000Y-76000000D02*
X74000000Y-76000000D01*
X91000000Y-115000000D02*
G75*
G02*
X92000000Y-116000000I0J-1000000D01*
G01*
X92000000Y-63000000D02*
X92000000Y-75000000D01*
X92000000Y-63000000D02*
G75*
G02*
X93000000Y-62000000I1000000J0D01*
G01*
X92000000Y-75000000D02*
G75*
G02*
X91000000Y-76000000I-1000000J0D01*
G01*
X92000000Y-116000000D02*
X92000000Y-119000000D01*
X93000000Y-120000000D02*
G75*
G02*
X92000000Y-119000000I0J1000000D01*
G01*
X93000000Y-120000000D02*
X137214719Y-120000000D01*
X110000000Y-62000000D02*
X93000000Y-62000000D01*
X111000000Y-53000000D02*
X111000000Y-61000000D01*
X111000000Y-53000000D02*
G75*
G02*
X112000000Y-52000000I1000000J0D01*
G01*
X111000000Y-61000000D02*
G75*
G02*
X110000000Y-62000000I-1000000J0D01*
G01*
X129500000Y-52000000D02*
X112000000Y-52000000D01*
X130000000Y-51500000D02*
G75*
G02*
X129500000Y-52000000I-500000J0D01*
G01*
X130000000Y-51500000D02*
G75*
G02*
X130500000Y-51000000I500000J0D01*
G01*
X137214719Y-120000000D02*
G75*
G02*
X141466031Y-122368235I-19J-5000000D01*
G01*
X141466044Y-122368227D02*
X145332428Y-128613922D01*
X148681836Y-130900131D02*
G75*
G02*
X145332435Y-128613918I901964J4918031D01*
G01*
X150000000Y-51000000D02*
X130500000Y-51000000D01*
X150000000Y-51000000D02*
G75*
G02*
X151000000Y-52000000I0J-1000000D01*
G01*
X151000000Y-52000000D02*
X151000000Y-53000000D01*
X152000000Y-54000000D02*
G75*
G02*
X151000000Y-53000000I0J1000000D01*
G01*
X169000000Y-54000000D02*
X152000000Y-54000000D01*
X169000000Y-54000000D02*
G75*
G02*
X170000000Y-55000000I0J-1000000D01*
G01*
X171000000Y-56000000D02*
G75*
G02*
X170000000Y-55000000I0J1000000D01*
G01*
X177939898Y-135761454D02*
X148681836Y-130900131D01*
X177939898Y-135761454D02*
G75*
G02*
X179620371Y-136363701I-819498J-4932346D01*
G01*
X200102241Y-141260735D02*
X209352241Y-125239264D01*
X200468266Y-142626760D02*
G75*
G02*
X200102297Y-141260767I499934J865960D01*
G01*
X200468266Y-142626760D02*
X207829488Y-146876747D01*
X205329499Y-151206881D02*
X179620367Y-136363707D01*
X206695526Y-150840852D02*
G75*
G02*
X205329528Y-151206830I-866026J500152D01*
G01*
X207829488Y-146876747D02*
G75*
G02*
X208195550Y-148242793I-499988J-866053D01*
G01*
X208000000Y-56000000D02*
X171000000Y-56000000D01*
X208000000Y-56000000D02*
G75*
G02*
X209000000Y-57000000I0J-1000000D01*
G01*
X208195515Y-148242773D02*
X206695526Y-150840852D01*
X209000000Y-109447443D02*
X209000000Y-57000000D01*
X209352241Y-125239264D02*
G75*
G02*
X210718283Y-124873210I866059J-500036D01*
G01*
X210718266Y-124873239D02*
X218079482Y-129123239D01*
X211500001Y-113777571D02*
G75*
G02*
X208999962Y-109447443I2499999J4330171D01*
G01*
X219445507Y-128757214D02*
G75*
G02*
X218079497Y-129123213I-866007J500014D01*
G01*
X219445507Y-128757214D02*
X223445507Y-121829010D01*
X223079482Y-120462985D02*
X211500001Y-113777571D01*
X223079482Y-120462985D02*
G75*
G02*
X223445469Y-121828988I-500082J-866015D01*
G01*
%TO.C,U1*%
D11*
X193792247Y-65749447D02*
X193792247Y-64708047D01*
X194478047Y-64022247D02*
X196078247Y-64022247D01*
X196078247Y-66435247D02*
X194478047Y-66435247D01*
X196459247Y-64403247D02*
X196459247Y-66054247D01*
X202072247Y-75391953D02*
X202072247Y-73791753D01*
X202453247Y-73410753D02*
X204104247Y-73410753D01*
X203799447Y-76077753D02*
X202758047Y-76077753D01*
X204485247Y-73791753D02*
X204485247Y-75391953D01*
X193792247Y-65749447D02*
G75*
G02*
X194478047Y-66435247I247753J-438047D01*
G01*
X194478047Y-64022247D02*
G75*
G02*
X193792247Y-64708047I-438047J-247753D01*
G01*
X196078247Y-64022247D02*
G75*
G02*
X196459247Y-64403247I8J-380992D01*
G01*
X196459247Y-66054247D02*
G75*
G02*
X196078247Y-66435247I-380996J-4D01*
G01*
X202072247Y-73791753D02*
G75*
G02*
X202453247Y-73410757I380993J3D01*
G01*
X202072247Y-75391953D02*
G75*
G02*
X202758047Y-76077753I247753J-438047D01*
G01*
X203799447Y-76077753D02*
G75*
G02*
X204485251Y-75391946I438053J247753D01*
G01*
X204104247Y-73410753D02*
G75*
G02*
X204485247Y-73791753I3J-380997D01*
G01*
%TD*%
D12*
X184000000Y-85000000D03*
X183500000Y-79850000D03*
X178500000Y-90900000D03*
X178500000Y-85000000D03*
X173500000Y-88800000D03*
X173000000Y-85000000D03*
X169000000Y-74500000D03*
X127000000Y-100000000D03*
X126500000Y-94850000D03*
X121500000Y-105900000D03*
X121500000Y-100000000D03*
X116500000Y-103800000D03*
X116000000Y-100000000D03*
X189500000Y-117000000D03*
X108000000Y-110000000D03*
X107500000Y-104850000D03*
X102500000Y-115900000D03*
X102500000Y-110000000D03*
X97500000Y-113800000D03*
X97000000Y-110000000D03*
X165000000Y-64000000D03*
X164500000Y-58850000D03*
X159500000Y-69900000D03*
X159500000Y-64000000D03*
X154500000Y-67800000D03*
X154000000Y-64000000D03*
X140500000Y-115000000D03*
X221636946Y-121159155D03*
X217237536Y-118619155D03*
X146000000Y-61000000D03*
X145500000Y-55850000D03*
X140500000Y-66900000D03*
X140500000Y-61000000D03*
X135500000Y-64800000D03*
X135000000Y-61000000D03*
X89000000Y-105000000D03*
X88500000Y-99850000D03*
X83500000Y-110900000D03*
X83500000Y-105000000D03*
X78500000Y-108800000D03*
X78000000Y-105000000D03*
X200688692Y-147164969D03*
X205088102Y-149704969D03*
X146000000Y-80000000D03*
X145500000Y-74850000D03*
X140500000Y-85900000D03*
X140500000Y-80000000D03*
X135500000Y-83800000D03*
X135000000Y-80000000D03*
X89000000Y-86000000D03*
X88500000Y-80850000D03*
X83500000Y-91900000D03*
X83500000Y-86000000D03*
X78500000Y-89800000D03*
X78000000Y-86000000D03*
X127000000Y-62000000D03*
X126500000Y-56850000D03*
X121500000Y-67900000D03*
X121500000Y-62000000D03*
X116500000Y-65800000D03*
X116000000Y-62000000D03*
X112500000Y-71500000D03*
X165000000Y-83000000D03*
X164500000Y-77850000D03*
X159500000Y-88900000D03*
X159500000Y-83000000D03*
X154500000Y-86800000D03*
X154000000Y-83000000D03*
X199250000Y-123736860D03*
X194539969Y-121594873D03*
X201609550Y-131450000D03*
X196500000Y-128500000D03*
X197290897Y-134730127D03*
X193750000Y-133263140D03*
X181812592Y-126423505D03*
X182662547Y-121319577D03*
X174972968Y-130698962D03*
X176500000Y-125000000D03*
X170686858Y-127376423D03*
X171187408Y-123576495D03*
X146000000Y-99000000D03*
X145500000Y-93850000D03*
X140500000Y-104900000D03*
X140500000Y-99000000D03*
X135500000Y-102800000D03*
X135000000Y-99000000D03*
X127000000Y-81000000D03*
X126500000Y-75850000D03*
X121500000Y-86900000D03*
X121500000Y-81000000D03*
X116500000Y-84800000D03*
X116000000Y-81000000D03*
X165000000Y-102000000D03*
X164500000Y-96850000D03*
X159500000Y-107900000D03*
X159500000Y-102000000D03*
X154500000Y-105800000D03*
X154000000Y-102000000D03*
X108000000Y-72000000D03*
X107500000Y-66850000D03*
X102500000Y-77900000D03*
X102500000Y-72000000D03*
X97500000Y-75800000D03*
X97000000Y-72000000D03*
X108000000Y-91000000D03*
X107500000Y-85850000D03*
X102500000Y-96900000D03*
X102500000Y-91000000D03*
X97500000Y-94800000D03*
X97000000Y-91000000D03*
X190880000Y-58880000D03*
X190880000Y-61420000D03*
X190880000Y-63960000D03*
X190880000Y-66500000D03*
X190880000Y-69040000D03*
X190880000Y-71580000D03*
X190880000Y-74120000D03*
X206120000Y-74120000D03*
X206120000Y-71580000D03*
X206120000Y-69040000D03*
X206120000Y-66500000D03*
X206120000Y-63960000D03*
X206120000Y-61420000D03*
X206120000Y-58880000D03*
X202335400Y-75812000D03*
X204215000Y-75812000D03*
X201460000Y-81000000D03*
X204000000Y-81000000D03*
X206540000Y-81000000D03*
X194055000Y-66183000D03*
X194055000Y-64278000D03*
X193395000Y-111000000D03*
X195935000Y-111000000D03*
X198475000Y-111000000D03*
X201015000Y-111000000D03*
X203555000Y-111000000D03*
X214783333Y-122832334D03*
X219113461Y-125332334D03*
X216948397Y-124082334D03*
X162000000Y-121000000D03*
X161500000Y-115850000D03*
X156500000Y-126900000D03*
X156500000Y-121000000D03*
X151500000Y-124800000D03*
X151000000Y-121000000D03*
X93500000Y-100500000D03*
X184000000Y-104000000D03*
X183500000Y-98850000D03*
X178500000Y-109900000D03*
X178500000Y-104000000D03*
X173500000Y-107800000D03*
X173000000Y-104000000D03*
X184000000Y-66000000D03*
X183500000Y-60850000D03*
X178500000Y-71900000D03*
X178500000Y-66000000D03*
X173500000Y-69800000D03*
X173000000Y-66000000D03*
X207330000Y-88500000D03*
X207330000Y-91500000D03*
X197000000Y-75375000D03*
X195000000Y-75375000D03*
M02*
