M48
; DRILL file KiCad 10.0.1 date 2026-08-10T18:10:45
; FORMAT={-:-/ absolute / metric / decimal}
; #@! TF.CreationDate,2026-08-10T18:10:45+09:00
; #@! TF.GenerationSoftware,Kicad,Pcbnew,10.0.1
; #@! TF.FileFunction,Plated,1,2,PTH
FMAT,2
METRIC
; #@! TA.AperFunction,Plated,PTH,ViaDrill
T1C0.300
; #@! TA.AperFunction,Plated,PTH,ComponentDrill
T2C0.750
; #@! TA.AperFunction,Plated,PTH,ComponentDrill
T3C0.762
; #@! TA.AperFunction,Plated,PTH,ComponentDrill
T4C0.800
; #@! TA.AperFunction,Plated,PTH,ComponentDrill
T5C0.813
; #@! TA.AperFunction,Plated,PTH,ComponentDrill
T6C1.000
%
G90
G05
T1
X51.5Y-104.5
X53.75Y-105.5
X54.0Y-52.0
X54.0Y-53.5
X54.208Y-82.458
X59.5Y-91.25
X60.0Y-106.5
X61.5Y-91.25
X61.5Y-105.5
X64.0Y-87.5
X68.5Y-89.5
X68.5Y-91.5
X70.5Y-90.5
X76.5Y-70.75
X81.5Y-70.0
X83.5Y-70.0
X89.5Y-70.75
X89.5Y-89.25
X108.5Y-67.0
X108.5Y-87.0
X119.75Y-102.5
X121.5Y-88.0
X122.0Y-101.5
X125.6Y-103.1
X127.5Y-68.75
X128.75Y-89.25
X139.5Y-65.0
X140.75Y-116.75
X141.5Y-117.439
X145.25Y-99.0
X146.5Y-70.25
X149.0Y-94.0
X157.75Y-92.5
X159.25Y-92.5
X162.0Y-75.5
X162.0Y-94.0
T2
X55.5Y-69.875
X57.5Y-69.875
T3
X64.5Y-73.5
T4
X55.145Y-103.5
X57.685Y-103.5
X60.225Y-103.5
X62.765Y-103.5
X65.305Y-103.5
T5
X51.38Y-51.38
X51.38Y-53.92
X51.38Y-56.46
X51.38Y-59.0
X51.38Y-61.54
X51.38Y-64.08
X51.38Y-66.62
X61.96Y-73.5
X66.62Y-51.38
X66.62Y-53.92
X66.62Y-56.46
X66.62Y-59.0
X66.62Y-61.54
X66.62Y-64.08
X66.62Y-66.62
X67.04Y-73.5
T6
X54.555Y-56.778
X54.555Y-58.683
X62.835Y-68.312
X64.715Y-68.312
X139.0Y-110.7
X139.0Y-113.24
X139.0Y-115.78
X139.0Y-118.32
X139.0Y-120.86
X139.0Y-123.4
X139.0Y-125.94
M30
