M48
; DRILL file KiCad 10.0.1 date 2026-08-10T18:10:45
; FORMAT={-:-/ absolute / metric / decimal}
; #@! TF.CreationDate,2026-08-10T18:10:45+09:00
; #@! TF.GenerationSoftware,Kicad,Pcbnew,10.0.1
; #@! TF.FileFunction,NonPlated,1,2,NPTH
FMAT,2
METRIC
; #@! TA.AperFunction,NonPlated,NPTH,ComponentDrill
T1C0.900
; #@! TA.AperFunction,NonPlated,NPTH,ComponentDrill
T2C1.600
; #@! TA.AperFunction,NonPlated,NPTH,ComponentDrill
T3C1.900
; #@! TA.AperFunction,NonPlated,NPTH,ComponentDrill
T4C3.050
; #@! TA.AperFunction,NonPlated,NPTH,ComponentDrill
T5C4.300
; #@! TA.AperFunction,NonPlated,NPTH,ComponentDrill
T6C5.050
%
G90
G05
T1
X50.17Y-81.0
X50.17Y-84.0
T2
X56.46Y-125.255
X72.497Y-111.231
X84.0Y-53.35
X84.0Y-72.35
X84.0Y-91.35
X103.0Y-51.35
X103.0Y-70.35
X103.0Y-89.35
X122.0Y-48.35
X122.0Y-67.35
X122.0Y-86.35
X141.0Y-49.35
X141.0Y-68.35
X141.0Y-87.35
X160.0Y-59.35
X160.0Y-78.35
X160.0Y-97.35
X179.0Y-73.35
X179.0Y-92.35
T3
X46.75Y-118.737
X52.25Y-128.263
X63.687Y-118.924
X73.5Y-58.5
X73.5Y-77.5
X73.5Y-96.5
X74.313Y-116.076
X84.5Y-58.5
X84.5Y-77.5
X84.5Y-96.5
X92.5Y-56.5
X92.5Y-75.5
X92.5Y-94.5
X103.5Y-56.5
X103.5Y-75.5
X103.5Y-94.5
X111.5Y-53.5
X111.5Y-72.5
X111.5Y-91.5
X122.5Y-53.5
X122.5Y-72.5
X122.5Y-91.5
X130.5Y-54.5
X130.5Y-73.5
X130.5Y-92.5
X141.5Y-54.5
X141.5Y-73.5
X141.5Y-92.5
X149.5Y-64.5
X149.5Y-83.5
X149.5Y-102.5
X160.5Y-64.5
X160.5Y-83.5
X160.5Y-102.5
X168.5Y-78.5
X168.5Y-97.5
X179.5Y-78.5
X179.5Y-97.5
T4
X43.709Y-121.07
X44.39Y-126.45
X65.154Y-122.465
X70.527Y-123.199
X74.0Y-62.3
X74.0Y-81.3
X74.0Y-100.3
X79.0Y-64.4
X79.0Y-83.4
X79.0Y-102.4
X93.0Y-60.3
X93.0Y-79.3
X93.0Y-98.3
X98.0Y-62.4
X98.0Y-81.4
X98.0Y-100.4
X112.0Y-57.3
X112.0Y-76.3
X112.0Y-95.3
X117.0Y-59.4
X117.0Y-78.4
X117.0Y-97.4
X131.0Y-58.3
X131.0Y-77.3
X131.0Y-96.3
X136.0Y-60.4
X136.0Y-79.4
X136.0Y-98.4
X150.0Y-68.3
X150.0Y-87.3
X150.0Y-106.3
X155.0Y-70.4
X155.0Y-89.4
X155.0Y-108.4
X169.0Y-82.3
X169.0Y-101.3
X174.0Y-84.4
X174.0Y-103.4
T5
X56.0Y-109.5
X88.0Y-68.0
X145.0Y-64.0
X165.0Y-88.0
T6
X49.5Y-123.5
X69.0Y-117.5
X79.0Y-58.5
X79.0Y-77.5
X79.0Y-96.5
X98.0Y-56.5
X98.0Y-75.5
X98.0Y-94.5
X117.0Y-53.5
X117.0Y-72.5
X117.0Y-91.5
X136.0Y-54.5
X136.0Y-73.5
X136.0Y-92.5
X155.0Y-64.5
X155.0Y-83.5
X155.0Y-102.5
X174.0Y-78.5
X174.0Y-97.5
M30
