M48
; DRILL file KiCad 10.0.1 date 2026-07-22T17:23:02
; FORMAT={-:-/ absolute / metric / decimal}
; #@! TF.CreationDate,2026-07-22T17:23:02+09:00
; #@! TF.GenerationSoftware,Kicad,Pcbnew,10.0.1
; #@! TF.FileFunction,Plated,1,2,PTH
FMAT,2
METRIC
; #@! TA.AperFunction,Plated,PTH,ViaDrill
T1C0.300
; #@! TA.AperFunction,Plated,PTH,ComponentDrill
T2C0.762
; #@! TA.AperFunction,Plated,PTH,ComponentDrill
T3C0.800
; #@! TA.AperFunction,Plated,PTH,ComponentDrill
T4C0.813
; #@! TA.AperFunction,Plated,PTH,ComponentDrill
T5C1.000
%
G90
G05
T1
X52.25Y-107.5
X55.208Y-83.458
X57.5Y-66.5
X58.5Y-71.0
X58.5Y-73.125
X61.0Y-81.0
X61.0Y-84.0
X68.5Y-81.5
X68.5Y-104.0
X73.5Y-74.0
X73.5Y-91.0
X88.0Y-72.5
X88.0Y-89.5
X91.0Y-71.5
X91.5Y-89.0
X105.5Y-86.5
X106.0Y-69.0
X108.0Y-101.5
X109.0Y-69.5
X109.5Y-86.5
X120.25Y-86.5
X123.5Y-69.5
X127.5Y-70.0
X135.5Y-60.0
X137.5Y-59.0
X140.7Y-115.5
X141.5Y-115.5
X143.5Y-61.0
X143.5Y-78.5
X143.5Y-99.0
X155.5Y-70.0
X159.5Y-93.0
X160.0Y-76.5
T2
X65.5Y-75.5
T3
X55.145Y-89.0
X57.685Y-89.0
X60.225Y-89.0
X62.765Y-89.0
X65.305Y-89.0
T4
X52.38Y-53.38
X52.38Y-55.92
X52.38Y-58.46
X52.38Y-61.0
X52.38Y-63.54
X52.38Y-66.08
X52.38Y-68.62
X62.96Y-75.5
X67.62Y-53.38
X67.62Y-55.92
X67.62Y-58.46
X67.62Y-61.0
X67.62Y-63.54
X67.62Y-66.08
X67.62Y-68.62
X68.04Y-75.5
T5
X55.555Y-58.778
X55.555Y-60.683
X63.835Y-70.312
X65.715Y-70.312
X139.0Y-108.7
X139.0Y-111.24
X139.0Y-113.78
X139.0Y-116.32
X139.0Y-118.86
X139.0Y-121.4
X139.0Y-123.94
M30
