%TF.GenerationSoftware,KiCad,Pcbnew,10.0.1*%
%TF.CreationDate,2026-08-10T18:10:44+09:00*%
%TF.ProjectId,reel-right,7265656c-2d72-4696-9768-742e6b696361,rev?*%
%TF.SameCoordinates,Original*%
%TF.FileFunction,Legend,Top*%
%TF.FilePolarity,Positive*%
%FSLAX46Y46*%
G04 Gerber Fmt 4.6, Leading zero omitted, Abs format (unit mm)*
G04 Created by KiCad (PCBNEW 10.0.1) date 2026-08-10 18:10:44*
%MOMM*%
%LPD*%
G01*
G04 APERTURE LIST*
%ADD10C,0.150000*%
%ADD11C,0.100000*%
%ADD12C,0.120000*%
%ADD13C,0.200000*%
G04 APERTURE END LIST*
D10*
X115666667Y-68407200D02*
X115809524Y-68454819D01*
X115809524Y-68454819D02*
X116047619Y-68454819D01*
X116047619Y-68454819D02*
X116142857Y-68407200D01*
X116142857Y-68407200D02*
X116190476Y-68359580D01*
X116190476Y-68359580D02*
X116238095Y-68264342D01*
X116238095Y-68264342D02*
X116238095Y-68169104D01*
X116238095Y-68169104D02*
X116190476Y-68073866D01*
X116190476Y-68073866D02*
X116142857Y-68026247D01*
X116142857Y-68026247D02*
X116047619Y-67978628D01*
X116047619Y-67978628D02*
X115857143Y-67931009D01*
X115857143Y-67931009D02*
X115761905Y-67883390D01*
X115761905Y-67883390D02*
X115714286Y-67835771D01*
X115714286Y-67835771D02*
X115666667Y-67740533D01*
X115666667Y-67740533D02*
X115666667Y-67645295D01*
X115666667Y-67645295D02*
X115714286Y-67550057D01*
X115714286Y-67550057D02*
X115761905Y-67502438D01*
X115761905Y-67502438D02*
X115857143Y-67454819D01*
X115857143Y-67454819D02*
X116095238Y-67454819D01*
X116095238Y-67454819D02*
X116238095Y-67502438D01*
X116571429Y-67454819D02*
X116809524Y-68454819D01*
X116809524Y-68454819D02*
X117000000Y-67740533D01*
X117000000Y-67740533D02*
X117190476Y-68454819D01*
X117190476Y-68454819D02*
X117428572Y-67454819D01*
X117952381Y-67883390D02*
X117857143Y-67835771D01*
X117857143Y-67835771D02*
X117809524Y-67788152D01*
X117809524Y-67788152D02*
X117761905Y-67692914D01*
X117761905Y-67692914D02*
X117761905Y-67645295D01*
X117761905Y-67645295D02*
X117809524Y-67550057D01*
X117809524Y-67550057D02*
X117857143Y-67502438D01*
X117857143Y-67502438D02*
X117952381Y-67454819D01*
X117952381Y-67454819D02*
X118142857Y-67454819D01*
X118142857Y-67454819D02*
X118238095Y-67502438D01*
X118238095Y-67502438D02*
X118285714Y-67550057D01*
X118285714Y-67550057D02*
X118333333Y-67645295D01*
X118333333Y-67645295D02*
X118333333Y-67692914D01*
X118333333Y-67692914D02*
X118285714Y-67788152D01*
X118285714Y-67788152D02*
X118238095Y-67835771D01*
X118238095Y-67835771D02*
X118142857Y-67883390D01*
X118142857Y-67883390D02*
X117952381Y-67883390D01*
X117952381Y-67883390D02*
X117857143Y-67931009D01*
X117857143Y-67931009D02*
X117809524Y-67978628D01*
X117809524Y-67978628D02*
X117761905Y-68073866D01*
X117761905Y-68073866D02*
X117761905Y-68264342D01*
X117761905Y-68264342D02*
X117809524Y-68359580D01*
X117809524Y-68359580D02*
X117857143Y-68407200D01*
X117857143Y-68407200D02*
X117952381Y-68454819D01*
X117952381Y-68454819D02*
X118142857Y-68454819D01*
X118142857Y-68454819D02*
X118238095Y-68407200D01*
X118238095Y-68407200D02*
X118285714Y-68359580D01*
X118285714Y-68359580D02*
X118333333Y-68264342D01*
X118333333Y-68264342D02*
X118333333Y-68073866D01*
X118333333Y-68073866D02*
X118285714Y-67978628D01*
X118285714Y-67978628D02*
X118238095Y-67931009D01*
X118238095Y-67931009D02*
X118142857Y-67883390D01*
X153190476Y-98407200D02*
X153333333Y-98454819D01*
X153333333Y-98454819D02*
X153571428Y-98454819D01*
X153571428Y-98454819D02*
X153666666Y-98407200D01*
X153666666Y-98407200D02*
X153714285Y-98359580D01*
X153714285Y-98359580D02*
X153761904Y-98264342D01*
X153761904Y-98264342D02*
X153761904Y-98169104D01*
X153761904Y-98169104D02*
X153714285Y-98073866D01*
X153714285Y-98073866D02*
X153666666Y-98026247D01*
X153666666Y-98026247D02*
X153571428Y-97978628D01*
X153571428Y-97978628D02*
X153380952Y-97931009D01*
X153380952Y-97931009D02*
X153285714Y-97883390D01*
X153285714Y-97883390D02*
X153238095Y-97835771D01*
X153238095Y-97835771D02*
X153190476Y-97740533D01*
X153190476Y-97740533D02*
X153190476Y-97645295D01*
X153190476Y-97645295D02*
X153238095Y-97550057D01*
X153238095Y-97550057D02*
X153285714Y-97502438D01*
X153285714Y-97502438D02*
X153380952Y-97454819D01*
X153380952Y-97454819D02*
X153619047Y-97454819D01*
X153619047Y-97454819D02*
X153761904Y-97502438D01*
X154095238Y-97454819D02*
X154333333Y-98454819D01*
X154333333Y-98454819D02*
X154523809Y-97740533D01*
X154523809Y-97740533D02*
X154714285Y-98454819D01*
X154714285Y-98454819D02*
X154952381Y-97454819D01*
X155857142Y-98454819D02*
X155285714Y-98454819D01*
X155571428Y-98454819D02*
X155571428Y-97454819D01*
X155571428Y-97454819D02*
X155476190Y-97597676D01*
X155476190Y-97597676D02*
X155380952Y-97692914D01*
X155380952Y-97692914D02*
X155285714Y-97740533D01*
X156809523Y-98454819D02*
X156238095Y-98454819D01*
X156523809Y-98454819D02*
X156523809Y-97454819D01*
X156523809Y-97454819D02*
X156428571Y-97597676D01*
X156428571Y-97597676D02*
X156333333Y-97692914D01*
X156333333Y-97692914D02*
X156238095Y-97740533D01*
X134190476Y-88407200D02*
X134333333Y-88454819D01*
X134333333Y-88454819D02*
X134571428Y-88454819D01*
X134571428Y-88454819D02*
X134666666Y-88407200D01*
X134666666Y-88407200D02*
X134714285Y-88359580D01*
X134714285Y-88359580D02*
X134761904Y-88264342D01*
X134761904Y-88264342D02*
X134761904Y-88169104D01*
X134761904Y-88169104D02*
X134714285Y-88073866D01*
X134714285Y-88073866D02*
X134666666Y-88026247D01*
X134666666Y-88026247D02*
X134571428Y-87978628D01*
X134571428Y-87978628D02*
X134380952Y-87931009D01*
X134380952Y-87931009D02*
X134285714Y-87883390D01*
X134285714Y-87883390D02*
X134238095Y-87835771D01*
X134238095Y-87835771D02*
X134190476Y-87740533D01*
X134190476Y-87740533D02*
X134190476Y-87645295D01*
X134190476Y-87645295D02*
X134238095Y-87550057D01*
X134238095Y-87550057D02*
X134285714Y-87502438D01*
X134285714Y-87502438D02*
X134380952Y-87454819D01*
X134380952Y-87454819D02*
X134619047Y-87454819D01*
X134619047Y-87454819D02*
X134761904Y-87502438D01*
X135095238Y-87454819D02*
X135333333Y-88454819D01*
X135333333Y-88454819D02*
X135523809Y-87740533D01*
X135523809Y-87740533D02*
X135714285Y-88454819D01*
X135714285Y-88454819D02*
X135952381Y-87454819D01*
X136857142Y-88454819D02*
X136285714Y-88454819D01*
X136571428Y-88454819D02*
X136571428Y-87454819D01*
X136571428Y-87454819D02*
X136476190Y-87597676D01*
X136476190Y-87597676D02*
X136380952Y-87692914D01*
X136380952Y-87692914D02*
X136285714Y-87740533D01*
X137238095Y-87550057D02*
X137285714Y-87502438D01*
X137285714Y-87502438D02*
X137380952Y-87454819D01*
X137380952Y-87454819D02*
X137619047Y-87454819D01*
X137619047Y-87454819D02*
X137714285Y-87502438D01*
X137714285Y-87502438D02*
X137761904Y-87550057D01*
X137761904Y-87550057D02*
X137809523Y-87645295D01*
X137809523Y-87645295D02*
X137809523Y-87740533D01*
X137809523Y-87740533D02*
X137761904Y-87883390D01*
X137761904Y-87883390D02*
X137190476Y-88454819D01*
X137190476Y-88454819D02*
X137809523Y-88454819D01*
X172190476Y-93407200D02*
X172333333Y-93454819D01*
X172333333Y-93454819D02*
X172571428Y-93454819D01*
X172571428Y-93454819D02*
X172666666Y-93407200D01*
X172666666Y-93407200D02*
X172714285Y-93359580D01*
X172714285Y-93359580D02*
X172761904Y-93264342D01*
X172761904Y-93264342D02*
X172761904Y-93169104D01*
X172761904Y-93169104D02*
X172714285Y-93073866D01*
X172714285Y-93073866D02*
X172666666Y-93026247D01*
X172666666Y-93026247D02*
X172571428Y-92978628D01*
X172571428Y-92978628D02*
X172380952Y-92931009D01*
X172380952Y-92931009D02*
X172285714Y-92883390D01*
X172285714Y-92883390D02*
X172238095Y-92835771D01*
X172238095Y-92835771D02*
X172190476Y-92740533D01*
X172190476Y-92740533D02*
X172190476Y-92645295D01*
X172190476Y-92645295D02*
X172238095Y-92550057D01*
X172238095Y-92550057D02*
X172285714Y-92502438D01*
X172285714Y-92502438D02*
X172380952Y-92454819D01*
X172380952Y-92454819D02*
X172619047Y-92454819D01*
X172619047Y-92454819D02*
X172761904Y-92502438D01*
X173095238Y-92454819D02*
X173333333Y-93454819D01*
X173333333Y-93454819D02*
X173523809Y-92740533D01*
X173523809Y-92740533D02*
X173714285Y-93454819D01*
X173714285Y-93454819D02*
X173952381Y-92454819D01*
X174857142Y-93454819D02*
X174285714Y-93454819D01*
X174571428Y-93454819D02*
X174571428Y-92454819D01*
X174571428Y-92454819D02*
X174476190Y-92597676D01*
X174476190Y-92597676D02*
X174380952Y-92692914D01*
X174380952Y-92692914D02*
X174285714Y-92740533D01*
X175190476Y-92454819D02*
X175857142Y-92454819D01*
X175857142Y-92454819D02*
X175428571Y-93454819D01*
X77666667Y-54407200D02*
X77809524Y-54454819D01*
X77809524Y-54454819D02*
X78047619Y-54454819D01*
X78047619Y-54454819D02*
X78142857Y-54407200D01*
X78142857Y-54407200D02*
X78190476Y-54359580D01*
X78190476Y-54359580D02*
X78238095Y-54264342D01*
X78238095Y-54264342D02*
X78238095Y-54169104D01*
X78238095Y-54169104D02*
X78190476Y-54073866D01*
X78190476Y-54073866D02*
X78142857Y-54026247D01*
X78142857Y-54026247D02*
X78047619Y-53978628D01*
X78047619Y-53978628D02*
X77857143Y-53931009D01*
X77857143Y-53931009D02*
X77761905Y-53883390D01*
X77761905Y-53883390D02*
X77714286Y-53835771D01*
X77714286Y-53835771D02*
X77666667Y-53740533D01*
X77666667Y-53740533D02*
X77666667Y-53645295D01*
X77666667Y-53645295D02*
X77714286Y-53550057D01*
X77714286Y-53550057D02*
X77761905Y-53502438D01*
X77761905Y-53502438D02*
X77857143Y-53454819D01*
X77857143Y-53454819D02*
X78095238Y-53454819D01*
X78095238Y-53454819D02*
X78238095Y-53502438D01*
X78571429Y-53454819D02*
X78809524Y-54454819D01*
X78809524Y-54454819D02*
X79000000Y-53740533D01*
X79000000Y-53740533D02*
X79190476Y-54454819D01*
X79190476Y-54454819D02*
X79428572Y-53454819D01*
X80285714Y-53454819D02*
X79809524Y-53454819D01*
X79809524Y-53454819D02*
X79761905Y-53931009D01*
X79761905Y-53931009D02*
X79809524Y-53883390D01*
X79809524Y-53883390D02*
X79904762Y-53835771D01*
X79904762Y-53835771D02*
X80142857Y-53835771D01*
X80142857Y-53835771D02*
X80238095Y-53883390D01*
X80238095Y-53883390D02*
X80285714Y-53931009D01*
X80285714Y-53931009D02*
X80333333Y-54026247D01*
X80333333Y-54026247D02*
X80333333Y-54264342D01*
X80333333Y-54264342D02*
X80285714Y-54359580D01*
X80285714Y-54359580D02*
X80238095Y-54407200D01*
X80238095Y-54407200D02*
X80142857Y-54454819D01*
X80142857Y-54454819D02*
X79904762Y-54454819D01*
X79904762Y-54454819D02*
X79809524Y-54407200D01*
X79809524Y-54407200D02*
X79761905Y-54359580D01*
X153666667Y-60407200D02*
X153809524Y-60454819D01*
X153809524Y-60454819D02*
X154047619Y-60454819D01*
X154047619Y-60454819D02*
X154142857Y-60407200D01*
X154142857Y-60407200D02*
X154190476Y-60359580D01*
X154190476Y-60359580D02*
X154238095Y-60264342D01*
X154238095Y-60264342D02*
X154238095Y-60169104D01*
X154238095Y-60169104D02*
X154190476Y-60073866D01*
X154190476Y-60073866D02*
X154142857Y-60026247D01*
X154142857Y-60026247D02*
X154047619Y-59978628D01*
X154047619Y-59978628D02*
X153857143Y-59931009D01*
X153857143Y-59931009D02*
X153761905Y-59883390D01*
X153761905Y-59883390D02*
X153714286Y-59835771D01*
X153714286Y-59835771D02*
X153666667Y-59740533D01*
X153666667Y-59740533D02*
X153666667Y-59645295D01*
X153666667Y-59645295D02*
X153714286Y-59550057D01*
X153714286Y-59550057D02*
X153761905Y-59502438D01*
X153761905Y-59502438D02*
X153857143Y-59454819D01*
X153857143Y-59454819D02*
X154095238Y-59454819D01*
X154095238Y-59454819D02*
X154238095Y-59502438D01*
X154571429Y-59454819D02*
X154809524Y-60454819D01*
X154809524Y-60454819D02*
X155000000Y-59740533D01*
X155000000Y-59740533D02*
X155190476Y-60454819D01*
X155190476Y-60454819D02*
X155428572Y-59454819D01*
X156333333Y-60454819D02*
X155761905Y-60454819D01*
X156047619Y-60454819D02*
X156047619Y-59454819D01*
X156047619Y-59454819D02*
X155952381Y-59597676D01*
X155952381Y-59597676D02*
X155857143Y-59692914D01*
X155857143Y-59692914D02*
X155761905Y-59740533D01*
X96666667Y-71407200D02*
X96809524Y-71454819D01*
X96809524Y-71454819D02*
X97047619Y-71454819D01*
X97047619Y-71454819D02*
X97142857Y-71407200D01*
X97142857Y-71407200D02*
X97190476Y-71359580D01*
X97190476Y-71359580D02*
X97238095Y-71264342D01*
X97238095Y-71264342D02*
X97238095Y-71169104D01*
X97238095Y-71169104D02*
X97190476Y-71073866D01*
X97190476Y-71073866D02*
X97142857Y-71026247D01*
X97142857Y-71026247D02*
X97047619Y-70978628D01*
X97047619Y-70978628D02*
X96857143Y-70931009D01*
X96857143Y-70931009D02*
X96761905Y-70883390D01*
X96761905Y-70883390D02*
X96714286Y-70835771D01*
X96714286Y-70835771D02*
X96666667Y-70740533D01*
X96666667Y-70740533D02*
X96666667Y-70645295D01*
X96666667Y-70645295D02*
X96714286Y-70550057D01*
X96714286Y-70550057D02*
X96761905Y-70502438D01*
X96761905Y-70502438D02*
X96857143Y-70454819D01*
X96857143Y-70454819D02*
X97095238Y-70454819D01*
X97095238Y-70454819D02*
X97238095Y-70502438D01*
X97571429Y-70454819D02*
X97809524Y-71454819D01*
X97809524Y-71454819D02*
X98000000Y-70740533D01*
X98000000Y-70740533D02*
X98190476Y-71454819D01*
X98190476Y-71454819D02*
X98428572Y-70454819D01*
X98857143Y-71454819D02*
X99047619Y-71454819D01*
X99047619Y-71454819D02*
X99142857Y-71407200D01*
X99142857Y-71407200D02*
X99190476Y-71359580D01*
X99190476Y-71359580D02*
X99285714Y-71216723D01*
X99285714Y-71216723D02*
X99333333Y-71026247D01*
X99333333Y-71026247D02*
X99333333Y-70645295D01*
X99333333Y-70645295D02*
X99285714Y-70550057D01*
X99285714Y-70550057D02*
X99238095Y-70502438D01*
X99238095Y-70502438D02*
X99142857Y-70454819D01*
X99142857Y-70454819D02*
X98952381Y-70454819D01*
X98952381Y-70454819D02*
X98857143Y-70502438D01*
X98857143Y-70502438D02*
X98809524Y-70550057D01*
X98809524Y-70550057D02*
X98761905Y-70645295D01*
X98761905Y-70645295D02*
X98761905Y-70883390D01*
X98761905Y-70883390D02*
X98809524Y-70978628D01*
X98809524Y-70978628D02*
X98857143Y-71026247D01*
X98857143Y-71026247D02*
X98952381Y-71073866D01*
X98952381Y-71073866D02*
X99142857Y-71073866D01*
X99142857Y-71073866D02*
X99238095Y-71026247D01*
X99238095Y-71026247D02*
X99285714Y-70978628D01*
X99285714Y-70978628D02*
X99333333Y-70883390D01*
X134666667Y-50407200D02*
X134809524Y-50454819D01*
X134809524Y-50454819D02*
X135047619Y-50454819D01*
X135047619Y-50454819D02*
X135142857Y-50407200D01*
X135142857Y-50407200D02*
X135190476Y-50359580D01*
X135190476Y-50359580D02*
X135238095Y-50264342D01*
X135238095Y-50264342D02*
X135238095Y-50169104D01*
X135238095Y-50169104D02*
X135190476Y-50073866D01*
X135190476Y-50073866D02*
X135142857Y-50026247D01*
X135142857Y-50026247D02*
X135047619Y-49978628D01*
X135047619Y-49978628D02*
X134857143Y-49931009D01*
X134857143Y-49931009D02*
X134761905Y-49883390D01*
X134761905Y-49883390D02*
X134714286Y-49835771D01*
X134714286Y-49835771D02*
X134666667Y-49740533D01*
X134666667Y-49740533D02*
X134666667Y-49645295D01*
X134666667Y-49645295D02*
X134714286Y-49550057D01*
X134714286Y-49550057D02*
X134761905Y-49502438D01*
X134761905Y-49502438D02*
X134857143Y-49454819D01*
X134857143Y-49454819D02*
X135095238Y-49454819D01*
X135095238Y-49454819D02*
X135238095Y-49502438D01*
X135571429Y-49454819D02*
X135809524Y-50454819D01*
X135809524Y-50454819D02*
X136000000Y-49740533D01*
X136000000Y-49740533D02*
X136190476Y-50454819D01*
X136190476Y-50454819D02*
X136428572Y-49454819D01*
X136761905Y-49550057D02*
X136809524Y-49502438D01*
X136809524Y-49502438D02*
X136904762Y-49454819D01*
X136904762Y-49454819D02*
X137142857Y-49454819D01*
X137142857Y-49454819D02*
X137238095Y-49502438D01*
X137238095Y-49502438D02*
X137285714Y-49550057D01*
X137285714Y-49550057D02*
X137333333Y-49645295D01*
X137333333Y-49645295D02*
X137333333Y-49740533D01*
X137333333Y-49740533D02*
X137285714Y-49883390D01*
X137285714Y-49883390D02*
X136714286Y-50454819D01*
X136714286Y-50454819D02*
X137333333Y-50454819D01*
X172190476Y-74407200D02*
X172333333Y-74454819D01*
X172333333Y-74454819D02*
X172571428Y-74454819D01*
X172571428Y-74454819D02*
X172666666Y-74407200D01*
X172666666Y-74407200D02*
X172714285Y-74359580D01*
X172714285Y-74359580D02*
X172761904Y-74264342D01*
X172761904Y-74264342D02*
X172761904Y-74169104D01*
X172761904Y-74169104D02*
X172714285Y-74073866D01*
X172714285Y-74073866D02*
X172666666Y-74026247D01*
X172666666Y-74026247D02*
X172571428Y-73978628D01*
X172571428Y-73978628D02*
X172380952Y-73931009D01*
X172380952Y-73931009D02*
X172285714Y-73883390D01*
X172285714Y-73883390D02*
X172238095Y-73835771D01*
X172238095Y-73835771D02*
X172190476Y-73740533D01*
X172190476Y-73740533D02*
X172190476Y-73645295D01*
X172190476Y-73645295D02*
X172238095Y-73550057D01*
X172238095Y-73550057D02*
X172285714Y-73502438D01*
X172285714Y-73502438D02*
X172380952Y-73454819D01*
X172380952Y-73454819D02*
X172619047Y-73454819D01*
X172619047Y-73454819D02*
X172761904Y-73502438D01*
X173095238Y-73454819D02*
X173333333Y-74454819D01*
X173333333Y-74454819D02*
X173523809Y-73740533D01*
X173523809Y-73740533D02*
X173714285Y-74454819D01*
X173714285Y-74454819D02*
X173952381Y-73454819D01*
X174857142Y-74454819D02*
X174285714Y-74454819D01*
X174571428Y-74454819D02*
X174571428Y-73454819D01*
X174571428Y-73454819D02*
X174476190Y-73597676D01*
X174476190Y-73597676D02*
X174380952Y-73692914D01*
X174380952Y-73692914D02*
X174285714Y-73740533D01*
X175714285Y-73454819D02*
X175523809Y-73454819D01*
X175523809Y-73454819D02*
X175428571Y-73502438D01*
X175428571Y-73502438D02*
X175380952Y-73550057D01*
X175380952Y-73550057D02*
X175285714Y-73692914D01*
X175285714Y-73692914D02*
X175238095Y-73883390D01*
X175238095Y-73883390D02*
X175238095Y-74264342D01*
X175238095Y-74264342D02*
X175285714Y-74359580D01*
X175285714Y-74359580D02*
X175333333Y-74407200D01*
X175333333Y-74407200D02*
X175428571Y-74454819D01*
X175428571Y-74454819D02*
X175619047Y-74454819D01*
X175619047Y-74454819D02*
X175714285Y-74407200D01*
X175714285Y-74407200D02*
X175761904Y-74359580D01*
X175761904Y-74359580D02*
X175809523Y-74264342D01*
X175809523Y-74264342D02*
X175809523Y-74026247D01*
X175809523Y-74026247D02*
X175761904Y-73931009D01*
X175761904Y-73931009D02*
X175714285Y-73883390D01*
X175714285Y-73883390D02*
X175619047Y-73835771D01*
X175619047Y-73835771D02*
X175428571Y-73835771D01*
X175428571Y-73835771D02*
X175333333Y-73883390D01*
X175333333Y-73883390D02*
X175285714Y-73931009D01*
X175285714Y-73931009D02*
X175238095Y-74026247D01*
X153666667Y-79407200D02*
X153809524Y-79454819D01*
X153809524Y-79454819D02*
X154047619Y-79454819D01*
X154047619Y-79454819D02*
X154142857Y-79407200D01*
X154142857Y-79407200D02*
X154190476Y-79359580D01*
X154190476Y-79359580D02*
X154238095Y-79264342D01*
X154238095Y-79264342D02*
X154238095Y-79169104D01*
X154238095Y-79169104D02*
X154190476Y-79073866D01*
X154190476Y-79073866D02*
X154142857Y-79026247D01*
X154142857Y-79026247D02*
X154047619Y-78978628D01*
X154047619Y-78978628D02*
X153857143Y-78931009D01*
X153857143Y-78931009D02*
X153761905Y-78883390D01*
X153761905Y-78883390D02*
X153714286Y-78835771D01*
X153714286Y-78835771D02*
X153666667Y-78740533D01*
X153666667Y-78740533D02*
X153666667Y-78645295D01*
X153666667Y-78645295D02*
X153714286Y-78550057D01*
X153714286Y-78550057D02*
X153761905Y-78502438D01*
X153761905Y-78502438D02*
X153857143Y-78454819D01*
X153857143Y-78454819D02*
X154095238Y-78454819D01*
X154095238Y-78454819D02*
X154238095Y-78502438D01*
X154571429Y-78454819D02*
X154809524Y-79454819D01*
X154809524Y-79454819D02*
X155000000Y-78740533D01*
X155000000Y-78740533D02*
X155190476Y-79454819D01*
X155190476Y-79454819D02*
X155428572Y-78454819D01*
X156238095Y-78454819D02*
X156047619Y-78454819D01*
X156047619Y-78454819D02*
X155952381Y-78502438D01*
X155952381Y-78502438D02*
X155904762Y-78550057D01*
X155904762Y-78550057D02*
X155809524Y-78692914D01*
X155809524Y-78692914D02*
X155761905Y-78883390D01*
X155761905Y-78883390D02*
X155761905Y-79264342D01*
X155761905Y-79264342D02*
X155809524Y-79359580D01*
X155809524Y-79359580D02*
X155857143Y-79407200D01*
X155857143Y-79407200D02*
X155952381Y-79454819D01*
X155952381Y-79454819D02*
X156142857Y-79454819D01*
X156142857Y-79454819D02*
X156238095Y-79407200D01*
X156238095Y-79407200D02*
X156285714Y-79359580D01*
X156285714Y-79359580D02*
X156333333Y-79264342D01*
X156333333Y-79264342D02*
X156333333Y-79026247D01*
X156333333Y-79026247D02*
X156285714Y-78931009D01*
X156285714Y-78931009D02*
X156238095Y-78883390D01*
X156238095Y-78883390D02*
X156142857Y-78835771D01*
X156142857Y-78835771D02*
X155952381Y-78835771D01*
X155952381Y-78835771D02*
X155857143Y-78883390D01*
X155857143Y-78883390D02*
X155809524Y-78931009D01*
X155809524Y-78931009D02*
X155761905Y-79026247D01*
X115666667Y-49407200D02*
X115809524Y-49454819D01*
X115809524Y-49454819D02*
X116047619Y-49454819D01*
X116047619Y-49454819D02*
X116142857Y-49407200D01*
X116142857Y-49407200D02*
X116190476Y-49359580D01*
X116190476Y-49359580D02*
X116238095Y-49264342D01*
X116238095Y-49264342D02*
X116238095Y-49169104D01*
X116238095Y-49169104D02*
X116190476Y-49073866D01*
X116190476Y-49073866D02*
X116142857Y-49026247D01*
X116142857Y-49026247D02*
X116047619Y-48978628D01*
X116047619Y-48978628D02*
X115857143Y-48931009D01*
X115857143Y-48931009D02*
X115761905Y-48883390D01*
X115761905Y-48883390D02*
X115714286Y-48835771D01*
X115714286Y-48835771D02*
X115666667Y-48740533D01*
X115666667Y-48740533D02*
X115666667Y-48645295D01*
X115666667Y-48645295D02*
X115714286Y-48550057D01*
X115714286Y-48550057D02*
X115761905Y-48502438D01*
X115761905Y-48502438D02*
X115857143Y-48454819D01*
X115857143Y-48454819D02*
X116095238Y-48454819D01*
X116095238Y-48454819D02*
X116238095Y-48502438D01*
X116571429Y-48454819D02*
X116809524Y-49454819D01*
X116809524Y-49454819D02*
X117000000Y-48740533D01*
X117000000Y-48740533D02*
X117190476Y-49454819D01*
X117190476Y-49454819D02*
X117428572Y-48454819D01*
X117714286Y-48454819D02*
X118333333Y-48454819D01*
X118333333Y-48454819D02*
X118000000Y-48835771D01*
X118000000Y-48835771D02*
X118142857Y-48835771D01*
X118142857Y-48835771D02*
X118238095Y-48883390D01*
X118238095Y-48883390D02*
X118285714Y-48931009D01*
X118285714Y-48931009D02*
X118333333Y-49026247D01*
X118333333Y-49026247D02*
X118333333Y-49264342D01*
X118333333Y-49264342D02*
X118285714Y-49359580D01*
X118285714Y-49359580D02*
X118238095Y-49407200D01*
X118238095Y-49407200D02*
X118142857Y-49454819D01*
X118142857Y-49454819D02*
X117857143Y-49454819D01*
X117857143Y-49454819D02*
X117761905Y-49407200D01*
X117761905Y-49407200D02*
X117714286Y-49359580D01*
X96190476Y-90407200D02*
X96333333Y-90454819D01*
X96333333Y-90454819D02*
X96571428Y-90454819D01*
X96571428Y-90454819D02*
X96666666Y-90407200D01*
X96666666Y-90407200D02*
X96714285Y-90359580D01*
X96714285Y-90359580D02*
X96761904Y-90264342D01*
X96761904Y-90264342D02*
X96761904Y-90169104D01*
X96761904Y-90169104D02*
X96714285Y-90073866D01*
X96714285Y-90073866D02*
X96666666Y-90026247D01*
X96666666Y-90026247D02*
X96571428Y-89978628D01*
X96571428Y-89978628D02*
X96380952Y-89931009D01*
X96380952Y-89931009D02*
X96285714Y-89883390D01*
X96285714Y-89883390D02*
X96238095Y-89835771D01*
X96238095Y-89835771D02*
X96190476Y-89740533D01*
X96190476Y-89740533D02*
X96190476Y-89645295D01*
X96190476Y-89645295D02*
X96238095Y-89550057D01*
X96238095Y-89550057D02*
X96285714Y-89502438D01*
X96285714Y-89502438D02*
X96380952Y-89454819D01*
X96380952Y-89454819D02*
X96619047Y-89454819D01*
X96619047Y-89454819D02*
X96761904Y-89502438D01*
X97095238Y-89454819D02*
X97333333Y-90454819D01*
X97333333Y-90454819D02*
X97523809Y-89740533D01*
X97523809Y-89740533D02*
X97714285Y-90454819D01*
X97714285Y-90454819D02*
X97952381Y-89454819D01*
X98857142Y-90454819D02*
X98285714Y-90454819D01*
X98571428Y-90454819D02*
X98571428Y-89454819D01*
X98571428Y-89454819D02*
X98476190Y-89597676D01*
X98476190Y-89597676D02*
X98380952Y-89692914D01*
X98380952Y-89692914D02*
X98285714Y-89740533D01*
X99714285Y-89788152D02*
X99714285Y-90454819D01*
X99476190Y-89407200D02*
X99238095Y-90121485D01*
X99238095Y-90121485D02*
X99857142Y-90121485D01*
X77190476Y-73407200D02*
X77333333Y-73454819D01*
X77333333Y-73454819D02*
X77571428Y-73454819D01*
X77571428Y-73454819D02*
X77666666Y-73407200D01*
X77666666Y-73407200D02*
X77714285Y-73359580D01*
X77714285Y-73359580D02*
X77761904Y-73264342D01*
X77761904Y-73264342D02*
X77761904Y-73169104D01*
X77761904Y-73169104D02*
X77714285Y-73073866D01*
X77714285Y-73073866D02*
X77666666Y-73026247D01*
X77666666Y-73026247D02*
X77571428Y-72978628D01*
X77571428Y-72978628D02*
X77380952Y-72931009D01*
X77380952Y-72931009D02*
X77285714Y-72883390D01*
X77285714Y-72883390D02*
X77238095Y-72835771D01*
X77238095Y-72835771D02*
X77190476Y-72740533D01*
X77190476Y-72740533D02*
X77190476Y-72645295D01*
X77190476Y-72645295D02*
X77238095Y-72550057D01*
X77238095Y-72550057D02*
X77285714Y-72502438D01*
X77285714Y-72502438D02*
X77380952Y-72454819D01*
X77380952Y-72454819D02*
X77619047Y-72454819D01*
X77619047Y-72454819D02*
X77761904Y-72502438D01*
X78095238Y-72454819D02*
X78333333Y-73454819D01*
X78333333Y-73454819D02*
X78523809Y-72740533D01*
X78523809Y-72740533D02*
X78714285Y-73454819D01*
X78714285Y-73454819D02*
X78952381Y-72454819D01*
X79857142Y-73454819D02*
X79285714Y-73454819D01*
X79571428Y-73454819D02*
X79571428Y-72454819D01*
X79571428Y-72454819D02*
X79476190Y-72597676D01*
X79476190Y-72597676D02*
X79380952Y-72692914D01*
X79380952Y-72692914D02*
X79285714Y-72740533D01*
X80476190Y-72454819D02*
X80571428Y-72454819D01*
X80571428Y-72454819D02*
X80666666Y-72502438D01*
X80666666Y-72502438D02*
X80714285Y-72550057D01*
X80714285Y-72550057D02*
X80761904Y-72645295D01*
X80761904Y-72645295D02*
X80809523Y-72835771D01*
X80809523Y-72835771D02*
X80809523Y-73073866D01*
X80809523Y-73073866D02*
X80761904Y-73264342D01*
X80761904Y-73264342D02*
X80714285Y-73359580D01*
X80714285Y-73359580D02*
X80666666Y-73407200D01*
X80666666Y-73407200D02*
X80571428Y-73454819D01*
X80571428Y-73454819D02*
X80476190Y-73454819D01*
X80476190Y-73454819D02*
X80380952Y-73407200D01*
X80380952Y-73407200D02*
X80333333Y-73359580D01*
X80333333Y-73359580D02*
X80285714Y-73264342D01*
X80285714Y-73264342D02*
X80238095Y-73073866D01*
X80238095Y-73073866D02*
X80238095Y-72835771D01*
X80238095Y-72835771D02*
X80285714Y-72645295D01*
X80285714Y-72645295D02*
X80333333Y-72550057D01*
X80333333Y-72550057D02*
X80380952Y-72502438D01*
X80380952Y-72502438D02*
X80476190Y-72454819D01*
X65857524Y-113361664D02*
X66007838Y-113370686D01*
X66007838Y-113370686D02*
X66237820Y-113309062D01*
X66237820Y-113309062D02*
X66317489Y-113238417D01*
X66317489Y-113238417D02*
X66351160Y-113180095D01*
X66351160Y-113180095D02*
X66372507Y-113075778D01*
X66372507Y-113075778D02*
X66347858Y-112983785D01*
X66347858Y-112983785D02*
X66277212Y-112904117D01*
X66277212Y-112904117D02*
X66218891Y-112870445D01*
X66218891Y-112870445D02*
X66114573Y-112849098D01*
X66114573Y-112849098D02*
X65918263Y-112852400D01*
X65918263Y-112852400D02*
X65813945Y-112831053D01*
X65813945Y-112831053D02*
X65755624Y-112797381D01*
X65755624Y-112797381D02*
X65684978Y-112717713D01*
X65684978Y-112717713D02*
X65660328Y-112625720D01*
X65660328Y-112625720D02*
X65681675Y-112521403D01*
X65681675Y-112521403D02*
X65715347Y-112463081D01*
X65715347Y-112463081D02*
X65795015Y-112392435D01*
X65795015Y-112392435D02*
X66024998Y-112330812D01*
X66024998Y-112330812D02*
X66175312Y-112339834D01*
X66484962Y-112207565D02*
X66973764Y-113111867D01*
X66973764Y-113111867D02*
X66972879Y-112372621D01*
X66972879Y-112372621D02*
X67341736Y-113013269D01*
X67341736Y-113013269D02*
X67312899Y-111985720D01*
X68445651Y-112717476D02*
X67893693Y-112865373D01*
X68169672Y-112791424D02*
X67910853Y-111825499D01*
X67910853Y-111825499D02*
X67855834Y-111988137D01*
X67855834Y-111988137D02*
X67788491Y-112104780D01*
X67788491Y-112104780D02*
X67708822Y-112175426D01*
X68849712Y-112017622D02*
X68745394Y-111996275D01*
X68745394Y-111996275D02*
X68687073Y-111962603D01*
X68687073Y-111962603D02*
X68616427Y-111882935D01*
X68616427Y-111882935D02*
X68604102Y-111836938D01*
X68604102Y-111836938D02*
X68625449Y-111732621D01*
X68625449Y-111732621D02*
X68659121Y-111674300D01*
X68659121Y-111674300D02*
X68738789Y-111603654D01*
X68738789Y-111603654D02*
X68922775Y-111554355D01*
X68922775Y-111554355D02*
X69027093Y-111575702D01*
X69027093Y-111575702D02*
X69085414Y-111609374D01*
X69085414Y-111609374D02*
X69156060Y-111689042D01*
X69156060Y-111689042D02*
X69168385Y-111735038D01*
X69168385Y-111735038D02*
X69147038Y-111839356D01*
X69147038Y-111839356D02*
X69113366Y-111897677D01*
X69113366Y-111897677D02*
X69033698Y-111968323D01*
X69033698Y-111968323D02*
X68849712Y-112017622D01*
X68849712Y-112017622D02*
X68770044Y-112088268D01*
X68770044Y-112088268D02*
X68736372Y-112146589D01*
X68736372Y-112146589D02*
X68715025Y-112250907D01*
X68715025Y-112250907D02*
X68764324Y-112434892D01*
X68764324Y-112434892D02*
X68834969Y-112514561D01*
X68834969Y-112514561D02*
X68893291Y-112548232D01*
X68893291Y-112548232D02*
X68997608Y-112569579D01*
X68997608Y-112569579D02*
X69181594Y-112520281D01*
X69181594Y-112520281D02*
X69261262Y-112449635D01*
X69261262Y-112449635D02*
X69294934Y-112391314D01*
X69294934Y-112391314D02*
X69316281Y-112286996D01*
X69316281Y-112286996D02*
X69266982Y-112103010D01*
X69266982Y-112103010D02*
X69196336Y-112023342D01*
X69196336Y-112023342D02*
X69138015Y-111989670D01*
X69138015Y-111989670D02*
X69033698Y-111968323D01*
X96666667Y-52407200D02*
X96809524Y-52454819D01*
X96809524Y-52454819D02*
X97047619Y-52454819D01*
X97047619Y-52454819D02*
X97142857Y-52407200D01*
X97142857Y-52407200D02*
X97190476Y-52359580D01*
X97190476Y-52359580D02*
X97238095Y-52264342D01*
X97238095Y-52264342D02*
X97238095Y-52169104D01*
X97238095Y-52169104D02*
X97190476Y-52073866D01*
X97190476Y-52073866D02*
X97142857Y-52026247D01*
X97142857Y-52026247D02*
X97047619Y-51978628D01*
X97047619Y-51978628D02*
X96857143Y-51931009D01*
X96857143Y-51931009D02*
X96761905Y-51883390D01*
X96761905Y-51883390D02*
X96714286Y-51835771D01*
X96714286Y-51835771D02*
X96666667Y-51740533D01*
X96666667Y-51740533D02*
X96666667Y-51645295D01*
X96666667Y-51645295D02*
X96714286Y-51550057D01*
X96714286Y-51550057D02*
X96761905Y-51502438D01*
X96761905Y-51502438D02*
X96857143Y-51454819D01*
X96857143Y-51454819D02*
X97095238Y-51454819D01*
X97095238Y-51454819D02*
X97238095Y-51502438D01*
X97571429Y-51454819D02*
X97809524Y-52454819D01*
X97809524Y-52454819D02*
X98000000Y-51740533D01*
X98000000Y-51740533D02*
X98190476Y-52454819D01*
X98190476Y-52454819D02*
X98428572Y-51454819D01*
X99238095Y-51788152D02*
X99238095Y-52454819D01*
X99000000Y-51407200D02*
X98761905Y-52121485D01*
X98761905Y-52121485D02*
X99380952Y-52121485D01*
X115190476Y-87407200D02*
X115333333Y-87454819D01*
X115333333Y-87454819D02*
X115571428Y-87454819D01*
X115571428Y-87454819D02*
X115666666Y-87407200D01*
X115666666Y-87407200D02*
X115714285Y-87359580D01*
X115714285Y-87359580D02*
X115761904Y-87264342D01*
X115761904Y-87264342D02*
X115761904Y-87169104D01*
X115761904Y-87169104D02*
X115714285Y-87073866D01*
X115714285Y-87073866D02*
X115666666Y-87026247D01*
X115666666Y-87026247D02*
X115571428Y-86978628D01*
X115571428Y-86978628D02*
X115380952Y-86931009D01*
X115380952Y-86931009D02*
X115285714Y-86883390D01*
X115285714Y-86883390D02*
X115238095Y-86835771D01*
X115238095Y-86835771D02*
X115190476Y-86740533D01*
X115190476Y-86740533D02*
X115190476Y-86645295D01*
X115190476Y-86645295D02*
X115238095Y-86550057D01*
X115238095Y-86550057D02*
X115285714Y-86502438D01*
X115285714Y-86502438D02*
X115380952Y-86454819D01*
X115380952Y-86454819D02*
X115619047Y-86454819D01*
X115619047Y-86454819D02*
X115761904Y-86502438D01*
X116095238Y-86454819D02*
X116333333Y-87454819D01*
X116333333Y-87454819D02*
X116523809Y-86740533D01*
X116523809Y-86740533D02*
X116714285Y-87454819D01*
X116714285Y-87454819D02*
X116952381Y-86454819D01*
X117857142Y-87454819D02*
X117285714Y-87454819D01*
X117571428Y-87454819D02*
X117571428Y-86454819D01*
X117571428Y-86454819D02*
X117476190Y-86597676D01*
X117476190Y-86597676D02*
X117380952Y-86692914D01*
X117380952Y-86692914D02*
X117285714Y-86740533D01*
X118190476Y-86454819D02*
X118809523Y-86454819D01*
X118809523Y-86454819D02*
X118476190Y-86835771D01*
X118476190Y-86835771D02*
X118619047Y-86835771D01*
X118619047Y-86835771D02*
X118714285Y-86883390D01*
X118714285Y-86883390D02*
X118761904Y-86931009D01*
X118761904Y-86931009D02*
X118809523Y-87026247D01*
X118809523Y-87026247D02*
X118809523Y-87264342D01*
X118809523Y-87264342D02*
X118761904Y-87359580D01*
X118761904Y-87359580D02*
X118714285Y-87407200D01*
X118714285Y-87407200D02*
X118619047Y-87454819D01*
X118619047Y-87454819D02*
X118333333Y-87454819D01*
X118333333Y-87454819D02*
X118238095Y-87407200D01*
X118238095Y-87407200D02*
X118190476Y-87359580D01*
X52242592Y-119636505D02*
X52272781Y-119784032D01*
X52272781Y-119784032D02*
X52391829Y-119990229D01*
X52391829Y-119990229D02*
X52480687Y-120048898D01*
X52480687Y-120048898D02*
X52545736Y-120066328D01*
X52545736Y-120066328D02*
X52652024Y-120059948D01*
X52652024Y-120059948D02*
X52734503Y-120012329D01*
X52734503Y-120012329D02*
X52793172Y-119923471D01*
X52793172Y-119923471D02*
X52810602Y-119858422D01*
X52810602Y-119858422D02*
X52804222Y-119752134D01*
X52804222Y-119752134D02*
X52750223Y-119563367D01*
X52750223Y-119563367D02*
X52743843Y-119457079D01*
X52743843Y-119457079D02*
X52761273Y-119392030D01*
X52761273Y-119392030D02*
X52819942Y-119303172D01*
X52819942Y-119303172D02*
X52902421Y-119255553D01*
X52902421Y-119255553D02*
X53008709Y-119249173D01*
X53008709Y-119249173D02*
X53073758Y-119266603D01*
X53073758Y-119266603D02*
X53162616Y-119325272D01*
X53162616Y-119325272D02*
X53281664Y-119531468D01*
X53281664Y-119531468D02*
X53311853Y-119678996D01*
X53519759Y-119943861D02*
X52772781Y-120650058D01*
X52772781Y-120650058D02*
X53486609Y-120457872D01*
X53486609Y-120457872D02*
X52963258Y-120979972D01*
X52963258Y-120979972D02*
X53948331Y-120686169D01*
X53534686Y-121969715D02*
X53248972Y-121474844D01*
X53391829Y-121722280D02*
X54257854Y-121222280D01*
X54257854Y-121222280D02*
X54086517Y-121211230D01*
X54086517Y-121211230D02*
X53956420Y-121176370D01*
X53956420Y-121176370D02*
X53867561Y-121117701D01*
X53772781Y-122382109D02*
X53868019Y-122547066D01*
X53868019Y-122547066D02*
X53956878Y-122605735D01*
X53956878Y-122605735D02*
X54021927Y-122623165D01*
X54021927Y-122623165D02*
X54193264Y-122634215D01*
X54193264Y-122634215D02*
X54382030Y-122580216D01*
X54382030Y-122580216D02*
X54711945Y-122389740D01*
X54711945Y-122389740D02*
X54770614Y-122300881D01*
X54770614Y-122300881D02*
X54788044Y-122235832D01*
X54788044Y-122235832D02*
X54781664Y-122129544D01*
X54781664Y-122129544D02*
X54686426Y-121964587D01*
X54686426Y-121964587D02*
X54597567Y-121905918D01*
X54597567Y-121905918D02*
X54532519Y-121888488D01*
X54532519Y-121888488D02*
X54426230Y-121894868D01*
X54426230Y-121894868D02*
X54220034Y-122013916D01*
X54220034Y-122013916D02*
X54161365Y-122102774D01*
X54161365Y-122102774D02*
X54143935Y-122167823D01*
X54143935Y-122167823D02*
X54150315Y-122274111D01*
X54150315Y-122274111D02*
X54245553Y-122439068D01*
X54245553Y-122439068D02*
X54334411Y-122497737D01*
X54334411Y-122497737D02*
X54399460Y-122515167D01*
X54399460Y-122515167D02*
X54505748Y-122508787D01*
X134666667Y-69407200D02*
X134809524Y-69454819D01*
X134809524Y-69454819D02*
X135047619Y-69454819D01*
X135047619Y-69454819D02*
X135142857Y-69407200D01*
X135142857Y-69407200D02*
X135190476Y-69359580D01*
X135190476Y-69359580D02*
X135238095Y-69264342D01*
X135238095Y-69264342D02*
X135238095Y-69169104D01*
X135238095Y-69169104D02*
X135190476Y-69073866D01*
X135190476Y-69073866D02*
X135142857Y-69026247D01*
X135142857Y-69026247D02*
X135047619Y-68978628D01*
X135047619Y-68978628D02*
X134857143Y-68931009D01*
X134857143Y-68931009D02*
X134761905Y-68883390D01*
X134761905Y-68883390D02*
X134714286Y-68835771D01*
X134714286Y-68835771D02*
X134666667Y-68740533D01*
X134666667Y-68740533D02*
X134666667Y-68645295D01*
X134666667Y-68645295D02*
X134714286Y-68550057D01*
X134714286Y-68550057D02*
X134761905Y-68502438D01*
X134761905Y-68502438D02*
X134857143Y-68454819D01*
X134857143Y-68454819D02*
X135095238Y-68454819D01*
X135095238Y-68454819D02*
X135238095Y-68502438D01*
X135571429Y-68454819D02*
X135809524Y-69454819D01*
X135809524Y-69454819D02*
X136000000Y-68740533D01*
X136000000Y-68740533D02*
X136190476Y-69454819D01*
X136190476Y-69454819D02*
X136428572Y-68454819D01*
X136714286Y-68454819D02*
X137380952Y-68454819D01*
X137380952Y-68454819D02*
X136952381Y-69454819D01*
X60558333Y-71045180D02*
X60558333Y-70330895D01*
X60558333Y-70330895D02*
X60605952Y-70188038D01*
X60605952Y-70188038D02*
X60701190Y-70092800D01*
X60701190Y-70092800D02*
X60844047Y-70045180D01*
X60844047Y-70045180D02*
X60939285Y-70045180D01*
X60177380Y-71045180D02*
X59558333Y-71045180D01*
X59558333Y-71045180D02*
X59891666Y-70664228D01*
X59891666Y-70664228D02*
X59748809Y-70664228D01*
X59748809Y-70664228D02*
X59653571Y-70616609D01*
X59653571Y-70616609D02*
X59605952Y-70568990D01*
X59605952Y-70568990D02*
X59558333Y-70473752D01*
X59558333Y-70473752D02*
X59558333Y-70235657D01*
X59558333Y-70235657D02*
X59605952Y-70140419D01*
X59605952Y-70140419D02*
X59653571Y-70092800D01*
X59653571Y-70092800D02*
X59748809Y-70045180D01*
X59748809Y-70045180D02*
X60034523Y-70045180D01*
X60034523Y-70045180D02*
X60129761Y-70092800D01*
X60129761Y-70092800D02*
X60177380Y-70140419D01*
D11*
X138666666Y-107457419D02*
X138666666Y-108171704D01*
X138666666Y-108171704D02*
X138619047Y-108314561D01*
X138619047Y-108314561D02*
X138523809Y-108409800D01*
X138523809Y-108409800D02*
X138380952Y-108457419D01*
X138380952Y-108457419D02*
X138285714Y-108457419D01*
X139095238Y-107552657D02*
X139142857Y-107505038D01*
X139142857Y-107505038D02*
X139238095Y-107457419D01*
X139238095Y-107457419D02*
X139476190Y-107457419D01*
X139476190Y-107457419D02*
X139571428Y-107505038D01*
X139571428Y-107505038D02*
X139619047Y-107552657D01*
X139619047Y-107552657D02*
X139666666Y-107647895D01*
X139666666Y-107647895D02*
X139666666Y-107743133D01*
X139666666Y-107743133D02*
X139619047Y-107885990D01*
X139619047Y-107885990D02*
X139047619Y-108457419D01*
X139047619Y-108457419D02*
X139666666Y-108457419D01*
D10*
X77190476Y-92407200D02*
X77333333Y-92454819D01*
X77333333Y-92454819D02*
X77571428Y-92454819D01*
X77571428Y-92454819D02*
X77666666Y-92407200D01*
X77666666Y-92407200D02*
X77714285Y-92359580D01*
X77714285Y-92359580D02*
X77761904Y-92264342D01*
X77761904Y-92264342D02*
X77761904Y-92169104D01*
X77761904Y-92169104D02*
X77714285Y-92073866D01*
X77714285Y-92073866D02*
X77666666Y-92026247D01*
X77666666Y-92026247D02*
X77571428Y-91978628D01*
X77571428Y-91978628D02*
X77380952Y-91931009D01*
X77380952Y-91931009D02*
X77285714Y-91883390D01*
X77285714Y-91883390D02*
X77238095Y-91835771D01*
X77238095Y-91835771D02*
X77190476Y-91740533D01*
X77190476Y-91740533D02*
X77190476Y-91645295D01*
X77190476Y-91645295D02*
X77238095Y-91550057D01*
X77238095Y-91550057D02*
X77285714Y-91502438D01*
X77285714Y-91502438D02*
X77380952Y-91454819D01*
X77380952Y-91454819D02*
X77619047Y-91454819D01*
X77619047Y-91454819D02*
X77761904Y-91502438D01*
X78095238Y-91454819D02*
X78333333Y-92454819D01*
X78333333Y-92454819D02*
X78523809Y-91740533D01*
X78523809Y-91740533D02*
X78714285Y-92454819D01*
X78714285Y-92454819D02*
X78952381Y-91454819D01*
X79857142Y-92454819D02*
X79285714Y-92454819D01*
X79571428Y-92454819D02*
X79571428Y-91454819D01*
X79571428Y-91454819D02*
X79476190Y-91597676D01*
X79476190Y-91597676D02*
X79380952Y-91692914D01*
X79380952Y-91692914D02*
X79285714Y-91740533D01*
X80761904Y-91454819D02*
X80285714Y-91454819D01*
X80285714Y-91454819D02*
X80238095Y-91931009D01*
X80238095Y-91931009D02*
X80285714Y-91883390D01*
X80285714Y-91883390D02*
X80380952Y-91835771D01*
X80380952Y-91835771D02*
X80619047Y-91835771D01*
X80619047Y-91835771D02*
X80714285Y-91883390D01*
X80714285Y-91883390D02*
X80761904Y-91931009D01*
X80761904Y-91931009D02*
X80809523Y-92026247D01*
X80809523Y-92026247D02*
X80809523Y-92264342D01*
X80809523Y-92264342D02*
X80761904Y-92359580D01*
X80761904Y-92359580D02*
X80714285Y-92407200D01*
X80714285Y-92407200D02*
X80619047Y-92454819D01*
X80619047Y-92454819D02*
X80380952Y-92454819D01*
X80380952Y-92454819D02*
X80285714Y-92407200D01*
X80285714Y-92407200D02*
X80238095Y-92359580D01*
%TO.C,SW8*%
D12*
X109400000Y-64900000D02*
X109400000Y-80100000D01*
X109400000Y-80100000D02*
X124600000Y-80100000D01*
X124600000Y-64900000D02*
X109400000Y-64900000D01*
X124600000Y-80100000D02*
X124600000Y-64900000D01*
%TO.C,SW11*%
X147400000Y-94900000D02*
X147400000Y-110100000D01*
X147400000Y-110100000D02*
X162600000Y-110100000D01*
X162600000Y-94900000D02*
X147400000Y-94900000D01*
X162600000Y-110100000D02*
X162600000Y-94900000D01*
%TO.C,SW12*%
X128400000Y-84900000D02*
X128400000Y-100100000D01*
X128400000Y-100100000D02*
X143600000Y-100100000D01*
X143600000Y-84900000D02*
X128400000Y-84900000D01*
X143600000Y-100100000D02*
X143600000Y-84900000D01*
%TO.C,SW17*%
X166400000Y-89900000D02*
X166400000Y-105100000D01*
X166400000Y-105100000D02*
X181600000Y-105100000D01*
X181600000Y-89900000D02*
X166400000Y-89900000D01*
X181600000Y-105100000D02*
X181600000Y-89900000D01*
%TO.C,SW5*%
X71400000Y-50900000D02*
X71400000Y-66100000D01*
X71400000Y-66100000D02*
X86600000Y-66100000D01*
X86600000Y-50900000D02*
X71400000Y-50900000D01*
X86600000Y-66100000D02*
X86600000Y-50900000D01*
%TO.C,SW1*%
X147400000Y-56900000D02*
X147400000Y-72100000D01*
X147400000Y-72100000D02*
X162600000Y-72100000D01*
X162600000Y-56900000D02*
X147400000Y-56900000D01*
X162600000Y-72100000D02*
X162600000Y-56900000D01*
%TO.C,SW9*%
X90400000Y-67900000D02*
X90400000Y-83100000D01*
X90400000Y-83100000D02*
X105600000Y-83100000D01*
X105600000Y-67900000D02*
X90400000Y-67900000D01*
X105600000Y-83100000D02*
X105600000Y-67900000D01*
%TO.C,SW2*%
X128400000Y-46900000D02*
X128400000Y-62100000D01*
X128400000Y-62100000D02*
X143600000Y-62100000D01*
X143600000Y-46900000D02*
X128400000Y-46900000D01*
X143600000Y-62100000D02*
X143600000Y-46900000D01*
%TO.C,SW16*%
X166400000Y-70900000D02*
X166400000Y-86100000D01*
X166400000Y-86100000D02*
X181600000Y-86100000D01*
X181600000Y-70900000D02*
X166400000Y-70900000D01*
X181600000Y-86100000D02*
X181600000Y-70900000D01*
%TO.C,SW6*%
X147400000Y-75900000D02*
X147400000Y-91100000D01*
X147400000Y-91100000D02*
X162600000Y-91100000D01*
X162600000Y-75900000D02*
X147400000Y-75900000D01*
X162600000Y-91100000D02*
X162600000Y-75900000D01*
%TO.C,SW3*%
X109400000Y-45900000D02*
X109400000Y-61100000D01*
X109400000Y-61100000D02*
X124600000Y-61100000D01*
X124600000Y-45900000D02*
X109400000Y-45900000D01*
X124600000Y-61100000D02*
X124600000Y-45900000D01*
%TO.C,SW14*%
X90400000Y-86900000D02*
X90400000Y-102100000D01*
X90400000Y-102100000D02*
X105600000Y-102100000D01*
X105600000Y-86900000D02*
X90400000Y-86900000D01*
X105600000Y-102100000D02*
X105600000Y-86900000D01*
%TO.C,SW10*%
X71400000Y-69900000D02*
X71400000Y-85100000D01*
X71400000Y-85100000D02*
X86600000Y-85100000D01*
X86600000Y-69900000D02*
X71400000Y-69900000D01*
X86600000Y-85100000D02*
X86600000Y-69900000D01*
%TO.C,SW18*%
X59691939Y-112125988D02*
X63625988Y-126808061D01*
X63625988Y-126808061D02*
X78308061Y-122874012D01*
X74374012Y-108191939D02*
X59691939Y-112125988D01*
X78308061Y-122874012D02*
X74374012Y-108191939D01*
%TO.C,SW4*%
X90400000Y-48900000D02*
X90400000Y-64100000D01*
X90400000Y-64100000D02*
X105600000Y-64100000D01*
X105600000Y-48900000D02*
X90400000Y-48900000D01*
X105600000Y-64100000D02*
X105600000Y-48900000D01*
%TO.C,SW13*%
X109400000Y-83900000D02*
X109400000Y-99100000D01*
X109400000Y-99100000D02*
X124600000Y-99100000D01*
X124600000Y-83900000D02*
X109400000Y-83900000D01*
X124600000Y-99100000D02*
X124600000Y-83900000D01*
%TO.C,SW19*%
X39118207Y-120718207D02*
X46718207Y-133881793D01*
X46718207Y-133881793D02*
X59881793Y-126281793D01*
X52281793Y-113118207D02*
X39118207Y-120718207D01*
X59881793Y-126281793D02*
X52281793Y-113118207D01*
%TO.C,SW7*%
X128400000Y-65900000D02*
X128400000Y-81100000D01*
X128400000Y-81100000D02*
X143600000Y-81100000D01*
X143600000Y-65900000D02*
X128400000Y-65900000D01*
X143600000Y-81100000D02*
X143600000Y-65900000D01*
%TO.C,J3*%
D13*
X53225000Y-72000000D02*
X67225000Y-72000000D01*
X67225000Y-105000000D01*
X53225000Y-105000000D01*
X53225000Y-72000000D01*
D10*
X65825000Y-106000000D02*
X65425000Y-105300000D01*
X66225000Y-105300000D01*
X65825000Y-106000000D01*
G36*
X65825000Y-106000000D02*
G01*
X65425000Y-105300000D01*
X66225000Y-105300000D01*
X65825000Y-106000000D01*
G37*
%TO.C,SW15*%
D12*
X71400000Y-88900000D02*
X71400000Y-104100000D01*
X71400000Y-104100000D02*
X86600000Y-104100000D01*
X86600000Y-88900000D02*
X71400000Y-88900000D01*
X86600000Y-104100000D02*
X86600000Y-88900000D01*
%TD*%
M02*
