%TF.GenerationSoftware,KiCad,Pcbnew,10.0.1*%
%TF.CreationDate,2026-07-22T17:23:00+09:00*%
%TF.ProjectId,reel-right,7265656c-2d72-4696-9768-742e6b696361,rev?*%
%TF.SameCoordinates,Original*%
%TF.FileFunction,Legend,Top*%
%TF.FilePolarity,Positive*%
%FSLAX46Y46*%
G04 Gerber Fmt 4.6, Leading zero omitted, Abs format (unit mm)*
G04 Created by KiCad (PCBNEW 10.0.1) date 2026-07-22 17:23:00*
%MOMM*%
%LPD*%
G01*
G04 APERTURE LIST*
%ADD10C,0.150000*%
%ADD11C,0.100000*%
%ADD12C,0.120000*%
%ADD13C,0.200000*%
G04 APERTURE END LIST*
D10*
X114666667Y-68407200D02*
X114809524Y-68454819D01*
X114809524Y-68454819D02*
X115047619Y-68454819D01*
X115047619Y-68454819D02*
X115142857Y-68407200D01*
X115142857Y-68407200D02*
X115190476Y-68359580D01*
X115190476Y-68359580D02*
X115238095Y-68264342D01*
X115238095Y-68264342D02*
X115238095Y-68169104D01*
X115238095Y-68169104D02*
X115190476Y-68073866D01*
X115190476Y-68073866D02*
X115142857Y-68026247D01*
X115142857Y-68026247D02*
X115047619Y-67978628D01*
X115047619Y-67978628D02*
X114857143Y-67931009D01*
X114857143Y-67931009D02*
X114761905Y-67883390D01*
X114761905Y-67883390D02*
X114714286Y-67835771D01*
X114714286Y-67835771D02*
X114666667Y-67740533D01*
X114666667Y-67740533D02*
X114666667Y-67645295D01*
X114666667Y-67645295D02*
X114714286Y-67550057D01*
X114714286Y-67550057D02*
X114761905Y-67502438D01*
X114761905Y-67502438D02*
X114857143Y-67454819D01*
X114857143Y-67454819D02*
X115095238Y-67454819D01*
X115095238Y-67454819D02*
X115238095Y-67502438D01*
X115571429Y-67454819D02*
X115809524Y-68454819D01*
X115809524Y-68454819D02*
X116000000Y-67740533D01*
X116000000Y-67740533D02*
X116190476Y-68454819D01*
X116190476Y-68454819D02*
X116428572Y-67454819D01*
X116952381Y-67883390D02*
X116857143Y-67835771D01*
X116857143Y-67835771D02*
X116809524Y-67788152D01*
X116809524Y-67788152D02*
X116761905Y-67692914D01*
X116761905Y-67692914D02*
X116761905Y-67645295D01*
X116761905Y-67645295D02*
X116809524Y-67550057D01*
X116809524Y-67550057D02*
X116857143Y-67502438D01*
X116857143Y-67502438D02*
X116952381Y-67454819D01*
X116952381Y-67454819D02*
X117142857Y-67454819D01*
X117142857Y-67454819D02*
X117238095Y-67502438D01*
X117238095Y-67502438D02*
X117285714Y-67550057D01*
X117285714Y-67550057D02*
X117333333Y-67645295D01*
X117333333Y-67645295D02*
X117333333Y-67692914D01*
X117333333Y-67692914D02*
X117285714Y-67788152D01*
X117285714Y-67788152D02*
X117238095Y-67835771D01*
X117238095Y-67835771D02*
X117142857Y-67883390D01*
X117142857Y-67883390D02*
X116952381Y-67883390D01*
X116952381Y-67883390D02*
X116857143Y-67931009D01*
X116857143Y-67931009D02*
X116809524Y-67978628D01*
X116809524Y-67978628D02*
X116761905Y-68073866D01*
X116761905Y-68073866D02*
X116761905Y-68264342D01*
X116761905Y-68264342D02*
X116809524Y-68359580D01*
X116809524Y-68359580D02*
X116857143Y-68407200D01*
X116857143Y-68407200D02*
X116952381Y-68454819D01*
X116952381Y-68454819D02*
X117142857Y-68454819D01*
X117142857Y-68454819D02*
X117238095Y-68407200D01*
X117238095Y-68407200D02*
X117285714Y-68359580D01*
X117285714Y-68359580D02*
X117333333Y-68264342D01*
X117333333Y-68264342D02*
X117333333Y-68073866D01*
X117333333Y-68073866D02*
X117285714Y-67978628D01*
X117285714Y-67978628D02*
X117238095Y-67931009D01*
X117238095Y-67931009D02*
X117142857Y-67883390D01*
X150190476Y-96407200D02*
X150333333Y-96454819D01*
X150333333Y-96454819D02*
X150571428Y-96454819D01*
X150571428Y-96454819D02*
X150666666Y-96407200D01*
X150666666Y-96407200D02*
X150714285Y-96359580D01*
X150714285Y-96359580D02*
X150761904Y-96264342D01*
X150761904Y-96264342D02*
X150761904Y-96169104D01*
X150761904Y-96169104D02*
X150714285Y-96073866D01*
X150714285Y-96073866D02*
X150666666Y-96026247D01*
X150666666Y-96026247D02*
X150571428Y-95978628D01*
X150571428Y-95978628D02*
X150380952Y-95931009D01*
X150380952Y-95931009D02*
X150285714Y-95883390D01*
X150285714Y-95883390D02*
X150238095Y-95835771D01*
X150238095Y-95835771D02*
X150190476Y-95740533D01*
X150190476Y-95740533D02*
X150190476Y-95645295D01*
X150190476Y-95645295D02*
X150238095Y-95550057D01*
X150238095Y-95550057D02*
X150285714Y-95502438D01*
X150285714Y-95502438D02*
X150380952Y-95454819D01*
X150380952Y-95454819D02*
X150619047Y-95454819D01*
X150619047Y-95454819D02*
X150761904Y-95502438D01*
X151095238Y-95454819D02*
X151333333Y-96454819D01*
X151333333Y-96454819D02*
X151523809Y-95740533D01*
X151523809Y-95740533D02*
X151714285Y-96454819D01*
X151714285Y-96454819D02*
X151952381Y-95454819D01*
X152857142Y-96454819D02*
X152285714Y-96454819D01*
X152571428Y-96454819D02*
X152571428Y-95454819D01*
X152571428Y-95454819D02*
X152476190Y-95597676D01*
X152476190Y-95597676D02*
X152380952Y-95692914D01*
X152380952Y-95692914D02*
X152285714Y-95740533D01*
X153809523Y-96454819D02*
X153238095Y-96454819D01*
X153523809Y-96454819D02*
X153523809Y-95454819D01*
X153523809Y-95454819D02*
X153428571Y-95597676D01*
X153428571Y-95597676D02*
X153333333Y-95692914D01*
X153333333Y-95692914D02*
X153238095Y-95740533D01*
X132190476Y-86407200D02*
X132333333Y-86454819D01*
X132333333Y-86454819D02*
X132571428Y-86454819D01*
X132571428Y-86454819D02*
X132666666Y-86407200D01*
X132666666Y-86407200D02*
X132714285Y-86359580D01*
X132714285Y-86359580D02*
X132761904Y-86264342D01*
X132761904Y-86264342D02*
X132761904Y-86169104D01*
X132761904Y-86169104D02*
X132714285Y-86073866D01*
X132714285Y-86073866D02*
X132666666Y-86026247D01*
X132666666Y-86026247D02*
X132571428Y-85978628D01*
X132571428Y-85978628D02*
X132380952Y-85931009D01*
X132380952Y-85931009D02*
X132285714Y-85883390D01*
X132285714Y-85883390D02*
X132238095Y-85835771D01*
X132238095Y-85835771D02*
X132190476Y-85740533D01*
X132190476Y-85740533D02*
X132190476Y-85645295D01*
X132190476Y-85645295D02*
X132238095Y-85550057D01*
X132238095Y-85550057D02*
X132285714Y-85502438D01*
X132285714Y-85502438D02*
X132380952Y-85454819D01*
X132380952Y-85454819D02*
X132619047Y-85454819D01*
X132619047Y-85454819D02*
X132761904Y-85502438D01*
X133095238Y-85454819D02*
X133333333Y-86454819D01*
X133333333Y-86454819D02*
X133523809Y-85740533D01*
X133523809Y-85740533D02*
X133714285Y-86454819D01*
X133714285Y-86454819D02*
X133952381Y-85454819D01*
X134857142Y-86454819D02*
X134285714Y-86454819D01*
X134571428Y-86454819D02*
X134571428Y-85454819D01*
X134571428Y-85454819D02*
X134476190Y-85597676D01*
X134476190Y-85597676D02*
X134380952Y-85692914D01*
X134380952Y-85692914D02*
X134285714Y-85740533D01*
X135238095Y-85550057D02*
X135285714Y-85502438D01*
X135285714Y-85502438D02*
X135380952Y-85454819D01*
X135380952Y-85454819D02*
X135619047Y-85454819D01*
X135619047Y-85454819D02*
X135714285Y-85502438D01*
X135714285Y-85502438D02*
X135761904Y-85550057D01*
X135761904Y-85550057D02*
X135809523Y-85645295D01*
X135809523Y-85645295D02*
X135809523Y-85740533D01*
X135809523Y-85740533D02*
X135761904Y-85883390D01*
X135761904Y-85883390D02*
X135190476Y-86454819D01*
X135190476Y-86454819D02*
X135809523Y-86454819D01*
X168190476Y-92407200D02*
X168333333Y-92454819D01*
X168333333Y-92454819D02*
X168571428Y-92454819D01*
X168571428Y-92454819D02*
X168666666Y-92407200D01*
X168666666Y-92407200D02*
X168714285Y-92359580D01*
X168714285Y-92359580D02*
X168761904Y-92264342D01*
X168761904Y-92264342D02*
X168761904Y-92169104D01*
X168761904Y-92169104D02*
X168714285Y-92073866D01*
X168714285Y-92073866D02*
X168666666Y-92026247D01*
X168666666Y-92026247D02*
X168571428Y-91978628D01*
X168571428Y-91978628D02*
X168380952Y-91931009D01*
X168380952Y-91931009D02*
X168285714Y-91883390D01*
X168285714Y-91883390D02*
X168238095Y-91835771D01*
X168238095Y-91835771D02*
X168190476Y-91740533D01*
X168190476Y-91740533D02*
X168190476Y-91645295D01*
X168190476Y-91645295D02*
X168238095Y-91550057D01*
X168238095Y-91550057D02*
X168285714Y-91502438D01*
X168285714Y-91502438D02*
X168380952Y-91454819D01*
X168380952Y-91454819D02*
X168619047Y-91454819D01*
X168619047Y-91454819D02*
X168761904Y-91502438D01*
X169095238Y-91454819D02*
X169333333Y-92454819D01*
X169333333Y-92454819D02*
X169523809Y-91740533D01*
X169523809Y-91740533D02*
X169714285Y-92454819D01*
X169714285Y-92454819D02*
X169952381Y-91454819D01*
X170857142Y-92454819D02*
X170285714Y-92454819D01*
X170571428Y-92454819D02*
X170571428Y-91454819D01*
X170571428Y-91454819D02*
X170476190Y-91597676D01*
X170476190Y-91597676D02*
X170380952Y-91692914D01*
X170380952Y-91692914D02*
X170285714Y-91740533D01*
X171190476Y-91454819D02*
X171857142Y-91454819D01*
X171857142Y-91454819D02*
X171428571Y-92454819D01*
X78666667Y-56407200D02*
X78809524Y-56454819D01*
X78809524Y-56454819D02*
X79047619Y-56454819D01*
X79047619Y-56454819D02*
X79142857Y-56407200D01*
X79142857Y-56407200D02*
X79190476Y-56359580D01*
X79190476Y-56359580D02*
X79238095Y-56264342D01*
X79238095Y-56264342D02*
X79238095Y-56169104D01*
X79238095Y-56169104D02*
X79190476Y-56073866D01*
X79190476Y-56073866D02*
X79142857Y-56026247D01*
X79142857Y-56026247D02*
X79047619Y-55978628D01*
X79047619Y-55978628D02*
X78857143Y-55931009D01*
X78857143Y-55931009D02*
X78761905Y-55883390D01*
X78761905Y-55883390D02*
X78714286Y-55835771D01*
X78714286Y-55835771D02*
X78666667Y-55740533D01*
X78666667Y-55740533D02*
X78666667Y-55645295D01*
X78666667Y-55645295D02*
X78714286Y-55550057D01*
X78714286Y-55550057D02*
X78761905Y-55502438D01*
X78761905Y-55502438D02*
X78857143Y-55454819D01*
X78857143Y-55454819D02*
X79095238Y-55454819D01*
X79095238Y-55454819D02*
X79238095Y-55502438D01*
X79571429Y-55454819D02*
X79809524Y-56454819D01*
X79809524Y-56454819D02*
X80000000Y-55740533D01*
X80000000Y-55740533D02*
X80190476Y-56454819D01*
X80190476Y-56454819D02*
X80428572Y-55454819D01*
X81285714Y-55454819D02*
X80809524Y-55454819D01*
X80809524Y-55454819D02*
X80761905Y-55931009D01*
X80761905Y-55931009D02*
X80809524Y-55883390D01*
X80809524Y-55883390D02*
X80904762Y-55835771D01*
X80904762Y-55835771D02*
X81142857Y-55835771D01*
X81142857Y-55835771D02*
X81238095Y-55883390D01*
X81238095Y-55883390D02*
X81285714Y-55931009D01*
X81285714Y-55931009D02*
X81333333Y-56026247D01*
X81333333Y-56026247D02*
X81333333Y-56264342D01*
X81333333Y-56264342D02*
X81285714Y-56359580D01*
X81285714Y-56359580D02*
X81238095Y-56407200D01*
X81238095Y-56407200D02*
X81142857Y-56454819D01*
X81142857Y-56454819D02*
X80904762Y-56454819D01*
X80904762Y-56454819D02*
X80809524Y-56407200D01*
X80809524Y-56407200D02*
X80761905Y-56359580D01*
X150666667Y-62407200D02*
X150809524Y-62454819D01*
X150809524Y-62454819D02*
X151047619Y-62454819D01*
X151047619Y-62454819D02*
X151142857Y-62407200D01*
X151142857Y-62407200D02*
X151190476Y-62359580D01*
X151190476Y-62359580D02*
X151238095Y-62264342D01*
X151238095Y-62264342D02*
X151238095Y-62169104D01*
X151238095Y-62169104D02*
X151190476Y-62073866D01*
X151190476Y-62073866D02*
X151142857Y-62026247D01*
X151142857Y-62026247D02*
X151047619Y-61978628D01*
X151047619Y-61978628D02*
X150857143Y-61931009D01*
X150857143Y-61931009D02*
X150761905Y-61883390D01*
X150761905Y-61883390D02*
X150714286Y-61835771D01*
X150714286Y-61835771D02*
X150666667Y-61740533D01*
X150666667Y-61740533D02*
X150666667Y-61645295D01*
X150666667Y-61645295D02*
X150714286Y-61550057D01*
X150714286Y-61550057D02*
X150761905Y-61502438D01*
X150761905Y-61502438D02*
X150857143Y-61454819D01*
X150857143Y-61454819D02*
X151095238Y-61454819D01*
X151095238Y-61454819D02*
X151238095Y-61502438D01*
X151571429Y-61454819D02*
X151809524Y-62454819D01*
X151809524Y-62454819D02*
X152000000Y-61740533D01*
X152000000Y-61740533D02*
X152190476Y-62454819D01*
X152190476Y-62454819D02*
X152428572Y-61454819D01*
X153333333Y-62454819D02*
X152761905Y-62454819D01*
X153047619Y-62454819D02*
X153047619Y-61454819D01*
X153047619Y-61454819D02*
X152952381Y-61597676D01*
X152952381Y-61597676D02*
X152857143Y-61692914D01*
X152857143Y-61692914D02*
X152761905Y-61740533D01*
X96666667Y-71407200D02*
X96809524Y-71454819D01*
X96809524Y-71454819D02*
X97047619Y-71454819D01*
X97047619Y-71454819D02*
X97142857Y-71407200D01*
X97142857Y-71407200D02*
X97190476Y-71359580D01*
X97190476Y-71359580D02*
X97238095Y-71264342D01*
X97238095Y-71264342D02*
X97238095Y-71169104D01*
X97238095Y-71169104D02*
X97190476Y-71073866D01*
X97190476Y-71073866D02*
X97142857Y-71026247D01*
X97142857Y-71026247D02*
X97047619Y-70978628D01*
X97047619Y-70978628D02*
X96857143Y-70931009D01*
X96857143Y-70931009D02*
X96761905Y-70883390D01*
X96761905Y-70883390D02*
X96714286Y-70835771D01*
X96714286Y-70835771D02*
X96666667Y-70740533D01*
X96666667Y-70740533D02*
X96666667Y-70645295D01*
X96666667Y-70645295D02*
X96714286Y-70550057D01*
X96714286Y-70550057D02*
X96761905Y-70502438D01*
X96761905Y-70502438D02*
X96857143Y-70454819D01*
X96857143Y-70454819D02*
X97095238Y-70454819D01*
X97095238Y-70454819D02*
X97238095Y-70502438D01*
X97571429Y-70454819D02*
X97809524Y-71454819D01*
X97809524Y-71454819D02*
X98000000Y-70740533D01*
X98000000Y-70740533D02*
X98190476Y-71454819D01*
X98190476Y-71454819D02*
X98428572Y-70454819D01*
X98857143Y-71454819D02*
X99047619Y-71454819D01*
X99047619Y-71454819D02*
X99142857Y-71407200D01*
X99142857Y-71407200D02*
X99190476Y-71359580D01*
X99190476Y-71359580D02*
X99285714Y-71216723D01*
X99285714Y-71216723D02*
X99333333Y-71026247D01*
X99333333Y-71026247D02*
X99333333Y-70645295D01*
X99333333Y-70645295D02*
X99285714Y-70550057D01*
X99285714Y-70550057D02*
X99238095Y-70502438D01*
X99238095Y-70502438D02*
X99142857Y-70454819D01*
X99142857Y-70454819D02*
X98952381Y-70454819D01*
X98952381Y-70454819D02*
X98857143Y-70502438D01*
X98857143Y-70502438D02*
X98809524Y-70550057D01*
X98809524Y-70550057D02*
X98761905Y-70645295D01*
X98761905Y-70645295D02*
X98761905Y-70883390D01*
X98761905Y-70883390D02*
X98809524Y-70978628D01*
X98809524Y-70978628D02*
X98857143Y-71026247D01*
X98857143Y-71026247D02*
X98952381Y-71073866D01*
X98952381Y-71073866D02*
X99142857Y-71073866D01*
X99142857Y-71073866D02*
X99238095Y-71026247D01*
X99238095Y-71026247D02*
X99285714Y-70978628D01*
X99285714Y-70978628D02*
X99333333Y-70883390D01*
X132666667Y-52407200D02*
X132809524Y-52454819D01*
X132809524Y-52454819D02*
X133047619Y-52454819D01*
X133047619Y-52454819D02*
X133142857Y-52407200D01*
X133142857Y-52407200D02*
X133190476Y-52359580D01*
X133190476Y-52359580D02*
X133238095Y-52264342D01*
X133238095Y-52264342D02*
X133238095Y-52169104D01*
X133238095Y-52169104D02*
X133190476Y-52073866D01*
X133190476Y-52073866D02*
X133142857Y-52026247D01*
X133142857Y-52026247D02*
X133047619Y-51978628D01*
X133047619Y-51978628D02*
X132857143Y-51931009D01*
X132857143Y-51931009D02*
X132761905Y-51883390D01*
X132761905Y-51883390D02*
X132714286Y-51835771D01*
X132714286Y-51835771D02*
X132666667Y-51740533D01*
X132666667Y-51740533D02*
X132666667Y-51645295D01*
X132666667Y-51645295D02*
X132714286Y-51550057D01*
X132714286Y-51550057D02*
X132761905Y-51502438D01*
X132761905Y-51502438D02*
X132857143Y-51454819D01*
X132857143Y-51454819D02*
X133095238Y-51454819D01*
X133095238Y-51454819D02*
X133238095Y-51502438D01*
X133571429Y-51454819D02*
X133809524Y-52454819D01*
X133809524Y-52454819D02*
X134000000Y-51740533D01*
X134000000Y-51740533D02*
X134190476Y-52454819D01*
X134190476Y-52454819D02*
X134428572Y-51454819D01*
X134761905Y-51550057D02*
X134809524Y-51502438D01*
X134809524Y-51502438D02*
X134904762Y-51454819D01*
X134904762Y-51454819D02*
X135142857Y-51454819D01*
X135142857Y-51454819D02*
X135238095Y-51502438D01*
X135238095Y-51502438D02*
X135285714Y-51550057D01*
X135285714Y-51550057D02*
X135333333Y-51645295D01*
X135333333Y-51645295D02*
X135333333Y-51740533D01*
X135333333Y-51740533D02*
X135285714Y-51883390D01*
X135285714Y-51883390D02*
X134714286Y-52454819D01*
X134714286Y-52454819D02*
X135333333Y-52454819D01*
X168190476Y-75407200D02*
X168333333Y-75454819D01*
X168333333Y-75454819D02*
X168571428Y-75454819D01*
X168571428Y-75454819D02*
X168666666Y-75407200D01*
X168666666Y-75407200D02*
X168714285Y-75359580D01*
X168714285Y-75359580D02*
X168761904Y-75264342D01*
X168761904Y-75264342D02*
X168761904Y-75169104D01*
X168761904Y-75169104D02*
X168714285Y-75073866D01*
X168714285Y-75073866D02*
X168666666Y-75026247D01*
X168666666Y-75026247D02*
X168571428Y-74978628D01*
X168571428Y-74978628D02*
X168380952Y-74931009D01*
X168380952Y-74931009D02*
X168285714Y-74883390D01*
X168285714Y-74883390D02*
X168238095Y-74835771D01*
X168238095Y-74835771D02*
X168190476Y-74740533D01*
X168190476Y-74740533D02*
X168190476Y-74645295D01*
X168190476Y-74645295D02*
X168238095Y-74550057D01*
X168238095Y-74550057D02*
X168285714Y-74502438D01*
X168285714Y-74502438D02*
X168380952Y-74454819D01*
X168380952Y-74454819D02*
X168619047Y-74454819D01*
X168619047Y-74454819D02*
X168761904Y-74502438D01*
X169095238Y-74454819D02*
X169333333Y-75454819D01*
X169333333Y-75454819D02*
X169523809Y-74740533D01*
X169523809Y-74740533D02*
X169714285Y-75454819D01*
X169714285Y-75454819D02*
X169952381Y-74454819D01*
X170857142Y-75454819D02*
X170285714Y-75454819D01*
X170571428Y-75454819D02*
X170571428Y-74454819D01*
X170571428Y-74454819D02*
X170476190Y-74597676D01*
X170476190Y-74597676D02*
X170380952Y-74692914D01*
X170380952Y-74692914D02*
X170285714Y-74740533D01*
X171714285Y-74454819D02*
X171523809Y-74454819D01*
X171523809Y-74454819D02*
X171428571Y-74502438D01*
X171428571Y-74502438D02*
X171380952Y-74550057D01*
X171380952Y-74550057D02*
X171285714Y-74692914D01*
X171285714Y-74692914D02*
X171238095Y-74883390D01*
X171238095Y-74883390D02*
X171238095Y-75264342D01*
X171238095Y-75264342D02*
X171285714Y-75359580D01*
X171285714Y-75359580D02*
X171333333Y-75407200D01*
X171333333Y-75407200D02*
X171428571Y-75454819D01*
X171428571Y-75454819D02*
X171619047Y-75454819D01*
X171619047Y-75454819D02*
X171714285Y-75407200D01*
X171714285Y-75407200D02*
X171761904Y-75359580D01*
X171761904Y-75359580D02*
X171809523Y-75264342D01*
X171809523Y-75264342D02*
X171809523Y-75026247D01*
X171809523Y-75026247D02*
X171761904Y-74931009D01*
X171761904Y-74931009D02*
X171714285Y-74883390D01*
X171714285Y-74883390D02*
X171619047Y-74835771D01*
X171619047Y-74835771D02*
X171428571Y-74835771D01*
X171428571Y-74835771D02*
X171333333Y-74883390D01*
X171333333Y-74883390D02*
X171285714Y-74931009D01*
X171285714Y-74931009D02*
X171238095Y-75026247D01*
X150666667Y-79407200D02*
X150809524Y-79454819D01*
X150809524Y-79454819D02*
X151047619Y-79454819D01*
X151047619Y-79454819D02*
X151142857Y-79407200D01*
X151142857Y-79407200D02*
X151190476Y-79359580D01*
X151190476Y-79359580D02*
X151238095Y-79264342D01*
X151238095Y-79264342D02*
X151238095Y-79169104D01*
X151238095Y-79169104D02*
X151190476Y-79073866D01*
X151190476Y-79073866D02*
X151142857Y-79026247D01*
X151142857Y-79026247D02*
X151047619Y-78978628D01*
X151047619Y-78978628D02*
X150857143Y-78931009D01*
X150857143Y-78931009D02*
X150761905Y-78883390D01*
X150761905Y-78883390D02*
X150714286Y-78835771D01*
X150714286Y-78835771D02*
X150666667Y-78740533D01*
X150666667Y-78740533D02*
X150666667Y-78645295D01*
X150666667Y-78645295D02*
X150714286Y-78550057D01*
X150714286Y-78550057D02*
X150761905Y-78502438D01*
X150761905Y-78502438D02*
X150857143Y-78454819D01*
X150857143Y-78454819D02*
X151095238Y-78454819D01*
X151095238Y-78454819D02*
X151238095Y-78502438D01*
X151571429Y-78454819D02*
X151809524Y-79454819D01*
X151809524Y-79454819D02*
X152000000Y-78740533D01*
X152000000Y-78740533D02*
X152190476Y-79454819D01*
X152190476Y-79454819D02*
X152428572Y-78454819D01*
X153238095Y-78454819D02*
X153047619Y-78454819D01*
X153047619Y-78454819D02*
X152952381Y-78502438D01*
X152952381Y-78502438D02*
X152904762Y-78550057D01*
X152904762Y-78550057D02*
X152809524Y-78692914D01*
X152809524Y-78692914D02*
X152761905Y-78883390D01*
X152761905Y-78883390D02*
X152761905Y-79264342D01*
X152761905Y-79264342D02*
X152809524Y-79359580D01*
X152809524Y-79359580D02*
X152857143Y-79407200D01*
X152857143Y-79407200D02*
X152952381Y-79454819D01*
X152952381Y-79454819D02*
X153142857Y-79454819D01*
X153142857Y-79454819D02*
X153238095Y-79407200D01*
X153238095Y-79407200D02*
X153285714Y-79359580D01*
X153285714Y-79359580D02*
X153333333Y-79264342D01*
X153333333Y-79264342D02*
X153333333Y-79026247D01*
X153333333Y-79026247D02*
X153285714Y-78931009D01*
X153285714Y-78931009D02*
X153238095Y-78883390D01*
X153238095Y-78883390D02*
X153142857Y-78835771D01*
X153142857Y-78835771D02*
X152952381Y-78835771D01*
X152952381Y-78835771D02*
X152857143Y-78883390D01*
X152857143Y-78883390D02*
X152809524Y-78931009D01*
X152809524Y-78931009D02*
X152761905Y-79026247D01*
X114666667Y-51407200D02*
X114809524Y-51454819D01*
X114809524Y-51454819D02*
X115047619Y-51454819D01*
X115047619Y-51454819D02*
X115142857Y-51407200D01*
X115142857Y-51407200D02*
X115190476Y-51359580D01*
X115190476Y-51359580D02*
X115238095Y-51264342D01*
X115238095Y-51264342D02*
X115238095Y-51169104D01*
X115238095Y-51169104D02*
X115190476Y-51073866D01*
X115190476Y-51073866D02*
X115142857Y-51026247D01*
X115142857Y-51026247D02*
X115047619Y-50978628D01*
X115047619Y-50978628D02*
X114857143Y-50931009D01*
X114857143Y-50931009D02*
X114761905Y-50883390D01*
X114761905Y-50883390D02*
X114714286Y-50835771D01*
X114714286Y-50835771D02*
X114666667Y-50740533D01*
X114666667Y-50740533D02*
X114666667Y-50645295D01*
X114666667Y-50645295D02*
X114714286Y-50550057D01*
X114714286Y-50550057D02*
X114761905Y-50502438D01*
X114761905Y-50502438D02*
X114857143Y-50454819D01*
X114857143Y-50454819D02*
X115095238Y-50454819D01*
X115095238Y-50454819D02*
X115238095Y-50502438D01*
X115571429Y-50454819D02*
X115809524Y-51454819D01*
X115809524Y-51454819D02*
X116000000Y-50740533D01*
X116000000Y-50740533D02*
X116190476Y-51454819D01*
X116190476Y-51454819D02*
X116428572Y-50454819D01*
X116714286Y-50454819D02*
X117333333Y-50454819D01*
X117333333Y-50454819D02*
X117000000Y-50835771D01*
X117000000Y-50835771D02*
X117142857Y-50835771D01*
X117142857Y-50835771D02*
X117238095Y-50883390D01*
X117238095Y-50883390D02*
X117285714Y-50931009D01*
X117285714Y-50931009D02*
X117333333Y-51026247D01*
X117333333Y-51026247D02*
X117333333Y-51264342D01*
X117333333Y-51264342D02*
X117285714Y-51359580D01*
X117285714Y-51359580D02*
X117238095Y-51407200D01*
X117238095Y-51407200D02*
X117142857Y-51454819D01*
X117142857Y-51454819D02*
X116857143Y-51454819D01*
X116857143Y-51454819D02*
X116761905Y-51407200D01*
X116761905Y-51407200D02*
X116714286Y-51359580D01*
X96190476Y-88407200D02*
X96333333Y-88454819D01*
X96333333Y-88454819D02*
X96571428Y-88454819D01*
X96571428Y-88454819D02*
X96666666Y-88407200D01*
X96666666Y-88407200D02*
X96714285Y-88359580D01*
X96714285Y-88359580D02*
X96761904Y-88264342D01*
X96761904Y-88264342D02*
X96761904Y-88169104D01*
X96761904Y-88169104D02*
X96714285Y-88073866D01*
X96714285Y-88073866D02*
X96666666Y-88026247D01*
X96666666Y-88026247D02*
X96571428Y-87978628D01*
X96571428Y-87978628D02*
X96380952Y-87931009D01*
X96380952Y-87931009D02*
X96285714Y-87883390D01*
X96285714Y-87883390D02*
X96238095Y-87835771D01*
X96238095Y-87835771D02*
X96190476Y-87740533D01*
X96190476Y-87740533D02*
X96190476Y-87645295D01*
X96190476Y-87645295D02*
X96238095Y-87550057D01*
X96238095Y-87550057D02*
X96285714Y-87502438D01*
X96285714Y-87502438D02*
X96380952Y-87454819D01*
X96380952Y-87454819D02*
X96619047Y-87454819D01*
X96619047Y-87454819D02*
X96761904Y-87502438D01*
X97095238Y-87454819D02*
X97333333Y-88454819D01*
X97333333Y-88454819D02*
X97523809Y-87740533D01*
X97523809Y-87740533D02*
X97714285Y-88454819D01*
X97714285Y-88454819D02*
X97952381Y-87454819D01*
X98857142Y-88454819D02*
X98285714Y-88454819D01*
X98571428Y-88454819D02*
X98571428Y-87454819D01*
X98571428Y-87454819D02*
X98476190Y-87597676D01*
X98476190Y-87597676D02*
X98380952Y-87692914D01*
X98380952Y-87692914D02*
X98285714Y-87740533D01*
X99714285Y-87788152D02*
X99714285Y-88454819D01*
X99476190Y-87407200D02*
X99238095Y-88121485D01*
X99238095Y-88121485D02*
X99857142Y-88121485D01*
X78190476Y-73407200D02*
X78333333Y-73454819D01*
X78333333Y-73454819D02*
X78571428Y-73454819D01*
X78571428Y-73454819D02*
X78666666Y-73407200D01*
X78666666Y-73407200D02*
X78714285Y-73359580D01*
X78714285Y-73359580D02*
X78761904Y-73264342D01*
X78761904Y-73264342D02*
X78761904Y-73169104D01*
X78761904Y-73169104D02*
X78714285Y-73073866D01*
X78714285Y-73073866D02*
X78666666Y-73026247D01*
X78666666Y-73026247D02*
X78571428Y-72978628D01*
X78571428Y-72978628D02*
X78380952Y-72931009D01*
X78380952Y-72931009D02*
X78285714Y-72883390D01*
X78285714Y-72883390D02*
X78238095Y-72835771D01*
X78238095Y-72835771D02*
X78190476Y-72740533D01*
X78190476Y-72740533D02*
X78190476Y-72645295D01*
X78190476Y-72645295D02*
X78238095Y-72550057D01*
X78238095Y-72550057D02*
X78285714Y-72502438D01*
X78285714Y-72502438D02*
X78380952Y-72454819D01*
X78380952Y-72454819D02*
X78619047Y-72454819D01*
X78619047Y-72454819D02*
X78761904Y-72502438D01*
X79095238Y-72454819D02*
X79333333Y-73454819D01*
X79333333Y-73454819D02*
X79523809Y-72740533D01*
X79523809Y-72740533D02*
X79714285Y-73454819D01*
X79714285Y-73454819D02*
X79952381Y-72454819D01*
X80857142Y-73454819D02*
X80285714Y-73454819D01*
X80571428Y-73454819D02*
X80571428Y-72454819D01*
X80571428Y-72454819D02*
X80476190Y-72597676D01*
X80476190Y-72597676D02*
X80380952Y-72692914D01*
X80380952Y-72692914D02*
X80285714Y-72740533D01*
X81476190Y-72454819D02*
X81571428Y-72454819D01*
X81571428Y-72454819D02*
X81666666Y-72502438D01*
X81666666Y-72502438D02*
X81714285Y-72550057D01*
X81714285Y-72550057D02*
X81761904Y-72645295D01*
X81761904Y-72645295D02*
X81809523Y-72835771D01*
X81809523Y-72835771D02*
X81809523Y-73073866D01*
X81809523Y-73073866D02*
X81761904Y-73264342D01*
X81761904Y-73264342D02*
X81714285Y-73359580D01*
X81714285Y-73359580D02*
X81666666Y-73407200D01*
X81666666Y-73407200D02*
X81571428Y-73454819D01*
X81571428Y-73454819D02*
X81476190Y-73454819D01*
X81476190Y-73454819D02*
X81380952Y-73407200D01*
X81380952Y-73407200D02*
X81333333Y-73359580D01*
X81333333Y-73359580D02*
X81285714Y-73264342D01*
X81285714Y-73264342D02*
X81238095Y-73073866D01*
X81238095Y-73073866D02*
X81238095Y-72835771D01*
X81238095Y-72835771D02*
X81285714Y-72645295D01*
X81285714Y-72645295D02*
X81333333Y-72550057D01*
X81333333Y-72550057D02*
X81380952Y-72502438D01*
X81380952Y-72502438D02*
X81476190Y-72454819D01*
X65857524Y-111361664D02*
X66007838Y-111370686D01*
X66007838Y-111370686D02*
X66237820Y-111309062D01*
X66237820Y-111309062D02*
X66317489Y-111238417D01*
X66317489Y-111238417D02*
X66351160Y-111180095D01*
X66351160Y-111180095D02*
X66372507Y-111075778D01*
X66372507Y-111075778D02*
X66347858Y-110983785D01*
X66347858Y-110983785D02*
X66277212Y-110904117D01*
X66277212Y-110904117D02*
X66218891Y-110870445D01*
X66218891Y-110870445D02*
X66114573Y-110849098D01*
X66114573Y-110849098D02*
X65918263Y-110852400D01*
X65918263Y-110852400D02*
X65813945Y-110831053D01*
X65813945Y-110831053D02*
X65755624Y-110797381D01*
X65755624Y-110797381D02*
X65684978Y-110717713D01*
X65684978Y-110717713D02*
X65660328Y-110625720D01*
X65660328Y-110625720D02*
X65681675Y-110521403D01*
X65681675Y-110521403D02*
X65715347Y-110463081D01*
X65715347Y-110463081D02*
X65795015Y-110392435D01*
X65795015Y-110392435D02*
X66024998Y-110330812D01*
X66024998Y-110330812D02*
X66175312Y-110339834D01*
X66484962Y-110207565D02*
X66973764Y-111111867D01*
X66973764Y-111111867D02*
X66972879Y-110372621D01*
X66972879Y-110372621D02*
X67341736Y-111013269D01*
X67341736Y-111013269D02*
X67312899Y-109985720D01*
X68445651Y-110717476D02*
X67893693Y-110865373D01*
X68169672Y-110791424D02*
X67910853Y-109825499D01*
X67910853Y-109825499D02*
X67855834Y-109988137D01*
X67855834Y-109988137D02*
X67788491Y-110104780D01*
X67788491Y-110104780D02*
X67708822Y-110175426D01*
X68849712Y-110017622D02*
X68745394Y-109996275D01*
X68745394Y-109996275D02*
X68687073Y-109962603D01*
X68687073Y-109962603D02*
X68616427Y-109882935D01*
X68616427Y-109882935D02*
X68604102Y-109836938D01*
X68604102Y-109836938D02*
X68625449Y-109732621D01*
X68625449Y-109732621D02*
X68659121Y-109674300D01*
X68659121Y-109674300D02*
X68738789Y-109603654D01*
X68738789Y-109603654D02*
X68922775Y-109554355D01*
X68922775Y-109554355D02*
X69027093Y-109575702D01*
X69027093Y-109575702D02*
X69085414Y-109609374D01*
X69085414Y-109609374D02*
X69156060Y-109689042D01*
X69156060Y-109689042D02*
X69168385Y-109735038D01*
X69168385Y-109735038D02*
X69147038Y-109839356D01*
X69147038Y-109839356D02*
X69113366Y-109897677D01*
X69113366Y-109897677D02*
X69033698Y-109968323D01*
X69033698Y-109968323D02*
X68849712Y-110017622D01*
X68849712Y-110017622D02*
X68770044Y-110088268D01*
X68770044Y-110088268D02*
X68736372Y-110146589D01*
X68736372Y-110146589D02*
X68715025Y-110250907D01*
X68715025Y-110250907D02*
X68764324Y-110434892D01*
X68764324Y-110434892D02*
X68834969Y-110514561D01*
X68834969Y-110514561D02*
X68893291Y-110548232D01*
X68893291Y-110548232D02*
X68997608Y-110569579D01*
X68997608Y-110569579D02*
X69181594Y-110520281D01*
X69181594Y-110520281D02*
X69261262Y-110449635D01*
X69261262Y-110449635D02*
X69294934Y-110391314D01*
X69294934Y-110391314D02*
X69316281Y-110286996D01*
X69316281Y-110286996D02*
X69266982Y-110103010D01*
X69266982Y-110103010D02*
X69196336Y-110023342D01*
X69196336Y-110023342D02*
X69138015Y-109989670D01*
X69138015Y-109989670D02*
X69033698Y-109968323D01*
X96666667Y-54407200D02*
X96809524Y-54454819D01*
X96809524Y-54454819D02*
X97047619Y-54454819D01*
X97047619Y-54454819D02*
X97142857Y-54407200D01*
X97142857Y-54407200D02*
X97190476Y-54359580D01*
X97190476Y-54359580D02*
X97238095Y-54264342D01*
X97238095Y-54264342D02*
X97238095Y-54169104D01*
X97238095Y-54169104D02*
X97190476Y-54073866D01*
X97190476Y-54073866D02*
X97142857Y-54026247D01*
X97142857Y-54026247D02*
X97047619Y-53978628D01*
X97047619Y-53978628D02*
X96857143Y-53931009D01*
X96857143Y-53931009D02*
X96761905Y-53883390D01*
X96761905Y-53883390D02*
X96714286Y-53835771D01*
X96714286Y-53835771D02*
X96666667Y-53740533D01*
X96666667Y-53740533D02*
X96666667Y-53645295D01*
X96666667Y-53645295D02*
X96714286Y-53550057D01*
X96714286Y-53550057D02*
X96761905Y-53502438D01*
X96761905Y-53502438D02*
X96857143Y-53454819D01*
X96857143Y-53454819D02*
X97095238Y-53454819D01*
X97095238Y-53454819D02*
X97238095Y-53502438D01*
X97571429Y-53454819D02*
X97809524Y-54454819D01*
X97809524Y-54454819D02*
X98000000Y-53740533D01*
X98000000Y-53740533D02*
X98190476Y-54454819D01*
X98190476Y-54454819D02*
X98428572Y-53454819D01*
X99238095Y-53788152D02*
X99238095Y-54454819D01*
X99000000Y-53407200D02*
X98761905Y-54121485D01*
X98761905Y-54121485D02*
X99380952Y-54121485D01*
X114190476Y-85407200D02*
X114333333Y-85454819D01*
X114333333Y-85454819D02*
X114571428Y-85454819D01*
X114571428Y-85454819D02*
X114666666Y-85407200D01*
X114666666Y-85407200D02*
X114714285Y-85359580D01*
X114714285Y-85359580D02*
X114761904Y-85264342D01*
X114761904Y-85264342D02*
X114761904Y-85169104D01*
X114761904Y-85169104D02*
X114714285Y-85073866D01*
X114714285Y-85073866D02*
X114666666Y-85026247D01*
X114666666Y-85026247D02*
X114571428Y-84978628D01*
X114571428Y-84978628D02*
X114380952Y-84931009D01*
X114380952Y-84931009D02*
X114285714Y-84883390D01*
X114285714Y-84883390D02*
X114238095Y-84835771D01*
X114238095Y-84835771D02*
X114190476Y-84740533D01*
X114190476Y-84740533D02*
X114190476Y-84645295D01*
X114190476Y-84645295D02*
X114238095Y-84550057D01*
X114238095Y-84550057D02*
X114285714Y-84502438D01*
X114285714Y-84502438D02*
X114380952Y-84454819D01*
X114380952Y-84454819D02*
X114619047Y-84454819D01*
X114619047Y-84454819D02*
X114761904Y-84502438D01*
X115095238Y-84454819D02*
X115333333Y-85454819D01*
X115333333Y-85454819D02*
X115523809Y-84740533D01*
X115523809Y-84740533D02*
X115714285Y-85454819D01*
X115714285Y-85454819D02*
X115952381Y-84454819D01*
X116857142Y-85454819D02*
X116285714Y-85454819D01*
X116571428Y-85454819D02*
X116571428Y-84454819D01*
X116571428Y-84454819D02*
X116476190Y-84597676D01*
X116476190Y-84597676D02*
X116380952Y-84692914D01*
X116380952Y-84692914D02*
X116285714Y-84740533D01*
X117190476Y-84454819D02*
X117809523Y-84454819D01*
X117809523Y-84454819D02*
X117476190Y-84835771D01*
X117476190Y-84835771D02*
X117619047Y-84835771D01*
X117619047Y-84835771D02*
X117714285Y-84883390D01*
X117714285Y-84883390D02*
X117761904Y-84931009D01*
X117761904Y-84931009D02*
X117809523Y-85026247D01*
X117809523Y-85026247D02*
X117809523Y-85264342D01*
X117809523Y-85264342D02*
X117761904Y-85359580D01*
X117761904Y-85359580D02*
X117714285Y-85407200D01*
X117714285Y-85407200D02*
X117619047Y-85454819D01*
X117619047Y-85454819D02*
X117333333Y-85454819D01*
X117333333Y-85454819D02*
X117238095Y-85407200D01*
X117238095Y-85407200D02*
X117190476Y-85359580D01*
X52742592Y-117136505D02*
X52772781Y-117284032D01*
X52772781Y-117284032D02*
X52891829Y-117490229D01*
X52891829Y-117490229D02*
X52980687Y-117548898D01*
X52980687Y-117548898D02*
X53045736Y-117566328D01*
X53045736Y-117566328D02*
X53152024Y-117559948D01*
X53152024Y-117559948D02*
X53234503Y-117512329D01*
X53234503Y-117512329D02*
X53293172Y-117423471D01*
X53293172Y-117423471D02*
X53310602Y-117358422D01*
X53310602Y-117358422D02*
X53304222Y-117252134D01*
X53304222Y-117252134D02*
X53250223Y-117063367D01*
X53250223Y-117063367D02*
X53243843Y-116957079D01*
X53243843Y-116957079D02*
X53261273Y-116892030D01*
X53261273Y-116892030D02*
X53319942Y-116803172D01*
X53319942Y-116803172D02*
X53402421Y-116755553D01*
X53402421Y-116755553D02*
X53508709Y-116749173D01*
X53508709Y-116749173D02*
X53573758Y-116766603D01*
X53573758Y-116766603D02*
X53662616Y-116825272D01*
X53662616Y-116825272D02*
X53781664Y-117031468D01*
X53781664Y-117031468D02*
X53811853Y-117178996D01*
X54019759Y-117443861D02*
X53272781Y-118150058D01*
X53272781Y-118150058D02*
X53986609Y-117957872D01*
X53986609Y-117957872D02*
X53463258Y-118479972D01*
X53463258Y-118479972D02*
X54448331Y-118186169D01*
X54034686Y-119469715D02*
X53748972Y-118974844D01*
X53891829Y-119222280D02*
X54757854Y-118722280D01*
X54757854Y-118722280D02*
X54586517Y-118711230D01*
X54586517Y-118711230D02*
X54456420Y-118676370D01*
X54456420Y-118676370D02*
X54367561Y-118617701D01*
X54272781Y-119882109D02*
X54368019Y-120047066D01*
X54368019Y-120047066D02*
X54456878Y-120105735D01*
X54456878Y-120105735D02*
X54521927Y-120123165D01*
X54521927Y-120123165D02*
X54693264Y-120134215D01*
X54693264Y-120134215D02*
X54882030Y-120080216D01*
X54882030Y-120080216D02*
X55211945Y-119889740D01*
X55211945Y-119889740D02*
X55270614Y-119800881D01*
X55270614Y-119800881D02*
X55288044Y-119735832D01*
X55288044Y-119735832D02*
X55281664Y-119629544D01*
X55281664Y-119629544D02*
X55186426Y-119464587D01*
X55186426Y-119464587D02*
X55097567Y-119405918D01*
X55097567Y-119405918D02*
X55032519Y-119388488D01*
X55032519Y-119388488D02*
X54926230Y-119394868D01*
X54926230Y-119394868D02*
X54720034Y-119513916D01*
X54720034Y-119513916D02*
X54661365Y-119602774D01*
X54661365Y-119602774D02*
X54643935Y-119667823D01*
X54643935Y-119667823D02*
X54650315Y-119774111D01*
X54650315Y-119774111D02*
X54745553Y-119939068D01*
X54745553Y-119939068D02*
X54834411Y-119997737D01*
X54834411Y-119997737D02*
X54899460Y-120015167D01*
X54899460Y-120015167D02*
X55005748Y-120008787D01*
X132666667Y-69407200D02*
X132809524Y-69454819D01*
X132809524Y-69454819D02*
X133047619Y-69454819D01*
X133047619Y-69454819D02*
X133142857Y-69407200D01*
X133142857Y-69407200D02*
X133190476Y-69359580D01*
X133190476Y-69359580D02*
X133238095Y-69264342D01*
X133238095Y-69264342D02*
X133238095Y-69169104D01*
X133238095Y-69169104D02*
X133190476Y-69073866D01*
X133190476Y-69073866D02*
X133142857Y-69026247D01*
X133142857Y-69026247D02*
X133047619Y-68978628D01*
X133047619Y-68978628D02*
X132857143Y-68931009D01*
X132857143Y-68931009D02*
X132761905Y-68883390D01*
X132761905Y-68883390D02*
X132714286Y-68835771D01*
X132714286Y-68835771D02*
X132666667Y-68740533D01*
X132666667Y-68740533D02*
X132666667Y-68645295D01*
X132666667Y-68645295D02*
X132714286Y-68550057D01*
X132714286Y-68550057D02*
X132761905Y-68502438D01*
X132761905Y-68502438D02*
X132857143Y-68454819D01*
X132857143Y-68454819D02*
X133095238Y-68454819D01*
X133095238Y-68454819D02*
X133238095Y-68502438D01*
X133571429Y-68454819D02*
X133809524Y-69454819D01*
X133809524Y-69454819D02*
X134000000Y-68740533D01*
X134000000Y-68740533D02*
X134190476Y-69454819D01*
X134190476Y-69454819D02*
X134428572Y-68454819D01*
X134714286Y-68454819D02*
X135380952Y-68454819D01*
X135380952Y-68454819D02*
X134952381Y-69454819D01*
X60558333Y-56545180D02*
X60558333Y-55830895D01*
X60558333Y-55830895D02*
X60605952Y-55688038D01*
X60605952Y-55688038D02*
X60701190Y-55592800D01*
X60701190Y-55592800D02*
X60844047Y-55545180D01*
X60844047Y-55545180D02*
X60939285Y-55545180D01*
X60177380Y-56545180D02*
X59558333Y-56545180D01*
X59558333Y-56545180D02*
X59891666Y-56164228D01*
X59891666Y-56164228D02*
X59748809Y-56164228D01*
X59748809Y-56164228D02*
X59653571Y-56116609D01*
X59653571Y-56116609D02*
X59605952Y-56068990D01*
X59605952Y-56068990D02*
X59558333Y-55973752D01*
X59558333Y-55973752D02*
X59558333Y-55735657D01*
X59558333Y-55735657D02*
X59605952Y-55640419D01*
X59605952Y-55640419D02*
X59653571Y-55592800D01*
X59653571Y-55592800D02*
X59748809Y-55545180D01*
X59748809Y-55545180D02*
X60034523Y-55545180D01*
X60034523Y-55545180D02*
X60129761Y-55592800D01*
X60129761Y-55592800D02*
X60177380Y-55640419D01*
D11*
X138666666Y-105457419D02*
X138666666Y-106171704D01*
X138666666Y-106171704D02*
X138619047Y-106314561D01*
X138619047Y-106314561D02*
X138523809Y-106409800D01*
X138523809Y-106409800D02*
X138380952Y-106457419D01*
X138380952Y-106457419D02*
X138285714Y-106457419D01*
X139095238Y-105552657D02*
X139142857Y-105505038D01*
X139142857Y-105505038D02*
X139238095Y-105457419D01*
X139238095Y-105457419D02*
X139476190Y-105457419D01*
X139476190Y-105457419D02*
X139571428Y-105505038D01*
X139571428Y-105505038D02*
X139619047Y-105552657D01*
X139619047Y-105552657D02*
X139666666Y-105647895D01*
X139666666Y-105647895D02*
X139666666Y-105743133D01*
X139666666Y-105743133D02*
X139619047Y-105885990D01*
X139619047Y-105885990D02*
X139047619Y-106457419D01*
X139047619Y-106457419D02*
X139666666Y-106457419D01*
D10*
X78190476Y-90407200D02*
X78333333Y-90454819D01*
X78333333Y-90454819D02*
X78571428Y-90454819D01*
X78571428Y-90454819D02*
X78666666Y-90407200D01*
X78666666Y-90407200D02*
X78714285Y-90359580D01*
X78714285Y-90359580D02*
X78761904Y-90264342D01*
X78761904Y-90264342D02*
X78761904Y-90169104D01*
X78761904Y-90169104D02*
X78714285Y-90073866D01*
X78714285Y-90073866D02*
X78666666Y-90026247D01*
X78666666Y-90026247D02*
X78571428Y-89978628D01*
X78571428Y-89978628D02*
X78380952Y-89931009D01*
X78380952Y-89931009D02*
X78285714Y-89883390D01*
X78285714Y-89883390D02*
X78238095Y-89835771D01*
X78238095Y-89835771D02*
X78190476Y-89740533D01*
X78190476Y-89740533D02*
X78190476Y-89645295D01*
X78190476Y-89645295D02*
X78238095Y-89550057D01*
X78238095Y-89550057D02*
X78285714Y-89502438D01*
X78285714Y-89502438D02*
X78380952Y-89454819D01*
X78380952Y-89454819D02*
X78619047Y-89454819D01*
X78619047Y-89454819D02*
X78761904Y-89502438D01*
X79095238Y-89454819D02*
X79333333Y-90454819D01*
X79333333Y-90454819D02*
X79523809Y-89740533D01*
X79523809Y-89740533D02*
X79714285Y-90454819D01*
X79714285Y-90454819D02*
X79952381Y-89454819D01*
X80857142Y-90454819D02*
X80285714Y-90454819D01*
X80571428Y-90454819D02*
X80571428Y-89454819D01*
X80571428Y-89454819D02*
X80476190Y-89597676D01*
X80476190Y-89597676D02*
X80380952Y-89692914D01*
X80380952Y-89692914D02*
X80285714Y-89740533D01*
X81761904Y-89454819D02*
X81285714Y-89454819D01*
X81285714Y-89454819D02*
X81238095Y-89931009D01*
X81238095Y-89931009D02*
X81285714Y-89883390D01*
X81285714Y-89883390D02*
X81380952Y-89835771D01*
X81380952Y-89835771D02*
X81619047Y-89835771D01*
X81619047Y-89835771D02*
X81714285Y-89883390D01*
X81714285Y-89883390D02*
X81761904Y-89931009D01*
X81761904Y-89931009D02*
X81809523Y-90026247D01*
X81809523Y-90026247D02*
X81809523Y-90264342D01*
X81809523Y-90264342D02*
X81761904Y-90359580D01*
X81761904Y-90359580D02*
X81714285Y-90407200D01*
X81714285Y-90407200D02*
X81619047Y-90454819D01*
X81619047Y-90454819D02*
X81380952Y-90454819D01*
X81380952Y-90454819D02*
X81285714Y-90407200D01*
X81285714Y-90407200D02*
X81238095Y-90359580D01*
%TO.C,SW8*%
D12*
X108400000Y-64900000D02*
X108400000Y-80100000D01*
X108400000Y-80100000D02*
X123600000Y-80100000D01*
X123600000Y-64900000D02*
X108400000Y-64900000D01*
X123600000Y-80100000D02*
X123600000Y-64900000D01*
%TO.C,SW11*%
X144400000Y-92900000D02*
X144400000Y-108100000D01*
X144400000Y-108100000D02*
X159600000Y-108100000D01*
X159600000Y-92900000D02*
X144400000Y-92900000D01*
X159600000Y-108100000D02*
X159600000Y-92900000D01*
%TO.C,SW12*%
X126400000Y-82900000D02*
X126400000Y-98100000D01*
X126400000Y-98100000D02*
X141600000Y-98100000D01*
X141600000Y-82900000D02*
X126400000Y-82900000D01*
X141600000Y-98100000D02*
X141600000Y-82900000D01*
%TO.C,SW17*%
X162400000Y-88900000D02*
X162400000Y-104100000D01*
X162400000Y-104100000D02*
X177600000Y-104100000D01*
X177600000Y-88900000D02*
X162400000Y-88900000D01*
X177600000Y-104100000D02*
X177600000Y-88900000D01*
%TO.C,SW5*%
X72400000Y-52900000D02*
X72400000Y-68100000D01*
X72400000Y-68100000D02*
X87600000Y-68100000D01*
X87600000Y-52900000D02*
X72400000Y-52900000D01*
X87600000Y-68100000D02*
X87600000Y-52900000D01*
%TO.C,SW1*%
X144400000Y-58900000D02*
X144400000Y-74100000D01*
X144400000Y-74100000D02*
X159600000Y-74100000D01*
X159600000Y-58900000D02*
X144400000Y-58900000D01*
X159600000Y-74100000D02*
X159600000Y-58900000D01*
%TO.C,SW9*%
X90400000Y-67900000D02*
X90400000Y-83100000D01*
X90400000Y-83100000D02*
X105600000Y-83100000D01*
X105600000Y-67900000D02*
X90400000Y-67900000D01*
X105600000Y-83100000D02*
X105600000Y-67900000D01*
%TO.C,SW2*%
X126400000Y-48900000D02*
X126400000Y-64100000D01*
X126400000Y-64100000D02*
X141600000Y-64100000D01*
X141600000Y-48900000D02*
X126400000Y-48900000D01*
X141600000Y-64100000D02*
X141600000Y-48900000D01*
%TO.C,SW16*%
X162400000Y-71900000D02*
X162400000Y-87100000D01*
X162400000Y-87100000D02*
X177600000Y-87100000D01*
X177600000Y-71900000D02*
X162400000Y-71900000D01*
X177600000Y-87100000D02*
X177600000Y-71900000D01*
%TO.C,SW6*%
X144400000Y-75900000D02*
X144400000Y-91100000D01*
X144400000Y-91100000D02*
X159600000Y-91100000D01*
X159600000Y-75900000D02*
X144400000Y-75900000D01*
X159600000Y-91100000D02*
X159600000Y-75900000D01*
%TO.C,SW3*%
X108400000Y-47900000D02*
X108400000Y-63100000D01*
X108400000Y-63100000D02*
X123600000Y-63100000D01*
X123600000Y-47900000D02*
X108400000Y-47900000D01*
X123600000Y-63100000D02*
X123600000Y-47900000D01*
%TO.C,SW14*%
X90400000Y-84900000D02*
X90400000Y-100100000D01*
X90400000Y-100100000D02*
X105600000Y-100100000D01*
X105600000Y-84900000D02*
X90400000Y-84900000D01*
X105600000Y-100100000D02*
X105600000Y-84900000D01*
%TO.C,SW10*%
X72400000Y-69900000D02*
X72400000Y-85100000D01*
X72400000Y-85100000D02*
X87600000Y-85100000D01*
X87600000Y-69900000D02*
X72400000Y-69900000D01*
X87600000Y-85100000D02*
X87600000Y-69900000D01*
%TO.C,SW18*%
X59691939Y-110125988D02*
X63625988Y-124808061D01*
X63625988Y-124808061D02*
X78308061Y-120874012D01*
X74374012Y-106191939D02*
X59691939Y-110125988D01*
X78308061Y-120874012D02*
X74374012Y-106191939D01*
%TO.C,SW4*%
X90400000Y-50900000D02*
X90400000Y-66100000D01*
X90400000Y-66100000D02*
X105600000Y-66100000D01*
X105600000Y-50900000D02*
X90400000Y-50900000D01*
X105600000Y-66100000D02*
X105600000Y-50900000D01*
%TO.C,SW13*%
X108400000Y-81900000D02*
X108400000Y-97100000D01*
X108400000Y-97100000D02*
X123600000Y-97100000D01*
X123600000Y-81900000D02*
X108400000Y-81900000D01*
X123600000Y-97100000D02*
X123600000Y-81900000D01*
%TO.C,SW19*%
X39618207Y-118218207D02*
X47218207Y-131381793D01*
X47218207Y-131381793D02*
X60381793Y-123781793D01*
X52781793Y-110618207D02*
X39618207Y-118218207D01*
X60381793Y-123781793D02*
X52781793Y-110618207D01*
%TO.C,SW7*%
X126400000Y-65900000D02*
X126400000Y-81100000D01*
X126400000Y-81100000D02*
X141600000Y-81100000D01*
X141600000Y-65900000D02*
X126400000Y-65900000D01*
X141600000Y-81100000D02*
X141600000Y-65900000D01*
%TO.C,J3*%
D13*
X53225000Y-57500000D02*
X67225000Y-57500000D01*
X67225000Y-90500000D01*
X53225000Y-90500000D01*
X53225000Y-57500000D01*
D10*
X54625000Y-91500000D02*
X54225000Y-90800000D01*
X55025000Y-90800000D01*
X54625000Y-91500000D01*
G36*
X54625000Y-91500000D02*
G01*
X54225000Y-90800000D01*
X55025000Y-90800000D01*
X54625000Y-91500000D01*
G37*
%TO.C,SW15*%
D12*
X72400000Y-86900000D02*
X72400000Y-102100000D01*
X72400000Y-102100000D02*
X87600000Y-102100000D01*
X87600000Y-86900000D02*
X72400000Y-86900000D01*
X87600000Y-102100000D02*
X87600000Y-86900000D01*
%TD*%
M02*
