%TF.GenerationSoftware,KiCad,Pcbnew,10.0.1*%
%TF.CreationDate,2026-07-22T17:23:00+09:00*%
%TF.ProjectId,reel-right,7265656c-2d72-4696-9768-742e6b696361,rev?*%
%TF.SameCoordinates,Original*%
%TF.FileFunction,Copper,L2,Bot*%
%TF.FilePolarity,Positive*%
%FSLAX46Y46*%
G04 Gerber Fmt 4.6, Leading zero omitted, Abs format (unit mm)*
G04 Created by KiCad (PCBNEW 10.0.1) date 2026-07-22 17:23:00*
%MOMM*%
%LPD*%
G01*
G04 APERTURE LIST*
G04 Aperture macros list*
%AMRoundRect*
0 Rectangle with rounded corners*
0 $1 Rounding radius*
0 $2 $3 $4 $5 $6 $7 $8 $9 X,Y pos of 4 corners*
0 Add a 4 corners polygon primitive as box body*
4,1,4,$2,$3,$4,$5,$6,$7,$8,$9,$2,$3,0*
0 Add four circle primitives for the rounded corners*
1,1,$1+$1,$2,$3*
1,1,$1+$1,$4,$5*
1,1,$1+$1,$6,$7*
1,1,$1+$1,$8,$9*
0 Add four rect primitives between the rounded corners*
20,1,$1+$1,$2,$3,$4,$5,0*
20,1,$1+$1,$4,$5,$6,$7,0*
20,1,$1+$1,$6,$7,$8,$9,0*
20,1,$1+$1,$8,$9,$2,$3,0*%
%AMRotRect*
0 Rectangle, with rotation*
0 The origin of the aperture is its center*
0 $1 length*
0 $2 width*
0 $3 Rotation angle, in degrees counterclockwise*
0 Add horizontal line*
21,1,$1,$2,0,0,$3*%
%AMFreePoly0*
4,1,5,0.762000,-1.000000,-0.762000,-1.000000,-0.762000,1.000000,0.762000,1.000000,0.762000,-1.000000,0.762000,-1.000000,$1*%
G04 Aperture macros list end*
%TA.AperFunction,SMDPad,CuDef*%
%ADD10R,0.950000X1.200000*%
%TD*%
%TA.AperFunction,SMDPad,CuDef*%
%ADD11RoundRect,0.250000X1.025000X1.000000X-1.025000X1.000000X-1.025000X-1.000000X1.025000X-1.000000X0*%
%TD*%
%TA.AperFunction,SMDPad,CuDef*%
%ADD12RotRect,1.200000X0.950000X285.000000*%
%TD*%
%TA.AperFunction,ComponentPad*%
%ADD13O,2.750000X1.800000*%
%TD*%
%TA.AperFunction,ComponentPad*%
%ADD14C,1.500000*%
%TD*%
%TA.AperFunction,ComponentPad*%
%ADD15FreePoly0,0.000000*%
%TD*%
%TA.AperFunction,ComponentPad*%
%ADD16O,1.524000X2.000000*%
%TD*%
%TA.AperFunction,SMDPad,CuDef*%
%ADD17RotRect,1.200000X0.950000X210.000000*%
%TD*%
%TA.AperFunction,SMDPad,CuDef*%
%ADD18RoundRect,0.250000X0.731255X1.231215X-1.248893X0.700636X-0.731255X-1.231215X1.248893X-0.700636X0*%
%TD*%
%TA.AperFunction,SMDPad,CuDef*%
%ADD19RoundRect,0.250000X1.378525X-0.387676X0.353525X1.387676X-1.378525X0.387676X-0.353525X-1.387676X0*%
%TD*%
%TA.AperFunction,ComponentPad*%
%ADD20R,1.350000X1.350000*%
%TD*%
%TA.AperFunction,ComponentPad*%
%ADD21O,1.350000X1.350000*%
%TD*%
%TA.AperFunction,WasherPad*%
%ADD22C,4.500000*%
%TD*%
%TA.AperFunction,ComponentPad*%
%ADD23R,1.700000X1.700000*%
%TD*%
%TA.AperFunction,ComponentPad*%
%ADD24O,1.700000X1.700000*%
%TD*%
%TA.AperFunction,SMDPad,CuDef*%
%ADD25R,1.000000X3.500000*%
%TD*%
%TA.AperFunction,SMDPad,CuDef*%
%ADD26R,1.500000X3.400000*%
%TD*%
%TA.AperFunction,SMDPad,CuDef*%
%ADD27R,0.800000X1.000000*%
%TD*%
%TA.AperFunction,SMDPad,CuDef*%
%ADD28R,1.500000X0.700000*%
%TD*%
%TA.AperFunction,ViaPad*%
%ADD29C,0.600000*%
%TD*%
%TA.AperFunction,Conductor*%
%ADD30C,0.250000*%
%TD*%
%TA.AperFunction,Conductor*%
%ADD31C,0.200000*%
%TD*%
%TA.AperFunction,Conductor*%
%ADD32C,0.500000*%
%TD*%
G04 APERTURE END LIST*
D10*
%TO.P,D3,1,K_1*%
%TO.N,Row0*%
X107500000Y-52053125D03*
%TO.P,D3,2,A_2*%
%TO.N,Net-(D3-A)*%
X107500000Y-55503125D03*
%TD*%
D11*
%TO.P,SW8,1,1_1*%
%TO.N,Col2*%
X119500000Y-78500000D03*
%TO.P,SW8,2,2_2*%
%TO.N,Net-(D8-A)*%
X107500000Y-76300000D03*
%TD*%
D10*
%TO.P,D8,1,K_1*%
%TO.N,Row1*%
X107500000Y-69053125D03*
%TO.P,D8,2,A_2*%
%TO.N,Net-(D8-A)*%
X107500000Y-72503125D03*
%TD*%
D12*
%TO.P,D18,1,K_1*%
%TO.N,Row3*%
X61053538Y-111616151D03*
%TO.P,D18,2,A_2*%
%TO.N,Net-(D18-A)*%
X61946463Y-114948595D03*
%TD*%
D10*
%TO.P,D13,1,K_1*%
%TO.N,Row2*%
X107500000Y-86053125D03*
%TO.P,D13,2,A_2*%
%TO.N,Net-(D13-A)*%
X107500000Y-89503125D03*
%TD*%
%TO.P,D12,1,K_1*%
%TO.N,Row2*%
X125500000Y-87053125D03*
%TO.P,D12,2,A_2*%
%TO.N,Net-(D12-A)*%
X125500000Y-90503125D03*
%TD*%
D11*
%TO.P,SW11,1,1_1*%
%TO.N,Col0*%
X155500000Y-106500000D03*
%TO.P,SW11,2,2_2*%
%TO.N,Net-(D11-A)*%
X143500000Y-104300000D03*
%TD*%
D10*
%TO.P,D11,1,K_1*%
%TO.N,Row2*%
X143500000Y-97053125D03*
%TO.P,D11,2,A_2*%
%TO.N,Net-(D11-A)*%
X143500000Y-100503125D03*
%TD*%
D11*
%TO.P,SW12,1,1_1*%
%TO.N,Col1*%
X137500000Y-96500000D03*
%TO.P,SW12,2,2_2*%
%TO.N,Net-(D12-A)*%
X125500000Y-94300000D03*
%TD*%
D10*
%TO.P,D14,1,K_1*%
%TO.N,Row2*%
X89500000Y-89053125D03*
%TO.P,D14,2,A_2*%
%TO.N,Net-(D14-A)*%
X89500000Y-92503125D03*
%TD*%
%TO.P,D10,1,K_1*%
%TO.N,Row1*%
X71500000Y-74053125D03*
%TO.P,D10,2,A_2*%
%TO.N,Net-(D10-A)*%
X71500000Y-77503125D03*
%TD*%
D11*
%TO.P,SW17,1,1_1*%
%TO.N,Col1*%
X173500000Y-102500000D03*
%TO.P,SW17,2,2_2*%
%TO.N,Net-(D17-A)*%
X161500000Y-100300000D03*
%TD*%
%TO.P,SW5,1,1_1*%
%TO.N,Col4*%
X83500000Y-66500000D03*
%TO.P,SW5,2,2_2*%
%TO.N,Net-(D5-A)*%
X71500000Y-64300000D03*
%TD*%
D13*
%TO.P,U1,1,P0.02_A0_D0_1*%
%TO.N,Row0*%
X51880000Y-53380000D03*
%TO.P,U1,2,P0.03_A1_D1_2*%
%TO.N,Row1*%
X51880000Y-55920000D03*
%TO.P,U1,3,P0.28_A2_D2_3*%
%TO.N,Row2*%
X51880000Y-58460000D03*
%TO.P,U1,4,P0.29_A3_D3_4*%
%TO.N,Row3*%
X51880000Y-61000000D03*
%TO.P,U1,5,P0.04_A4_D4_SDA_5*%
%TO.N,Col0*%
X51880000Y-63540000D03*
%TO.P,U1,6,P0.05_A5_D5_SCL_6*%
%TO.N,Col1*%
X51880000Y-66080000D03*
%TO.P,U1,7,P1.11_D6_TX_7*%
%TO.N,Col2*%
X51880000Y-68620000D03*
%TO.P,U1,8,P1.12_D7_RX_8*%
%TO.N,nCS*%
X68120000Y-68620000D03*
%TO.P,U1,9,P1.13_D8_SCK_9*%
%TO.N,SCLK*%
X68120000Y-66080000D03*
%TO.P,U1,10,P1.14_D9_MISO_10*%
%TO.N,MOTION*%
X68120000Y-63540000D03*
%TO.P,U1,11,P1.15_D10_MOSI_11*%
%TO.N,SDIO*%
X68120000Y-61000000D03*
%TO.P,U1,12,3V3_12*%
%TO.N,3.3V*%
X68120000Y-58460000D03*
%TO.P,U1,13,GND_13*%
%TO.N,GND*%
X68120000Y-55920000D03*
%TO.P,U1,14,5V_14*%
%TO.N,unconnected-(U1-5V-Pad14)*%
X68120000Y-53380000D03*
D14*
%TO.P,U1,15,NFC1_0.09_15*%
%TO.N,Col3*%
X63835400Y-70312000D03*
%TO.P,U1,16,NFC2_0.10_16*%
%TO.N,Col4*%
X65715000Y-70312000D03*
D15*
%TO.P,U1,17,NFC3_0.16_17*%
%TO.N,SI*%
X62960000Y-75200000D03*
D16*
%TO.P,U1,18,NFC4_1.00_18*%
%TO.N,SCK*%
X65500000Y-75200000D03*
%TO.P,U1,19,NFC5_1.10_19*%
%TO.N,CS*%
X68040000Y-75200000D03*
D14*
%TO.P,U1,20,BATT+_20*%
%TO.N,VBAT_SW*%
X55555000Y-60683000D03*
%TO.P,U1,21,BATT-_21*%
%TO.N,GND*%
X55555000Y-58778000D03*
%TD*%
D11*
%TO.P,SW1,1,1_1*%
%TO.N,Col0*%
X155500000Y-72500000D03*
%TO.P,SW1,2,2_2*%
%TO.N,Net-(D1-A)*%
X143500000Y-70300000D03*
%TD*%
D10*
%TO.P,D4,1,K_1*%
%TO.N,Row0*%
X89500000Y-55053125D03*
%TO.P,D4,2,A_2*%
%TO.N,Net-(D4-A)*%
X89500000Y-58503125D03*
%TD*%
D11*
%TO.P,SW9,1,1_1*%
%TO.N,Col3*%
X101500000Y-81500000D03*
%TO.P,SW9,2,2_2*%
%TO.N,Net-(D9-A)*%
X89500000Y-79300000D03*
%TD*%
%TO.P,SW2,1,1_1*%
%TO.N,Col1*%
X137500000Y-62500000D03*
%TO.P,SW2,2,2_2*%
%TO.N,Net-(D2-A)*%
X125500000Y-60300000D03*
%TD*%
D17*
%TO.P,D19,1,K_1*%
%TO.N,Row3*%
X52291435Y-108670100D03*
%TO.P,D19,2,A_2*%
%TO.N,Net-(D19-A)*%
X49303648Y-110395100D03*
%TD*%
D11*
%TO.P,SW16,1,1_1*%
%TO.N,Col0*%
X173500000Y-85500000D03*
%TO.P,SW16,2,2_2*%
%TO.N,Net-(D16-A)*%
X161500000Y-83300000D03*
%TD*%
D10*
%TO.P,D16,1,K_1*%
%TO.N,Row3*%
X161500000Y-76053125D03*
%TO.P,D16,2,A_2*%
%TO.N,Net-(D16-A)*%
X161500000Y-79503125D03*
%TD*%
D11*
%TO.P,SW6,1,1_1*%
%TO.N,Col0*%
X155500000Y-89500000D03*
%TO.P,SW6,2,2_2*%
%TO.N,Net-(D6-A)*%
X143500000Y-87300000D03*
%TD*%
D10*
%TO.P,D1,1,K_1*%
%TO.N,Row0*%
X143500000Y-63053125D03*
%TO.P,D1,2,A_2*%
%TO.N,Net-(D1-A)*%
X143500000Y-66503125D03*
%TD*%
D11*
%TO.P,SW3,1,1_1*%
%TO.N,Col2*%
X119500000Y-61500000D03*
%TO.P,SW3,2,2_2*%
%TO.N,Net-(D3-A)*%
X107500000Y-59300000D03*
%TD*%
D10*
%TO.P,D17,1,K_1*%
%TO.N,Row3*%
X161500000Y-93053125D03*
%TO.P,D17,2,A_2*%
%TO.N,Net-(D17-A)*%
X161500000Y-96503125D03*
%TD*%
D11*
%TO.P,SW14,1,1_1*%
%TO.N,Col3*%
X101500000Y-98500000D03*
%TO.P,SW14,2,2_2*%
%TO.N,Net-(D14-A)*%
X89500000Y-96300000D03*
%TD*%
D10*
%TO.P,D5,1,K_1*%
%TO.N,Row0*%
X71500000Y-57053125D03*
%TO.P,D5,2,A_2*%
%TO.N,Net-(D5-A)*%
X71500000Y-60503125D03*
%TD*%
D11*
%TO.P,SW10,1,1_1*%
%TO.N,Col4*%
X83500000Y-83500000D03*
%TO.P,SW10,2,2_2*%
%TO.N,Net-(D10-A)*%
X71500000Y-81300000D03*
%TD*%
D18*
%TO.P,SW18,1,1_1*%
%TO.N,Col2*%
X73933655Y-120389688D03*
%TO.P,SW18,2,2_2*%
%TO.N,Net-(D18-A)*%
X61773143Y-121370480D03*
%TD*%
D10*
%TO.P,D7,1,K_1*%
%TO.N,Row1*%
X125500000Y-70053125D03*
%TO.P,D7,2,A_2*%
%TO.N,Net-(D7-A)*%
X125500000Y-73503125D03*
%TD*%
D11*
%TO.P,SW4,1,1_1*%
%TO.N,Col3*%
X101500000Y-64500000D03*
%TO.P,SW4,2,2_2*%
%TO.N,Net-(D4-A)*%
X89500000Y-62300000D03*
%TD*%
%TO.P,SW13,1,1_1*%
%TO.N,Col2*%
X119500000Y-95500000D03*
%TO.P,SW13,2,2_2*%
%TO.N,Net-(D13-A)*%
X107500000Y-93300000D03*
%TD*%
D19*
%TO.P,SW19,1,1_1*%
%TO.N,Col3*%
X46553848Y-127031089D03*
%TO.P,SW19,2,2_2*%
%TO.N,Net-(D19-A)*%
X42459103Y-115538784D03*
%TD*%
D10*
%TO.P,D9,1,K_1*%
%TO.N,Row1*%
X89500000Y-72053125D03*
%TO.P,D9,2,A_2*%
%TO.N,Net-(D9-A)*%
X89500000Y-75503125D03*
%TD*%
D11*
%TO.P,SW7,1,1_1*%
%TO.N,Col1*%
X137500000Y-79500000D03*
%TO.P,SW7,2,2_2*%
%TO.N,Net-(D7-A)*%
X125500000Y-77300000D03*
%TD*%
D10*
%TO.P,D15,1,K_1*%
%TO.N,Row2*%
X71500000Y-91053125D03*
%TO.P,D15,2,A_2*%
%TO.N,Net-(D15-A)*%
X71500000Y-94503125D03*
%TD*%
D20*
%TO.P,J3,1,Pin_1_1*%
%TO.N,GND*%
X55145000Y-89000000D03*
D21*
%TO.P,J3,2,Pin_2_2*%
%TO.N,3.3V*%
X57685000Y-89000000D03*
%TO.P,J3,3,Pin_3_3*%
%TO.N,SI*%
X60225000Y-89000000D03*
%TO.P,J3,4,Pin_4_4*%
%TO.N,SCK*%
X62765000Y-89000000D03*
%TO.P,J3,5,Pin_5_5*%
%TO.N,CS*%
X65305000Y-89000000D03*
%TD*%
D22*
%TO.P,Ref\u002A\u002A,*%
%TO.N,*%
X163500000Y-107500000D03*
%TD*%
%TO.P,Ref\u002A\u002A,*%
%TO.N,*%
X145500000Y-50500000D03*
%TD*%
D10*
%TO.P,D6,1,K_1*%
%TO.N,Row1*%
X143500000Y-80053125D03*
%TO.P,D6,2,A_2*%
%TO.N,Net-(D6-A)*%
X143500000Y-83503125D03*
%TD*%
%TO.P,D2,1,K_1*%
%TO.N,Row0*%
X125500000Y-53053125D03*
%TO.P,D2,2,A_2*%
%TO.N,Net-(D2-A)*%
X125500000Y-56503125D03*
%TD*%
D23*
%TO.P,J2,1,SCLK_1*%
%TO.N,SCLK*%
X139000000Y-108700000D03*
D24*
%TO.P,J2,2,nCS_2*%
%TO.N,nCS*%
X139000000Y-111240000D03*
%TO.P,J2,3,GND_3*%
%TO.N,GND*%
X139000000Y-113780000D03*
%TO.P,J2,4,Vin_4*%
%TO.N,3.3V*%
X139000000Y-116320000D03*
%TO.P,J2,5,nc_5*%
%TO.N,unconnected-(J2-nc-Pad5)*%
X139000000Y-118860000D03*
%TO.P,J2,6,SDIO_6*%
%TO.N,SDIO*%
X139000000Y-121400000D03*
%TO.P,J2,7,MOTION_7*%
%TO.N,MOTION*%
X139000000Y-123940000D03*
%TD*%
D22*
%TO.P,Ref\u002A\u002A,*%
%TO.N,*%
X88000000Y-50750000D03*
%TD*%
D11*
%TO.P,SW15,1,1_1*%
%TO.N,Col4*%
X83500000Y-100500000D03*
%TO.P,SW15,2,2_2*%
%TO.N,Net-(D15-A)*%
X71500000Y-98300000D03*
%TD*%
D22*
%TO.P,Ref\u002A\u002A,*%
%TO.N,*%
X58000000Y-107500000D03*
%TD*%
D25*
%TO.P,J1,1,Pin_1_1*%
%TO.N,Net-(J1-Pin_1)*%
X59500000Y-69875000D03*
%TO.P,J1,2,Pin_2_2*%
%TO.N,GND*%
X57500000Y-69875000D03*
D26*
%TO.P,J1,P1*%
%TO.N,N/C*%
X55150000Y-64125000D03*
%TO.P,J1,P2*%
X61850000Y-64125000D03*
%TD*%
D27*
%TO.P,SW22,*%
%TO.N,*%
X50070000Y-86150000D03*
X52280000Y-86150000D03*
X50070000Y-78850000D03*
X52280000Y-78850000D03*
D28*
%TO.P,SW22,1,A_1*%
%TO.N,VBAT_SW*%
X52930000Y-84750000D03*
%TO.P,SW22,2,B_2*%
%TO.N,Net-(J1-Pin_1)*%
X52930000Y-81750000D03*
%TO.P,SW22,3,C_3*%
%TO.N,unconnected-(SW22-C-Pad3)*%
X52930000Y-80250000D03*
%TD*%
D29*
%TO.N,Row0*%
X143500000Y-61000000D03*
X135500000Y-60000000D03*
%TO.N,Col2*%
X68500000Y-104000000D03*
%TO.N,Row1*%
X88000000Y-72500000D03*
X127500000Y-70000000D03*
X91000000Y-71500000D03*
X123500000Y-69500000D03*
X109000000Y-69500000D03*
X143500000Y-78500000D03*
X106000000Y-69000000D03*
X73500000Y-74000000D03*
%TO.N,Row3*%
X143500000Y-99000000D03*
X52250000Y-107500000D03*
X108000000Y-101500000D03*
X160000000Y-76500000D03*
X159500000Y-93000000D03*
%TO.N,Row2*%
X91500000Y-89000000D03*
X88000000Y-89500000D03*
X109500000Y-86500000D03*
X105500000Y-86500000D03*
X73500000Y-91000000D03*
X120250000Y-86500000D03*
%TO.N,Col0*%
X155500000Y-70000000D03*
%TO.N,Col1*%
X137500000Y-59000000D03*
%TO.N,MOTION*%
X140699997Y-115500000D03*
%TO.N,SDIO*%
X141500000Y-115500000D03*
%TO.N,3.3V*%
X61000000Y-84000000D03*
X61000000Y-81000000D03*
%TO.N,GND*%
X57500000Y-66500000D03*
%TO.N,Col3*%
X68500000Y-81500000D03*
%TO.N,VBAT_SW*%
X55208109Y-83458109D03*
%TO.N,Net-(J1-Pin_1)*%
X58500000Y-73125000D03*
X58500000Y-71000000D03*
%TD*%
%TO.N,Row0*%
D30*
X133000000Y-60000000D02*
X130500000Y-57500000D01*
X127553125Y-53053125D02*
X125500000Y-53053125D01*
X69051875Y-54605000D02*
X53605000Y-54605000D01*
X130500000Y-57500000D02*
X130500000Y-56000000D01*
X124500000Y-52053125D02*
X125500000Y-53053125D01*
X71500000Y-57053125D02*
X87500000Y-57053125D01*
X135500000Y-60000000D02*
X133000000Y-60000000D01*
X107500000Y-52053125D02*
X124500000Y-52053125D01*
X104500000Y-55053125D02*
X107500000Y-52053125D01*
X53605000Y-54605000D02*
X52380000Y-53380000D01*
X89500000Y-55053125D02*
X104500000Y-55053125D01*
X87500000Y-57053125D02*
X89500000Y-55053125D01*
X71500000Y-57053125D02*
X69051875Y-54605000D01*
X130500000Y-56000000D02*
X127553125Y-53053125D01*
X143500000Y-63053125D02*
X143500000Y-61000000D01*
%TO.N,Net-(D3-A)*%
X107500000Y-59300000D02*
X107500000Y-55503125D01*
%TO.N,Col2*%
X81000000Y-104000000D02*
X82000000Y-103000000D01*
X108000000Y-98500000D02*
X118500000Y-98500000D01*
X82000000Y-103000000D02*
X88500000Y-103000000D01*
X119500000Y-97500000D02*
X119500000Y-95500000D01*
X118500000Y-98500000D02*
X119500000Y-97500000D01*
X76500000Y-105000000D02*
X77500000Y-104000000D01*
X77500000Y-104000000D02*
X81000000Y-104000000D01*
X119500000Y-78500000D02*
X119500000Y-61500000D01*
X76500000Y-117823343D02*
X76500000Y-105000000D01*
X76500000Y-105000000D02*
X75500000Y-104000000D01*
X119500000Y-95500000D02*
X119500000Y-78500000D01*
X73933655Y-120389688D02*
X76500000Y-117823343D01*
X90000000Y-101500000D02*
X105000000Y-101500000D01*
X88500000Y-103000000D02*
X90000000Y-101500000D01*
X68500000Y-104000000D02*
X75500000Y-104000000D01*
X105000000Y-101500000D02*
X108000000Y-98500000D01*
%TO.N,Net-(D8-A)*%
X107500000Y-76300000D02*
X107500000Y-72503125D01*
%TO.N,Row1*%
X125500000Y-70053125D02*
X127446875Y-70053125D01*
X106053125Y-69053125D02*
X106000000Y-69000000D01*
X52920000Y-55920000D02*
X54000000Y-57000000D01*
X52380000Y-55920000D02*
X52920000Y-55920000D01*
X89500000Y-72053125D02*
X90446875Y-72053125D01*
X89500000Y-72053125D02*
X88446875Y-72053125D01*
X88446875Y-72053125D02*
X88000000Y-72500000D01*
X107500000Y-69053125D02*
X106053125Y-69053125D01*
X71500000Y-74053125D02*
X73446875Y-74053125D01*
X55000000Y-72000000D02*
X69446875Y-72000000D01*
X54000000Y-57000000D02*
X54000000Y-71000000D01*
X108553125Y-69053125D02*
X109000000Y-69500000D01*
X54000000Y-71000000D02*
X55000000Y-72000000D01*
X69446875Y-72000000D02*
X71500000Y-74053125D01*
X73446875Y-74053125D02*
X73500000Y-74000000D01*
X107500000Y-69053125D02*
X108553125Y-69053125D01*
X124053125Y-70053125D02*
X123500000Y-69500000D01*
X90446875Y-72053125D02*
X91000000Y-71500000D01*
X125500000Y-70053125D02*
X124053125Y-70053125D01*
X143500000Y-80053125D02*
X143500000Y-78500000D01*
X127446875Y-70053125D02*
X127500000Y-70000000D01*
%TO.N,Row3*%
X161500000Y-93053125D02*
X159553125Y-93053125D01*
X159553125Y-93053125D02*
X159500000Y-93000000D01*
X161446875Y-93000000D02*
X161500000Y-93053125D01*
X52250000Y-108628665D02*
X52291435Y-108670100D01*
X160446875Y-76053125D02*
X160000000Y-76500000D01*
X52250000Y-107500000D02*
X52250000Y-108628665D01*
X52291435Y-108670100D02*
X55237486Y-111616151D01*
X137750000Y-101500000D02*
X140250000Y-99000000D01*
X108000000Y-101500000D02*
X137750000Y-101500000D01*
X161500000Y-76053125D02*
X160446875Y-76053125D01*
X143500000Y-99000000D02*
X140250000Y-99000000D01*
X55237486Y-111616151D02*
X61053538Y-111616151D01*
%TO.N,Net-(D18-A)*%
X61773143Y-121370480D02*
X61773143Y-115121915D01*
D31*
X61773143Y-115121915D02*
X61946463Y-114948595D01*
%TO.N,Row2*%
D30*
X128053125Y-87053125D02*
X131000000Y-90000000D01*
X73446875Y-91053125D02*
X73500000Y-91000000D01*
X142053125Y-98500000D02*
X143500000Y-97053125D01*
X125500000Y-87053125D02*
X128053125Y-87053125D01*
X105946875Y-86053125D02*
X105500000Y-86500000D01*
X132000000Y-98500000D02*
X142053125Y-98500000D01*
X69500000Y-89053125D02*
X69500000Y-73500000D01*
X120250000Y-86500000D02*
X124000000Y-86500000D01*
X50180000Y-71680000D02*
X51000000Y-72500000D01*
X88446875Y-89053125D02*
X88000000Y-89500000D01*
X69500000Y-73500000D02*
X68500000Y-72500000D01*
X107500000Y-86053125D02*
X105946875Y-86053125D01*
X89500000Y-89053125D02*
X88446875Y-89053125D01*
X124000000Y-86500000D02*
X124553125Y-87053125D01*
X124553125Y-87053125D02*
X125500000Y-87053125D01*
X71500000Y-91053125D02*
X69500000Y-89053125D01*
X109053125Y-86053125D02*
X109500000Y-86500000D01*
X107500000Y-86053125D02*
X109053125Y-86053125D01*
X131000000Y-97500000D02*
X132000000Y-98500000D01*
X91446875Y-89053125D02*
X91500000Y-89000000D01*
X68500000Y-72500000D02*
X51000000Y-72500000D01*
X89500000Y-89053125D02*
X91446875Y-89053125D01*
X50180000Y-59445000D02*
X50180000Y-71680000D01*
X51165000Y-58460000D02*
X50180000Y-59445000D01*
X71500000Y-91053125D02*
X73446875Y-91053125D01*
X52380000Y-58460000D02*
X51165000Y-58460000D01*
X131000000Y-90000000D02*
X131000000Y-97500000D01*
%TO.N,Net-(D13-A)*%
X107500000Y-93300000D02*
X107500000Y-89503125D01*
%TO.N,Net-(D12-A)*%
X125500000Y-90503125D02*
X125500000Y-94300000D01*
%TO.N,Col0*%
X155500000Y-89500000D02*
X157000000Y-91000000D01*
X155500000Y-106500000D02*
X155500000Y-89500000D01*
X155500000Y-72500000D02*
X155500000Y-70000000D01*
X157000000Y-91000000D02*
X169500000Y-91000000D01*
X173500000Y-87000000D02*
X173500000Y-85500000D01*
X155500000Y-89500000D02*
X155500000Y-72500000D01*
X169500000Y-91000000D02*
X173500000Y-87000000D01*
%TO.N,Net-(D11-A)*%
X143500000Y-104300000D02*
X143500000Y-100503125D01*
%TO.N,Col1*%
X137500000Y-79500000D02*
X137500000Y-96500000D01*
X163500000Y-76000000D02*
X159000000Y-71500000D01*
X173500000Y-102500000D02*
X176500000Y-102500000D01*
X158000000Y-59000000D02*
X141000000Y-59000000D01*
X141000000Y-59000000D02*
X137500000Y-62500000D01*
X159000000Y-60000000D02*
X158000000Y-59000000D01*
X137500000Y-62500000D02*
X137500000Y-59000000D01*
X176500000Y-76000000D02*
X163500000Y-76000000D01*
X176500000Y-76000000D02*
X177500000Y-77000000D01*
X159000000Y-71500000D02*
X159000000Y-60000000D01*
X137500000Y-62500000D02*
X137500000Y-79500000D01*
X177500000Y-101500000D02*
X177500000Y-77000000D01*
X176500000Y-102500000D02*
X177500000Y-101500000D01*
%TO.N,Net-(D14-A)*%
X89500000Y-96300000D02*
X89500000Y-92503125D01*
%TO.N,Net-(D10-A)*%
X71500000Y-81300000D02*
X71500000Y-77503125D01*
%TO.N,Net-(D17-A)*%
X161500000Y-100300000D02*
X161500000Y-96503125D01*
%TO.N,Col4*%
X65970008Y-70567008D02*
X65980177Y-70537696D01*
X66903000Y-71500000D02*
X65970008Y-70567008D01*
X82500000Y-71500000D02*
X83500000Y-72500000D01*
X82500000Y-71500000D02*
X66903000Y-71500000D01*
X83500000Y-66500000D02*
X83500000Y-70500000D01*
X82500000Y-71500000D02*
X83500000Y-70500000D01*
X83500000Y-72500000D02*
X83500000Y-83500000D01*
X83500000Y-83500000D02*
X83500000Y-100500000D01*
%TO.N,Net-(D5-A)*%
X71500000Y-64300000D02*
X71500000Y-60503125D01*
%TO.N,MOTION*%
D31*
X140699997Y-119550003D02*
X140000000Y-120250000D01*
X140699997Y-115500000D02*
X140699997Y-119550003D01*
X138000000Y-120250000D02*
X137500000Y-120750000D01*
X137500000Y-120750000D02*
X137500000Y-123500000D01*
X137940000Y-123940000D02*
X137500000Y-123500000D01*
X139000000Y-123940000D02*
X137940000Y-123940000D01*
X140000000Y-120250000D02*
X138000000Y-120250000D01*
%TO.N,SDIO*%
X141500000Y-121000000D02*
X141100000Y-121400000D01*
X141100000Y-121400000D02*
X139000000Y-121400000D01*
X141500000Y-115500000D02*
X141500000Y-121000000D01*
%TO.N,3.3V*%
D32*
X61000000Y-81000000D02*
X61000000Y-84000000D01*
%TO.N,GND*%
D30*
X57500000Y-69875000D02*
X57500000Y-66500000D01*
%TO.N,Col3*%
X50750000Y-104750000D02*
X50750000Y-115290450D01*
X80750000Y-103500000D02*
X81750000Y-102500000D01*
X101500000Y-100000000D02*
X101500000Y-98500000D01*
X81750000Y-102500000D02*
X88250000Y-102500000D01*
X68500000Y-102000000D02*
X68500000Y-81500000D01*
X88250000Y-102500000D02*
X89750000Y-101000000D01*
X101500000Y-64500000D02*
X101500000Y-81500000D01*
X70000000Y-103500000D02*
X80750000Y-103500000D01*
X46790450Y-126794487D02*
X46553848Y-127031089D01*
X46790450Y-119250000D02*
X46790450Y-126794487D01*
X67000000Y-103500000D02*
X52000000Y-103500000D01*
X68500000Y-102000000D02*
X67000000Y-103500000D01*
X68500000Y-102000000D02*
X70000000Y-103500000D01*
X89750000Y-101000000D02*
X100500000Y-101000000D01*
X100500000Y-101000000D02*
X101500000Y-100000000D01*
X52000000Y-103500000D02*
X50750000Y-104750000D01*
X50750000Y-115290450D02*
X46790450Y-119250000D01*
X101500000Y-81500000D02*
X101500000Y-98500000D01*
%TO.N,SI*%
X60225000Y-78235000D02*
X62960000Y-75500000D01*
X60225000Y-89000000D02*
X60225000Y-78235000D01*
%TO.N,SCK*%
X62765000Y-89000000D02*
X62765000Y-78235000D01*
X62765000Y-78235000D02*
X65500000Y-75500000D01*
%TO.N,CS*%
X65305000Y-78235000D02*
X68040000Y-75500000D01*
X65305000Y-89000000D02*
X65305000Y-78235000D01*
%TO.N,VBAT_SW*%
D32*
X55208109Y-83458109D02*
X55208109Y-84041891D01*
X55208109Y-84041891D02*
X54500000Y-84750000D01*
X54500000Y-84750000D02*
X52930000Y-84750000D01*
%TO.N,Net-(D1-A)*%
D30*
X143500000Y-66503125D02*
X143500000Y-70300000D01*
%TO.N,Net-(D4-A)*%
X89500000Y-62300000D02*
X89500000Y-58503125D01*
%TO.N,Net-(D9-A)*%
X89500000Y-75503125D02*
X89500000Y-79300000D01*
%TO.N,Net-(D2-A)*%
X125500000Y-56503125D02*
X125500000Y-60300000D01*
%TO.N,Net-(D19-A)*%
X42459103Y-115538784D02*
X44159964Y-115538784D01*
X44159964Y-115538784D02*
X49303648Y-110395100D01*
%TO.N,Net-(D16-A)*%
X161500000Y-79503125D02*
X161500000Y-83300000D01*
%TO.N,Net-(D6-A)*%
X143500000Y-83503125D02*
X143500000Y-87300000D01*
%TO.N,Net-(D7-A)*%
X125500000Y-73503125D02*
X125500000Y-77300000D01*
%TO.N,Net-(D15-A)*%
X71500000Y-94503125D02*
X71500000Y-98300000D01*
%TO.N,Net-(J1-Pin_1)*%
X58500000Y-73125000D02*
X58500000Y-80750000D01*
D31*
X59500000Y-69875000D02*
X59500000Y-70000000D01*
D30*
X59500000Y-70000000D02*
X58500000Y-71000000D01*
X52930000Y-81750000D02*
X57500000Y-81750000D01*
X58500000Y-80750000D02*
X57500000Y-81750000D01*
%TD*%
M02*
