%TF.GenerationSoftware,KiCad,Pcbnew,10.0.1*%
%TF.CreationDate,2026-07-22T17:23:00+09:00*%
%TF.ProjectId,reel-right,7265656c-2d72-4696-9768-742e6b696361,rev?*%
%TF.SameCoordinates,Original*%
%TF.FileFunction,Profile,NP*%
%FSLAX46Y46*%
G04 Gerber Fmt 4.6, Leading zero omitted, Abs format (unit mm)*
G04 Created by KiCad (PCBNEW 10.0.1) date 2026-07-22 17:23:00*
%MOMM*%
%LPD*%
G01*
G04 APERTURE LIST*
%TA.AperFunction,Profile*%
%ADD10C,0.050000*%
%TD*%
%TA.AperFunction,Profile*%
%ADD11C,0.120000*%
%TD*%
G04 APERTURE END LIST*
D10*
X35589762Y-115772786D02*
G75*
G02*
X35955794Y-114406774I866038J499986D01*
G01*
X35589762Y-115772786D02*
X45582283Y-133080200D01*
X46713675Y-133544345D02*
G75*
G02*
X45582277Y-133080204I-265375J964145D01*
G01*
X46713675Y-133544345D02*
X80298950Y-124300482D01*
X47000000Y-108030377D02*
X35955785Y-114406758D01*
X49500000Y-51500000D02*
X49500000Y-103700250D01*
X49500000Y-51500000D02*
G75*
G02*
X50500000Y-50500000I1000000J0D01*
G01*
X49500000Y-103700250D02*
G75*
G02*
X46999997Y-108030371I-5000160J100D01*
G01*
X50500000Y-50500000D02*
X84250000Y-50500000D01*
X77708196Y-110794087D02*
G75*
G02*
X82537827Y-104500026I4829604J1294087D01*
G01*
X80999508Y-123077517D02*
X77708196Y-110794087D01*
X80999508Y-123077517D02*
G75*
G02*
X80298935Y-124300429I-965908J-258783D01*
G01*
X82537827Y-104500000D02*
X89500000Y-104500000D01*
X85250000Y-49000000D02*
X85250000Y-49500000D01*
X85250000Y-49000000D02*
G75*
G02*
X86250000Y-48000000I1000000J0D01*
G01*
X85250000Y-49500000D02*
G75*
G02*
X84250000Y-50500000I-1000000J0D01*
G01*
X86250000Y-48000000D02*
X104500000Y-48000000D01*
X90500000Y-103500000D02*
G75*
G02*
X89500000Y-104500000I-1000000J0D01*
G01*
X90500000Y-103500000D02*
G75*
G02*
X91500000Y-102500000I1000000J0D01*
G01*
X91500000Y-102500000D02*
X135000000Y-102500000D01*
X105500000Y-46500000D02*
G75*
G02*
X106500000Y-45500000I1000000J0D01*
G01*
X105500000Y-47000000D02*
G75*
G02*
X104500000Y-48000000I-1000000J0D01*
G01*
X105500000Y-47000000D02*
X105500000Y-46500000D01*
X106500000Y-45500000D02*
X126000000Y-45500000D01*
X126000000Y-45500000D02*
G75*
G02*
X126500000Y-46000000I0J-500000D01*
G01*
X127000000Y-46500000D02*
G75*
G02*
X126500000Y-46000000I0J500000D01*
G01*
X127000000Y-46500000D02*
X147500000Y-46500000D01*
X135000000Y-102500000D02*
G75*
G02*
X136000000Y-103500000I0J-1000000D01*
G01*
X136000000Y-126000000D02*
X136000000Y-103500000D01*
X137000000Y-127000000D02*
G75*
G02*
X136000000Y-126000000I0J1000000D01*
G01*
X142000000Y-127000000D02*
X137000000Y-127000000D01*
X143000000Y-111500000D02*
X143000000Y-126000000D01*
X143000000Y-111500000D02*
G75*
G02*
X144000000Y-110500000I1000000J0D01*
G01*
X143000000Y-126000000D02*
G75*
G02*
X142000000Y-127000000I-1000000J0D01*
G01*
X147500000Y-46500000D02*
G75*
G02*
X148500000Y-47500000I0J-1000000D01*
G01*
X148500000Y-47500000D02*
X148500000Y-55500000D01*
X149500000Y-56500000D02*
G75*
G02*
X148500000Y-55500000I0J1000000D01*
G01*
X149500000Y-56500000D02*
X161500000Y-56500000D01*
X161500000Y-56500000D02*
G75*
G02*
X162500000Y-57500000I0J-1000000D01*
G01*
X162500000Y-57500000D02*
X162500000Y-68500000D01*
X163500000Y-69500000D02*
G75*
G02*
X162500000Y-68500000I0J1000000D01*
G01*
X163500000Y-69500000D02*
X179500000Y-69500000D01*
X165500000Y-110500000D02*
X144000000Y-110500000D01*
X166500000Y-107500000D02*
X166500000Y-109500000D01*
X166500000Y-107500000D02*
G75*
G02*
X167500000Y-106500000I1000000J0D01*
G01*
X166500000Y-109500000D02*
G75*
G02*
X165500000Y-110500000I-1000000J0D01*
G01*
X179500000Y-69500000D02*
G75*
G02*
X180500000Y-70500000I0J-1000000D01*
G01*
X179500000Y-106500000D02*
X167500000Y-106500000D01*
X180500000Y-70500000D02*
X180500000Y-105500000D01*
X180500000Y-105500000D02*
G75*
G02*
X179500000Y-106500000I-1000000J0D01*
G01*
%TO.C,U1*%
D11*
X55292247Y-60249447D02*
X55292247Y-59208047D01*
X55978047Y-58522247D02*
X57578247Y-58522247D01*
X57578247Y-60935247D02*
X55978047Y-60935247D01*
X57959247Y-58903247D02*
X57959247Y-60554247D01*
X63572247Y-69891953D02*
X63572247Y-68291753D01*
X63953247Y-67910753D02*
X65604247Y-67910753D01*
X65299447Y-70577753D02*
X64258047Y-70577753D01*
X65985247Y-68291753D02*
X65985247Y-69891953D01*
X55292247Y-60249447D02*
G75*
G02*
X55978047Y-60935247I247753J-438047D01*
G01*
X55978047Y-58522247D02*
G75*
G02*
X55292247Y-59208047I-438047J-247753D01*
G01*
X57578247Y-58522247D02*
G75*
G02*
X57959247Y-58903247I8J-380992D01*
G01*
X57959247Y-60554247D02*
G75*
G02*
X57578247Y-60935247I-380996J-4D01*
G01*
X63572247Y-68291753D02*
G75*
G02*
X63953247Y-67910757I380993J3D01*
G01*
X63572247Y-69891953D02*
G75*
G02*
X64258047Y-70577753I247753J-438047D01*
G01*
X65299447Y-70577753D02*
G75*
G02*
X65985251Y-69891946I438053J247753D01*
G01*
X65604247Y-67910753D02*
G75*
G02*
X65985247Y-68291753I3J-380997D01*
G01*
%TD*%
M02*
