%TF.GenerationSoftware,KiCad,Pcbnew,10.0.1*%
%TF.CreationDate,2026-08-10T21:19:34+09:00*%
%TF.ProjectId,reel-right,7265656c-2d72-4696-9768-742e6b696361,rev?*%
%TF.SameCoordinates,Original*%
%TF.FileFunction,Copper,L1,Top*%
%TF.FilePolarity,Positive*%
%FSLAX46Y46*%
G04 Gerber Fmt 4.6, Leading zero omitted, Abs format (unit mm)*
G04 Created by KiCad (PCBNEW 10.0.1) date 2026-08-10 21:19:34*
%MOMM*%
%LPD*%
G01*
G04 APERTURE LIST*
G04 Aperture macros list*
%AMRoundRect*
0 Rectangle with rounded corners*
0 $1 Rounding radius*
0 $2 $3 $4 $5 $6 $7 $8 $9 X,Y pos of 4 corners*
0 Add a 4 corners polygon primitive as box body*
4,1,4,$2,$3,$4,$5,$6,$7,$8,$9,$2,$3,0*
0 Add four circle primitives for the rounded corners*
1,1,$1+$1,$2,$3*
1,1,$1+$1,$4,$5*
1,1,$1+$1,$6,$7*
1,1,$1+$1,$8,$9*
0 Add four rect primitives between the rounded corners*
20,1,$1+$1,$2,$3,$4,$5,0*
20,1,$1+$1,$4,$5,$6,$7,0*
20,1,$1+$1,$6,$7,$8,$9,0*
20,1,$1+$1,$8,$9,$2,$3,0*%
%AMFreePoly0*
4,1,5,0.762000,-1.000000,-0.762000,-1.000000,-0.762000,1.000000,0.762000,1.000000,0.762000,-1.000000,0.762000,-1.000000,$1*%
G04 Aperture macros list end*
%TA.AperFunction,ComponentPad*%
%ADD10O,2.750000X1.800000*%
%TD*%
%TA.AperFunction,ComponentPad*%
%ADD11C,1.500000*%
%TD*%
%TA.AperFunction,ComponentPad*%
%ADD12FreePoly0,0.000000*%
%TD*%
%TA.AperFunction,ComponentPad*%
%ADD13O,1.524000X2.000000*%
%TD*%
%TA.AperFunction,ComponentPad*%
%ADD14C,1.350000*%
%TD*%
%TA.AperFunction,ComponentPad*%
%ADD15O,1.350000X1.350000*%
%TD*%
%TA.AperFunction,ComponentPad*%
%ADD16R,1.350000X1.350000*%
%TD*%
%TA.AperFunction,WasherPad*%
%ADD17C,4.500000*%
%TD*%
%TA.AperFunction,ComponentPad*%
%ADD18R,1.700000X1.700000*%
%TD*%
%TA.AperFunction,ComponentPad*%
%ADD19O,1.700000X1.700000*%
%TD*%
%TA.AperFunction,ComponentPad*%
%ADD20RoundRect,0.250000X0.350000X0.625000X-0.350000X0.625000X-0.350000X-0.625000X0.350000X-0.625000X0*%
%TD*%
%TA.AperFunction,ComponentPad*%
%ADD21O,1.200000X1.750000*%
%TD*%
%TA.AperFunction,ViaPad*%
%ADD22C,0.600000*%
%TD*%
%TA.AperFunction,Conductor*%
%ADD23C,0.250000*%
%TD*%
%TA.AperFunction,Conductor*%
%ADD24C,0.200000*%
%TD*%
%TA.AperFunction,Conductor*%
%ADD25C,0.500000*%
%TD*%
G04 APERTURE END LIST*
D10*
%TO.P,U1,1,P0.02_A0_D0_1*%
%TO.N,Row0*%
X50880000Y-51380000D03*
%TO.P,U1,2,P0.03_A1_D1_2*%
%TO.N,Row1*%
X50880000Y-53920000D03*
%TO.P,U1,3,P0.28_A2_D2_3*%
%TO.N,Row2*%
X50880000Y-56460000D03*
%TO.P,U1,4,P0.29_A3_D3_4*%
%TO.N,Row3*%
X50880000Y-59000000D03*
%TO.P,U1,5,P0.04_A4_D4_SDA_5*%
%TO.N,Col0*%
X50880000Y-61540000D03*
%TO.P,U1,6,P0.05_A5_D5_SCL_6*%
%TO.N,Col1*%
X50880000Y-64080000D03*
%TO.P,U1,7,P1.11_D6_TX_7*%
%TO.N,Col2*%
X50880000Y-66620000D03*
%TO.P,U1,8,P1.12_D7_RX_8*%
%TO.N,nCS*%
X67120000Y-66620000D03*
%TO.P,U1,9,P1.13_D8_SCK_9*%
%TO.N,SCLK*%
X67120000Y-64080000D03*
%TO.P,U1,10,P1.14_D9_MISO_10*%
%TO.N,MOTION*%
X67120000Y-61540000D03*
%TO.P,U1,11,P1.15_D10_MOSI_11*%
%TO.N,SDIO*%
X67120000Y-59000000D03*
%TO.P,U1,12,3V3_12*%
%TO.N,3.3V*%
X67120000Y-56460000D03*
%TO.P,U1,13,GND_13*%
%TO.N,GND*%
X67120000Y-53920000D03*
%TO.P,U1,14,5V_14*%
%TO.N,unconnected-(U1-5V-Pad14)*%
X67120000Y-51380000D03*
D11*
%TO.P,U1,15,NFC1_0.09_15*%
%TO.N,Col3*%
X62835400Y-68312000D03*
%TO.P,U1,16,NFC2_0.10_16*%
%TO.N,Col4*%
X64715000Y-68312000D03*
D12*
%TO.P,U1,17,NFC3_0.16_17*%
%TO.N,SI*%
X61960000Y-73200000D03*
D13*
%TO.P,U1,18,NFC4_1.00_18*%
%TO.N,SCK*%
X64500000Y-73200000D03*
%TO.P,U1,19,NFC5_1.10_19*%
%TO.N,CS*%
X67040000Y-73200000D03*
D11*
%TO.P,U1,20,BATT+_20*%
%TO.N,VBAT_SW*%
X54555000Y-58683000D03*
%TO.P,U1,21,BATT-_21*%
%TO.N,GND*%
X54555000Y-56778000D03*
%TD*%
D14*
%TO.P,J3,1,Pin_1_1*%
%TO.N,SI*%
X53945000Y-103500000D03*
D15*
%TO.P,J3,2,Pin_2_2*%
%TO.N,SCK*%
X56485000Y-103500000D03*
%TO.P,J3,3,Pin_3_3*%
%TO.N,3.3V*%
X59025000Y-103500000D03*
%TO.P,J3,4,Pin_4_4*%
%TO.N,GND*%
X61565000Y-103500000D03*
D16*
%TO.P,J3,5,Pin_5_5*%
%TO.N,CS*%
X64105000Y-103500000D03*
%TD*%
D17*
%TO.P,Ref\u002A\u002A,*%
%TO.N,*%
X165000000Y-88000000D03*
%TD*%
%TO.P,Ref\u002A\u002A,*%
%TO.N,*%
X145000000Y-64000000D03*
%TD*%
D18*
%TO.P,J2,1,SCLK_1*%
%TO.N,SCLK*%
X139000000Y-110700000D03*
D19*
%TO.P,J2,2,nCS_2*%
%TO.N,nCS*%
X139000000Y-113240000D03*
%TO.P,J2,3,GND_3*%
%TO.N,GND*%
X139000000Y-115780000D03*
%TO.P,J2,4,Vin_4*%
%TO.N,3.3V*%
X139000000Y-118320000D03*
%TO.P,J2,5,nc_5*%
%TO.N,unconnected-(J2-nc-Pad5)*%
X139000000Y-120860000D03*
%TO.P,J2,6,SDIO_6*%
%TO.N,SDIO*%
X139000000Y-123400000D03*
%TO.P,J2,7,MOTION_7*%
%TO.N,MOTION*%
X139000000Y-125940000D03*
%TD*%
D17*
%TO.P,Ref\u002A\u002A,*%
%TO.N,*%
X88000000Y-68000000D03*
%TD*%
%TO.P,Ref\u002A\u002A,*%
%TO.N,*%
X56000000Y-109500000D03*
%TD*%
D20*
%TO.P,J1,1,Pin_1_1*%
%TO.N,Net-(J1-Pin_1)*%
X57500000Y-69875000D03*
D21*
%TO.P,J1,2,Pin_2_2*%
%TO.N,GND*%
X55500000Y-69875000D03*
%TD*%
D22*
%TO.N,Col2*%
X51500000Y-104500000D03*
%TO.N,Row1*%
X108500000Y-67000000D03*
X76500000Y-70750000D03*
X89500000Y-70750000D03*
X146500000Y-70250000D03*
X127500000Y-68750000D03*
%TO.N,Row3*%
X162000000Y-94000000D03*
X149000000Y-94000000D03*
X162000000Y-75500000D03*
X60000000Y-106500000D03*
X52750000Y-105500000D03*
X122000000Y-101500000D03*
%TO.N,Row2*%
X108500000Y-87000000D03*
X121500000Y-88000000D03*
X70500000Y-90500000D03*
X128750000Y-89250000D03*
X145250000Y-99000000D03*
X89500000Y-89250000D03*
%TO.N,Col0*%
X54000000Y-53500000D03*
X54000000Y-52000000D03*
%TO.N,Col1*%
X159250000Y-92500000D03*
X139500000Y-65000000D03*
X157750000Y-92500000D03*
%TO.N,nCS*%
X125600000Y-103100000D03*
%TO.N,MOTION*%
X140750000Y-116750000D03*
%TO.N,SDIO*%
X141500000Y-117439338D03*
%TO.N,3.3V*%
X59500000Y-91250000D03*
%TO.N,GND*%
X61500000Y-87500000D03*
X68500000Y-91500000D03*
X61500000Y-95000000D03*
X68500000Y-89500000D03*
X119750000Y-102500000D03*
%TO.N,Col3*%
X55250000Y-105750000D03*
X55250000Y-103750000D03*
X83500000Y-70000000D03*
X81500000Y-70000000D03*
%TO.N,VBAT_SW*%
X54208109Y-82458109D03*
%TD*%
%TO.N,Col2*%
D23*
X51500000Y-66740000D02*
X51380000Y-66620000D01*
X51500000Y-104500000D02*
X51500000Y-66740000D01*
%TO.N,Row1*%
X127500000Y-68750000D02*
X110250000Y-68750000D01*
X129000000Y-70250000D02*
X127500000Y-68750000D01*
X51380000Y-53370000D02*
X51380000Y-53920000D01*
X71750000Y-66000000D02*
X71750000Y-52500000D01*
X71750000Y-52500000D02*
X69250000Y-50000000D01*
X54750000Y-50000000D02*
X51380000Y-53370000D01*
X76500000Y-70750000D02*
X71750000Y-66000000D01*
X69250000Y-50000000D02*
X54750000Y-50000000D01*
X146500000Y-70250000D02*
X129000000Y-70250000D01*
X93250000Y-67000000D02*
X89500000Y-70750000D01*
X110250000Y-68750000D02*
X108500000Y-67000000D01*
X89500000Y-70750000D02*
X76500000Y-70750000D01*
X108500000Y-67000000D02*
X93250000Y-67000000D01*
%TO.N,Row3*%
X63000000Y-106500000D02*
X64000000Y-105500000D01*
X60000000Y-106500000D02*
X53750000Y-106500000D01*
X60000000Y-106500000D02*
X63000000Y-106500000D01*
X89000000Y-103500000D02*
X87000000Y-105500000D01*
X87000000Y-105500000D02*
X64000000Y-105500000D01*
X52750000Y-105500000D02*
X52750000Y-104500000D01*
X162000000Y-75500000D02*
X162000000Y-94000000D01*
X52750000Y-59250000D02*
X52750000Y-104500000D01*
X51380000Y-59000000D02*
X52500000Y-59000000D01*
X52500000Y-59000000D02*
X52750000Y-59250000D01*
X53750000Y-106500000D02*
X52750000Y-105500000D01*
X122000000Y-101500000D02*
X120000000Y-103500000D01*
X149000000Y-94000000D02*
X162000000Y-94000000D01*
X120000000Y-103500000D02*
X89000000Y-103500000D01*
%TO.N,Row2*%
X128750000Y-89250000D02*
X144750000Y-89250000D01*
X53250000Y-89500000D02*
X53250000Y-57000000D01*
X53250000Y-57000000D02*
X52710000Y-56460000D01*
X89500000Y-89250000D02*
X91750000Y-87000000D01*
X52710000Y-56460000D02*
X51380000Y-56460000D01*
X144750000Y-89250000D02*
X145250000Y-89750000D01*
X120500000Y-87000000D02*
X121500000Y-88000000D01*
X54250000Y-90500000D02*
X53250000Y-89500000D01*
X71750000Y-89250000D02*
X89500000Y-89250000D01*
X70500000Y-90500000D02*
X71750000Y-89250000D01*
X91750000Y-87000000D02*
X108500000Y-87000000D01*
X108500000Y-87000000D02*
X120500000Y-87000000D01*
X70500000Y-90500000D02*
X54250000Y-90500000D01*
X145250000Y-89750000D02*
X145250000Y-99000000D01*
%TO.N,Col0*%
X54000000Y-52000000D02*
X54000000Y-53500000D01*
%TO.N,Col1*%
X51380000Y-64080000D02*
X49955000Y-64080000D01*
X50000000Y-49500000D02*
X86000000Y-49500000D01*
X49955000Y-64080000D02*
X49180000Y-63305000D01*
X87000000Y-64000000D02*
X88000000Y-65000000D01*
X159250000Y-92500000D02*
X157750000Y-92500000D01*
X87000000Y-50500000D02*
X87000000Y-64000000D01*
X88000000Y-65000000D02*
X139500000Y-65000000D01*
X49180000Y-63305000D02*
X49180000Y-50320000D01*
X86000000Y-49500000D02*
X87000000Y-50500000D01*
X50000000Y-49500000D02*
X49180000Y-50320000D01*
%TO.N,nCS*%
D24*
X123500000Y-85000000D02*
X108500000Y-85000000D01*
X69750000Y-87750000D02*
X68500000Y-86500000D01*
X68120000Y-66620000D02*
X66620000Y-66620000D01*
X89250000Y-86250000D02*
X87750000Y-87750000D01*
X68500000Y-67000000D02*
X68120000Y-66620000D01*
X125600000Y-103100000D02*
X124000000Y-101500000D01*
X108500000Y-85000000D02*
X107250000Y-86250000D01*
X68500000Y-86500000D02*
X68500000Y-67000000D01*
X124000000Y-85500000D02*
X123500000Y-85000000D01*
X87750000Y-87750000D02*
X69750000Y-87750000D01*
X107250000Y-86250000D02*
X89250000Y-86250000D01*
X124000000Y-101500000D02*
X124000000Y-85500000D01*
%TO.N,SCLK*%
X69000000Y-86250000D02*
X69000000Y-64750000D01*
X70000000Y-87250000D02*
X69000000Y-86250000D01*
X68330000Y-64080000D02*
X69000000Y-64750000D01*
X123750000Y-84500000D02*
X108250000Y-84500000D01*
X108250000Y-84500000D02*
X107000000Y-85750000D01*
X107000000Y-85750000D02*
X89000000Y-85750000D01*
X126000000Y-102500000D02*
X124500000Y-101000000D01*
X139750000Y-102500000D02*
X126000000Y-102500000D01*
X139000000Y-110700000D02*
X139800000Y-110700000D01*
X140250000Y-103000000D02*
X139750000Y-102500000D01*
X140250000Y-110250000D02*
X140250000Y-103000000D01*
X124500000Y-85250000D02*
X123750000Y-84500000D01*
X87500000Y-87250000D02*
X70000000Y-87250000D01*
X89000000Y-85750000D02*
X87500000Y-87250000D01*
X66620000Y-64080000D02*
X68330000Y-64080000D01*
X139800000Y-110700000D02*
X140250000Y-110250000D01*
X124500000Y-101000000D02*
X124500000Y-85250000D01*
%TO.N,MOTION*%
X140000000Y-102000000D02*
X126250000Y-102000000D01*
X69500000Y-62040000D02*
X69000000Y-61540000D01*
X106750000Y-85250000D02*
X88750000Y-85250000D01*
X70250000Y-86750000D02*
X69500000Y-86000000D01*
X108000000Y-84000000D02*
X106750000Y-85250000D01*
X69000000Y-61540000D02*
X66620000Y-61540000D01*
X124000000Y-84000000D02*
X108000000Y-84000000D01*
X125000000Y-85000000D02*
X124000000Y-84000000D01*
X69500000Y-86000000D02*
X69500000Y-62040000D01*
X126250000Y-102000000D02*
X125000000Y-100750000D01*
X125000000Y-100750000D02*
X125000000Y-85000000D01*
X140750000Y-116750000D02*
X140750000Y-102750000D01*
X140750000Y-102750000D02*
X140000000Y-102000000D01*
X88750000Y-85250000D02*
X87250000Y-86750000D01*
X87250000Y-86750000D02*
X70250000Y-86750000D01*
%TO.N,SDIO*%
X140500000Y-101500000D02*
X126500000Y-101500000D01*
X125500000Y-100500000D02*
X125500000Y-84750000D01*
X70000000Y-85750000D02*
X70000000Y-59500000D01*
X107750000Y-83500000D02*
X106500000Y-84750000D01*
X141500000Y-117439338D02*
X141500000Y-102500000D01*
X70000000Y-59500000D02*
X69500000Y-59000000D01*
X88500000Y-84750000D02*
X87000000Y-86250000D01*
X126500000Y-101500000D02*
X125500000Y-100500000D01*
X141500000Y-102500000D02*
X140500000Y-101500000D01*
X87000000Y-86250000D02*
X70500000Y-86250000D01*
X125500000Y-84750000D02*
X124250000Y-83500000D01*
X106500000Y-84750000D02*
X88500000Y-84750000D01*
X70500000Y-86250000D02*
X70000000Y-85750000D01*
X69500000Y-59000000D02*
X66620000Y-59000000D01*
X124250000Y-83500000D02*
X107750000Y-83500000D01*
%TO.N,3.3V*%
D25*
X107500000Y-82750000D02*
X106250000Y-84000000D01*
X142250000Y-102250000D02*
X140750000Y-100750000D01*
X126250000Y-100250000D02*
X126250000Y-84500000D01*
X140750000Y-100750000D02*
X126750000Y-100750000D01*
X139000000Y-118320000D02*
X141680000Y-118320000D01*
X86750000Y-85500000D02*
X71250000Y-85500000D01*
X59500000Y-91250000D02*
X59500000Y-103025000D01*
X141680000Y-118320000D02*
X142250000Y-117750000D01*
X70750000Y-56960000D02*
X70250000Y-56460000D01*
X71250000Y-85500000D02*
X70750000Y-85000000D01*
X88250000Y-84000000D02*
X86750000Y-85500000D01*
X59500000Y-103025000D02*
X59025000Y-103500000D01*
X126750000Y-100750000D02*
X126250000Y-100250000D01*
X70250000Y-56460000D02*
X66620000Y-56460000D01*
X126250000Y-84500000D02*
X124500000Y-82750000D01*
X70750000Y-85000000D02*
X70750000Y-56960000D01*
X124500000Y-82750000D02*
X107500000Y-82750000D01*
X142250000Y-117750000D02*
X142250000Y-102250000D01*
X106250000Y-84000000D02*
X88250000Y-84000000D01*
%TO.N,GND*%
X67620000Y-53920000D02*
X62080000Y-53920000D01*
X55500000Y-69875000D02*
X55500000Y-65500000D01*
X62080000Y-53920000D02*
X60500000Y-55500000D01*
X86500000Y-104500000D02*
X88500000Y-102500000D01*
X54228047Y-55271953D02*
X54228047Y-56380597D01*
X69500000Y-104500000D02*
X86500000Y-104500000D01*
X61500000Y-95000000D02*
X61515000Y-95015000D01*
X55500000Y-54000000D02*
X54228047Y-55271953D01*
X60500000Y-55500000D02*
X60500000Y-63500000D01*
X60500000Y-86500000D02*
X61500000Y-87500000D01*
X59500000Y-64500000D02*
X56500000Y-64500000D01*
X61500000Y-95000000D02*
X61500000Y-103535000D01*
X88500000Y-102500000D02*
X119750000Y-102500000D01*
X68500000Y-89500000D02*
X66500000Y-87500000D01*
X55500000Y-65500000D02*
X56500000Y-64500000D01*
X59000000Y-54000000D02*
X55500000Y-54000000D01*
X60500000Y-65500000D02*
X60500000Y-86500000D01*
X61500000Y-87500000D02*
X64000000Y-87500000D01*
X68500000Y-103500000D02*
X69500000Y-104500000D01*
X60500000Y-63500000D02*
X59500000Y-64500000D01*
X61500000Y-103535000D02*
X61565000Y-103600000D01*
X68500000Y-91500000D02*
X68500000Y-103500000D01*
X59500000Y-64500000D02*
X60500000Y-65500000D01*
X60500000Y-55500000D02*
X59000000Y-54000000D01*
X64000000Y-87500000D02*
X66500000Y-87500000D01*
%TO.N,Col3*%
D23*
X55250000Y-105750000D02*
X55250000Y-103750000D01*
X83500000Y-70000000D02*
X81500000Y-70000000D01*
%TO.N,VBAT_SW*%
D25*
X54208109Y-82458109D02*
X54208109Y-59019399D01*
%TD*%
M02*
