%TF.GenerationSoftware,KiCad,Pcbnew,10.0.1*%
%TF.CreationDate,2026-08-10T21:19:35+09:00*%
%TF.ProjectId,reel-right,7265656c-2d72-4696-9768-742e6b696361,rev?*%
%TF.SameCoordinates,Original*%
%TF.FileFunction,Soldermask,Bot*%
%TF.FilePolarity,Negative*%
%FSLAX46Y46*%
G04 Gerber Fmt 4.6, Leading zero omitted, Abs format (unit mm)*
G04 Created by KiCad (PCBNEW 10.0.1) date 2026-08-10 21:19:35*
%MOMM*%
%LPD*%
G01*
G04 APERTURE LIST*
G04 Aperture macros list*
%AMRoundRect*
0 Rectangle with rounded corners*
0 $1 Rounding radius*
0 $2 $3 $4 $5 $6 $7 $8 $9 X,Y pos of 4 corners*
0 Add a 4 corners polygon primitive as box body*
4,1,4,$2,$3,$4,$5,$6,$7,$8,$9,$2,$3,0*
0 Add four circle primitives for the rounded corners*
1,1,$1+$1,$2,$3*
1,1,$1+$1,$4,$5*
1,1,$1+$1,$6,$7*
1,1,$1+$1,$8,$9*
0 Add four rect primitives between the rounded corners*
20,1,$1+$1,$2,$3,$4,$5,0*
20,1,$1+$1,$4,$5,$6,$7,0*
20,1,$1+$1,$6,$7,$8,$9,0*
20,1,$1+$1,$8,$9,$2,$3,0*%
%AMRotRect*
0 Rectangle, with rotation*
0 The origin of the aperture is its center*
0 $1 length*
0 $2 width*
0 $3 Rotation angle, in degrees counterclockwise*
0 Add horizontal line*
21,1,$1,$2,0,0,$3*%
%AMFreePoly0*
4,1,5,0.762000,-1.000000,-0.762000,-1.000000,-0.762000,1.000000,0.762000,1.000000,0.762000,-1.000000,0.762000,-1.000000,$1*%
G04 Aperture macros list end*
%ADD10R,0.950000X1.200000*%
%ADD11C,1.900000*%
%ADD12C,1.600000*%
%ADD13C,3.050000*%
%ADD14C,5.050000*%
%ADD15RoundRect,0.250000X1.025000X1.000000X-1.025000X1.000000X-1.025000X-1.000000X1.025000X-1.000000X0*%
%ADD16RotRect,1.200000X0.950000X285.000000*%
%ADD17O,2.750000X1.800000*%
%ADD18C,1.500000*%
%ADD19FreePoly0,0.000000*%
%ADD20O,1.524000X2.000000*%
%ADD21RotRect,1.200000X0.950000X210.000000*%
%ADD22RoundRect,0.250000X0.731255X1.231215X-1.248893X0.700636X-0.731255X-1.231215X1.248893X-0.700636X0*%
%ADD23RoundRect,0.250000X1.378525X-0.387676X0.353525X1.387676X-1.378525X0.387676X-0.353525X-1.387676X0*%
%ADD24C,1.350000*%
%ADD25O,1.350000X1.350000*%
%ADD26R,1.350000X1.350000*%
%ADD27C,4.500000*%
%ADD28R,1.700000X1.700000*%
%ADD29O,1.700000X1.700000*%
%ADD30RoundRect,0.250000X0.350000X0.625000X-0.350000X0.625000X-0.350000X-0.625000X0.350000X-0.625000X0*%
%ADD31O,1.200000X1.750000*%
%ADD32R,0.800000X1.000000*%
%ADD33C,0.900000*%
%ADD34R,1.500000X0.700000*%
G04 APERTURE END LIST*
D10*
%TO.C,D3*%
X108500000Y-50053125D03*
X108500000Y-53503125D03*
%TD*%
D11*
%TO.C,SW8*%
X122500000Y-72500000D03*
D12*
X122000000Y-67350000D03*
D13*
X117000000Y-78400000D03*
D14*
X117000000Y-72500000D03*
D13*
X112000000Y-76300000D03*
D11*
X111500000Y-72500000D03*
D15*
X120500000Y-78500000D03*
X108500000Y-76300000D03*
%TD*%
D10*
%TO.C,D8*%
X108500000Y-69053125D03*
X108500000Y-72503125D03*
%TD*%
D16*
%TO.C,D18*%
X59803538Y-115866151D03*
X60696463Y-119198595D03*
%TD*%
D10*
%TO.C,D13*%
X108500000Y-88053125D03*
X108500000Y-91503125D03*
%TD*%
%TO.C,D12*%
X127500000Y-89053125D03*
X127500000Y-92503125D03*
%TD*%
D11*
%TO.C,SW11*%
X160500000Y-102500000D03*
D12*
X160000000Y-97350000D03*
D13*
X155000000Y-108400000D03*
D14*
X155000000Y-102500000D03*
D13*
X150000000Y-106300000D03*
D11*
X149500000Y-102500000D03*
D15*
X158500000Y-108500000D03*
X146500000Y-106300000D03*
%TD*%
D10*
%TO.C,D11*%
X146500000Y-99053125D03*
X146500000Y-102503125D03*
%TD*%
D11*
%TO.C,SW12*%
X141500000Y-92500000D03*
D12*
X141000000Y-87350000D03*
D13*
X136000000Y-98400000D03*
D14*
X136000000Y-92500000D03*
D13*
X131000000Y-96300000D03*
D11*
X130500000Y-92500000D03*
D15*
X139500000Y-98500000D03*
X127500000Y-96300000D03*
%TD*%
D10*
%TO.C,D14*%
X89500000Y-91053125D03*
X89500000Y-94503125D03*
%TD*%
%TO.C,D10*%
X70500000Y-74053125D03*
X70500000Y-77503125D03*
%TD*%
D11*
%TO.C,SW17*%
X179500000Y-97500000D03*
D12*
X179000000Y-92350000D03*
D13*
X174000000Y-103400000D03*
D14*
X174000000Y-97500000D03*
D13*
X169000000Y-101300000D03*
D11*
X168500000Y-97500000D03*
D15*
X177500000Y-103500000D03*
X165500000Y-101300000D03*
%TD*%
D11*
%TO.C,SW5*%
X84500000Y-58500000D03*
D12*
X84000000Y-53350000D03*
D13*
X79000000Y-64400000D03*
D14*
X79000000Y-58500000D03*
D13*
X74000000Y-62300000D03*
D11*
X73500000Y-58500000D03*
D15*
X82500000Y-64500000D03*
X70500000Y-62300000D03*
%TD*%
D17*
%TO.C,U1*%
X50880000Y-51380000D03*
X50880000Y-53920000D03*
X50880000Y-56460000D03*
X50880000Y-59000000D03*
X50880000Y-61540000D03*
X50880000Y-64080000D03*
X50880000Y-66620000D03*
X67120000Y-66620000D03*
X67120000Y-64080000D03*
X67120000Y-61540000D03*
X67120000Y-59000000D03*
X67120000Y-56460000D03*
X67120000Y-53920000D03*
X67120000Y-51380000D03*
D18*
X62835400Y-68312000D03*
X64715000Y-68312000D03*
D19*
X61960000Y-73200000D03*
D20*
X64500000Y-73200000D03*
X67040000Y-73200000D03*
D18*
X54555000Y-58683000D03*
X54555000Y-56778000D03*
%TD*%
D11*
%TO.C,SW1*%
X160500000Y-64500000D03*
D12*
X160000000Y-59350000D03*
D13*
X155000000Y-70400000D03*
D14*
X155000000Y-64500000D03*
D13*
X150000000Y-68300000D03*
D11*
X149500000Y-64500000D03*
D15*
X158500000Y-70500000D03*
X146500000Y-68300000D03*
%TD*%
D10*
%TO.C,D4*%
X89500000Y-53053125D03*
X89500000Y-56503125D03*
%TD*%
D11*
%TO.C,SW9*%
X103500000Y-75500000D03*
D12*
X103000000Y-70350000D03*
D13*
X98000000Y-81400000D03*
D14*
X98000000Y-75500000D03*
D13*
X93000000Y-79300000D03*
D11*
X92500000Y-75500000D03*
D15*
X101500000Y-81500000D03*
X89500000Y-79300000D03*
%TD*%
D11*
%TO.C,SW2*%
X141500000Y-54500000D03*
D12*
X141000000Y-49350000D03*
D13*
X136000000Y-60400000D03*
D14*
X136000000Y-54500000D03*
D13*
X131000000Y-58300000D03*
D11*
X130500000Y-54500000D03*
D15*
X139500000Y-60500000D03*
X127500000Y-58300000D03*
%TD*%
D21*
%TO.C,D19*%
X49291435Y-113670101D03*
X46303648Y-115395101D03*
%TD*%
D11*
%TO.C,SW16*%
X179500000Y-78500000D03*
D12*
X179000000Y-73350000D03*
D13*
X174000000Y-84400000D03*
D14*
X174000000Y-78500000D03*
D13*
X169000000Y-82300000D03*
D11*
X168500000Y-78500000D03*
D15*
X177500000Y-84500000D03*
X165500000Y-82300000D03*
%TD*%
D10*
%TO.C,D16*%
X165500000Y-75053125D03*
X165500000Y-78503125D03*
%TD*%
D11*
%TO.C,SW6*%
X160500000Y-83500000D03*
D12*
X160000000Y-78350000D03*
D13*
X155000000Y-89400000D03*
D14*
X155000000Y-83500000D03*
D13*
X150000000Y-87300000D03*
D11*
X149500000Y-83500000D03*
D15*
X158500000Y-89500000D03*
X146500000Y-87300000D03*
%TD*%
D10*
%TO.C,D1*%
X146500000Y-56876563D03*
X146500000Y-60326563D03*
%TD*%
D11*
%TO.C,SW3*%
X122500000Y-53500000D03*
D12*
X122000000Y-48350000D03*
D13*
X117000000Y-59400000D03*
D14*
X117000000Y-53500000D03*
D13*
X112000000Y-57300000D03*
D11*
X111500000Y-53500000D03*
D15*
X120500000Y-59500000D03*
X108500000Y-57300000D03*
%TD*%
D10*
%TO.C,D17*%
X165500000Y-94053125D03*
X165500000Y-97503125D03*
%TD*%
D11*
%TO.C,SW14*%
X103500000Y-94500000D03*
D12*
X103000000Y-89350000D03*
D13*
X98000000Y-100400000D03*
D14*
X98000000Y-94500000D03*
D13*
X93000000Y-98300000D03*
D11*
X92500000Y-94500000D03*
D15*
X101500000Y-100500000D03*
X89500000Y-98300000D03*
%TD*%
D10*
%TO.C,D5*%
X70500000Y-55053125D03*
X70500000Y-58503125D03*
%TD*%
D11*
%TO.C,SW10*%
X84500000Y-77500000D03*
D12*
X84000000Y-72350000D03*
D13*
X79000000Y-83400000D03*
D14*
X79000000Y-77500000D03*
D13*
X74000000Y-81300000D03*
D11*
X73500000Y-77500000D03*
D15*
X82500000Y-83500000D03*
X70500000Y-81300000D03*
%TD*%
D11*
%TO.C,SW18*%
X74312592Y-116076495D03*
D12*
X72496711Y-111231387D03*
D13*
X70527032Y-123198962D03*
D14*
X69000000Y-117500000D03*
D13*
X65153883Y-122464613D03*
D11*
X63687408Y-118923505D03*
D22*
X73933655Y-122389688D03*
X61773143Y-123370480D03*
%TD*%
D10*
%TO.C,D7*%
X127500000Y-70053125D03*
X127500000Y-73503125D03*
%TD*%
D11*
%TO.C,SW4*%
X103500000Y-56500000D03*
D12*
X103000000Y-51350000D03*
D13*
X98000000Y-62400000D03*
D14*
X98000000Y-56500000D03*
D13*
X93000000Y-60300000D03*
D11*
X92500000Y-56500000D03*
D15*
X101500000Y-62500000D03*
X89500000Y-60300000D03*
%TD*%
D11*
%TO.C,SW13*%
X122500000Y-91500000D03*
D12*
X122000000Y-86350000D03*
D13*
X117000000Y-97400000D03*
D14*
X117000000Y-91500000D03*
D13*
X112000000Y-95300000D03*
D11*
X111500000Y-91500000D03*
D15*
X120500000Y-97500000D03*
X108500000Y-95300000D03*
%TD*%
D11*
%TO.C,SW19*%
X52250000Y-128263140D03*
D12*
X56460031Y-125255127D03*
D13*
X44390450Y-126450000D03*
D14*
X49500000Y-123500000D03*
D13*
X43709103Y-121069873D03*
D11*
X46750000Y-118736860D03*
D23*
X46053848Y-129531089D03*
X41959103Y-118038784D03*
%TD*%
D10*
%TO.C,D9*%
X89500000Y-72053125D03*
X89500000Y-75503125D03*
%TD*%
D11*
%TO.C,SW7*%
X141500000Y-73500000D03*
D12*
X141000000Y-68350000D03*
D13*
X136000000Y-79400000D03*
D14*
X136000000Y-73500000D03*
D13*
X131000000Y-77300000D03*
D11*
X130500000Y-73500000D03*
D15*
X139500000Y-79500000D03*
X127500000Y-77300000D03*
%TD*%
D10*
%TO.C,D15*%
X70500000Y-93053125D03*
X70500000Y-96503125D03*
%TD*%
D24*
%TO.C,J3*%
X53945000Y-103500000D03*
D25*
X56485000Y-103500000D03*
X59025000Y-103500000D03*
X61565000Y-103500000D03*
D26*
X64105000Y-103500000D03*
%TD*%
D27*
%TO.C,Ref\u002A\u002A*%
X165000000Y-88000000D03*
%TD*%
%TO.C,Ref\u002A\u002A*%
X145000000Y-64000000D03*
%TD*%
D10*
%TO.C,D6*%
X146500000Y-80053125D03*
X146500000Y-83503125D03*
%TD*%
%TO.C,D2*%
X127500000Y-51053125D03*
X127500000Y-54503125D03*
%TD*%
D28*
%TO.C,J2*%
X139000000Y-110700000D03*
D29*
X139000000Y-113240000D03*
X139000000Y-115780000D03*
X139000000Y-118320000D03*
X139000000Y-120860000D03*
X139000000Y-123400000D03*
X139000000Y-125940000D03*
%TD*%
D27*
%TO.C,Ref\u002A\u002A*%
X88000000Y-68000000D03*
%TD*%
D11*
%TO.C,SW15*%
X84500000Y-96500000D03*
D12*
X84000000Y-91350000D03*
D13*
X79000000Y-102400000D03*
D14*
X79000000Y-96500000D03*
D13*
X74000000Y-100300000D03*
D11*
X73500000Y-96500000D03*
D15*
X82500000Y-102500000D03*
X70500000Y-100300000D03*
%TD*%
D27*
%TO.C,Ref\u002A\u002A*%
X56000000Y-109500000D03*
%TD*%
D30*
%TO.C,J1*%
X57500000Y-69875000D03*
D31*
X55500000Y-69875000D03*
%TD*%
D32*
%TO.C,SW22*%
X49070000Y-86150000D03*
X51280000Y-86150000D03*
D33*
X50170000Y-84000000D03*
X50170000Y-81000000D03*
D32*
X49070000Y-78850000D03*
X51280000Y-78850000D03*
D34*
X51930000Y-84750000D03*
X51930000Y-81750000D03*
X51930000Y-80250000D03*
%TD*%
M02*
