%TF.GenerationSoftware,KiCad,Pcbnew,10.0.1*%
%TF.CreationDate,2026-08-10T21:19:34+09:00*%
%TF.ProjectId,reel-right,7265656c-2d72-4696-9768-742e6b696361,rev?*%
%TF.SameCoordinates,Original*%
%TF.FileFunction,Legend,Bot*%
%TF.FilePolarity,Positive*%
%FSLAX46Y46*%
G04 Gerber Fmt 4.6, Leading zero omitted, Abs format (unit mm)*
G04 Created by KiCad (PCBNEW 10.0.1) date 2026-08-10 21:19:35*
%MOMM*%
%LPD*%
G01*
G04 APERTURE LIST*
%ADD10C,0.150000*%
%ADD11C,0.200000*%
%ADD12C,0.120000*%
G04 APERTURE END LIST*
D10*
X56833333Y-66779819D02*
X56833333Y-67494104D01*
X56833333Y-67494104D02*
X56880952Y-67636961D01*
X56880952Y-67636961D02*
X56976190Y-67732200D01*
X56976190Y-67732200D02*
X57119047Y-67779819D01*
X57119047Y-67779819D02*
X57214285Y-67779819D01*
X55833333Y-67779819D02*
X56404761Y-67779819D01*
X56119047Y-67779819D02*
X56119047Y-66779819D01*
X56119047Y-66779819D02*
X56214285Y-66922676D01*
X56214285Y-66922676D02*
X56309523Y-67017914D01*
X56309523Y-67017914D02*
X56404761Y-67065533D01*
X46907200Y-80690476D02*
X46954819Y-80833333D01*
X46954819Y-80833333D02*
X46954819Y-81071428D01*
X46954819Y-81071428D02*
X46907200Y-81166666D01*
X46907200Y-81166666D02*
X46859580Y-81214285D01*
X46859580Y-81214285D02*
X46764342Y-81261904D01*
X46764342Y-81261904D02*
X46669104Y-81261904D01*
X46669104Y-81261904D02*
X46573866Y-81214285D01*
X46573866Y-81214285D02*
X46526247Y-81166666D01*
X46526247Y-81166666D02*
X46478628Y-81071428D01*
X46478628Y-81071428D02*
X46431009Y-80880952D01*
X46431009Y-80880952D02*
X46383390Y-80785714D01*
X46383390Y-80785714D02*
X46335771Y-80738095D01*
X46335771Y-80738095D02*
X46240533Y-80690476D01*
X46240533Y-80690476D02*
X46145295Y-80690476D01*
X46145295Y-80690476D02*
X46050057Y-80738095D01*
X46050057Y-80738095D02*
X46002438Y-80785714D01*
X46002438Y-80785714D02*
X45954819Y-80880952D01*
X45954819Y-80880952D02*
X45954819Y-81119047D01*
X45954819Y-81119047D02*
X46002438Y-81261904D01*
X45954819Y-81595238D02*
X46954819Y-81833333D01*
X46954819Y-81833333D02*
X46240533Y-82023809D01*
X46240533Y-82023809D02*
X46954819Y-82214285D01*
X46954819Y-82214285D02*
X45954819Y-82452381D01*
X46050057Y-82785714D02*
X46002438Y-82833333D01*
X46002438Y-82833333D02*
X45954819Y-82928571D01*
X45954819Y-82928571D02*
X45954819Y-83166666D01*
X45954819Y-83166666D02*
X46002438Y-83261904D01*
X46002438Y-83261904D02*
X46050057Y-83309523D01*
X46050057Y-83309523D02*
X46145295Y-83357142D01*
X46145295Y-83357142D02*
X46240533Y-83357142D01*
X46240533Y-83357142D02*
X46383390Y-83309523D01*
X46383390Y-83309523D02*
X46954819Y-82738095D01*
X46954819Y-82738095D02*
X46954819Y-83357142D01*
X46050057Y-83738095D02*
X46002438Y-83785714D01*
X46002438Y-83785714D02*
X45954819Y-83880952D01*
X45954819Y-83880952D02*
X45954819Y-84119047D01*
X45954819Y-84119047D02*
X46002438Y-84214285D01*
X46002438Y-84214285D02*
X46050057Y-84261904D01*
X46050057Y-84261904D02*
X46145295Y-84309523D01*
X46145295Y-84309523D02*
X46240533Y-84309523D01*
X46240533Y-84309523D02*
X46383390Y-84261904D01*
X46383390Y-84261904D02*
X46954819Y-83690476D01*
X46954819Y-83690476D02*
X46954819Y-84309523D01*
%TO.C,D3*%
D11*
X107904686Y-50984381D02*
X107904686Y-52571885D01*
X107904686Y-51381257D02*
X109095314Y-51381257D01*
X107904686Y-52571885D02*
X109095314Y-52571885D01*
X108500000Y-50785943D02*
X108500000Y-50984381D01*
X108500000Y-52571885D02*
X108500000Y-52770323D01*
X109095314Y-50984381D02*
X107904686Y-50984381D01*
X109095314Y-52571885D02*
X109095314Y-50984381D01*
%TO.C,SW8*%
D12*
X109354000Y-73854000D02*
X113440000Y-73854000D01*
X109354000Y-74796000D02*
X109354000Y-73854000D01*
X109717000Y-74796000D02*
X109354000Y-74796000D01*
X109719000Y-78109000D02*
X109634000Y-77682000D01*
X109908000Y-78392000D02*
X109719000Y-78109000D01*
X110191000Y-78581000D02*
X109908000Y-78392000D01*
X110518000Y-78646000D02*
X110191000Y-78581000D01*
X113318000Y-78646000D02*
X110518000Y-78646000D01*
X113440000Y-73854000D02*
X113750000Y-73913000D01*
X113750000Y-73913000D02*
X114024000Y-74083000D01*
X113756000Y-78733000D02*
X113318000Y-78646000D01*
X114024000Y-74083000D02*
X114217000Y-74341000D01*
X114123000Y-78977000D02*
X113756000Y-78733000D01*
X114217000Y-74341000D02*
X114299000Y-74639000D01*
X114299000Y-74639000D02*
X114453000Y-75197000D01*
X114367000Y-79344000D02*
X114123000Y-78977000D01*
X114453000Y-75197000D02*
X114791000Y-75650000D01*
X114454000Y-79782000D02*
X114367000Y-79344000D01*
X114454000Y-80004000D02*
X114454000Y-79782000D01*
X114791000Y-75650000D02*
X115270000Y-75949000D01*
X114987000Y-80537000D02*
X114454000Y-80004000D01*
X115270000Y-75949000D02*
X115832000Y-76054000D01*
X115329000Y-80766000D02*
X114987000Y-80537000D01*
X115732000Y-80846000D02*
X115329000Y-80766000D01*
X115832000Y-76054000D02*
X118479000Y-76054000D01*
X118479000Y-76054000D02*
X119500000Y-77075000D01*
X118479000Y-80846000D02*
X115732000Y-80846000D01*
X119416000Y-79909000D02*
X118479000Y-80846000D01*
%TO.C,D8*%
D11*
X107904686Y-69984381D02*
X107904686Y-71571885D01*
X107904686Y-70381257D02*
X109095314Y-70381257D01*
X107904686Y-71571885D02*
X109095314Y-71571885D01*
X108500000Y-69785943D02*
X108500000Y-69984381D01*
X108500000Y-71571885D02*
X108500000Y-71770323D01*
X109095314Y-69984381D02*
X107904686Y-69984381D01*
X109095314Y-71571885D02*
X109095314Y-69984381D01*
%TO.C,D18*%
X59469535Y-116919752D02*
X59880412Y-118453165D01*
X59572254Y-117303106D02*
X60722313Y-116994949D01*
X59880412Y-118453165D02*
X61030470Y-118145008D01*
X59993205Y-116573998D02*
X60044564Y-116765675D01*
X60455441Y-118299086D02*
X60506801Y-118490762D01*
X60619594Y-116611596D02*
X59469535Y-116919752D01*
X61030470Y-118145008D02*
X60619594Y-116611596D01*
%TO.C,D13*%
X107904686Y-88984381D02*
X107904686Y-90571885D01*
X107904686Y-89381257D02*
X109095314Y-89381257D01*
X107904686Y-90571885D02*
X109095314Y-90571885D01*
X108500000Y-88785943D02*
X108500000Y-88984381D01*
X108500000Y-90571885D02*
X108500000Y-90770323D01*
X109095314Y-88984381D02*
X107904686Y-88984381D01*
X109095314Y-90571885D02*
X109095314Y-88984381D01*
%TO.C,D12*%
X126904686Y-89984381D02*
X126904686Y-91571885D01*
X126904686Y-90381257D02*
X128095314Y-90381257D01*
X126904686Y-91571885D02*
X128095314Y-91571885D01*
X127500000Y-89785943D02*
X127500000Y-89984381D01*
X127500000Y-91571885D02*
X127500000Y-91770323D01*
X128095314Y-89984381D02*
X126904686Y-89984381D01*
X128095314Y-91571885D02*
X128095314Y-89984381D01*
%TO.C,SW11*%
D12*
X147354000Y-103854000D02*
X151440000Y-103854000D01*
X147354000Y-104796000D02*
X147354000Y-103854000D01*
X147717000Y-104796000D02*
X147354000Y-104796000D01*
X147719000Y-108109000D02*
X147634000Y-107682000D01*
X147908000Y-108392000D02*
X147719000Y-108109000D01*
X148191000Y-108581000D02*
X147908000Y-108392000D01*
X148518000Y-108646000D02*
X148191000Y-108581000D01*
X151318000Y-108646000D02*
X148518000Y-108646000D01*
X151440000Y-103854000D02*
X151750000Y-103913000D01*
X151750000Y-103913000D02*
X152024000Y-104083000D01*
X151756000Y-108733000D02*
X151318000Y-108646000D01*
X152024000Y-104083000D02*
X152217000Y-104341000D01*
X152123000Y-108977000D02*
X151756000Y-108733000D01*
X152217000Y-104341000D02*
X152299000Y-104639000D01*
X152299000Y-104639000D02*
X152453000Y-105197000D01*
X152367000Y-109344000D02*
X152123000Y-108977000D01*
X152453000Y-105197000D02*
X152791000Y-105650000D01*
X152454000Y-109782000D02*
X152367000Y-109344000D01*
X152454000Y-110004000D02*
X152454000Y-109782000D01*
X152791000Y-105650000D02*
X153270000Y-105949000D01*
X152987000Y-110537000D02*
X152454000Y-110004000D01*
X153270000Y-105949000D02*
X153832000Y-106054000D01*
X153329000Y-110766000D02*
X152987000Y-110537000D01*
X153732000Y-110846000D02*
X153329000Y-110766000D01*
X153832000Y-106054000D02*
X156479000Y-106054000D01*
X156479000Y-106054000D02*
X157500000Y-107075000D01*
X156479000Y-110846000D02*
X153732000Y-110846000D01*
X157416000Y-109909000D02*
X156479000Y-110846000D01*
%TO.C,D11*%
D11*
X145904686Y-99984381D02*
X145904686Y-101571885D01*
X145904686Y-100381257D02*
X147095314Y-100381257D01*
X145904686Y-101571885D02*
X147095314Y-101571885D01*
X146500000Y-99785943D02*
X146500000Y-99984381D01*
X146500000Y-101571885D02*
X146500000Y-101770323D01*
X147095314Y-99984381D02*
X145904686Y-99984381D01*
X147095314Y-101571885D02*
X147095314Y-99984381D01*
%TO.C,SW12*%
D12*
X128354000Y-93854000D02*
X132440000Y-93854000D01*
X128354000Y-94796000D02*
X128354000Y-93854000D01*
X128717000Y-94796000D02*
X128354000Y-94796000D01*
X128719000Y-98109000D02*
X128634000Y-97682000D01*
X128908000Y-98392000D02*
X128719000Y-98109000D01*
X129191000Y-98581000D02*
X128908000Y-98392000D01*
X129518000Y-98646000D02*
X129191000Y-98581000D01*
X132318000Y-98646000D02*
X129518000Y-98646000D01*
X132440000Y-93854000D02*
X132750000Y-93913000D01*
X132750000Y-93913000D02*
X133024000Y-94083000D01*
X132756000Y-98733000D02*
X132318000Y-98646000D01*
X133024000Y-94083000D02*
X133217000Y-94341000D01*
X133123000Y-98977000D02*
X132756000Y-98733000D01*
X133217000Y-94341000D02*
X133299000Y-94639000D01*
X133299000Y-94639000D02*
X133453000Y-95197000D01*
X133367000Y-99344000D02*
X133123000Y-98977000D01*
X133453000Y-95197000D02*
X133791000Y-95650000D01*
X133454000Y-99782000D02*
X133367000Y-99344000D01*
X133454000Y-100004000D02*
X133454000Y-99782000D01*
X133791000Y-95650000D02*
X134270000Y-95949000D01*
X133987000Y-100537000D02*
X133454000Y-100004000D01*
X134270000Y-95949000D02*
X134832000Y-96054000D01*
X134329000Y-100766000D02*
X133987000Y-100537000D01*
X134732000Y-100846000D02*
X134329000Y-100766000D01*
X134832000Y-96054000D02*
X137479000Y-96054000D01*
X137479000Y-96054000D02*
X138500000Y-97075000D01*
X137479000Y-100846000D02*
X134732000Y-100846000D01*
X138416000Y-99909000D02*
X137479000Y-100846000D01*
%TO.C,D14*%
D11*
X88904686Y-91984381D02*
X88904686Y-93571885D01*
X88904686Y-92381257D02*
X90095314Y-92381257D01*
X88904686Y-93571885D02*
X90095314Y-93571885D01*
X89500000Y-91785943D02*
X89500000Y-91984381D01*
X89500000Y-93571885D02*
X89500000Y-93770323D01*
X90095314Y-91984381D02*
X88904686Y-91984381D01*
X90095314Y-93571885D02*
X90095314Y-91984381D01*
%TO.C,D10*%
X69904686Y-74984381D02*
X69904686Y-76571885D01*
X69904686Y-75381257D02*
X71095314Y-75381257D01*
X69904686Y-76571885D02*
X71095314Y-76571885D01*
X70500000Y-74785943D02*
X70500000Y-74984381D01*
X70500000Y-76571885D02*
X70500000Y-76770323D01*
X71095314Y-74984381D02*
X69904686Y-74984381D01*
X71095314Y-76571885D02*
X71095314Y-74984381D01*
%TO.C,SW17*%
D12*
X166354000Y-98854000D02*
X170440000Y-98854000D01*
X166354000Y-99796000D02*
X166354000Y-98854000D01*
X166717000Y-99796000D02*
X166354000Y-99796000D01*
X166719000Y-103109000D02*
X166634000Y-102682000D01*
X166908000Y-103392000D02*
X166719000Y-103109000D01*
X167191000Y-103581000D02*
X166908000Y-103392000D01*
X167518000Y-103646000D02*
X167191000Y-103581000D01*
X170318000Y-103646000D02*
X167518000Y-103646000D01*
X170440000Y-98854000D02*
X170750000Y-98913000D01*
X170750000Y-98913000D02*
X171024000Y-99083000D01*
X170756000Y-103733000D02*
X170318000Y-103646000D01*
X171024000Y-99083000D02*
X171217000Y-99341000D01*
X171123000Y-103977000D02*
X170756000Y-103733000D01*
X171217000Y-99341000D02*
X171299000Y-99639000D01*
X171299000Y-99639000D02*
X171453000Y-100197000D01*
X171367000Y-104344000D02*
X171123000Y-103977000D01*
X171453000Y-100197000D02*
X171791000Y-100650000D01*
X171454000Y-104782000D02*
X171367000Y-104344000D01*
X171454000Y-105004000D02*
X171454000Y-104782000D01*
X171791000Y-100650000D02*
X172270000Y-100949000D01*
X171987000Y-105537000D02*
X171454000Y-105004000D01*
X172270000Y-100949000D02*
X172832000Y-101054000D01*
X172329000Y-105766000D02*
X171987000Y-105537000D01*
X172732000Y-105846000D02*
X172329000Y-105766000D01*
X172832000Y-101054000D02*
X175479000Y-101054000D01*
X175479000Y-101054000D02*
X176500000Y-102075000D01*
X175479000Y-105846000D02*
X172732000Y-105846000D01*
X176416000Y-104909000D02*
X175479000Y-105846000D01*
%TO.C,SW5*%
X71354000Y-59854000D02*
X75440000Y-59854000D01*
X71354000Y-60796000D02*
X71354000Y-59854000D01*
X71717000Y-60796000D02*
X71354000Y-60796000D01*
X71719000Y-64109000D02*
X71634000Y-63682000D01*
X71908000Y-64392000D02*
X71719000Y-64109000D01*
X72191000Y-64581000D02*
X71908000Y-64392000D01*
X72518000Y-64646000D02*
X72191000Y-64581000D01*
X75318000Y-64646000D02*
X72518000Y-64646000D01*
X75440000Y-59854000D02*
X75750000Y-59913000D01*
X75750000Y-59913000D02*
X76024000Y-60083000D01*
X75756000Y-64733000D02*
X75318000Y-64646000D01*
X76024000Y-60083000D02*
X76217000Y-60341000D01*
X76123000Y-64977000D02*
X75756000Y-64733000D01*
X76217000Y-60341000D02*
X76299000Y-60639000D01*
X76299000Y-60639000D02*
X76453000Y-61197000D01*
X76367000Y-65344000D02*
X76123000Y-64977000D01*
X76453000Y-61197000D02*
X76791000Y-61650000D01*
X76454000Y-65782000D02*
X76367000Y-65344000D01*
X76454000Y-66004000D02*
X76454000Y-65782000D01*
X76791000Y-61650000D02*
X77270000Y-61949000D01*
X76987000Y-66537000D02*
X76454000Y-66004000D01*
X77270000Y-61949000D02*
X77832000Y-62054000D01*
X77329000Y-66766000D02*
X76987000Y-66537000D01*
X77732000Y-66846000D02*
X77329000Y-66766000D01*
X77832000Y-62054000D02*
X80479000Y-62054000D01*
X80479000Y-62054000D02*
X81500000Y-63075000D01*
X80479000Y-66846000D02*
X77732000Y-66846000D01*
X81416000Y-65909000D02*
X80479000Y-66846000D01*
%TO.C,SW1*%
X147354000Y-65854000D02*
X151440000Y-65854000D01*
X147354000Y-66796000D02*
X147354000Y-65854000D01*
X147717000Y-66796000D02*
X147354000Y-66796000D01*
X147719000Y-70109000D02*
X147634000Y-69682000D01*
X147908000Y-70392000D02*
X147719000Y-70109000D01*
X148191000Y-70581000D02*
X147908000Y-70392000D01*
X148518000Y-70646000D02*
X148191000Y-70581000D01*
X151318000Y-70646000D02*
X148518000Y-70646000D01*
X151440000Y-65854000D02*
X151750000Y-65913000D01*
X151750000Y-65913000D02*
X152024000Y-66083000D01*
X151756000Y-70733000D02*
X151318000Y-70646000D01*
X152024000Y-66083000D02*
X152217000Y-66341000D01*
X152123000Y-70977000D02*
X151756000Y-70733000D01*
X152217000Y-66341000D02*
X152299000Y-66639000D01*
X152299000Y-66639000D02*
X152453000Y-67197000D01*
X152367000Y-71344000D02*
X152123000Y-70977000D01*
X152453000Y-67197000D02*
X152791000Y-67650000D01*
X152454000Y-71782000D02*
X152367000Y-71344000D01*
X152454000Y-72004000D02*
X152454000Y-71782000D01*
X152791000Y-67650000D02*
X153270000Y-67949000D01*
X152987000Y-72537000D02*
X152454000Y-72004000D01*
X153270000Y-67949000D02*
X153832000Y-68054000D01*
X153329000Y-72766000D02*
X152987000Y-72537000D01*
X153732000Y-72846000D02*
X153329000Y-72766000D01*
X153832000Y-68054000D02*
X156479000Y-68054000D01*
X156479000Y-68054000D02*
X157500000Y-69075000D01*
X156479000Y-72846000D02*
X153732000Y-72846000D01*
X157416000Y-71909000D02*
X156479000Y-72846000D01*
%TO.C,D4*%
D11*
X88904686Y-53984381D02*
X88904686Y-55571885D01*
X88904686Y-54381257D02*
X90095314Y-54381257D01*
X88904686Y-55571885D02*
X90095314Y-55571885D01*
X89500000Y-53785943D02*
X89500000Y-53984381D01*
X89500000Y-55571885D02*
X89500000Y-55770323D01*
X90095314Y-53984381D02*
X88904686Y-53984381D01*
X90095314Y-55571885D02*
X90095314Y-53984381D01*
%TO.C,SW9*%
D12*
X90354000Y-76854000D02*
X94440000Y-76854000D01*
X90354000Y-77796000D02*
X90354000Y-76854000D01*
X90717000Y-77796000D02*
X90354000Y-77796000D01*
X90719000Y-81109000D02*
X90634000Y-80682000D01*
X90908000Y-81392000D02*
X90719000Y-81109000D01*
X91191000Y-81581000D02*
X90908000Y-81392000D01*
X91518000Y-81646000D02*
X91191000Y-81581000D01*
X94318000Y-81646000D02*
X91518000Y-81646000D01*
X94440000Y-76854000D02*
X94750000Y-76913000D01*
X94750000Y-76913000D02*
X95024000Y-77083000D01*
X94756000Y-81733000D02*
X94318000Y-81646000D01*
X95024000Y-77083000D02*
X95217000Y-77341000D01*
X95123000Y-81977000D02*
X94756000Y-81733000D01*
X95217000Y-77341000D02*
X95299000Y-77639000D01*
X95299000Y-77639000D02*
X95453000Y-78197000D01*
X95367000Y-82344000D02*
X95123000Y-81977000D01*
X95453000Y-78197000D02*
X95791000Y-78650000D01*
X95454000Y-82782000D02*
X95367000Y-82344000D01*
X95454000Y-83004000D02*
X95454000Y-82782000D01*
X95791000Y-78650000D02*
X96270000Y-78949000D01*
X95987000Y-83537000D02*
X95454000Y-83004000D01*
X96270000Y-78949000D02*
X96832000Y-79054000D01*
X96329000Y-83766000D02*
X95987000Y-83537000D01*
X96732000Y-83846000D02*
X96329000Y-83766000D01*
X96832000Y-79054000D02*
X99479000Y-79054000D01*
X99479000Y-79054000D02*
X100500000Y-80075000D01*
X99479000Y-83846000D02*
X96732000Y-83846000D01*
X100416000Y-82909000D02*
X99479000Y-83846000D01*
%TO.C,SW2*%
X128354000Y-55854000D02*
X132440000Y-55854000D01*
X128354000Y-56796000D02*
X128354000Y-55854000D01*
X128717000Y-56796000D02*
X128354000Y-56796000D01*
X128719000Y-60109000D02*
X128634000Y-59682000D01*
X128908000Y-60392000D02*
X128719000Y-60109000D01*
X129191000Y-60581000D02*
X128908000Y-60392000D01*
X129518000Y-60646000D02*
X129191000Y-60581000D01*
X132318000Y-60646000D02*
X129518000Y-60646000D01*
X132440000Y-55854000D02*
X132750000Y-55913000D01*
X132750000Y-55913000D02*
X133024000Y-56083000D01*
X132756000Y-60733000D02*
X132318000Y-60646000D01*
X133024000Y-56083000D02*
X133217000Y-56341000D01*
X133123000Y-60977000D02*
X132756000Y-60733000D01*
X133217000Y-56341000D02*
X133299000Y-56639000D01*
X133299000Y-56639000D02*
X133453000Y-57197000D01*
X133367000Y-61344000D02*
X133123000Y-60977000D01*
X133453000Y-57197000D02*
X133791000Y-57650000D01*
X133454000Y-61782000D02*
X133367000Y-61344000D01*
X133454000Y-62004000D02*
X133454000Y-61782000D01*
X133791000Y-57650000D02*
X134270000Y-57949000D01*
X133987000Y-62537000D02*
X133454000Y-62004000D01*
X134270000Y-57949000D02*
X134832000Y-58054000D01*
X134329000Y-62766000D02*
X133987000Y-62537000D01*
X134732000Y-62846000D02*
X134329000Y-62766000D01*
X134832000Y-58054000D02*
X137479000Y-58054000D01*
X137479000Y-58054000D02*
X138500000Y-59075000D01*
X137479000Y-62846000D02*
X134732000Y-62846000D01*
X138416000Y-61909000D02*
X137479000Y-62846000D01*
%TO.C,D19*%
D11*
X46812468Y-114413923D02*
X47407782Y-115445038D01*
X47110125Y-114929481D02*
X46938273Y-115028699D01*
X47407782Y-115445038D02*
X48782602Y-114651285D01*
X47843582Y-113818609D02*
X48438896Y-114849724D01*
X48187286Y-113620171D02*
X46812468Y-114413923D01*
X48656796Y-114036510D02*
X48484945Y-114135728D01*
X48782602Y-114651285D02*
X48187286Y-113620171D01*
%TO.C,SW16*%
D12*
X166354000Y-79854000D02*
X170440000Y-79854000D01*
X166354000Y-80796000D02*
X166354000Y-79854000D01*
X166717000Y-80796000D02*
X166354000Y-80796000D01*
X166719000Y-84109000D02*
X166634000Y-83682000D01*
X166908000Y-84392000D02*
X166719000Y-84109000D01*
X167191000Y-84581000D02*
X166908000Y-84392000D01*
X167518000Y-84646000D02*
X167191000Y-84581000D01*
X170318000Y-84646000D02*
X167518000Y-84646000D01*
X170440000Y-79854000D02*
X170750000Y-79913000D01*
X170750000Y-79913000D02*
X171024000Y-80083000D01*
X170756000Y-84733000D02*
X170318000Y-84646000D01*
X171024000Y-80083000D02*
X171217000Y-80341000D01*
X171123000Y-84977000D02*
X170756000Y-84733000D01*
X171217000Y-80341000D02*
X171299000Y-80639000D01*
X171299000Y-80639000D02*
X171453000Y-81197000D01*
X171367000Y-85344000D02*
X171123000Y-84977000D01*
X171453000Y-81197000D02*
X171791000Y-81650000D01*
X171454000Y-85782000D02*
X171367000Y-85344000D01*
X171454000Y-86004000D02*
X171454000Y-85782000D01*
X171791000Y-81650000D02*
X172270000Y-81949000D01*
X171987000Y-86537000D02*
X171454000Y-86004000D01*
X172270000Y-81949000D02*
X172832000Y-82054000D01*
X172329000Y-86766000D02*
X171987000Y-86537000D01*
X172732000Y-86846000D02*
X172329000Y-86766000D01*
X172832000Y-82054000D02*
X175479000Y-82054000D01*
X175479000Y-82054000D02*
X176500000Y-83075000D01*
X175479000Y-86846000D02*
X172732000Y-86846000D01*
X176416000Y-85909000D02*
X175479000Y-86846000D01*
%TO.C,D16*%
D11*
X164904686Y-75984381D02*
X164904686Y-77571885D01*
X164904686Y-76381257D02*
X166095314Y-76381257D01*
X164904686Y-77571885D02*
X166095314Y-77571885D01*
X165500000Y-75785943D02*
X165500000Y-75984381D01*
X165500000Y-77571885D02*
X165500000Y-77770323D01*
X166095314Y-75984381D02*
X164904686Y-75984381D01*
X166095314Y-77571885D02*
X166095314Y-75984381D01*
%TO.C,SW6*%
D12*
X147354000Y-84854000D02*
X151440000Y-84854000D01*
X147354000Y-85796000D02*
X147354000Y-84854000D01*
X147717000Y-85796000D02*
X147354000Y-85796000D01*
X147719000Y-89109000D02*
X147634000Y-88682000D01*
X147908000Y-89392000D02*
X147719000Y-89109000D01*
X148191000Y-89581000D02*
X147908000Y-89392000D01*
X148518000Y-89646000D02*
X148191000Y-89581000D01*
X151318000Y-89646000D02*
X148518000Y-89646000D01*
X151440000Y-84854000D02*
X151750000Y-84913000D01*
X151750000Y-84913000D02*
X152024000Y-85083000D01*
X151756000Y-89733000D02*
X151318000Y-89646000D01*
X152024000Y-85083000D02*
X152217000Y-85341000D01*
X152123000Y-89977000D02*
X151756000Y-89733000D01*
X152217000Y-85341000D02*
X152299000Y-85639000D01*
X152299000Y-85639000D02*
X152453000Y-86197000D01*
X152367000Y-90344000D02*
X152123000Y-89977000D01*
X152453000Y-86197000D02*
X152791000Y-86650000D01*
X152454000Y-90782000D02*
X152367000Y-90344000D01*
X152454000Y-91004000D02*
X152454000Y-90782000D01*
X152791000Y-86650000D02*
X153270000Y-86949000D01*
X152987000Y-91537000D02*
X152454000Y-91004000D01*
X153270000Y-86949000D02*
X153832000Y-87054000D01*
X153329000Y-91766000D02*
X152987000Y-91537000D01*
X153732000Y-91846000D02*
X153329000Y-91766000D01*
X153832000Y-87054000D02*
X156479000Y-87054000D01*
X156479000Y-87054000D02*
X157500000Y-88075000D01*
X156479000Y-91846000D02*
X153732000Y-91846000D01*
X157416000Y-90909000D02*
X156479000Y-91846000D01*
%TO.C,D1*%
D11*
X145904686Y-57807819D02*
X145904686Y-59395323D01*
X145904686Y-58204695D02*
X147095314Y-58204695D01*
X145904686Y-59395323D02*
X147095314Y-59395323D01*
X146500000Y-57609381D02*
X146500000Y-57807819D01*
X146500000Y-59395323D02*
X146500000Y-59593761D01*
X147095314Y-57807819D02*
X145904686Y-57807819D01*
X147095314Y-59395323D02*
X147095314Y-57807819D01*
%TO.C,SW3*%
D12*
X109354000Y-54854000D02*
X113440000Y-54854000D01*
X109354000Y-55796000D02*
X109354000Y-54854000D01*
X109717000Y-55796000D02*
X109354000Y-55796000D01*
X109719000Y-59109000D02*
X109634000Y-58682000D01*
X109908000Y-59392000D02*
X109719000Y-59109000D01*
X110191000Y-59581000D02*
X109908000Y-59392000D01*
X110518000Y-59646000D02*
X110191000Y-59581000D01*
X113318000Y-59646000D02*
X110518000Y-59646000D01*
X113440000Y-54854000D02*
X113750000Y-54913000D01*
X113750000Y-54913000D02*
X114024000Y-55083000D01*
X113756000Y-59733000D02*
X113318000Y-59646000D01*
X114024000Y-55083000D02*
X114217000Y-55341000D01*
X114123000Y-59977000D02*
X113756000Y-59733000D01*
X114217000Y-55341000D02*
X114299000Y-55639000D01*
X114299000Y-55639000D02*
X114453000Y-56197000D01*
X114367000Y-60344000D02*
X114123000Y-59977000D01*
X114453000Y-56197000D02*
X114791000Y-56650000D01*
X114454000Y-60782000D02*
X114367000Y-60344000D01*
X114454000Y-61004000D02*
X114454000Y-60782000D01*
X114791000Y-56650000D02*
X115270000Y-56949000D01*
X114987000Y-61537000D02*
X114454000Y-61004000D01*
X115270000Y-56949000D02*
X115832000Y-57054000D01*
X115329000Y-61766000D02*
X114987000Y-61537000D01*
X115732000Y-61846000D02*
X115329000Y-61766000D01*
X115832000Y-57054000D02*
X118479000Y-57054000D01*
X118479000Y-57054000D02*
X119500000Y-58075000D01*
X118479000Y-61846000D02*
X115732000Y-61846000D01*
X119416000Y-60909000D02*
X118479000Y-61846000D01*
%TO.C,D17*%
D11*
X164904686Y-94984381D02*
X164904686Y-96571885D01*
X164904686Y-95381257D02*
X166095314Y-95381257D01*
X164904686Y-96571885D02*
X166095314Y-96571885D01*
X165500000Y-94785943D02*
X165500000Y-94984381D01*
X165500000Y-96571885D02*
X165500000Y-96770323D01*
X166095314Y-94984381D02*
X164904686Y-94984381D01*
X166095314Y-96571885D02*
X166095314Y-94984381D01*
%TO.C,SW14*%
D12*
X90354000Y-95854000D02*
X94440000Y-95854000D01*
X90354000Y-96796000D02*
X90354000Y-95854000D01*
X90717000Y-96796000D02*
X90354000Y-96796000D01*
X90719000Y-100109000D02*
X90634000Y-99682000D01*
X90908000Y-100392000D02*
X90719000Y-100109000D01*
X91191000Y-100581000D02*
X90908000Y-100392000D01*
X91518000Y-100646000D02*
X91191000Y-100581000D01*
X94318000Y-100646000D02*
X91518000Y-100646000D01*
X94440000Y-95854000D02*
X94750000Y-95913000D01*
X94750000Y-95913000D02*
X95024000Y-96083000D01*
X94756000Y-100733000D02*
X94318000Y-100646000D01*
X95024000Y-96083000D02*
X95217000Y-96341000D01*
X95123000Y-100977000D02*
X94756000Y-100733000D01*
X95217000Y-96341000D02*
X95299000Y-96639000D01*
X95299000Y-96639000D02*
X95453000Y-97197000D01*
X95367000Y-101344000D02*
X95123000Y-100977000D01*
X95453000Y-97197000D02*
X95791000Y-97650000D01*
X95454000Y-101782000D02*
X95367000Y-101344000D01*
X95454000Y-102004000D02*
X95454000Y-101782000D01*
X95791000Y-97650000D02*
X96270000Y-97949000D01*
X95987000Y-102537000D02*
X95454000Y-102004000D01*
X96270000Y-97949000D02*
X96832000Y-98054000D01*
X96329000Y-102766000D02*
X95987000Y-102537000D01*
X96732000Y-102846000D02*
X96329000Y-102766000D01*
X96832000Y-98054000D02*
X99479000Y-98054000D01*
X99479000Y-98054000D02*
X100500000Y-99075000D01*
X99479000Y-102846000D02*
X96732000Y-102846000D01*
X100416000Y-101909000D02*
X99479000Y-102846000D01*
%TO.C,D5*%
D11*
X69904686Y-55984381D02*
X69904686Y-57571885D01*
X69904686Y-56381257D02*
X71095314Y-56381257D01*
X69904686Y-57571885D02*
X71095314Y-57571885D01*
X70500000Y-55785943D02*
X70500000Y-55984381D01*
X70500000Y-57571885D02*
X70500000Y-57770323D01*
X71095314Y-55984381D02*
X69904686Y-55984381D01*
X71095314Y-57571885D02*
X71095314Y-55984381D01*
%TO.C,SW10*%
D12*
X71354000Y-78854000D02*
X75440000Y-78854000D01*
X71354000Y-79796000D02*
X71354000Y-78854000D01*
X71717000Y-79796000D02*
X71354000Y-79796000D01*
X71719000Y-83109000D02*
X71634000Y-82682000D01*
X71908000Y-83392000D02*
X71719000Y-83109000D01*
X72191000Y-83581000D02*
X71908000Y-83392000D01*
X72518000Y-83646000D02*
X72191000Y-83581000D01*
X75318000Y-83646000D02*
X72518000Y-83646000D01*
X75440000Y-78854000D02*
X75750000Y-78913000D01*
X75750000Y-78913000D02*
X76024000Y-79083000D01*
X75756000Y-83733000D02*
X75318000Y-83646000D01*
X76024000Y-79083000D02*
X76217000Y-79341000D01*
X76123000Y-83977000D02*
X75756000Y-83733000D01*
X76217000Y-79341000D02*
X76299000Y-79639000D01*
X76299000Y-79639000D02*
X76453000Y-80197000D01*
X76367000Y-84344000D02*
X76123000Y-83977000D01*
X76453000Y-80197000D02*
X76791000Y-80650000D01*
X76454000Y-84782000D02*
X76367000Y-84344000D01*
X76454000Y-85004000D02*
X76454000Y-84782000D01*
X76791000Y-80650000D02*
X77270000Y-80949000D01*
X76987000Y-85537000D02*
X76454000Y-85004000D01*
X77270000Y-80949000D02*
X77832000Y-81054000D01*
X77329000Y-85766000D02*
X76987000Y-85537000D01*
X77732000Y-85846000D02*
X77329000Y-85766000D01*
X77832000Y-81054000D02*
X80479000Y-81054000D01*
X80479000Y-81054000D02*
X81500000Y-82075000D01*
X80479000Y-85846000D02*
X77732000Y-85846000D01*
X81416000Y-84909000D02*
X80479000Y-85846000D01*
%TO.C,SW18*%
X61964972Y-120786794D02*
X65911745Y-119729259D01*
X62208780Y-121696696D02*
X61964972Y-120786794D01*
X62559411Y-121602745D02*
X62208780Y-121696696D01*
X63418810Y-124802339D02*
X63226191Y-124411889D01*
X63674616Y-125026780D02*
X63418810Y-124802339D01*
X63996890Y-125136094D02*
X63674616Y-125026780D01*
X64329571Y-125114245D02*
X63996890Y-125136094D01*
X65911745Y-119729259D02*
X66226452Y-119706015D01*
X66226452Y-119706015D02*
X66535115Y-119799306D01*
X66535115Y-119799306D02*
X66788314Y-119998563D01*
X66788314Y-119998563D02*
X66944648Y-120265186D01*
X66944648Y-120265186D02*
X67237822Y-120764314D01*
X67034163Y-124389552D02*
X64329571Y-125114245D01*
X67237822Y-120764314D02*
X67681550Y-121114398D01*
X67479756Y-124360225D02*
X67034163Y-124389552D01*
X67681550Y-121114398D02*
X68221615Y-121279235D01*
X67897402Y-124500924D02*
X67479756Y-124360225D01*
X68221615Y-121279235D02*
X68791642Y-121235201D01*
X68228075Y-124792267D02*
X67897402Y-124500924D01*
X68425473Y-125192825D02*
X68228075Y-124792267D01*
X68482931Y-125407261D02*
X68425473Y-125192825D01*
X68791642Y-121235201D02*
X71348447Y-120550107D01*
X69135720Y-125784149D02*
X68482931Y-125407261D01*
X69525336Y-125916830D02*
X69135720Y-125784149D01*
X69935310Y-125889799D02*
X69525336Y-125916830D01*
X71348447Y-120550107D02*
X72598912Y-121272063D01*
X72588708Y-125178824D02*
X69935310Y-125889799D01*
X73251267Y-124031238D02*
X72588708Y-125178824D01*
%TO.C,D7*%
D11*
X126904686Y-70984381D02*
X126904686Y-72571885D01*
X126904686Y-71381257D02*
X128095314Y-71381257D01*
X126904686Y-72571885D02*
X128095314Y-72571885D01*
X127500000Y-70785943D02*
X127500000Y-70984381D01*
X127500000Y-72571885D02*
X127500000Y-72770323D01*
X128095314Y-70984381D02*
X126904686Y-70984381D01*
X128095314Y-72571885D02*
X128095314Y-70984381D01*
%TO.C,SW4*%
D12*
X90354000Y-57854000D02*
X94440000Y-57854000D01*
X90354000Y-58796000D02*
X90354000Y-57854000D01*
X90717000Y-58796000D02*
X90354000Y-58796000D01*
X90719000Y-62109000D02*
X90634000Y-61682000D01*
X90908000Y-62392000D02*
X90719000Y-62109000D01*
X91191000Y-62581000D02*
X90908000Y-62392000D01*
X91518000Y-62646000D02*
X91191000Y-62581000D01*
X94318000Y-62646000D02*
X91518000Y-62646000D01*
X94440000Y-57854000D02*
X94750000Y-57913000D01*
X94750000Y-57913000D02*
X95024000Y-58083000D01*
X94756000Y-62733000D02*
X94318000Y-62646000D01*
X95024000Y-58083000D02*
X95217000Y-58341000D01*
X95123000Y-62977000D02*
X94756000Y-62733000D01*
X95217000Y-58341000D02*
X95299000Y-58639000D01*
X95299000Y-58639000D02*
X95453000Y-59197000D01*
X95367000Y-63344000D02*
X95123000Y-62977000D01*
X95453000Y-59197000D02*
X95791000Y-59650000D01*
X95454000Y-63782000D02*
X95367000Y-63344000D01*
X95454000Y-64004000D02*
X95454000Y-63782000D01*
X95791000Y-59650000D02*
X96270000Y-59949000D01*
X95987000Y-64537000D02*
X95454000Y-64004000D01*
X96270000Y-59949000D02*
X96832000Y-60054000D01*
X96329000Y-64766000D02*
X95987000Y-64537000D01*
X96732000Y-64846000D02*
X96329000Y-64766000D01*
X96832000Y-60054000D02*
X99479000Y-60054000D01*
X99479000Y-60054000D02*
X100500000Y-61075000D01*
X99479000Y-64846000D02*
X96732000Y-64846000D01*
X100416000Y-63909000D02*
X99479000Y-64846000D01*
%TO.C,SW13*%
X109354000Y-92854000D02*
X113440000Y-92854000D01*
X109354000Y-93796000D02*
X109354000Y-92854000D01*
X109717000Y-93796000D02*
X109354000Y-93796000D01*
X109719000Y-97109000D02*
X109634000Y-96682000D01*
X109908000Y-97392000D02*
X109719000Y-97109000D01*
X110191000Y-97581000D02*
X109908000Y-97392000D01*
X110518000Y-97646000D02*
X110191000Y-97581000D01*
X113318000Y-97646000D02*
X110518000Y-97646000D01*
X113440000Y-92854000D02*
X113750000Y-92913000D01*
X113750000Y-92913000D02*
X114024000Y-93083000D01*
X113756000Y-97733000D02*
X113318000Y-97646000D01*
X114024000Y-93083000D02*
X114217000Y-93341000D01*
X114123000Y-97977000D02*
X113756000Y-97733000D01*
X114217000Y-93341000D02*
X114299000Y-93639000D01*
X114299000Y-93639000D02*
X114453000Y-94197000D01*
X114367000Y-98344000D02*
X114123000Y-97977000D01*
X114453000Y-94197000D02*
X114791000Y-94650000D01*
X114454000Y-98782000D02*
X114367000Y-98344000D01*
X114454000Y-99004000D02*
X114454000Y-98782000D01*
X114791000Y-94650000D02*
X115270000Y-94949000D01*
X114987000Y-99537000D02*
X114454000Y-99004000D01*
X115270000Y-94949000D02*
X115832000Y-95054000D01*
X115329000Y-99766000D02*
X114987000Y-99537000D01*
X115732000Y-99846000D02*
X115329000Y-99766000D01*
X115832000Y-95054000D02*
X118479000Y-95054000D01*
X118479000Y-95054000D02*
X119500000Y-96075000D01*
X118479000Y-99846000D02*
X115732000Y-99846000D01*
X119416000Y-98909000D02*
X118479000Y-99846000D01*
%TO.C,SW19*%
X40829200Y-120643733D02*
X40851378Y-120304148D01*
X40851378Y-120304148D02*
X41001964Y-119998969D01*
X40936408Y-120959423D02*
X40829200Y-120643733D01*
X41001964Y-119998969D02*
X41329256Y-119711857D01*
X41505934Y-126185872D02*
X41533254Y-125775191D01*
X41533254Y-125775191D02*
X41728345Y-125047099D01*
X41638152Y-126574880D02*
X41505934Y-126185872D01*
X41728345Y-125047099D02*
X41920603Y-124936099D01*
X41920603Y-124936099D02*
X42256422Y-124641755D01*
X42256422Y-124641755D02*
X42452253Y-124246945D01*
X42336408Y-123384294D02*
X40936408Y-120959423D01*
X42452253Y-124246945D02*
X42480064Y-123807114D01*
X42480064Y-123807114D02*
X42336408Y-123384294D01*
X43011652Y-128953852D02*
X41638152Y-126574880D01*
X43688606Y-118026370D02*
X44504402Y-117555370D01*
X43870106Y-118340737D02*
X43688606Y-118026370D01*
X44291618Y-129296817D02*
X43011652Y-128953852D01*
X44504402Y-117555370D02*
X46547402Y-121093950D01*
X45648078Y-123726276D02*
X45838146Y-124265482D01*
X45667520Y-123161950D02*
X45648078Y-123726276D01*
X45838146Y-124265482D02*
X47161646Y-126557852D01*
X45890829Y-122642733D02*
X45667520Y-123161950D01*
X46297072Y-122230365D02*
X45890829Y-122642733D01*
X46514147Y-122010351D02*
X46297072Y-122230365D01*
X46547402Y-121093950D02*
X46651306Y-121391917D01*
X46641082Y-121714208D02*
X46514147Y-122010351D01*
X46651306Y-121391917D02*
X46641082Y-121714208D01*
X47161646Y-126557852D02*
X46787934Y-127952564D01*
%TO.C,D9*%
D11*
X88904686Y-72984381D02*
X88904686Y-74571885D01*
X88904686Y-73381257D02*
X90095314Y-73381257D01*
X88904686Y-74571885D02*
X90095314Y-74571885D01*
X89500000Y-72785943D02*
X89500000Y-72984381D01*
X89500000Y-74571885D02*
X89500000Y-74770323D01*
X90095314Y-72984381D02*
X88904686Y-72984381D01*
X90095314Y-74571885D02*
X90095314Y-72984381D01*
%TO.C,SW7*%
D12*
X128354000Y-74854000D02*
X132440000Y-74854000D01*
X128354000Y-75796000D02*
X128354000Y-74854000D01*
X128717000Y-75796000D02*
X128354000Y-75796000D01*
X128719000Y-79109000D02*
X128634000Y-78682000D01*
X128908000Y-79392000D02*
X128719000Y-79109000D01*
X129191000Y-79581000D02*
X128908000Y-79392000D01*
X129518000Y-79646000D02*
X129191000Y-79581000D01*
X132318000Y-79646000D02*
X129518000Y-79646000D01*
X132440000Y-74854000D02*
X132750000Y-74913000D01*
X132750000Y-74913000D02*
X133024000Y-75083000D01*
X132756000Y-79733000D02*
X132318000Y-79646000D01*
X133024000Y-75083000D02*
X133217000Y-75341000D01*
X133123000Y-79977000D02*
X132756000Y-79733000D01*
X133217000Y-75341000D02*
X133299000Y-75639000D01*
X133299000Y-75639000D02*
X133453000Y-76197000D01*
X133367000Y-80344000D02*
X133123000Y-79977000D01*
X133453000Y-76197000D02*
X133791000Y-76650000D01*
X133454000Y-80782000D02*
X133367000Y-80344000D01*
X133454000Y-81004000D02*
X133454000Y-80782000D01*
X133791000Y-76650000D02*
X134270000Y-76949000D01*
X133987000Y-81537000D02*
X133454000Y-81004000D01*
X134270000Y-76949000D02*
X134832000Y-77054000D01*
X134329000Y-81766000D02*
X133987000Y-81537000D01*
X134732000Y-81846000D02*
X134329000Y-81766000D01*
X134832000Y-77054000D02*
X137479000Y-77054000D01*
X137479000Y-77054000D02*
X138500000Y-78075000D01*
X137479000Y-81846000D02*
X134732000Y-81846000D01*
X138416000Y-80909000D02*
X137479000Y-81846000D01*
%TO.C,D15*%
D11*
X69904686Y-93984381D02*
X69904686Y-95571885D01*
X69904686Y-94381257D02*
X71095314Y-94381257D01*
X69904686Y-95571885D02*
X71095314Y-95571885D01*
X70500000Y-93785943D02*
X70500000Y-93984381D01*
X70500000Y-95571885D02*
X70500000Y-95770323D01*
X71095314Y-93984381D02*
X69904686Y-93984381D01*
X71095314Y-95571885D02*
X71095314Y-93984381D01*
%TO.C,D6*%
X145904686Y-80984381D02*
X145904686Y-82571885D01*
X145904686Y-81381257D02*
X147095314Y-81381257D01*
X145904686Y-82571885D02*
X147095314Y-82571885D01*
X146500000Y-80785943D02*
X146500000Y-80984381D01*
X146500000Y-82571885D02*
X146500000Y-82770323D01*
X147095314Y-80984381D02*
X145904686Y-80984381D01*
X147095314Y-82571885D02*
X147095314Y-80984381D01*
%TO.C,D2*%
X126904686Y-51984381D02*
X126904686Y-53571885D01*
X126904686Y-52381257D02*
X128095314Y-52381257D01*
X126904686Y-53571885D02*
X128095314Y-53571885D01*
X127500000Y-51785943D02*
X127500000Y-51984381D01*
X127500000Y-53571885D02*
X127500000Y-53770323D01*
X128095314Y-51984381D02*
X126904686Y-51984381D01*
X128095314Y-53571885D02*
X128095314Y-51984381D01*
%TO.C,SW15*%
D12*
X71354000Y-97854000D02*
X75440000Y-97854000D01*
X71354000Y-98796000D02*
X71354000Y-97854000D01*
X71717000Y-98796000D02*
X71354000Y-98796000D01*
X71719000Y-102109000D02*
X71634000Y-101682000D01*
X71908000Y-102392000D02*
X71719000Y-102109000D01*
X72191000Y-102581000D02*
X71908000Y-102392000D01*
X72518000Y-102646000D02*
X72191000Y-102581000D01*
X75318000Y-102646000D02*
X72518000Y-102646000D01*
X75440000Y-97854000D02*
X75750000Y-97913000D01*
X75750000Y-97913000D02*
X76024000Y-98083000D01*
X75756000Y-102733000D02*
X75318000Y-102646000D01*
X76024000Y-98083000D02*
X76217000Y-98341000D01*
X76123000Y-102977000D02*
X75756000Y-102733000D01*
X76217000Y-98341000D02*
X76299000Y-98639000D01*
X76299000Y-98639000D02*
X76453000Y-99197000D01*
X76367000Y-103344000D02*
X76123000Y-102977000D01*
X76453000Y-99197000D02*
X76791000Y-99650000D01*
X76454000Y-103782000D02*
X76367000Y-103344000D01*
X76454000Y-104004000D02*
X76454000Y-103782000D01*
X76791000Y-99650000D02*
X77270000Y-99949000D01*
X76987000Y-104537000D02*
X76454000Y-104004000D01*
X77270000Y-99949000D02*
X77832000Y-100054000D01*
X77329000Y-104766000D02*
X76987000Y-104537000D01*
X77732000Y-104846000D02*
X77329000Y-104766000D01*
X77832000Y-100054000D02*
X80479000Y-100054000D01*
X80479000Y-100054000D02*
X81500000Y-101075000D01*
X80479000Y-104846000D02*
X77732000Y-104846000D01*
X81416000Y-103909000D02*
X80479000Y-104846000D01*
%TO.C,J1*%
X53440000Y-68415000D02*
X54360000Y-68415000D01*
X53440000Y-70015000D02*
X54360000Y-70015000D01*
X53440000Y-76235000D02*
X53440000Y-68415000D01*
X54360000Y-68415000D02*
X54360000Y-70015000D01*
X54360000Y-70015000D02*
X54640000Y-70015000D01*
X56000000Y-71875000D02*
X56000000Y-76235000D01*
X57000000Y-71875000D02*
X56000000Y-71875000D01*
X57000000Y-76235000D02*
X57000000Y-71875000D01*
X57800000Y-73975000D02*
X57800000Y-76235000D01*
X58300000Y-73975000D02*
X58300000Y-76235000D01*
X58360000Y-70015000D02*
X58360000Y-68800000D01*
X58360000Y-70015000D02*
X58640000Y-70015000D01*
X58640000Y-68415000D02*
X59560000Y-68415000D01*
X58640000Y-70015000D02*
X58640000Y-68415000D01*
X59560000Y-68415000D02*
X59560000Y-76235000D01*
X59560000Y-70015000D02*
X58640000Y-70015000D01*
X59560000Y-76235000D02*
X53440000Y-76235000D01*
X54200000Y-72375000D02*
X55200000Y-72375000D01*
X55200000Y-73975000D01*
X54200000Y-73975000D01*
X54200000Y-72375000D01*
X57800000Y-72375000D02*
X58800000Y-72375000D01*
X58800000Y-73975000D01*
X57800000Y-73975000D01*
X57800000Y-72375000D01*
%TO.C,SW22*%
X47270000Y-83700000D02*
X47270000Y-82800000D01*
X47480000Y-82600000D02*
X47270000Y-82800000D01*
X47480000Y-82600000D02*
X48770000Y-82600000D01*
X47480000Y-83900000D02*
X47270000Y-83700000D01*
X48770000Y-83900000D02*
X47480000Y-83900000D01*
X48770000Y-85350000D02*
X48770000Y-79650000D01*
X49780000Y-79050000D02*
X50570000Y-79050000D01*
X50570000Y-85950000D02*
X49780000Y-85950000D01*
X51620000Y-81100000D02*
X51620000Y-80900000D01*
X51620000Y-84100000D02*
X51620000Y-82400000D01*
%TD*%
M02*
