M48
; DRILL file KiCad 10.0.1 date 2026-07-22T17:23:02
; FORMAT={-:-/ absolute / metric / decimal}
; #@! TF.CreationDate,2026-07-22T17:23:02+09:00
; #@! TF.GenerationSoftware,Kicad,Pcbnew,10.0.1
; #@! TF.FileFunction,NonPlated,1,2,NPTH
FMAT,2
METRIC
; #@! TA.AperFunction,NonPlated,NPTH,ComponentDrill
T1C0.900
; #@! TA.AperFunction,NonPlated,NPTH,ComponentDrill
T2C1.600
; #@! TA.AperFunction,NonPlated,NPTH,ComponentDrill
T3C1.900
; #@! TA.AperFunction,NonPlated,NPTH,ComponentDrill
T4C3.050
; #@! TA.AperFunction,NonPlated,NPTH,ComponentDrill
T5C4.300
; #@! TA.AperFunction,NonPlated,NPTH,ComponentDrill
T6C5.050
%
G90
G05
T1
X51.17Y-81.0
X51.17Y-84.0
T2
X56.96Y-122.755
X72.497Y-109.231
X85.0Y-55.35
X85.0Y-72.35
X85.0Y-89.35
X103.0Y-53.35
X103.0Y-70.35
X103.0Y-87.35
X121.0Y-50.35
X121.0Y-67.35
X121.0Y-84.35
X139.0Y-51.35
X139.0Y-68.35
X139.0Y-85.35
X157.0Y-61.35
X157.0Y-78.35
X157.0Y-95.35
X175.0Y-74.35
X175.0Y-91.35
T3
X47.25Y-116.237
X52.75Y-125.763
X63.687Y-116.924
X74.313Y-114.076
X74.5Y-60.5
X74.5Y-77.5
X74.5Y-94.5
X85.5Y-60.5
X85.5Y-77.5
X85.5Y-94.5
X92.5Y-58.5
X92.5Y-75.5
X92.5Y-92.5
X103.5Y-58.5
X103.5Y-75.5
X103.5Y-92.5
X110.5Y-55.5
X110.5Y-72.5
X110.5Y-89.5
X121.5Y-55.5
X121.5Y-72.5
X121.5Y-89.5
X128.5Y-56.5
X128.5Y-73.5
X128.5Y-90.5
X139.5Y-56.5
X139.5Y-73.5
X139.5Y-90.5
X146.5Y-66.5
X146.5Y-83.5
X146.5Y-100.5
X157.5Y-66.5
X157.5Y-83.5
X157.5Y-100.5
X164.5Y-79.5
X164.5Y-96.5
X175.5Y-79.5
X175.5Y-96.5
T4
X44.209Y-118.57
X44.89Y-123.95
X65.154Y-120.465
X70.527Y-121.199
X75.0Y-64.3
X75.0Y-81.3
X75.0Y-98.3
X80.0Y-66.4
X80.0Y-83.4
X80.0Y-100.4
X93.0Y-62.3
X93.0Y-79.3
X93.0Y-96.3
X98.0Y-64.4
X98.0Y-81.4
X98.0Y-98.4
X111.0Y-59.3
X111.0Y-76.3
X111.0Y-93.3
X116.0Y-61.4
X116.0Y-78.4
X116.0Y-95.4
X129.0Y-60.3
X129.0Y-77.3
X129.0Y-94.3
X134.0Y-62.4
X134.0Y-79.4
X134.0Y-96.4
X147.0Y-70.3
X147.0Y-87.3
X147.0Y-104.3
X152.0Y-72.4
X152.0Y-89.4
X152.0Y-106.4
X165.0Y-83.3
X165.0Y-100.3
X170.0Y-85.4
X170.0Y-102.4
T5
X58.0Y-107.5
X88.0Y-50.75
X145.5Y-50.5
X163.5Y-107.5
T6
X50.0Y-121.0
X69.0Y-115.5
X80.0Y-60.5
X80.0Y-77.5
X80.0Y-94.5
X98.0Y-58.5
X98.0Y-75.5
X98.0Y-92.5
X116.0Y-55.5
X116.0Y-72.5
X116.0Y-89.5
X134.0Y-56.5
X134.0Y-73.5
X134.0Y-90.5
X152.0Y-66.5
X152.0Y-83.5
X152.0Y-100.5
X170.0Y-79.5
X170.0Y-96.5
M30
